<?xml version="1.0" standalone="no"?>
<!DOCTYPE svg PUBLIC "-//W3C//DTD SVG 20010904//EN"
 "http://www.w3.org/TR/2001/REC-SVG-20010904/DTD/svg10.dtd">
<svg version="1.0" xmlns="http://www.w3.org/2000/svg"
 width="143.000000pt" height="178.000000pt" viewBox="0 0 143.000000 178.000000"
 preserveAspectRatio="xMidYMid meet">

<g transform="translate(0.000000,178.000000) scale(0.100000,-0.100000)"
fill="#000000" stroke="none">
<path d="M0 1174 c1 -407 4 -613 11 -627 8 -14 8 -18 0 -13 -8 5 -11 -69 -11
-263 l0 -271 207 0 206 0 -19 23 -19 22 26 -22 25 -23 502 0 502 0 0 890 0
890 -715 0 -715 0 0 -606z m475 509 c-22 -20 -55 -53 -73 -72 -20 -22 -29 -28
-23 -14 6 11 37 44 68 72 66 58 88 69 28 14z m452 -6 c18 -13 43 -37 55 -53
15 -20 6 -14 -27 16 -28 25 -61 53 -75 63 -14 10 -17 14 -5 8 11 -5 35 -20 52
-34z m100 -149 c-3 -8 -6 -5 -6 6 -1 11 2 17 5 13 3 -3 4 -12 1 -19z m10 -90
c-2 -13 -4 -5 -4 17 -1 22 1 32 4 23 2 -10 2 -28 0 -40z m-220 -10 c-2 -13 -4
-5 -4 17 -1 22 1 32 4 23 2 -10 2 -28 0 -40z m-340 -65 c-3 -10 -5 -4 -5 12 0
17 2 24 5 18 2 -7 2 -21 0 -30z m550 5 c-3 -8 -6 -5 -6 6 -1 11 2 17 5 13 3
-3 4 -12 1 -19z m-830 -10 c-3 -8 -6 -5 -6 6 -1 11 2 17 5 13 3 -3 4 -12 1
-19z m603 -37 c-6 -12 -15 -21 -20 -21 -12 0 -40 29 -40 43 0 6 7 1 16 -11 20
-29 32 -28 41 5 3 16 8 23 10 16 3 -7 -1 -21 -7 -32z m181 1 c15 3 26 1 23 -4
-14 -23 -84 7 -84 36 0 6 7 0 16 -13 12 -17 24 -22 45 -19z m-331 15 c0 -7 -7
-22 -15 -33 -13 -17 -13 -16 -3 14 13 34 18 40 18 19z m-51 -27 c11 -24 11
-24 -3 -6 -9 11 -16 24 -16 30 0 12 5 7 19 -24z m-215 -15 l17 -30 -20 24
c-12 13 -21 28 -21 34 0 12 0 11 24 -28z m86 22 c0 -7 -7 -22 -15 -33 -13 -17
-13 -16 -3 14 13 34 18 40 18 19z m-330 -151 c0 -2 -8 -10 -17 -17 -16 -13
-17 -12 -4 4 13 16 21 21 21 13z m647 -12 c-3 -3 -12 -4 -19 -1 -8 3 -5 6 6 6
11 1 17 -2 13 -5z m47 -10 c9 -3 16 -10 16 -15 0 -10 -73 -49 -92 -49 -7 0 9
11 37 23 46 21 48 24 30 35 -22 12 -16 16 9 6z m-250 -20 c3 -8 2 -12 -4 -9
-6 3 -10 10 -10 16 0 14 7 11 14 -7z m684 -1 c-15 -2 -35 -14 -43 -26 -8 -12
-15 -16 -15 -10 0 21 31 43 58 42 l27 -2 -27 -4z m-1095 -10 c-7 -2 -19 -2
-25 0 -7 3 -2 5 12 5 14 0 19 -2 13 -5z m35 -34 c-3 -8 -7 -3 -11 10 -4 17 -3
21 5 13 5 -5 8 -16 6 -23z m447 11 c13 -6 15 -9 5 -9 -8 0 -22 4 -30 9 -18 12
-2 12 25 0z m366 -17 c12 -16 12 -17 -1 -7 -8 7 -24 14 -35 17 -19 4 -19 5 1
6 12 0 28 -7 35 -16z m-87 -11 c-12 -9 -26 -26 -32 -37 -6 -11 -12 -14 -12 -7
0 14 44 62 57 62 4 0 -2 -8 -13 -18z m-581 -17 c-3 -9 -8 -14 -10 -11 -3 3 -2
9 2 15 9 16 15 13 8 -4z m662 -5 c-3 -5 -16 -15 -28 -21 -19 -9 -19 -8 3 10
28 23 34 26 25 11z m-489 -45 c3 -13 4 -30 1 -37 -3 -7 -6 -2 -6 11 -1 14 -11
36 -23 49 l-23 25 22 -12 c13 -6 26 -23 29 -36z m694 11 l25 -29 -27 19 c-15
10 -28 25 -28 33 0 8 1 12 3 10 1 -2 13 -17 27 -33z m-820 -23 c0 -7 -39 17
-46 28 -3 6 5 3 20 -6 14 -10 26 -19 26 -22z m-175 17 c-3 -5 -20 -19 -38 -30
l-32 -22 35 31 c35 32 46 38 35 21z m522 -34 c-4 -9 -17 -16 -29 -15 l-23 0
24 10 c16 6 21 14 16 27 -5 13 -3 14 6 5 6 -6 9 -19 6 -27z m186 27 c-7 -2
-19 -2 -25 0 -7 3 -2 5 12 5 14 0 19 -2 13 -5z m347 -38 c13 -14 21 -25 18
-25 -2 0 -15 11 -28 25 -13 14 -21 25 -18 25 2 0 15 -11 28 -25z m-155 -21
c-52 -27 -66 -44 -54 -68 10 -21 10 -21 -6 -1 -15 19 -14 22 21 53 21 17 44
32 53 32 9 0 3 -7 -14 -16z m103 -55 c26 -37 8 -26 -33 20 -32 37 -34 41 -11
23 16 -13 36 -32 44 -43z m-1098 48 c0 -2 -15 -16 -32 -33 l-33 -29 29 33 c28
30 36 37 36 29z m171 -14 c13 -17 13 -17 -6 -3 -11 8 -22 16 -24 17 -2 2 0 3
6 3 6 0 17 -8 24 -17z m-97 -54 c-19 -28 -34 -56 -34 -62 0 -6 -3 -8 -6 -5 -7
8 23 67 49 96 31 33 29 27 -9 -29z m155 -10 c-5 -10 -12 -19 -15 -19 -3 0 -1
8 4 17 7 12 4 21 -12 35 -21 19 -21 19 6 3 23 -14 26 -20 17 -36z m900 -49 c0
-10 -3 -8 -9 5 -12 27 -12 43 0 25 5 -8 9 -22 9 -30z m-273 -12 l19 -23 -22
19 c-12 10 -29 16 -38 12 -9 -3 -13 -2 -10 4 10 16 31 11 51 -12z m-516 9 c0
-2 -15 -16 -32 -33 l-33 -29 29 33 c28 30 36 37 36 29z m50 -37 c-6 -11 -13
-20 -16 -20 -2 0 0 9 6 20 6 11 13 20 16 20 2 0 0 -9 -6 -20z m747 -62 c-2
-18 -4 -6 -4 27 0 33 2 48 4 33 2 -15 2 -42 0 -60z m-237 18 c0 -12 -5 -7 -19
24 -11 24 -11 24 3 6 9 -11 16 -24 16 -30z m-440 27 c-8 -3 -22 -11 -30 -17
-13 -10 -13 -9 -1 7 7 9 21 17 30 16 13 0 14 -1 1 -6z m297 -45 c-3 -7 -5 -2
-5 12 0 14 2 19 5 13 2 -7 2 -19 0 -25z m-7 -26 c0 -5 -7 -17 -15 -28 -14 -18
-14 -17 -4 9 12 27 19 34 19 19z m-321 -72 c11 -24 11 -24 -3 -6 -9 11 -16 24
-16 30 0 12 5 7 19 -24z m488 8 c-3 -8 -6 -5 -6 6 -1 11 2 17 5 13 3 -3 4 -12
1 -19z m-570 -20 c-3 -8 -6 -5 -6 6 -1 11 2 17 5 13 3 -3 4 -12 1 -19z m528
-142 c-10 -20 -21 -39 -26 -42 -5 -3 1 15 13 40 12 25 24 44 26 42 2 -3 -4
-21 -13 -40z m-35 -59 c0 -2 -17 -19 -37 -38 l-38 -34 34 38 c33 34 41 42 41
34z m-495 -57 c10 -11 16 -20 13 -20 -3 0 -13 9 -23 20 -10 11 -16 20 -13 20
3 0 13 -9 23 -20z m636 -103 c-10 -9 -11 -8 -5 6 3 10 9 15 12 12 3 -3 0 -11
-7 -18z m-155 -101 c3 -14 4 -33 1 -43 -3 -11 -5 -6 -6 13 0 16 -6 35 -13 42
-9 9 -9 12 0 12 6 0 14 -11 18 -24z m113 -20 c-3 -3 -11 5 -18 17 -13 21 -12
21 5 5 10 -10 16 -20 13 -22z m-709 20 c0 -2 -8 -10 -17 -17 -16 -13 -17 -12
-4 4 13 16 21 21 21 13z m93 -11 c-3 -9 -8 -14 -10 -11 -3 3 -2 9 2 15 9 16
15 13 8 -4z"/>
</g>
</svg>
