<?xml version="1.0" encoding="UTF-8"?>
<svg width="68px" height="35px" viewBox="0 0 68 35" version="1.1" xmlns="http://www.w3.org/2000/svg" xmlns:xlink="http://www.w3.org/1999/xlink">
    <!-- Generator: Sketch 41.1 (35376) - http://www.bohemiancoding.com/sketch -->
    <title>Fill 1</title>
    <desc>Created with Sketch.</desc>
    <defs></defs>
    <g id="Symbols" stroke="none" stroke-width="1" fill="none" fill-rule="evenodd">
        <g id="footer2" transform="translate(-902.000000, -526.000000)" fill="#FFFFFF">
            <g id="Group-9">
                <g id="Page-1" transform="translate(902.000000, 526.000000)">
                    <path d="M1.14457031,18.4524987 L64.3395523,18.4524987 L49.8692398,32.9206026 C49.4558023,33.3286026 49.4558023,33.9935896 49.8692398,34.404239 C50.2773768,34.8148883 50.9452374,34.8148883 51.3533744,34.404239 L67.6205499,18.145174 C67.6285006,18.1345766 67.6364513,18.1239792 67.6470523,18.1133818 C67.6682542,18.092187 67.6868059,18.0683429 67.7053576,18.0444987 C67.7186088,18.0259532 67.7345102,18.0074078 67.7451112,17.9888623 C67.7610126,17.9650182 67.7769141,17.941174 67.7901653,17.9146805 C67.8034165,17.8961351 67.8140174,17.8722909 67.8246184,17.8510961 C67.8325691,17.8352 67.8405198,17.8219532 67.8484706,17.8034078 C67.8511208,17.7954597 67.853771,17.7848623 67.8564213,17.7769143 C67.8670222,17.7530701 67.8723227,17.729226 67.8802734,17.7053818 C67.8882242,17.6788883 67.8961749,17.6550442 67.9014754,17.6285506 C67.9067758,17.6047065 67.9094261,17.5808623 67.9120763,17.5570182 C67.9173768,17.5305247 67.920027,17.5040312 67.9226773,17.4775377 C67.9253275,17.4536935 67.9253275,17.4272 67.9253275,17.4033558 C67.9253275,17.3768623 67.9253275,17.3503688 67.9226773,17.3265247 C67.920027,17.3000312 67.9173768,17.2735377 67.9120763,17.2470442 C67.9094261,17.2232 67.9067758,17.1993558 67.9014754,17.1755117 C67.8961749,17.1490182 67.8882242,17.1225247 67.8802734,17.0933818 C67.8723227,17.072187 67.8670222,17.0509922 67.8590715,17.0297974 C67.853771,17.0192 67.8511208,17.0086026 67.8484706,17.0006545 C67.8405198,16.9821091 67.8325691,16.966213 67.8219681,16.9503169 C67.8113672,16.9291221 67.8034165,16.9079273 67.7901653,16.8893818 C67.7769141,16.8628883 67.7636629,16.8390442 67.7451112,16.8152 C67.7345102,16.7966545 67.7186088,16.7781091 67.7053576,16.7595636 C67.6868059,16.7357195 67.6709044,16.7145247 67.6497025,16.6933299 C67.6391016,16.6827325 67.6311508,16.6694857 67.6205499,16.6588883 L51.3533744,0.399823377 C51.1493059,0.193174026 50.8816316,0.0898493506 50.6113071,0.0898493506 C50.3409826,0.0898493506 50.0733083,0.193174026 49.8692398,0.399823377 C49.4558023,0.807823377 49.4558023,1.47545974 49.8692398,1.88345974 L49.8692398,1.88610909 L64.3395523,16.3515636 L1.14457031,16.3515636 C0.561517428,16.3515636 0.0924248798,16.8204987 0.0924248798,17.4033558 C0.0924248798,17.9809143 0.561517428,18.4524987 1.14457031,18.4524987" id="Fill-1"></path>
                </g>
            </g>
        </g>
    </g>
</svg>