<?xml version="1.0" encoding="UTF-8"?>
<svg width="90px" height="90px" viewBox="0 0 90 90" version="1.1" xmlns="http://www.w3.org/2000/svg" xmlns:xlink="http://www.w3.org/1999/xlink">
    <!-- Generator: Sketch 43.2 (39069) - http://www.bohemiancoding.com/sketch -->
    <title>Page 1</title>
    <desc>Created with Sketch.</desc>
    <defs></defs>
    <g id="Website-2" stroke="none" stroke-width="1" fill="none" fill-rule="evenodd">
        <g id="Desktop---het-team---overzicht" transform="translate(-907.000000, -677.000000)" fill="#000000">
            <g id="Page-1" transform="translate(907.000000, 677.000000)">
                <g id="Group-3">
                    <path d="M15.8249032,41.8231161 L27.3176129,41.8231161 L27.3176129,48.3031161 L15.8527742,48.3031161 C16.632,61.5789871 28.9730323,73.5118258 41.7466452,74.1180194 L41.7466452,62.7176323 L48.2957419,62.7176323 L48.2957419,74.0889871 C61.6012258,73.5756968 73.8516774,60.5001484 74.0229677,48.1678258 L62.6823871,48.1678258 L62.6823871,41.6860839 L74.1449032,41.6860839 C73.2396774,27.8545355 60.4602581,16.3751806 48.24,15.8816323 L48.24,27.2791161 L41.6932258,27.2791161 L41.6932258,15.9071806 C29.916,16.2573097 16.8108387,27.5369226 15.8249032,41.8231161 L15.8249032,41.8231161 Z M41.85,-0.000174193548 L48.15,-0.000174193548 L48.15,8.78034194 C67.1469677,12.0952452 77.9963226,23.0479548 81.2154194,41.8498258 L90,41.8498258 L90,48.1498258 L81.2020645,48.1498258 C77.8947097,67.1386645 66.9437419,77.9932452 48.15,81.2140839 L48.15,89.9998258 L41.85,89.9998258 L41.85,81.2053742 C22.8541935,77.8956968 11.9909032,66.9563419 8.77877419,48.1498258 L0,48.1498258 L0,41.8498258 L8.78341935,41.8498258 C12.0890323,22.8412452 23.04,11.9918903 41.85,8.76989032 L41.85,-0.000174193548 Z" id="Fill-1"></path>
                </g>
                <path d="M51.8395355,45.1254194 C51.7832129,48.9559355 48.7760516,51.8736774 44.9194065,51.8405806 C40.9901806,51.8063226 38.045729,48.7207742 38.1531484,44.7503226 C38.2570839,40.9325806 41.3043097,38.0717419 45.1830194,38.1507097 C49.007729,38.2290968 51.8964387,41.2554194 51.8395355,45.1254194" id="Fill-4"></path>
            </g>
        </g>
    </g>
</svg>