<?xml version="1.0" encoding="UTF-8"?>
<svg width="75px" height="76px" viewBox="0 0 75 76" version="1.1" xmlns="http://www.w3.org/2000/svg" xmlns:xlink="http://www.w3.org/1999/xlink">
    <!-- Generator: Sketch 43.2 (39069) - http://www.bohemiancoding.com/sketch -->
    <title>1932</title>
    <desc>Created with Sketch.</desc>
    <defs></defs>
    <g id="Website-2" stroke="none" stroke-width="1" fill="none" fill-rule="evenodd">
        <g id="Desktop---het-team---overzicht" transform="translate(-907.000000, -1347.000000)" fill-rule="nonzero" fill="#030104">
            <g id="1932" transform="translate(907.000000, 1347.000000)">
                <path d="M28.9455147,22.4012214 L28.9455147,4.0278759 C28.9455147,2.76558499 28.7713725,1.37806681 28.2588971,0.631712265 C15.8500245,-2.86463319 14.4220588,9.29243045 14.4220588,9.29243045 C14.0240196,10.8202032 13.825,13.6603577 13.7254902,16.5906759 C14.3723039,16.4353941 15.0141422,16.3402214 15.6311029,16.3402214 L15.6311029,16.3402214 C17.4322304,16.3402214 19.0144363,17.0565214 20.0891422,18.358885 C21.4375,19.9968577 21.9002206,22.3461214 21.5270588,25.6571304 L24.7511765,25.6571304 C26.7612745,25.6571304 28.4529412,24.2696123 28.9455147,22.4012214 Z" id="Shape"></path>
                <path d="M67.4126595,48.6837 L65.3826595,48.6837 C61.3326105,48.6837 58.028885,46.0188636 58.028885,42.7379091 L58.028885,39.482 C56.7203311,40.4437455 54.993836,41.0398273 53.0882232,41.0398273 L51.0582232,41.0398273 C47.0031987,41.0398273 43.6994732,38.38 43.6994732,35.0990455 L43.6994732,33.7365727 C42.3909193,34.6983182 40.6644242,35.2893909 38.7588115,35.2893909 L36.7288115,35.2893909 C32.7285173,35.2893909 29.4695713,32.6896727 29.3849879,29.4688273 C28.2505762,30.4355818 26.787782,31.0266545 25.1906497,31.0266545 L21.6281987,31.0266545 C21.1555271,33.1154455 21.6729781,38.7556818 19.0857232,40.8695182 C17.6179536,42.2420091 15.7222918,39.8376455 15.7222918,39.8376455 C19.8618997,35.2944 19.5932232,28.0262091 19.5932232,28.0262091 C20.6331007,22.3909818 16.9263605,19.3454545 14.7968507,19.3454545 C14.1898409,19.3454545 13.5181497,19.4957273 12.8265566,19.7361636 C12.8265566,19.7361636 8.73670361,21.8600182 7.10474283,23.3427091 C5.57229185,24.4096455 2.64172812,27.9210182 2.33822322,28.2816727 L2.26359087,28.1764818 C-1.77153168,34.7884818 3.20893401,41.5908273 3.20893401,41.5908273 C9.63726734,52.9113727 21.7078066,67.8685182 21.7078066,67.8685182 C27.3301105,72.7223273 24.1159438,75.5474545 24.1159438,75.5474545 L66.2633213,75.9531909 L68.402782,68.6799909 C72.3682477,61.0561545 73.9554291,51.9696636 74.512684,44.2706909 C73.6718262,46.8103 70.8158948,48.6837 67.4126595,48.6837 Z" id="Shape"></path>
                <path d="M65.3328186,42.9861182 L67.3628186,42.9861182 C70.0396324,42.9861182 72.3084559,41.3782 72.3084559,39.4697364 L72.3084559,17.3345636 C72.3084559,15.4311091 70.0396324,13.8181818 67.3628186,13.8181818 L65.3328186,13.8181818 C62.6560049,13.8181818 60.3921569,15.4261 60.3921569,17.3345636 L60.3921569,31.8258636 L60.3921569,39.4697364 C60.3921569,41.3731909 62.6560049,42.9861182 65.3328186,42.9861182 Z" id="Shape"></path>
                <path d="M36.5142647,29.1629273 L38.5442647,29.1629273 C41.2260539,29.1629273 43.4849265,27.5550091 43.4849265,25.6465455 L43.4849265,9.26681818 L43.4849265,3.51638182 C43.4849265,1.61292727 41.2260539,0 38.5442647,0 L36.5142647,0 C33.837451,0 31.5686275,1.61292727 31.5686275,3.51638182 L31.5686275,25.6515545 C31.5736029,27.5550091 33.837451,29.1629273 36.5142647,29.1629273 Z" id="Shape"></path>
                <path d="M50.9260294,35.3811091 L52.9560294,35.3811091 C55.6328431,35.3811091 57.8966912,33.7731909 57.8966912,31.8647273 L57.8966912,17.3784364 L57.8966912,9.73456364 C57.8966912,7.83110909 55.6328431,6.21818182 52.9560294,6.21818182 L50.9260294,6.21818182 C48.2442402,6.21818182 45.9803922,7.8261 45.9803922,9.73456364 L45.9803922,26.1193 L45.9803922,31.8697364 C45.9803922,33.7731909 48.2442402,35.3811091 50.9260294,35.3811091 Z" id="Shape"></path>
            </g>
        </g>
    </g>
</svg>