<?xml version="1.0" encoding="UTF-8"?>
<svg width="123px" height="71px" viewBox="0 0 123 71" version="1.1" xmlns="http://www.w3.org/2000/svg" xmlns:xlink="http://www.w3.org/1999/xlink">
    <!-- Generator: Sketch 43.2 (39069) - http://www.bohemiancoding.com/sketch -->
    <title>Page 1</title>
    <desc>Created with Sketch.</desc>
    <defs>
        <polygon id="path-1" points="0 33.710223 0 0.0861639344 122.895923 0.0861639344 122.895923 33.710223 122.895923 67.334282 0 67.334282 0 33.710223"></polygon>
    </defs>
    <g id="Website-2" stroke="none" stroke-width="1" fill="none" fill-rule="evenodd">
        <g id="Desktop---het-team---overzicht" transform="translate(-250.000000, -1030.000000)">
            <g id="Page-1" transform="translate(250.000000, 1030.000000)">
                <g id="Group-3" transform="translate(0.000000, 0.094518)">
                    <mask id="mask-2" fill="white">
                        <use xlink:href="#path-1"></use>
                    </mask>
                    <g id="Clip-2"></g>
                    <path d="M0,27.1311344 C0.541673077,26.8655607 0.887019231,26.6849705 1.24182692,26.5244459 C20.4463846,17.7959213 39.6533077,9.07447869 58.8484038,0.32824918 C59.5308173,0.0178229508 60.0665769,-0.00106229508 60.7525385,0.31172459 C79.9842981,9.07565902 99.2255192,17.8183475 118.464375,26.5657574 C118.784885,26.712118 119.098298,26.8761836 119.421173,27.0343475 C119.373865,27.1488393 119.35849,27.2491672 119.324192,27.2574295 C117.350279,27.7083148 116.988375,28.9901508 117.094817,30.8621508 C117.268673,33.926282 117.140942,37.0069377 117.140942,39.740577 C118.250308,40.6458885 119.332471,41.2466754 120.016067,42.1484459 C121.391538,43.9578885 121.061567,46.5605115 119.333654,48.1303475 C118.686721,48.7181508 118.624038,49.1961836 118.810904,49.9763803 C120.189923,55.7139541 121.520452,61.4633311 122.895923,67.334282 L109.462904,67.334282 C110.058981,64.817823 110.632587,62.348577 111.227481,59.8852328 C112.058913,56.4339541 112.928192,52.992118 113.718231,49.5313967 C113.819942,49.0864131 113.712317,48.4077246 113.422558,48.0878557 C111.17899,45.6056262 111.795173,42.1142164 114.872538,40.7202492 C115.764288,40.316577 115.981904,39.8444459 115.967712,38.9414951 C115.91449,35.6412984 115.946423,32.338741 115.946423,28.8496918 C115.389375,29.091659 114.996721,29.2545443 114.609981,29.4304131 C96.7489615,37.5416262 78.8867596,45.648118 61.03875,53.7864787 C60.1588269,54.1877902 59.4752308,54.1960525 58.5858462,53.7900197 C39.5397692,45.1016262 20.4771346,36.449823 1.41804808,27.788577 C1.01948077,27.6079869 0.623278846,27.4203148 0,27.1311344" id="Fill-1" fill="#000000" mask="url(#mask-2)"></path>
                </g>
                <path d="M90.3134596,44.6435148 C90.3134596,49.0307934 90.4128058,53.2256787 90.2448635,57.409941 C90.2022865,58.497023 89.4962192,59.6844328 88.7937,60.5968262 C86.7984981,63.1876459 84.0345462,64.8460066 81.1298538,66.2234492 C72.6404885,70.2495475 63.6875077,71.5691541 54.3702577,70.6201705 C48.3030462,70.0016787 42.4723731,68.490859 37.1455269,65.4869246 C35.0462481,64.3042361 33.1314692,62.741482 31.2982962,61.161023 C29.7903635,59.861482 29.16945,58.0768262 29.2191231,56.0088918 C29.3090077,52.2637115 29.2451423,48.5149902 29.2451423,44.6222689 C29.7607962,44.8300066 30.1617288,44.9740066 30.5496519,45.1498754 C39.9331327,49.4120393 49.3201615,53.6671213 58.6906327,57.9587934 C59.4960462,58.3282361 60.1311519,58.3128918 60.9330173,57.9458098 C70.2680077,53.6718426 79.6207385,49.4368262 88.9699212,45.1947279 C89.362575,45.0164984 89.7682385,44.8665967 90.3134596,44.6435148" id="Fill-4" fill="#000000"></path>
            </g>
        </g>
    </g>
</svg>