<?xml version="1.0" encoding="utf-8"?>
<!-- Generator: Adobe Illustrator 20.1.0, SVG Export Plug-In . SVG Version: 6.00 Build 0)  -->
<svg version="1.1" id="Laag_1" xmlns="http://www.w3.org/2000/svg" xmlns:xlink="http://www.w3.org/1999/xlink" x="0px" y="0px"
	 viewBox="0 0 155 30.8" style="enable-background:new 0 0 155 30.8;" xml:space="preserve">
<style type="text/css">
	.st0{fill:#52D70B;}
	.st1{fill:#FFFFFF;}
</style>
<title>Group 3</title>
<desc>Created with Sketch.</desc>
<g>
	<path class="st0" d="M91.3,12.3l-10.9-11c-1.7-1.7-4.5-1.7-6.1,0l-10.9,11c-1.7,1.7-1.7,4.5,0,6.2l10.9,11c1.7,1.7,4.5,1.7,6.1,0
		l10.9-11C93,16.8,93,14,91.3,12.3z M77.5,25.6l-3.7-3.7l2.3-2.3l1.6,1.6l5.5-5.5l-5.6-5.6l-1.3,1.3L74,9.2l3.5-3.5l9.9,9.9
		L77.5,25.6z"/>
</g>
<g>
	<polygon class="st1" points="120.2,7.8 117.6,7.8 117.6,23 127,23 127,20.7 120.2,20.7 	"/>
	<rect x="111.5" y="7.8" class="st1" width="2.6" height="15.2"/>
	<polygon class="st1" points="132.3,7.8 129.8,7.8 129.8,23 137.9,23 139.2,20.7 132.3,20.7 	"/>
	<polygon class="st1" points="108.1,7.9 108.1,7.8 97.7,7.8 97.7,10.1 104.2,10.1 97.3,22.9 97.3,23 108.4,23 108.4,20.7 
		101.3,20.7 	"/>
	<polygon class="st1" points="147.8,7.5 140.8,23 143.5,23 144.7,20.2 144.7,20.2 147.9,12.8 151,20.2 151,20.2 152.2,23 155,23 	
		"/>
</g>
<g>
	<path class="st1" d="M22.7,7.5c-4.4,0-7.6,3.3-7.6,7.9c0,4.5,3.2,7.9,7.6,7.9s7.7-3.3,7.7-7.9C30.3,10.9,27.1,7.5,22.7,7.5z
		 M22.7,20.9c-3,0-5.1-2.3-5.1-5.5s2.1-5.5,5.1-5.5s5.1,2.3,5.1,5.5C27.7,18.6,25.6,20.9,22.7,20.9z"/>
	<path class="st1" d="M7.6,20.9c-3,0-5-2.3-5-5.5s2-5.5,5-5.5c1.7,0,2.9,0.7,3.8,1.7L13,9.8c-1.4-1.5-3-2.3-5.4-2.3
		C3.2,7.5,0,10.9,0,15.4s3.2,7.9,7.6,7.9c2.3,0,4.1-0.7,5.5-2.3l-1.6-1.9C10.6,20.1,9.3,20.9,7.6,20.9z"/>
	<path class="st1" d="M38.3,7.8h-4.7V23h4.7c5.2,0,8.2-2.8,8.2-7.6S43.4,7.8,38.3,7.8z M38.3,20.6h-2V10.2h2c3.6,0,5.6,1.9,5.6,5.2
		C43.9,18.7,41.9,20.6,38.3,20.6z"/>
	<polygon class="st1" points="52.4,20.6 52.4,16.4 58.4,16.4 58.4,14.1 52.4,14.1 52.4,10.2 59.3,10.2 59.3,7.8 49.8,7.8 49.8,23 
		59.5,23 59.5,20.6 	"/>
</g>
</svg>
