<?xml version="1.0" encoding="UTF-8"?>
<svg width="155px" height="31px" viewBox="0 0 155 31" version="1.1" xmlns="http://www.w3.org/2000/svg" xmlns:xlink="http://www.w3.org/1999/xlink">
    <!-- Generator: Sketch 42 (36781) - http://www.bohemiancoding.com/sketch -->
    <title>logo-light</title>
    <desc>Created with Sketch.</desc>
    <defs></defs>
    <g id="Page-1" stroke="none" stroke-width="1" fill="none" fill-rule="evenodd">
        <g id="logo-light">
            <path d="M91.3,12.3 L80.4,1.3 C78.7,-0.4 75.9,-0.4 74.3,1.3 L63.4,12.3 C61.7,14 61.7,16.8 63.4,18.5 L74.3,29.5 C76,31.2 78.8,31.2 80.4,29.5 L91.3,18.5 C93,16.8 93,14 91.3,12.3 Z" id="Combined-Shape" fill="#52D70B"></path>
            <polygon id="Path" fill="#FFFFFF" points="77.5 25.6 73.8 21.9 76.1 19.6 77.7 21.2 83.2 15.7 77.6 10.1 76.3 11.4 74 9.2 77.5 5.7 87.4 15.6"></polygon>
            <g id="Group" transform="translate(97.000000, 7.000000)" fill-rule="nonzero" fill="#FFFFFF">
                <polygon id="Shape" points="23.2 0.8 20.6 0.8 20.6 16 30 16 30 13.7 23.2 13.7"></polygon>
                <rect id="Rectangle-path" x="14.5" y="0.8" width="2.6" height="15.2"></rect>
                <polygon id="Shape" points="35.3 0.8 32.8 0.8 32.8 16 40.9 16 42.2 13.7 35.3 13.7"></polygon>
                <polygon id="Shape" points="11.1 0.9 11.1 0.8 0.7 0.8 0.7 3.1 7.2 3.1 0.3 15.9 0.3 16 11.4 16 11.4 13.7 4.3 13.7"></polygon>
                <polygon id="Shape" points="50.8 0.5 43.8 16 46.5 16 47.7 13.2 47.7 13.2 50.9 5.8 54 13.2 54 13.2 55.2 16 58 16"></polygon>
            </g>
            <g id="Group" transform="translate(0.000000, 7.000000)" fill-rule="nonzero" fill="#FFFFFF">
                <path d="M22.7,0.5 C18.3,0.5 15.1,3.8 15.1,8.4 C15.1,12.9 18.3,16.3 22.7,16.3 C27.1,16.3 30.4,13 30.4,8.4 C30.3,3.9 27.1,0.5 22.7,0.5 Z M22.7,13.9 C19.7,13.9 17.6,11.6 17.6,8.4 C17.6,5.2 19.7,2.9 22.7,2.9 C25.7,2.9 27.8,5.2 27.8,8.4 C27.7,11.6 25.6,13.9 22.7,13.9 Z" id="Shape"></path>
                <path d="M7.6,13.9 C4.6,13.9 2.6,11.6 2.6,8.4 C2.6,5.2 4.6,2.9 7.6,2.9 C9.3,2.9 10.5,3.6 11.4,4.6 L13,2.8 C11.6,1.3 10,0.5 7.6,0.5 C3.2,0.5 0,3.9 0,8.4 C0,12.9 3.2,16.3 7.6,16.3 C9.9,16.3 11.7,15.6 13.1,14 L11.5,12.1 C10.6,13.1 9.3,13.9 7.6,13.9 Z" id="Shape"></path>
                <path d="M38.3,0.8 L33.6,0.8 L33.6,16 L38.3,16 C43.5,16 46.5,13.2 46.5,8.4 C46.5,3.6 43.4,0.8 38.3,0.8 Z M38.3,13.6 L36.3,13.6 L36.3,3.2 L38.3,3.2 C41.9,3.2 43.9,5.1 43.9,8.4 C43.9,11.7 41.9,13.6 38.3,13.6 Z" id="Shape"></path>
                <polygon id="Shape" points="52.4 13.6 52.4 9.4 58.4 9.4 58.4 7.1 52.4 7.1 52.4 3.2 59.3 3.2 59.3 0.8 49.8 0.8 49.8 16 59.5 16 59.5 13.6"></polygon>
            </g>
        </g>
    </g>
</svg>