<?xml version="1.0" encoding="UTF-8"?>
<svg width="92px" height="94px" viewBox="0 0 92 94" version="1.1" xmlns="http://www.w3.org/2000/svg" xmlns:xlink="http://www.w3.org/1999/xlink">
    <!-- Generator: Sketch 43.2 (39069) - http://www.bohemiancoding.com/sketch -->
    <title>Page 1</title>
    <desc>Created with Sketch.</desc>
    <defs></defs>
    <g id="Website-2" stroke="none" stroke-width="1" fill="none" fill-rule="evenodd">
        <g id="Desktop---het-team---overzicht" transform="translate(-283.000000, -972.000000)">
            <g id="Group" transform="translate(225.000000, 928.000000)">
                <g id="Page-1" transform="translate(58.000000, 44.000000)">
                    <g id="Group-3" transform="translate(0.000000, 15.188731)" fill="#000000">
                        <path d="M32.1047463,13.5877841 C26.3811122,18.3211559 20.6221366,22.8380384 15.1386,27.6714587 C4.59450244,36.9658022 3.50677073,50.0891235 12.2989415,61.0820318 C21.6302098,72.7492789 38.2895024,76.6421296 50.3185024,62.3210515 C54.744039,57.0523916 58.9928683,51.6328109 63.3140634,46.2759726 C63.4587951,46.0962243 63.5165756,45.8458202 63.6366244,45.5807197 C61.6659171,43.9505496 59.7552341,42.369556 57.7463805,40.7077321 C53.4448195,46.0419606 49.2885512,51.2755753 45.0470146,56.4385342 C38.2681854,64.6888679 28.7422585,65.3818598 20.8162341,58.263149 C12.9429415,51.1924841 12.8756244,40.2934067 20.7146976,33.184305 C22.8071366,31.2873388 25.0431854,29.5503371 27.2242585,27.7534194 C30.4375268,25.1058062 33.6603317,22.4706283 36.9173561,19.7981443 C35.2781854,17.6829929 33.745039,15.7046312 32.1047463,13.5877841 M0.000112195122,42.3610773 C0.305282927,40.9841375 0.561087805,39.5941971 0.923478049,38.232519 C2.46055122,32.4590942 5.45952683,27.4945367 9.94733171,23.6757333 C19.1366732,15.8566824 28.525161,8.27446973 37.9888195,0.464462812 C42.3447951,5.90665334 46.5930634,11.2154458 50.9585756,16.6700717 C48.2103561,18.9174907 45.5361854,21.1032978 42.8636976,23.2902354 C37.1467951,27.968213 31.4495268,32.669931 25.7079415,37.3162549 C22.2815024,40.0882223 20.4089659,43.4305231 21.6375024,47.9558843 C22.844722,52.402111 27.1288927,56.1434757 31.5252585,56.6109343 C35.1463561,56.9964322 37.7896732,55.2085585 39.9595268,52.5242042 C44.5297951,46.8711768 49.0793073,41.2011921 53.639478,35.5402513 C56.010722,32.596449 58.3870146,29.6566034 60.8351122,26.6240575 C66.2552585,31.0199773 71.5222585,35.2921082 76.8975268,39.6518522 C72.3884049,45.2636166 68.0111122,50.7250255 63.6186732,56.173999 C60.8328683,59.6299143 58.0683805,63.1044828 55.2203073,66.507265 C41.681722,82.6829158 22.0464537,80.5700255 9.56923415,67.7462847 C4.59899024,62.6387199 1.38796585,56.57815 0.340063415,49.4345684 C0.295746341,49.1327269 0.116234146,48.8506691 0.000112195122,48.5595673 L0.000112195122,42.3610773" id="Fill-1"></path>
                    </g>
                    <g id="Group-6" transform="translate(47.121951, 0.492329)" fill="#000000">
                        <path d="M0.253673171,17.2229956 C3.05181951,15.0931478 5.84996585,12.9638654 8.85006341,10.6802707 C6.99828293,9.2400233 5.25925854,7.88795437 3.2706,6.34200598 C9.49967317,4.18841791 15.4516244,2.1309217 21.4035756,0.0728602367 C21.4619171,0.173474062 21.5208195,0.274087888 21.579161,0.374701714 C18.8023317,2.68429774 16.0249415,4.99445901 13.0287707,7.48606431 C14.7302098,8.79460929 16.3144049,10.0127149 18.1824537,11.4490055 C12.0414537,13.5505909 6.27069756,15.5261264 0.499941463,17.5010967 C0.418039024,17.4083963 0.33557561,17.3156959 0.253673171,17.2229956" id="Fill-4"></path>
                    </g>
                    <g id="Group-9" transform="translate(75.170732, 23.667424)" fill="#000000">
                        <path d="M0.0423536585,21.6363815 C2.19818293,18.8649793 4.35345122,16.0935771 6.66467073,13.122643 C4.50884146,12.2109009 2.48876829,11.3568138 0.159036585,10.3715897 C5.57637805,6.92528354 10.799061,3.60276631 16.0211829,0.280814318 C16.1311341,0.369557973 16.2410854,0.458866875 16.3510366,0.548175777 C14.2501829,3.26474907 12.1498902,5.98075712 9.88803659,8.90534102 C11.8542561,9.74247066 13.6819146,10.5208147 15.8528902,11.4455575 C10.4725732,15.060307 5.37554878,18.4851338 0.279085366,21.9099606 C0.199987805,21.818956 0.12145122,21.7273861 0.0423536585,21.6363815" id="Fill-7"></path>
                    </g>
                    <path d="M32.1047463,28.7765151 C33.745039,30.8933621 35.2781854,32.8717239 36.9173561,34.9868752 C33.6603317,37.6593593 30.4375268,40.2945371 27.2242585,42.9421504 C25.0431854,44.7390681 22.8071366,46.4760697 20.7146976,48.373036 C12.8756244,55.4821376 12.9429415,66.3812151 20.8162341,73.45188 C28.7422585,80.5705907 38.2681854,79.8775989 45.0470146,71.6272652 C49.2885512,66.4643063 53.4448195,61.2306916 57.7463805,55.8964631 C59.7552341,57.558287 61.6659171,59.1392806 63.6366244,60.7694507 C63.5165756,61.0345512 63.4587951,61.2849552 63.3140634,61.4647035 C58.9928683,66.8215419 54.744039,72.2411226 50.3185024,77.5097825 C38.2895024,91.8308605 21.6302098,87.9380099 12.2989415,76.2707628 C3.50677073,65.2778545 4.59450244,52.1545332 15.1386,42.8601897 C20.6221366,38.0267693 26.3811122,33.5098869 32.1047463,28.7765151" id="Fill-10" fill="#FFFFFF"></path>
                </g>
            </g>
        </g>
    </g>
</svg>