<?xml version="1.0" encoding="utf-8"?>
<!-- Generator: Adobe Illustrator 20.1.0, SVG Export Plug-In . SVG Version: 6.00 Build 0)  -->
<svg version="1.1" id="Laag_1" xmlns="http://www.w3.org/2000/svg" xmlns:xlink="http://www.w3.org/1999/xlink" x="0px" y="0px"
	 viewBox="0 0 98.4 115.7" style="enable-background:new 0 0 98.4 115.7;" xml:space="preserve">
<path d="M95.9,58.6c0.6-5.1-0.5-5.4-0.3-7.4c0.3-3.5,3.1-13.4,2.7-16.9c-0.1-1.3-2-13.1-19.8-20.1c-0.1,0-0.1-0.1-0.2-0.1
	c-0.1-0.1-0.3-0.1-0.5-0.2c-0.6-0.2-1.4-0.3-2.4-0.5C71.9,12.6,75,6.1,72,6.1c-2.9,0,0.9,6.5-5.3,6.8c-0.2,0-0.3,0-0.5,0
	C60.7,12.5,65,1.4,61.9,1.4c-2.9,0-0.5,10.9-6.2,11.3c-0.1,0-0.2,0-0.3,0c-5.2,0-2.2-7.6-5.2-7.6c-2.9,0,0.1,7.2-6.4,8.1
	c-0.2,0-0.4,0-0.5,0.1c-5.5,0.4-3.3-6.1-6.3-6.1c-2.8,0,0,5.8-6.2,7.3c-0.6,0.1-1.2,0.1-1.7,0.2C22.8,14.7,27.2,0,23.4,0
	c-2.8,0,0.9,13.8-4.1,16.8c-1.3,0.4-2.4,0.9-3.3,1.4C0.4,23.3,0.1,34.3,0,35.7c-0.3,3.6,2,14.2,2.2,17.8c0.1,2.1-0.8,2.3-0.4,7.7
	c0.1,1.4-0.8,3.3-1.3,4.4c-0.8,2,0.8,3,1.8,1.1c0.3-0.5,1.5-4.1,2.3-2.2c0.5,1.1,0.7,3.5,0.9,4.7c0.2,0.9,1.2,1.4,1.8,0.6
	c0.3-0.5,0.1-1.4,0.1-2c0-0.4-1-4.8,0.2-4.2c1.2,0.6,2.1,2.6,2.9,3.8c0.5,0.7,1.8,1.1,1.9-0.2c0.1-0.6-0.4-1.3-0.7-1.7
	c-0.6-1.1-1.9-2.6-2.1-4c-0.5-3.7,1.8-1.3,3.6-1.5c1.5-0.2,1.2-2.1,0.4-2.6c-1.1-0.6-2.4-0.4-3.6-0.9c-2.3-1-3.5-3-3.6-5.7
	c-0.5-13.8,4.9-15.7,7-13.8c0,0,0-0.1,0-0.1c1.2,8.2,3.7,17.7,6.3,25.1l-0.1-0.3C20.6,66.3,8.7,79,8.6,80.2
	c-0.1,2.6,2.7,13.2,2.6,13.8c-0.1,0.6-4.7,4.9-5,5.9c-0.3,0.8-0.1,1.5,0.7,1.5h14.1c0.7,0,0.7-0.6,0.5-1.5c-0.5-2.1-4.8-5.6-5-6.1
	c-0.3-0.5-2.5-9.7-2.5-10.8c0-1.3,8.5-8.9,12.2-8.8c0.1,0.1,0.3,0.2,0.4,0.3c4.8,2.9,16.9,5.7,29.3,2.7c5.1-0.2,16.9,14.3,16.8,15.9
	c-0.1,1.3-3.2,12.6-3.5,13.2c-0.4,0.6-6.3,4.9-6.9,7.5c-0.3,1.1-0.3,1.8,0.7,1.8h19.5c1,0,1.3-0.8,0.9-1.8c-0.5-1.2-6.8-6.5-7-7.2
	c-0.1-0.7,3.7-13.7,3.6-16.9c-0.1-1.4-11.7-15-10.6-20.8c5.5-8.1,9.3-22.2,10.9-34c2.8-2.6,10.9,0.7,10.3,13.1
	c-0.1,2.6-1.6,4.4-4.3,5c-1.4,0.3-2.9,0-4.2,0.4c-1,0.4-1.4,2.1,0.4,2.5c2.2,0.4,4.8-1.7,4.2,1.9c-0.2,1.3-1.7,2.6-2.5,3.6
	c-0.3,0.4-0.9,1-0.8,1.6c0.2,1.3,1.6,1.1,2.3,0.5c1-1,2.1-2.8,3.5-3.2c1.4-0.4,0.3,3.7,0.2,4.1c-0.1,0.5-0.3,1.4,0.1,1.9
	c0.6,0.9,1.9,0.5,2.1-0.3c0.3-1.1,0.6-3.4,1.2-4.4c1-1.7,2.3,1.9,2.6,2.4c1.1,1.9,3.1,1.2,2.2-0.8C96.8,61.9,95.8,60,95.9,58.6z
	 M65,41.1c0,2.6-2.4,4-4.4,4c-2.5,0-4.5-1.6-4.5-4.2c0-2.6,2-4.2,4.5-4.2C63,36.9,65,37.9,65,41.1z M28.6,51.2
	c-2.4,0.1-4.5-0.8-4.7-4c-0.1-2.6,2.2-4.1,4.2-4.3c2.4-0.1,4.5,1.3,4.7,3.9C32.9,49.4,31,51,28.6,51.2z M42.8,58.3
	c-1.7,1.8-4.1,2.4-6.8-0.2c-2.2-2.1-1.7-5.1-0.3-6.6c1.7-1.8,4.5-2,6.7,0.1C44.6,53.7,44.5,56.5,42.8,58.3z M42.4,45.8
	c-4,0-7.2-2.5-7.2-6.7c0-4.1,3.2-6.7,7.2-6.7c4,0,7.2,1.7,7.2,6.9C49.6,43.4,45.6,45.8,42.4,45.8z M54.4,60.1c-3.2,0-5.8-2-5.8-5.4
	c0-3.3,2.6-5.4,5.8-5.4s5.7,1.4,5.7,5.5C60.2,58.3,57,60.1,54.4,60.1z"/>
<path d="M59.8,40.7c0,1.6,2.8,1.6,2.8,0C62.6,39,59.8,39,59.8,40.7z"/>
<path d="M53.5,54.3c0,2.1,3.6,2.1,3.6,0C57.1,52.2,53.5,52.2,53.5,54.3z"/>
<path d="M41.2,38.5c0,2.6,4.5,2.6,4.5,0C45.7,35.8,41.2,35.8,41.2,38.5z"/>
<path d="M38.1,56.7c1.4,1.3,3.4-0.7,2-2.1C38.7,53.3,36.7,55.4,38.1,56.7z"/>
<path d="M26.3,47.6c0.1,1.6,2.9,1.5,2.8-0.2C29,45.8,26.2,46,26.3,47.6z"/>
</svg>
