<?xml version="1.0" standalone="no"?>
<!DOCTYPE svg PUBLIC "-//W3C//DTD SVG 20010904//EN"
 "http://www.w3.org/TR/2001/REC-SVG-20010904/DTD/svg10.dtd">
<svg version="1.0" xmlns="http://www.w3.org/2000/svg"
 width="700.000000pt" height="700.000000pt" viewBox="0 0 700.000000 700.000000"
 preserveAspectRatio="xMidYMid meet">
<metadata>
Created by potrace 1.11, written by Peter Selinger 2001-2013
</metadata>
<g transform="translate(0.000000,700.000000) scale(0.100000,-0.100000)"
fill="#000000" stroke="none">
<path d="M3381 6898 c-143 -16 -283 -66 -406 -145 -106 -68 -2632 -2593 -2711
-2710 -184 -272 -218 -609 -94 -914 72 -176 22 -123 1424 -1525 838 -838 1322
-1315 1361 -1340 284 -189 648 -220 955 -82 139 62 156 79 1492 1417 1377
1378 1352 1351 1423 1519 111 264 105 533 -17 802 -63 139 -80 157 -1412 1487
-822 822 -1311 1302 -1346 1325 -215 137 -439 193 -669 166z m989 -2078 c402
-399 875 -867 1051 -1040 175 -174 319 -320 319 -324 0 -5 -496 -505 -1103
-1112 l-1102 -1103 -415 409 -415 410 258 255 258 255 174 -172 c96 -95 179
-173 184 -173 5 0 284 272 619 604 l611 605 -244 240 c-134 133 -415 411 -625
620 -379 377 -381 378 -402 360 -11 -11 -76 -74 -145 -141 -68 -68 -126 -123
-129 -123 -3 0 -15 10 -28 23 -32 31 -188 179 -349 331 l-136 130 392 388 392
388 51 -53 c29 -28 381 -378 784 -777z"/>
</g>
</svg>
