<?xml version="1.0" encoding="UTF-8"?>
<svg width="181px" height="159px" viewBox="0 0 181 159" version="1.1" xmlns="http://www.w3.org/2000/svg" xmlns:xlink="http://www.w3.org/1999/xlink">
    <!-- Generator: Sketch 43.2 (39069) - http://www.bohemiancoding.com/sketch -->
    <title>Page 1</title>
    <desc>Created with Sketch.</desc>
    <defs></defs>
    <g id="Website-2" stroke="none" stroke-width="1" fill="none" fill-rule="evenodd">
        <g id="Artboard-9" transform="translate(-56.000000, -29.000000)" fill="#000000">
            <g id="Page-1" transform="translate(56.000000, 28.000000)">
                <g id="Group-3" transform="translate(0.000000, 0.464108)">
                    <path d="M91.0431976,82.1173838 C72.5120892,82.1173838 58.6164988,81.5438162 58.6164988,72.955627 C58.6164988,64.3652486 72.5120892,65.1314649 91.0431976,65.1314649 C109.56992,65.1314649 123.467704,64.3652486 123.467704,72.955627 C123.467704,81.5438162 109.56992,82.1173838 91.0431976,82.1173838 M64.8198482,51.9569243 C65.166306,50.1486541 68.5914145,48.6359243 72.3585952,48.6359243 C76.1389325,48.6359243 78.0466434,50.1574108 78.4851976,51.9569243 C79.0728602,54.4000595 76.5424024,55.2823027 71.6503301,55.2823027 C67.0652458,55.2823027 64.4076072,54.082627 64.8198482,51.9569243 M104.658113,53.2485459 C105.015535,51.7752216 106.596523,50.5098703 109.714643,50.5098703 C112.832764,50.5098703 115.650475,51.7555189 115.937728,53.2485459 C116.273222,55.0130324 114.087029,55.9872216 110.29792,55.9872216 C106.261029,55.9872216 104.180089,55.2582216 104.658113,53.2485459 M176.741077,30.3277351 C168.726499,17.5932216 156.47768,15.4478162 156.47768,15.4478162 C156.47768,15.4478162 164.713728,15.0844108 164.255439,13.4096811 C163.792764,11.7327622 151.642619,11.8947622 151.642619,11.8947622 C151.642619,11.8947622 148.384161,1.68000541 139.29074,2.01714054 C130.199511,2.3498973 127.754571,15.2376541 127.754571,15.2376541 L112.793294,16.7613297 C112.793294,16.7613297 110.164161,12.9017892 105.848788,13.5694919 C101.533414,14.241573 99.8449807,15.4215459 100.305463,20.7719243 C100.765945,26.1332486 103.079318,28.1429243 107.545993,27.6481676 C112.01486,27.1402757 114.172547,21.5863027 114.172547,21.5863027 L127.732643,19.9378432 C127.732643,19.9378432 131.28274,29.3228973 139.137246,29.4848973 C147.000523,29.6578432 153.467005,21.7789514 153.467005,21.7789514 C153.467005,21.7789514 173.502354,29.9927892 171.965222,42.9571676 C170.621053,54.2796541 151.471583,62.7518162 146.636523,64.7242757 C146.807559,60.8800595 147.050957,58.3011946 147.368908,58.1807892 C148.640716,57.7013568 150.877342,58.9754649 151.997848,58.1807892 C153.120547,57.3861135 153.120547,44.6143838 151.997848,43.8175189 C150.877342,43.0228432 27.9659446,38.0752757 26.8432458,40.3038703 C25.720547,42.5456 24.7601133,52.1189243 26.8432458,53.2485459 C28.9241855,54.3803568 32.2813181,53.5375189 33.7175831,54.8313297 C34.0399205,55.1159243 34.2855108,57.495573 34.4609325,61.0289243 C30.1806434,59.2600595 10.8404024,50.7090865 9.41729398,39.7303027 C7.82534217,27.3788973 28.5974627,19.5656811 28.5974627,19.5656811 C28.5974627,19.5656811 35.3095349,27.0614649 43.4622578,26.8994649 C51.6149807,26.7462216 55.2988361,17.8033838 55.2988361,17.8033838 L69.3588843,19.3752216 C69.3588843,19.3752216 71.6020892,24.6686811 76.2354145,25.1481135 C80.866547,25.6253568 83.2632458,23.7120054 83.7434627,18.6090054 C84.2236795,13.4950595 82.4672699,12.3829514 77.9896313,11.7437081 C73.5185711,11.1022757 70.7973422,14.7779243 70.7973422,14.7779243 L55.2791012,13.3330595 C55.2791012,13.3330595 52.7376795,1.04732973 43.3087639,0.732086486 C33.8732699,0.414654054 30.4964024,10.1543568 30.4964024,10.1543568 C30.4964024,10.1543568 17.894547,9.99016757 17.4143301,11.5795189 C16.936306,13.177627 25.4815349,13.5344649 25.4815349,13.5344649 C25.4815349,13.5344649 12.7744265,15.5747892 4.47040241,27.7050865 C-10.2562482,47.6201405 14.4233904,70.1031135 34.7240651,73.0979243 C34.9784265,86.2877892 34.7065229,99.9658432 34.0355349,100.471546 C32.972041,101.268411 27.9659446,99.3506811 26.8432458,100.626978 C25.720547,101.907654 26.5274867,110.12587 26.8432458,111.159168 C26.9484988,111.485357 39.6380651,112.201222 56.9280651,112.995897 C58.7568361,113.081276 60.644812,113.164465 62.5700651,113.247654 C60.8311976,120.717168 58.7546434,130.601357 58.6888602,132.125032 C58.4871253,136.558141 63.471294,146.304411 63.471294,146.304411 C63.471294,146.304411 54.0029084,154.651789 53.3165711,156.271789 C52.7398723,157.659735 53.1389566,158.852843 54.6410048,158.809059 L80.895053,158.7806 C82.4036795,158.743384 82.3488602,157.764816 81.9475831,156.315573 C79.669294,148.0076 69.0321614,134.907492 68.9005952,131.792276 C68.8216554,130.029978 69.2075831,120.990816 69.7557759,113.562897 C82.0769566,114.079546 95.5405711,114.600573 107.995511,115.036222 C109.552378,115.088762 111.087318,115.141303 112.604716,115.189465 C113.093704,122.256168 113.420427,130.156951 113.345872,131.792276 C113.214306,134.907492 102.579366,148.0076 100.298884,156.315573 C99.8998,157.764816 99.842788,158.743384 101.351414,158.7806 L127.60327,158.809059 C129.107511,158.852843 129.506595,157.659735 128.932089,156.271789 C128.241366,154.651789 118.777366,146.304411 118.777366,146.304411 C118.777366,146.304411 123.757149,136.558141 123.561993,132.125032 C123.500595,130.748032 121.792427,122.523249 120.182933,115.439032 C138.670186,116.032303 152.64033,116.319086 153.120547,115.944735 C154.559005,114.834816 154.252017,103.737816 152.811366,102.301708 C151.372908,100.8656 150.079173,102.704519 148.002619,101.268411 C146.765896,100.408059 146.318571,88.3259243 146.434788,76.2678703 C165.981149,72.9753297 190.851559,51.1053297 176.741077,30.3277351" id="Fill-1"></path>
                </g>
                <path d="M92.0014386,71.8098054 C79.6100892,71.8098054 70.3171253,70.4700216 70.3171253,73.1408324 C70.3171253,75.8138324 79.6100892,76.6851297 92.0014386,76.6851297 C104.392788,76.6851297 113.685752,75.8138324 113.685752,73.1408324 C113.685752,70.4700216 104.392788,71.8098054 92.0014386,71.8098054" id="Fill-4"></path>
            </g>
        </g>
    </g>
</svg>