<?xml version="1.0" encoding="UTF-8"?>
<svg width="281px" height="159px" viewBox="0 0 281 159" version="1.1" xmlns="http://www.w3.org/2000/svg" xmlns:xlink="http://www.w3.org/1999/xlink">
    <!-- Generator: Sketch 43.2 (39069) - http://www.bohemiancoding.com/sketch -->
    <title>Fill 1</title>
    <desc>Created with Sketch.</desc>
    <defs></defs>
    <g id="Website-2" stroke="none" stroke-width="1" fill="none" fill-rule="evenodd">
        <g id="Artboard-8" transform="translate(-6.000000, -4.000000)" fill="#000000">
            <path d="M144.126595,19.4373263 C143.71102,21.2328254 142.33376,22.1545505 140.263874,21.6856961 C138.188661,21.2061859 137.354846,19.7836392 137.757102,17.9801482 C138.164686,16.1819852 139.544609,15.2629241 141.62515,15.7317784 C143.695036,16.2006328 144.531515,17.6338354 144.126595,19.4373263 M129.022025,17.4739986 C128.542515,19.5332283 126.960132,20.5961425 124.589221,20.0553616 C122.212981,19.5092528 121.245969,17.8735904 121.717488,15.8116968 C122.196998,13.7418113 123.776717,12.689553 126.144965,13.2276699 C128.529196,13.7684508 129.49088,15.412105 129.022025,17.4739986 M6.33935461,99.1771996 C7.18382526,101.260405 19.6617448,88.7824852 30.9515448,76.8773139 C34.8568886,78.4810089 37.8911222,73.5207428 39.7292444,73.9070149 C41.8337612,74.3465659 57.0022655,92.5359841 60.2069916,93.271233 C62.7936824,93.8599649 74.5283613,92.3868031 79.0703879,92.3415161 C78.2845241,98.0237113 78.481656,103.460824 79.9708014,106.481737 C80.9111741,108.389122 87.5150944,110.794665 97.0093953,113.285454 L96.8522225,113.245494 C93.3651182,115.368659 72.5410581,133.736561 72.5410581,133.736561 C72.5410581,133.736561 57.7295225,126.634483 56.7971417,127.018091 C55.9952942,127.351085 55.7049241,128.009079 56.3735744,128.613795 L75.2263149,146.102595 C75.8976292,146.709975 76.2572618,146.286407 76.6541896,145.519191 C78.9185431,141.150321 98.1255884,117.633012 107.196322,115.754931 L107.044477,115.717636 C123.395773,119.415192 144.081308,122.998198 160.203505,125.148002 L160.033012,125.124026 C158.970098,129.066665 155.7707,135.553372 155.7707,140.4204 C155.7707,145.066321 162.534457,155.897922 162.534457,155.897922 C162.534457,155.897922 146.910418,160.605113 146.497506,161.529502 C146.151193,162.31803 146.393612,162.997336 147.294026,162.970697 L173.009089,163 C173.912167,162.978688 173.8802,162.421924 173.643108,161.596101 C172.265849,156.867598 164.772171,144.1073 164.692252,142.335777 C164.633646,141.097042 168.765425,131.152534 171.485313,126.485302 C179.967314,127.337765 185.694797,127.454978 186.123692,126.463991 C187.684764,122.801066 189.264483,112.752665 190.441947,106.351204 C194.248725,108.639533 203.449992,115.754931 205.916805,116.527475 C208.980342,117.486495 230.571619,109.233593 232.558922,109.896915 C234.548889,110.560238 234.476962,118.104531 240.596045,116.705959 C246.712463,115.304724 246.342174,107.464733 244.943603,103.420864 C244.911636,103.335618 244.882332,103.247708 244.858357,103.159798 C254.573765,103.498119 288.416526,93.1646752 286.95402,88.4494921 C285.259751,82.9963961 274.790446,88.1511302 273.469129,88.4494921 C272.137156,88.74519 267.56849,63.9784909 251.79527,70.0975732 C236.024714,76.2139915 249.437679,94.5259512 249.144645,96.2814911 C248.936857,97.504242 245.27926,97.5894882 243.366548,99.1399044 C242.226379,96.9288298 240.31633,95.5329225 235.729017,96.7023945 C228.507061,98.5458446 233.222244,103.484799 231.013833,104.267999 C228.802759,105.056527 212.736505,109.675808 208.239765,108.349163 C204.648767,107.291577 195.876396,101.785202 192.487857,99.6114227 C192.610399,99.3290445 192.738268,99.0413384 192.876793,98.7376486 C198.585628,85.9906706 214.217659,53.6263997 200.503668,35.2318577 C184.384136,13.6352535 135.644593,0.155690543 111.466626,4.97743145 C87.2939869,9.8071642 90.7730995,25.7162453 92.4833523,27.9912545 C92.7124516,28.2949443 94.300163,28.4760925 96.8415667,28.646585 C96.8602144,30.6818392 98.4505897,34.5232483 99.2524372,34.925504 C100.16617,35.3863665 102.624992,31.2172922 102.667615,28.9795782 C104.766804,29.0967918 107.095092,29.232653 109.601865,29.4058094 C109.862931,31.7021302 111.408019,35.4556291 112.16458,35.8871882 C113.054338,36.3800181 115.252092,32.3547968 115.44656,29.8693359 C118.640631,30.157042 121.986546,30.5113467 125.369756,30.9908569 C125.409716,33.2525464 127.189231,37.7759254 128.023046,38.2554356 C128.931451,38.7988804 131.163837,34.488617 131.273059,31.9392214 C134.571023,32.5386091 137.839684,33.2605382 140.9565,34.1369762 C141.111009,36.4732562 142.802614,40.6876176 143.599134,41.156472 C144.382334,41.6199984 146.124554,38.527158 146.678655,36.0203855 C146.726606,36.0390331 146.777221,36.0576807 146.825172,36.0736644 C158.607801,40.5677401 166.591645,48.0214589 162.912737,60.6325757 C160.190185,69.9510562 154.233603,74.924642 146.811852,77.2715778 C146.609392,75.412144 145.735618,73.2623402 145.066968,73.4275048 C144.246473,73.6352925 141.84093,76.8586663 141.593183,78.4623613 C139.110386,78.8486334 136.531687,79.0297816 133.899709,79.0324456 C134.102169,77.0851016 132.967328,73.75517 132.138841,73.9602938 C131.342322,74.1574258 129.056657,77.1943234 128.686368,78.8433055 C126.022423,78.6515014 123.342494,78.3265001 120.69986,77.9215804 C121.070149,76.043499 119.858054,72.3272954 118.981616,72.5430749 C118.203744,72.7375429 116.005989,75.6439072 115.566438,77.3142009 C115.526479,77.2262907 115.494511,77.1330526 115.489184,77.0211669 C112.550852,76.4564105 109.708422,75.8303834 107.039149,75.215012 C107.515995,73.3955374 106.258613,69.4555624 105.355536,69.6819977 C104.582992,69.8764657 102.393229,72.7695103 101.943022,74.4424679 C101.887079,74.3225904 101.84712,74.1787373 101.86044,74.000253 C95.7626689,72.5617226 91.1007647,71.5147921 89.142765,72.0795485 C85.3866021,73.1557823 82.3310569,78.8512973 80.4955987,85.4525536 C76.3185325,85.6097264 65.8998426,85.8921046 62.2022866,84.9863632 C57.5297266,83.8408668 45.491358,71.6266778 43.9063106,69.815195 C42.4624523,68.1635489 47.8702611,66.45596 44.6415595,62.1590163 C47.489317,59.0475283 49.2768242,57.0602251 49.2768242,57.0602251 C49.2768242,57.0602251 58.3582136,45.629236 49.5645303,39.3156858 C40.770847,33.0047995 34.1589349,43.1863982 34.1589349,43.1863982 C34.1589349,43.1863982 38.7169452,48.210599 39.3962513,47.235595 C41.2317096,40.4531904 50.4329765,42.7202078 48.7413712,47.9761718 C48.2885005,49.380071 44.9266016,53.3866446 40.2726893,58.5813379 C36.7243142,57.0548972 34.4626247,59.7614656 31.8972454,61.9618844 C29.3078906,64.1782868 26.1138202,68.8135516 27.2966119,72.8014776 C16.3264854,84.7865673 5.44160506,96.966125 6.33935461,99.1771996" id="Fill-1"></path>
        </g>
    </g>
</svg>