<?xml version="1.0" encoding="utf-8"?>
<!-- Generator: Adobe Illustrator 20.1.0, SVG Export Plug-In . SVG Version: 6.00 Build 0)  -->
<svg version="1.1" id="Laag_1" xmlns="http://www.w3.org/2000/svg" xmlns:xlink="http://www.w3.org/1999/xlink" x="0px" y="0px"
	 viewBox="0 0 68.5 80.1" style="enable-background:new 0 0 68.5 80.1;" xml:space="preserve">

	<path d="M64.7,46.5c-2.6-2.6-4.8-4.2-7.5-5.3c-1.2-7.4-6.5-16.4-13-26.7C32.5-4.1,16.8-1.2,11.2,3.5c-4,3.3-6.7,6.9-6.5,10.7
		c-2.2-1-5.2,0-4.6,3.6c0.5,2.9,5,3,6.3,0.9c1.4,2.1,2.5,2.8,5.6,3c0.4,0,0.8-0.1,1.3-0.3c0,0-0.1,0.1-0.1,0.1
		c-0.1,0.2,0.9,2.6,1.3,2.6c0.5,0,3-1.3,3.1-1.5c0.1-0.2-0.8-2.7-1.1-2.7c0.7-0.4,1.5-0.8,2.2-1.2c-0.1,0.2,0.9,2.6,1.3,2.6
		c0.5,0,3-1.3,3.1-1.5c0.1-0.2-0.8-2.7-1.1-2.7c-0.1,0,0.9-0.5,1.6-0.7c0.2,0.6,0.8,2,1,2c0.3,0.1,1.9-0.8,1.9-1
		c0-0.1-0.3-1-0.5-1.7c0.9-0.1,1.6,0,2.2,0.5c1.7,1.3,0.4,3.4-1.2,5.3c-0.2-0.5-0.4-0.9-0.6-0.9c-0.3,0-3.2,1.3-3.3,1.7
		c0,0.2,0.6,1.8,1.1,2.4c-0.4,0.5-0.7,1-0.7,1.4c0.1,1.9,3.4,0,4.7,0.9c1.4,0.9,1.3,1.4-0.5,5.1c-2.9,6.3-6.2,10.4-6.2,15.6
		c-4.6,4.8-5.9,7.8-6.8,13.7c-0.9,5.8,1.4,9.5,3.4,8.7c2-0.8-2.9-10.7,3.7-19.8c0.1,0.5,0.8,1,1,1.5c0.5,1.7,3.4,4.1,7.4,5.8
		c-1,3.1-2.7,6-2.7,10.2c-0.1,5.9,2.4,9.2,4.2,8.2c1.7-0.9-3.4-8.7-0.2-17.5c3.1,1,6.7,1.5,10.6,0.9c5.7,10.3-1.2,19.6,0.7,20.7
		c1.8,1.1,4.6-2.1,4.8-8c0.1-5.4-0.5-8.6-3.5-13.2c2.1-0.6,4.3-1.5,6.5-2.9c0.9-0.6,1.7-1.1,2.3-1.7c6.9,9.4,1.4,19.5,3.4,20.4
		c1.9,0.8,4.3-2.7,3.7-8.6c-0.6-5.6-1.8-8.7-5.7-13.2c2.1-2.4,3.1-5.2,3.1-8.4c6.5,4.4,8.2,11.6,9.9,11.1
		C69.3,54.9,68.9,50.6,64.7,46.5z M14.3,11.8c-0.2,2.9-4.6,4-5.8,0.6c-1.3-3.7,3-5.4,5-3.1c0-3.4,5-4.4,6.3-0.7
		C21,12.4,16.3,14.5,14.3,11.8z"/>
	<path d="M17,9.3c-0.1,0.4-0.8,0.5-1,0C16,9.1,16,9,16.1,8.9c-0.6,0-1.2,0.5-1,1.3c0.4,1.2,2.4,0.6,1.9-0.7C17.1,9.4,17,9.4,17,9.3z
		"/>
	<path d="M12.6,10.9c-0.1,0.4-0.7,0.5-0.9,0c-0.1-0.2,0-0.3,0.1-0.4c-0.6,0-1.1,0.5-0.9,1.2c0.4,1.1,2.2,0.5,1.7-0.6
		C12.7,11,12.6,11,12.6,10.9z"/>
</svg>
