<svg xmlns="http://www.w3.org/2000/svg" viewBox="0 0 167.74 156.35"><defs><style>.cls-1{fill:#0c0c0c;}.cls-2{fill:#111;}</style></defs><title>Asset 12</title><g id="Layer_2" data-name="Layer 2"><g id="Layer_1-2" data-name="Layer 1"><path d="M162,73.85c4.14-3.44,5.51-7.7,5.79-12.68-.69-8.8-4.86-15.79-11.39-21.45a48.85,48.85,0,0,0-17.93-9.57,94.32,94.32,0,0,0-24-4c-7.22-.29-7.39-.53-4.65-7.5a28.39,28.39,0,0,0,1.22-3.25c.38-1.43,1.14-3.23-.15-4.23s-2.77.24-4,1.14c-1.73,1.3-3.49,2.55-5.2,3.86-1.14.87-2.43,1.42-3.7.73s-1.07-2.29-1-3.58c.08-2.66.28-5.31.43-8a3.27,3.27,0,0,0-2.17-3.52c-1.59-.68-2.56.26-3.39,1.27-1.89,2.3-3.58,4.76-5.51,7C84,12.84,82,12.64,81.05,9c-.47-1.75-.67-3.58-1-5.38C79.62,1.53,78.78-.15,76.2,0c-2.72,2.51-1.93,6.17-3,9.23-.51,1.54-.32,3.51-2.4,3.85s-2.78-1.44-3.74-2.76c-1.25-1.75-2.45-3.55-3.77-5.24s-2.92-2.48-4.81-1.75c-2.23.86-1.79,3-1.39,4.75.51,2.24,1.45,4.38,2,6.61.31,1.35,1.79,2.94.28,4.12-1.21.95-2.45-.53-3.59-1.06-1.94-.9-3.74-2.12-5.64-3.15a3.18,3.18,0,0,0-3.33-.1c-1.29.9-1.11,2.43-.63,3.66a59.32,59.32,0,0,0,3.14,6.71c1.75,3.17.77,5.06-2.54,5.88C42,32,37.14,33.14,32.28,34.14,14.07,37.88,2.88,48.18,0,64l0,8.42c1.38,5.9,3.78,11.08,10.05,13.18a4.46,4.46,0,0,1,3,3.52c1.27,4.57,1.79,8.72-1.57,13.07-3.11,4-3,9-.42,13.67.68,1.2,1.76,2.3,3.21,1.71,1.63-.68.23-2,.24-3,0-2.51-1.67-5-.13-8,1.54,3.15,2.81,5.93,4.28,8.6.41.74.87,2.15,2.11,1.69a2.37,2.37,0,0,0,1.35-2.93c-.69-2.55-1.49-5.08-2.37-7.57-.75-2.12-.91-4.37,1.63-4.82,2.23-.39,1.28,2.1,1.68,3.32.28.86-.23,2.13,1.24,2.3s2.05-1,2.43-2.08c1.27-3.6-.09-6.06-3.4-7.76-5.51-2.84-5.91-9.52-.79-12.8,1.83-1.18,3-2.61,2.71-4.9-.27-2.48-.47-5-.75-7.45-.7-6.1,1.19-9.22,5.86-9.58,7.29-.56,11.76,2.69,12,8.7.19,5.2-2,9.72-4.11,14.22C32.81,96.86,31.9,108.82,34.4,121c1.43,7,5,13.1,12.82,14.23,4.83.69,6.34,3.73,7.32,7.47,1.05,4-2.81,4.64-5,6.36-2,1.56-6.1,2.07-5.47,4.84.55,2.41,4.39,2.21,7,2.42l10.24,0c5.29-.84,5.78-1.61,3.66-6.33-1.84-4.08-3.89-8.08-5.69-12.18-.53-1.21-1.5-2.7.76-3.67,6.21-2.66,7.47-8,7.23-14-.19-4.82-.72-9.62-.85-14.44-.19-6.88,2.64-10.32,8.39-10.72,6.31-.45,8,4.35,9.94,8.76,3.35,7.75,5.17,16.11,9.38,23.53,4,7.08,9.95,10.82,18.07,8.91,4.65-1.1,5.83,1.65,7.38,4.57,1.87,3.52-.76,5.13-3,6.85-1.72,1.3-3.59,2.43-5.18,3.87-2,1.82-1.49,3.37,1.15,3.62,5.47.5,10.95.69,16.37-.68,3.5-.89,4.33-2.69,2.47-5.77-2.31-3.84-4.54-7.72-6.92-11.52-1.84-2.94-1.77-4.89,1.39-7.3,7.36-5.63,8.59-12,4.36-20.23-2.28-4.41-5-8.63-7.62-12.83-5.62-8.83-5.33-17.87-1.11-27.06,3.67-8,13-13.64,20.72-2.12,2.08,3.12,4.24,6.34,8.09,7.87,1.54.61,4.67-.41,4.18,2.91-.45,3,1.21,6.52-3.26,8.41-4,1.69-4.94,6.11-3,9.75.4.77.86,1.55,1.77,1.51s1.19-1,1.24-1.83,0-1.67.11-2.49-.2-2.32,1.12-2.4,1.93,1.26,1.94,2.4a14.94,14.94,0,0,1-.56,4.42c-.75,2.54-1.83,5-1.74,7.72,0,.87-.32,2.12,1.12,2.31a1.94,1.94,0,0,0,2.23-1.51c1.07-3,2.22-5.89,3.72-9.85.89,3.81-.11,6.38-.12,9,0,1.12-1.56,2.67.44,3.33s2.57-1.12,3-2.51a19.67,19.67,0,0,0-1.86-16.75C158.45,86.27,158.89,76.4,162,73.85ZM89.83,31.53a42,42,0,0,1-27.09,3.35A4.23,4.23,0,0,1,59,30.76c-.09-2.32,1.13-3.73,3-4.71,6.08-3.14,12.74-3.38,18.1-3.89,3.74,0,6.22-.11,8.62.88,1.82.76,3.13,1.85,3.39,3.9A4.22,4.22,0,0,1,89.83,31.53Z"/><path class="cls-1" d="M73.2,29c.21,2.94-1.56,3.61-3.43,3.81-2,.21-3.61-.63-3.69-3-.07-2.17,1.46-2.85,3.21-3.06C71.31,26.47,72.9,27.08,73.2,29Z"/><path class="cls-2" d="M81.71,26c1.46-.23,2.72.24,2.73,2.19,0,2.17-1.62,2.68-3.3,2.75s-2.91-.64-3-2.5C78.15,26.2,79.63,25.84,81.71,26Z"/></g></g></svg>