<?xml version="1.0" encoding="UTF-8"?>
<svg width="209px" height="205px" viewBox="0 0 209 205" version="1.1" xmlns="http://www.w3.org/2000/svg" xmlns:xlink="http://www.w3.org/1999/xlink">
    <!-- Generator: Sketch 43.2 (39069) - http://www.bohemiancoding.com/sketch -->
    <title>Page 1</title>
    <desc>Created with Sketch.</desc>
    <defs>
        <polygon id="path-1" points="0 206.023376 0 0.999284068 208.458363 0.999284068 208.458363 206.023376 1.0852606e-14 206.023376"></polygon>
    </defs>
    <g id="Website-2" stroke="none" stroke-width="1" fill="none" fill-rule="evenodd">
        <g id="Artboard-9" transform="translate(-42.000000, -5.000000)">
            <g id="Page-1" transform="translate(42.000000, 4.000000)">
                <mask id="mask-2" fill="white">
                    <use xlink:href="#path-1"></use>
                </mask>
                <g id="Clip-2"></g>
                <path d="M35.5675193,58.5440902 C33.8023506,49.9197244 45.1689289,45.2822122 47.8003145,56.2630171 C49.6158446,63.8171878 37.332688,67.1810171 35.5675193,58.5440902 M21.1163024,66.8368463 C16.4175795,59.4610415 25.0621217,55.451578 28.9248446,61.0688463 C32.7774952,66.6810902 24.3469892,71.9039439 21.1163024,66.8368463 M195.140278,82.384822 C183.013242,81.2668951 174.857206,42.5564805 163.540989,27.2697732 C157.38682,18.9418463 134.323796,-12.5862024 92.3978928,8.38811463 C80.6410133,14.9323829 82.061206,40.9486756 65.8322301,41.9133585 C57.258194,29.3724805 39.4503867,15.8845049 39.4503867,15.8845049 C35.9124952,12.3649195 41.5806759,7.52140732 42.351206,6.78030976 C43.1217361,6.04172439 32.805194,7.28274878 31.9616398,13.1838951 L32.1832301,13.2667976 C29.914447,12.5658951 27.615447,12.0936024 25.2963024,11.8800659 C22.599447,8.47101707 25.9308566,2.20560244 26.4168446,1.15801707 C26.953194,0.00240731707 16.7600373,5.30565122 17.1830735,12.2141878 C15.6243867,12.4804805 14.0631819,12.8497732 12.4944229,13.3723098 C10.9886157,13.8747488 9.65151928,14.4801878 8.45291687,15.1660171 C8.82307349,8.87799268 10.3112542,3.17530976 10.6335675,1.74335854 C11.2479771,-0.994934146 -1.97945663,9.51609024 0.254073494,27.8048707 C-2.15823976,45.2395049 13.9549048,71.6753341 16.9891819,80.5408707 C17.4575434,81.9024805 19.8547482,81.9853829 23.2994711,81.3648707 C24.3620976,87.1077488 30.7428928,89.8385049 30.2896398,88.9316024 C29.8917843,88.1327244 27.4291096,83.723822 28.0787723,80.2670415 C30.7353386,79.5560902 33.6714108,78.6567244 36.6653988,77.7096268 C36.6653988,77.6191878 36.6477723,77.531261 36.6502904,77.4307732 C37.4585916,83.5479683 44.2724952,86.4997976 43.8041337,85.5602366 C43.3710253,84.6885049 40.4802783,79.5309683 41.8425554,75.9912854 L42.733953,75.7476024 C45.345194,74.9462122 47.8909651,74.1624073 50.2252181,73.5067244 C50.9151699,79.6766756 57.7869892,82.6360415 57.3161096,81.6964805 C56.8830012,80.8247488 54.0048446,75.6571634 55.3897843,72.1149683 L56.2459289,71.8813341 C56.177941,71.9516756 56.1300976,72.0370902 56.0696639,72.1124561 C57.4218687,71.8863585 58.5650735,71.7833585 59.4035916,71.8813341 C67.1542181,72.7706512 78.4830253,125.4137 73.7137964,131.659017 C72.9885916,132.606115 70.3949771,133.291944 67.1441458,133.784334 C64.1501578,131.02092 65.7390614,124.682651 65.9430253,123.655163 C66.1570614,122.55231 59.2046639,128.2977 60.5442783,134.502822 C57.2153867,134.76409 53.9746277,134.902261 51.7637602,134.97009 C49.943194,131.161602 52.0785193,125.157456 52.3907602,124.129968 C52.7508446,122.944212 45.2797241,127.800285 46.1409048,135.319285 C44.0458687,135.58809 41.4472181,135.982505 39.3093747,136.321651 C38.3424349,132.950285 39.9766639,128.405724 40.2360253,127.566651 C40.5608566,126.526602 34.0289771,130.71192 34.5325916,137.228554 C31.6368084,138.183188 29.184206,139.529724 27.5071699,141.476676 C18.2658446,152.178627 12.0059169,200.656456 31.3824831,206.014968 C38.8359771,206.607846 25.5405554,175.705334 36.4488446,157.537139 C41.2231096,149.586041 67.4538687,149.209212 71.6263145,153.670871 C75.8012783,158.132529 75.8012783,190.250944 86.9840373,193.521822 C98.1693145,196.790188 85.6368687,166.161505 86.9840373,161.104456 C88.3337241,156.04992 93.9842783,153.96731 95.4749771,146.830163 C96.9656759,139.690505 95.7746277,109.355749 82.061206,73.3660415 C80.7643988,69.9620171 79.341688,66.5806024 77.8132181,63.2519439 C77.8132181,63.2569683 80.4748205,42.5313585 98.9574711,45.3148707 C117.440122,48.0883341 119.862507,73.3811146 119.230471,79.8173585 C118.51282,86.9419439 107.6977,98.2568707 109.880869,116.09848 C111.132351,126.330651 125.379604,137.514944 125.379604,137.514944 C125.379604,137.514944 114.851543,115.50309 125.978905,104.595139 C128.683314,101.944773 129.758531,125.4137 144.864447,139.095115 C156.110158,149.279554 146.84617,174.858724 146.84617,174.858724 C146.84617,174.858724 159.174652,159.916188 157.182857,141.725383 C155.191061,123.547139 148.921061,109.091968 155.609061,109.951139 C172.686628,112.1267 171.697025,135.32431 171.697025,135.32431 C171.697025,135.32431 182.821869,109.152261 171.697025,85.5627488 C208.065543,106.974188 208.458363,79.2194561 208.458363,79.2194561 C208.458363,79.2194561 203.235881,83.1334561 195.140278,82.384822" id="Fill-1" fill="#000000" mask="url(#mask-2)"></path>
            </g>
        </g>
    </g>
</svg>