<svg xmlns="http://www.w3.org/2000/svg" viewBox="0 0 74.48 70.45"><g data-name="Laag 2"><path d="M40.38 53.53c0 3.27 8.06 4.58 13.07 1.82 8.53-4.7 2-18.56 2.24-23.86C55.94 25.6 80.13 0 73.25 0 71.35 0 65 8 58.84 8s-36.63-3.61-46.9 1.6S.17 20.27 1.33 22a17.68 17.68 0 0 0 2-.1 3.42 3.42 0 0 0 .34 1.59c.54 1 1.24 1.55 1.56 1.38S7 22.64 6.9 21.7c.88-.08 1.84-.14 2.85-.2a3.24 3.24 0 0 0 .33 1.41c.54 1 1.24 1.55 1.56 1.38a6.59 6.59 0 0 0 1.71-3c1.78-.08 3.64-.15 5.48-.18a3 3 0 0 0 .33 1.41c.54 1 1.24 1.49 1.56 1.32a6.52 6.52 0 0 0 1.69-2.74c1.72 0 3.37.08 4.86.2a2.6 2.6 0 0 0 .26 1.13c.43.8 1 1.24 1.24 1.1A5.72 5.72 0 0 0 30 21.64c2.54.41 4.21 1.11 4.31 2.23.18 2.1-2.9 3.57-7.27 4.73a7.9 7.9 0 0 0-1.62-2.6c-.34-.19-1.08.42-1.64 1.52a4.1 4.1 0 0 0-.35 1.93c-1.54.32-3.15.61-4.78.89a7.89 7.89 0 0 0-1.75-2.76c-.36-.19-1.13.42-1.72 1.52a3.86 3.86 0 0 0-.37 1.9c-1.79.29-3.54.57-5.18.86A8 8 0 0 0 8 29c-.32-.19-1 .42-1.56 1.52a4.26 4.26 0 0 0-.33 1.91C2.49 33.23 0 34.07 0 35.22c-.33 4.89 19.78 6.44 20.55 8.2s0 4.85 1 9.11c1 4.06 7.29 18.51 21.54 17.9S56.9 59.05 55.58 58.94 49 71.7 37.9 62.37c-5.24-4.37-5.07-15.3 3.39-16.47 6.39-.88 7.61 3.15 7.44 5.3-1.94 5.26-8.35.22-8.35 2.33zM21.86 16.7a3.48 3.48 0 0 1-4.06-.11c-.79-.69-1-1.64 0-2.32 1.47-1 4.41-.79 5.3.18.49.55.18 1.44-1.24 2.25z" data-name="Layer 2"/></g></svg>