<?xml version="1.0" encoding="utf-8"?>
<svg viewBox="330.832 86.915 85.917 59.884" xmlns="http://www.w3.org/2000/svg">
  <path d="M372.739,101 C372.739,94 364.406,94 364.406,101 C364.406,104 372.739,104 372.739,101 Z M366.148,101 C366.148,96 370.998,97 370.998,101 C370.998,103 366.148,103 366.148,101 L366.148,101 Z" id="Fill-56" fill="#000000"/>
  <path d="M367.87,101 L369.275,101 C369.275,99 367.87,99 367.87,101" id="Fill-57" fill="#000000"/>
  <path d="M385.035,101 C385.035,94 376.704,94 376.704,101 C376.704,104 385.035,104 385.035,101 Z M383.295,101 C383.295,103 378.446,103 378.446,101 C378.446,97 383.295,96 383.295,101 L383.295,101 Z" id="Fill-58" fill="#000000"/>
  <path d="M372.486,112.047 C371.598,112.019 370.769,111.997 370.047,112.021 C370.015,112.156 369.983,112.29 369.959,112.423 C369.904,112.769 369.871,113.114 369.876,113.46 C369.886,113.998 369.937,114.536 370.1,115.074 C370.767,115.208 371.519,115.297 372.325,115.353 C372.569,114.722 372.638,114.091 372.651,113.46 C372.658,113.114 372.625,112.769 372.569,112.423 C372.547,112.298 372.518,112.172 372.486,112.047" id="Fill-59" fill="#000000"/>
  <path d="M381.575,101 C381.575,99 380.168,99 380.168,101 L381.575,101" id="Fill-60" fill="#000000"/>
  <path d="M369.321,112.067 C368.195,112.185 367.48,112.505 367.48,113.28 C367.48,114.05 368.189,114.557 369.309,114.886 C369.428,114.41 369.472,113.935 369.481,113.46 C369.488,113.114 369.454,112.769 369.398,112.423 C369.379,112.304 369.348,112.188 369.321,112.067" id="Fill-61" fill="#000000"/>
  <path d="M380.453,112.05 C380.393,112.25 380.339,112.453 380.307,112.656 C380.251,113.002 380.217,113.348 380.225,113.694 C380.236,114.123 380.273,114.551 380.368,114.978 C381.685,114.655 382.552,114.127 382.552,113.28 C382.552,112.451 381.722,112.143 380.453,112.05" id="Fill-62" fill="#000000"/>
  <path d="M416.075,103.18 C416.412,101.883 417.127,98.51 415.508,98.378 C413.996,98.255 413.903,101.293 413.947,102.783 C412.941,102.975 412.155,102.845 411.13,102.425 C411.48,101.017 412.051,97.954 410.51,97.831 C409.002,97.708 408.904,100.724 408.951,102.221 C407.968,102.425 407.147,102.382 406.097,102.025 C406.437,100.696 407.112,97.413 405.516,97.284 C403.886,97.15 403.901,100.671 403.965,102 C403.965,102 402.976,103.063 402.718,104.68 C401.117,103.983 398.408,103.114 397.972,104.928 C397.515,106.812 400.555,107.467 402.259,107.685 C401.69,111.983 402.976,117.865 399.851,122.847 C396.567,128.076 386.134,126.407 383.251,125.832 C384.287,120.051 393.778,121.431 395.687,120.953 C397.65,120.465 394.344,86.911 375.829,86.915 C350.847,86.919 355.971,123.77 356.34,125.127 C356.635,126.208 362.705,126.183 365.209,129.124 C362.106,129.893 352.15,131.897 348.68,126.958 C345.296,122.147 346.274,116.21 345.474,111.948 C347.171,111.642 350.168,110.828 349.612,108.97 C349.085,107.181 346.428,108.189 344.862,108.974 C344.519,107.369 343.479,106.358 343.479,106.358 C343.473,105.03 343.304,101.512 341.683,101.727 C340.097,101.945 340.937,105.182 341.351,106.498 C340.316,106.906 339.503,106.995 338.514,106.839 C338.479,105.343 338.221,102.338 336.72,102.537 C335.185,102.744 335.923,105.77 336.345,107.165 C335.345,107.634 334.564,107.801 333.552,107.665 C333.518,106.175 333.267,103.143 331.76,103.348 C330.148,103.563 331.04,106.895 331.448,108.171 C331.448,108.171 330.814,108.999 330.931,111.209 C331.001,112.553 335.397,129.75 343.715,132.567 C350.057,134.717 362.315,132.346 366.272,132.026 C366.367,137.868 360.874,137.505 360.015,138.4 C359.159,139.297 364.189,146.081 375.34,146.774 C386.494,147.46 394.096,133.699 394.096,133.214 C394.096,132.807 385.992,132.648 383.742,128.887 C388.58,129.201 399.413,130.452 405.102,128.187 C413.261,124.936 416.744,107.532 416.749018,106.185 C416.753,103.971 416.075,103.18 416.075,103.18 Z M385.976,101 C385.976,106 375.763,106 375.763,101 C375.763,94 385.976,91 385.976,101 Z M363.467,101 C363.467,91 373.676,94 373.676,101 C373.676,106 363.467,106 363.467,101 Z M374.721,117.454 C369.007,117.454 364.724,117.199 364.724,113.404 C364.724,109.605 369.007,109.943 374.721,109.943 C380.434,109.943 384.719,109.605 384.719,113.404 C384.719,117.199 380.434,117.454 374.721,117.454 L374.721,117.454 Z" id="Fill-63" fill="#000000"/>
  <path d="M376.084,112.089 C375.729,112.096 375.374,112.102 375.016,112.102 C374.404,112.102 373.799,112.087 373.207,112.067 C373.18,112.188 373.15,112.304 373.131,112.423 C373.073,112.769 373.043,113.114 373.047,113.46 C373.062,114.108 373.131,114.757 373.392,115.407 C373.925,115.426 374.47,115.436 375.016,115.436 C375.308,115.436 375.598,115.432 375.888,115.427 C376.156,114.77 376.226,114.116 376.24,113.46 C376.245,113.114 376.214,112.769 376.156,112.423 C376.137,112.31 376.111,112.2 376.084,112.089" id="Fill-64" fill="#000000"/>
  <path d="M379.586,112.013 C378.751,112.001 377.799,112.04 376.796,112.07 C376.769,112.188 376.739,112.304 376.718,112.423 C376.662,112.769 376.63,113.114 376.636,113.46 C376.649,114.104 376.72,114.749 376.974,115.394 C377.94,115.35 378.852,115.268 379.653,115.131 C379.773,114.652 379.817,114.173 379.829,113.694 C379.836,113.348 379.803,113.002 379.747,112.656 C379.708,112.44 379.655,112.227 379.586,112.013" id="Fill-65" fill="#000000"/>
</svg>