<?xml version="1.0" encoding="UTF-8"?>
<svg width="134px" height="177px" viewBox="0 0 134 177" version="1.1" xmlns="http://www.w3.org/2000/svg" xmlns:xlink="http://www.w3.org/1999/xlink">
    <!-- Generator: Sketch 43.2 (39069) - http://www.bohemiancoding.com/sketch -->
    <title>Page 1</title>
    <desc>Created with Sketch.</desc>
    <defs></defs>
    <g id="Website-2" stroke="none" stroke-width="1" fill="none" fill-rule="evenodd">
        <g id="Artboard-9" transform="translate(-75.000000, -9.000000)" fill="#000000">
            <g id="Page-1" transform="translate(75.000000, 9.000000)">
                <g id="Group-3" transform="translate(0.000000, 0.179095)">
                    <path d="M94.7342596,93.7928211 C76.2072421,95.9719658 67.5986807,92.6877684 66.5584,84.2164921 C65.5181193,75.7523605 73.0816281,70.4866895 91.5871719,68.1360711 C110.09033,65.7902158 118.682189,68.9124658 119.760646,77.7124 C120.839102,86.5147158 113.258891,91.6112947 94.7342596,93.7928211 M77.3882947,112.150032 C76.5054877,109.544584 76.5054877,109.544584 77.3882947,112.150032 M114.301558,5.71726842 C98.2368561,-3.58517895 23.0694175,-1.66324474 7.97103158,15.6555974 C-6.37338947,32.1075447 0.295382456,95.8195447 14.8951018,107.041545 C18.5217684,109.827992 26.4002246,111.647518 36.4117333,112.564426 C35.7341193,114.624492 34.9682246,117.232321 34.2762947,120.171189 C26.1162947,116.172518 14.6588912,112.290545 11.6740491,120.11165 C8.79418947,127.654111 23.3485754,132.174347 32.2816281,134.191545 C32.0501895,141.121939 33.1525053,148.149979 37.0106105,153.532347 C29.4614175,158.790874 18.6506105,168.083795 24.7205053,174.861768 C30.5685053,181.396821 42.689207,168.07665 48.1244351,161.370124 C51.4266105,162.444216 55.3443649,163.044374 60.0089263,163.044374 C66.2219789,163.044374 70.8340491,161.608282 74.2125754,159.202887 C80.296786,166.064216 89.7141895,174.718874 94.6602947,169.195992 C100.940154,162.182242 89.1415579,152.472545 81.5899789,147.330716 C82.6350316,142.7819 82.6565053,137.704374 82.131593,132.741163 C91.0479439,130.733492 105.802751,126.213255 102.906189,118.620782 C99.8211368,110.535321 87.6837333,114.95315 79.4974877,119.082808 C78.7745404,116.398768 78.0277333,114.026716 77.3882947,112.152413 C99.673207,110.094729 120.679242,105.255361 127.147593,98.0629921 C141.284435,82.3540974 130.361488,15.0101895 114.301558,5.71726842" id="Fill-1"></path>
                </g>
                <path d="M101.683621,75.4613316 C98.8204632,75.7780816 97.1312,77.5833184 97.4604632,80.5626737 C97.7921123,83.5420289 99.8392702,84.9304895 102.704814,84.6137395 C105.567972,84.2922263 107.257235,82.4846079 106.927972,79.5123974 C106.593937,76.5330421 104.549165,75.1398184 101.683621,75.4613316" id="Fill-4"></path>
                <path d="M83.1038737,76.8288342 C79.6561544,77.2527553 78.0647158,79.6390974 78.4679439,82.9399658 C78.8783298,86.2408342 80.9922947,88.1722947 84.4424,87.7507553 C87.8901193,87.3292158 89.476786,84.9452553 89.0711719,81.6420053 C88.6655579,78.3387553 86.549207,76.4072947 83.1038737,76.8288342" id="Fill-6"></path>
            </g>
        </g>
    </g>
</svg>