<svg xmlns="http://www.w3.org/2000/svg" viewBox="0 0 68.63 77.25"><g data-name="Laag 2"><path d="M48.87 0C31.79.31 22.28 18.95 17.32 33.07a32.94 32.94 0 0 1-4.7-2.69 18 18 0 0 1-4.33-4.05c-.1-.41 1.6-1.65 1.14-2.07S7.34 26 7 25.59s1.33-2.28.93-2.63S5.34 24.71 5 25.69s2.69 3.94 5.92 6.31a27.35 27.35 0 0 0 5.6 3.43c-.74 2.33-1.34 4.6-1.82 6.75a31.9 31.9 0 0 1-5.1-.14 17.9 17.9 0 0 1-5.74-1.49c-.29-.31.61-2.22 0-2.36s-1 2.5-1.51 2.35.08-2.65-.44-2.75S.5 40.57.72 41.57s4.2 2.2 8.19 2.77a35.59 35.59 0 0 0 5.27.4c-.35 1.85-.59 3.58-.75 5.14a31.17 31.17 0 0 1-4.43.68 17.83 17.83 0 0 1-5.92-.4c-.34-.25.19-2.29-.43-2.32s-.53 2.64-1 2.58-.42-2.61-.94-2.62-.88 3-.49 3.92 4.54 1.38 8.56 1.19a37.63 37.63 0 0 0 4.52-.47 14 14 0 0 0 .42 4.71c.92 2.58 4 4 7.82 4.59-.37 6.58-.18 12.2-.07 14.52a1.19 1.19 0 0 0 .38.81c.37.35 1.18.08 1.6-.24a1.35 1.35 0 0 1 1.53 0c.42.32 1.23.6 1.56.24a1.07 1.07 0 0 0 .29-.81c-.28-4.77-.42-9.72-.49-14.09 1.65 0 3.34 0 5-.09-.07 4.39-.21 9.37-.49 14.18a1.07 1.07 0 0 0 .29.81c.33.36 1.14.08 1.56-.24a1.36 1.36 0 0 1 1.53 0c.42.32 1.23.59 1.6.24a1.19 1.19 0 0 0 .38-.81A144.9 144.9 0 0 0 36 61.63a45 45 0 0 0 4.9-.89c2.33-.59 3-4.74 3-9.72 1 .2 2.16.4 3.63.57 4 .47 8.16.31 8.62-.6s.33-3.92-.15-3.99-.6 2.53-1.11 2.55S54.59 47 54 47s-.23 2.06-.59 2.29a18 18 0 0 1-5.93 0 28.37 28.37 0 0 1-3.6-.76 94.81 94.81 0 0 0-.4-5.35A40.3 40.3 0 0 0 48 43c4-.28 8.08-1.22 8.36-2.2s-.43-3.91-1-3.84-.12 2.59-.62 2.71-.74-2.54-1.35-2.44.16 2.07-.15 2.36a18.05 18.05 0 0 1-5.83 1.1 29.08 29.08 0 0 1-4.23-.13c-.5-4.35-1-7.85-1-8.51.21-1.89 10.28-1.21 10.4-4.25.2-4.91-9.43-3.68-8.09-7.88s20.67 9.64 24-5.24C69.55 10.16 63.11-.25 48.87 0zm-.09 14.1a2.53 2.53 0 0 1-2.7-2.81 2.7 2.7 0 1 1 5.4 0 2.53 2.53 0 0 1-2.7 2.81zm11.07.39A2.21 2.21 0 0 1 57.49 12a2.36 2.36 0 1 1 4.71 0 2.21 2.21 0 0 1-2.35 2.49z" data-name="Layer 1"/></g></svg>
