<?xml version="1.0" encoding="utf-8"?>
<svg viewBox="312.752 81.565 40.907 51.908" xmlns="http://www.w3.org/2000/svg">
  <path d="M339.245,106.677 C337.602,106.138 336.374,106.878 335.846,108.453 C335.317,110.028 335.857,111.347 337.5,111.885 C339.147,112.421 340.374,111.683 340.903,110.107 C341.431,108.532 340.893,107.213 339.245,106.677" id="Fill-143" fill="#000000"/>
  <path d="M349.242,107.728 C348.105,107.111 347.014,107.346 346.367,108.528 C345.722,109.707 346.202,110.753 347.226,111.366 C348.254,111.975 349.478,111.744 350.125,110.563 C350.772,109.383 350.378,108.346 349.242,107.728" id="Fill-144" fill="#000000"/>
  <path d="M332.088,81.583 C331.546,82.138 335.387,85.21 334.648,85.946 C333.91,86.681 320.667,85.603 315.902,92.743 C315.149,93.986 321.701,92.299 321.453,93.827 C321.208,95.351 314.266,97.173 312.789,105.669 C312.346,107.563 316.038,102.491 317.182,102.979 C318.321,103.466 312.566,112.408 317.022,115.784 C317.933,116.474 320.148,116.972 323.049,117.286 C323.124,118.535 323.19,120.01 323.205,121.511 C323.268,127.246 321.901,132.531 322.406,133.078 C322.661,133.354 324.189,133.415 325.725,133.457 C327.431,133.505 329.147,133.49 329.136,132.826 C329.116,131.367 326.158,132.405 326.283,130.723 C326.409,129.04 329.042,130.008 329.152,128.788 C329.263,127.568 326.066,128.535 326.066,127.484 C326.066,126.432 326.244,124.326 325.94,121.342 C325.816,120.131 325.588,118.741 325.353,117.488 C327.869,117.662 330.714,117.724 333.592,117.676 C333.657,118.837 333.711,120.164 333.727,121.511 C333.787,127.246 332.422,132.531 332.927,133.078 C333.181,133.354 334.709,133.415 336.245,133.457 C337.951,133.505 339.666,133.49 339.656,132.826 C339.636,131.367 336.679,132.405 336.805,130.723 C336.929,129.04 339.563,130.008 339.673,128.788 C339.783,127.568 336.587,128.535 336.587,127.484 C336.587,126.432 336.766,124.326 336.46,121.342 C336.34,120.171 336.123,118.833 335.897,117.614 C338.808,117.506 341.671,117.287 344.184,116.961 C344.267,118.275 344.343,119.877 344.36,121.511 C344.422,127.246 343.057,132.531 343.56,133.078 C343.815,133.354 345.343,133.415 346.88,133.457 C348.585,133.505 350.301,133.49 350.291,132.826 C350.271,131.367 347.312,132.405 347.439,130.723 C347.564,129.041 350.196,130.008 350.308,128.788 C350.418,127.568 347.221,128.535 347.221,127.484 C347.221,126.432 347.399,124.326 347.095,121.342 C346.942,119.848 346.63,118.081 346.344,116.637 C349.777,116.046 352.199,115.212 352.556,114.144 C359.343,93.783 332.631,81.024 332.088,81.583 Z M342.123,110.559 C341.339,112.9 339.52,113.993 337.079,113.177 C334.639,112.359 333.84,110.392 334.625,108.05 C335.407,105.708 337.231,104.617 339.67,105.433 C342.108,106.251 342.908,108.218 342.123,110.559 Z M351.139,111.109 C350.141,112.927 348.316,113.272 346.742,112.331 C345.164,111.394 344.359,109.794 345.356,107.978 C346.352,106.16 348.029,105.806 349.776,106.752 C351.526,107.698 352.133,109.294 351.139,111.109 L351.139,111.109 Z" id="Fill-145" fill="#000000"/>
</svg>