<?xml version="1.0" encoding="utf-8"?>
<svg viewBox="46.894 322.927 88.966 99.773" xmlns="http://www.w3.org/2000/svg">
  <path d="M 119.994 404.317 C 115.03 401.362 109.186 391.18 105.53 380.497 C 105.799 379.442 106.528 378.263 108.438 378.064 C 113.589 377.527 114.161 383.149 114.161 383.149 C 114.784 382.065 114.763 380.539 114.763 380.539 C 115.443 381.18 115.918 382.517 115.918 382.517 C 116.584 381.25 116.339 380.045 116.339 380.045 C 117.138 380.49 117.778 381.901 117.778 381.901 C 117.778 381.901 118.14 378.105 115.433 375.138 C 111.949 371.322 106.007 375.862 104.43 377.192 C 103.315 373.745 102.356 370.505 101.589 367.839 C 101.572 366.599 101.855 363.888 104.622 363.62 C 109.808 363.118 110.481 369.3 110.481 369.3 C 111.091 368.12 111.044 366.445 111.044 366.445 C 111.741 367.159 112.243 368.636 112.243 368.636 C 112.894 367.257 112.625 365.929 112.625 365.929 C 113.44 366.432 114.109 367.99 114.109 367.99 C 114.109 367.99 114.41 363.826 111.629 360.524 C 107.612 355.753 100.641 362.5 100.191 362.944 C 99.969 362.178 99.795 361.607 99.679 361.282 C 98.318 357.514 95.324 353.255 93.356 350.692 C 96.645 352.417 99.957 353.677 103.373 351.556 C 110.734 346.175 103.159 333.996 97.762 330.55 C 86.543 323.387 57.283 315.031 48.726 337.655 C 39.325 362.51 68.887 361.745 74.474 356.584 C 79.156 352.259 76.075 347.995 82.948 347.107 C 85.674 346.755 89.062 352.039 91.096 355.69 C 93.973 360.848 88.162 374.484 87.076 376.114 C 85.99 377.743 79.962 383.623 80.015 391.979 C 80.054 398.315 84.088 402.746 88.923 404.879 C 88.844 406.244 88.172 418.868 90.234 418.864 C 92.632 418.86 91.97 409.113 91.678 405.825 C 92.352 405.995 95.024 406.322 95.656 406.316 C 95.564 408.213 94.932 422.705 96.97 422.701 C 99.855 422.694 98.31 406.11 98.31 406.11 L 98.057 406.11 C 102.42 405.399 105.5 403.1 106.415 403.057 C 107.609 403 112.873 407.117 116.735 408.597 C 125.075 411.795 135.639 409.793 135.856 409.031 C 136.073 408.273 126.958 408.463 119.994 404.317 Z M 54.774 351.174 C 53.02 347.442 57.813 346.155 59.294 349.015 C 60.776 351.878 55.979 353.737 54.774 351.174 Z M 62.254 348.55 C 62.119 344.429 68.364 343.03 68.742 348.302 C 68.998 351.925 62.388 352.673 62.254 348.55 L 62.254 348.55 Z" id="Fill-10" fill="#000000"/>
</svg>