<?xml version="1.0" encoding="utf-8"?>
<svg viewBox="89 49 254 416" xmlns="http://www.w3.org/2000/svg">
  <defs>
    <style id="bx-google-fonts">@import url(https://fonts.googleapis.com/css?family=Roboto:100,300,500,700,900,100italic,300italic,400,400italic,500italic,700italic,900italic);</style>
  </defs>
  <path d="M 317.066 76.209 C 284.898 32.627 148.961 52.861 111.086 73.615 C 73.21 94.369 97.077 243.795 105.897 266.624 C 114.718 289.453 132.358 289.972 139.622 309.169 C 147.405 328.366 143.254 393.222 158.819 406.711 C 161.932 409.825 169.196 411.9 178.016 413.456 C 175.422 419.682 172.309 431.616 175.941 444.587 C 176.46 446.143 175.422 447.7 173.866 448.738 C 170.234 450.294 164.526 453.926 160.376 459.633 C 159.338 461.19 160.376 462.228 161.932 462.228 C 167.121 462.746 179.054 463.265 190.987 462.228 C 192.544 462.228 194.1 460.671 193.582 459.115 C 193.063 456.52 192.544 452.888 189.95 449.775 C 188.912 448.219 187.355 446.662 186.837 445.106 C 184.242 439.917 179.573 427.984 182.686 414.494 C 202.921 417.607 230.938 418.126 250.654 416.569 C 253.767 429.022 250.135 440.436 248.06 445.106 C 247.541 446.662 245.985 448.738 244.947 450.294 C 242.872 453.926 242.353 457.558 242.353 460.152 C 242.353 461.709 243.909 463.265 245.466 463.265 C 257.918 463.784 269.332 462.228 274.521 461.19 C 276.077 461.19 276.596 459.633 275.559 458.596 C 270.889 452.888 264.663 450.294 261.55 448.738 C 259.993 448.219 258.956 446.662 259.474 445.106 C 261.55 433.691 258.956 423.314 256.361 416.569 C 265.701 415.532 272.445 414.494 275.04 412.419 C 285.417 405.155 275.04 369.874 286.454 363.129 C 297.869 356.903 312.915 361.572 325.886 345.488 C 339.376 329.404 353.904 125.499 317.066 76.209 Z M 220.042 395.816 C 191.506 395.816 170.234 389.553 170.234 370.356 C 170.234 351.678 191.506 358.459 220.042 358.459 C 248.579 358.459 270.308 351.45 270.308 370.128 C 270.308 388.806 248.579 395.816 220.042 395.816 Z M 183.724 323.178 C 188.882 323.178 192.938 327.752 193.711 332.372 C 194.493 337.047 191.916 341.77 183.724 341.856 C 178.3 341.913 175.687 337.709 175.548 333.276 C 175.393 328.368 178.272 323.178 183.724 323.178 Z M 251.386 321.528 C 261.929 321.653 265.145 340.756 251.173 340.3 C 237.123 339.843 239.525 321.388 251.386 321.528 Z M 314.991 259.879 C 298.906 274.407 147.405 291.529 134.952 253.653 C 121.981 215.778 113.68 106.821 126.651 92.293 C 144.292 72.577 284.379 63.238 304.095 86.067 C 323.811 108.378 331.075 245.352 314.991 259.879 Z"/>
  <path d="M 221.599 371.949 C 202.402 371.949 185.441 366.335 185.441 372.561 C 185.441 378.269 202.402 382.845 221.599 382.845 C 240.796 382.845 255.485 378.045 255.485 372.338 C 255.485 366.631 240.277 371.949 221.599 371.949 Z"/>
  <g>
    <path d="M 178.23 117.125 L 265.872 117.125 C 272.756 117.125 278.337 122.706 278.337 129.59 L 278.337 217.232 C 278.337 224.116 272.756 229.697 265.872 229.697 L 178.23 229.697 C 171.346 229.697 165.765 224.116 165.765 217.232 L 165.765 129.59 C 165.765 122.706 171.346 117.125 178.23 117.125 Z M 252.041 220.87 C 262.091 220.87 269.572 215.657 269.572 206.136 C 269.572 197.295 264.509 193.366 255.517 189.512 L 252.872 188.378 C 248.338 186.413 246.374 185.129 246.374 181.955 C 246.374 179.386 248.338 177.422 251.437 177.422 C 254.459 177.422 256.423 178.705 258.237 181.955 L 266.474 176.665 C 262.998 170.544 258.162 168.202 251.437 168.202 C 241.991 168.202 235.945 174.247 235.945 182.182 C 235.945 190.796 241.009 194.877 248.641 198.126 L 251.286 199.26 C 256.121 201.375 258.993 202.659 258.993 206.287 C 258.993 209.309 256.198 211.501 251.814 211.501 C 246.601 211.501 243.653 208.781 241.387 205.077 L 232.772 210.065 C 235.87 216.187 242.217 220.87 252.041 220.87 Z M 195.365 211.199 L 195.366 211.199 C 195.365 211.198 195.365 211.198 195.365 211.197 Z M 195.366 211.199 C 197.859 216.488 202.771 220.87 211.233 220.87 C 220.603 220.87 227.026 215.882 227.026 204.925 L 227.026 168.806 L 216.447 168.806 L 216.447 204.776 C 216.447 210.065 214.255 211.425 210.779 211.425 C 207.153 211.425 205.642 208.931 203.979 205.985 Z" id="background"/>
  </g>
  <path d="M 168.063 311.809" style="fill: none; stroke: black;"/>
  <path d="M 184.508 329.773 C 186.992 329.773 188.945 331.976 189.317 334.201 C 189.694 336.452 188.453 338.726 184.508 338.767 C 181.896 338.795 180.638 336.77 180.57 334.636 C 180.496 332.272 181.882 329.773 184.508 329.773 Z" style="fill: rgb(82, 215, 11);"/>
  <path d="M 251.374 329.162 C 256.283 329.221 257.779 338.113 251.275 337.901 C 244.734 337.689 245.851 329.097 251.374 329.162 Z" style="fill: rgb(82, 215, 11);"/>
  <text x="210.749" y="622.042" style="font-size: 36; font-family: Roboto; white-space: pre;">JS</text>
</svg>