<?xml version="1.0" encoding="utf-8"?>
<!-- Generator: Adobe Illustrator 20.1.0, SVG Export Plug-In . SVG Version: 6.00 Build 0)  -->
<svg version="1.1" id="Laag_1" xmlns="http://www.w3.org/2000/svg" xmlns:xlink="http://www.w3.org/1999/xlink" x="0px" y="0px"
	 viewBox="0 0 48.2 79.6" style="enable-background:new 0 0 48.2 79.6;" xml:space="preserve">
<g>
	<path d="M36.1,24.9c-0.6,0.3-1.2,0.6-1.9,0.9c-0.4,0.1-0.6,0.5-0.5,0.9c0.3,1.1,0.7,2,1.3,2.7c0.3,0.3,0.7,0.2,0.8-0.1
		c0.6-1.2,0.9-2.5,0.9-4C36.7,24.9,36.4,24.7,36.1,24.9z"/>
	<path d="M33.9,24.1c0.8-0.3,1.6-0.7,2.2-1.2c0,0,0.1-0.1,0.2-0.1c0.1-0.1,0.1-0.4,0-0.8c-0.4-1.5-1.1-2.8-2-3.9
		c-0.2-0.3-0.5-0.2-0.6,0.1c-0.3,1.1-0.5,3.2-0.4,5.4C33.2,24,33.6,24.2,33.9,24.1z"/>
	<path d="M13.6,24c0.2,0.1,0.6,0.2,0.9,0.3c0.7,0.2,2,0.5,3.7,0.7c0.4,0.1,0.7-0.2,0.6-0.6c-0.4-2.8-1.7-5.2-3.1-6.8
		c-0.3-0.3-0.6-0.3-0.8,0.1c-0.9,1.5-1.4,3.3-1.5,5.5C13.3,23.6,13.4,24,13.6,24z"/>
	<path d="M32,27.2c-0.1-0.4-0.5-0.6-0.8-0.5c-0.4,0.1-0.8,0.2-1.2,0.2c-0.4,0.1-0.7,0.4-0.7,0.8c0,2.8-0.5,5-1.5,6.5
		c-0.2,0.3-0.1,0.5,0.3,0.4c2.3-0.5,4.4-1.5,5.9-2.9c0.3-0.3,0.2-0.7,0-1C33.1,29.9,32.5,28.7,32,27.2z"/>
	<path d="M18.2,26.8c-1.4-0.2-3-0.5-4.1-0.8c-0.4-0.1-0.6,0-0.6,0.3c0,0.2,0.1,0.3,0.1,0.5c0.4,2.2,1.4,4,2.9,5.3
		c0.3,0.3,0.7,0.2,0.9-0.2c0.8-1.4,1.3-2.8,1.5-4.3C18.8,27.2,18.5,26.9,18.2,26.8z"/>
	<path d="M26.9,27.2c-0.7,0-1.5,0.1-2.3,0.1c-1.1,0-2.2-0.1-3.4-0.1c-0.4,0-0.7,0.3-0.8,0.6c-0.2,1.7-0.8,3.4-1.7,5.1
		c-0.2,0.3-0.1,0.7,0.3,0.9c1.5,0.7,3.1,1.1,4.8,1.2c0.4,0,0.9-0.1,1.1-0.3c0.3-0.2,0.7-0.5,1-0.8c1-1.1,1.6-3.2,1.6-5.9
		C27.6,27.5,27.3,27.2,26.9,27.2z"/>
	<path d="M20.5,24.7c0,0.4,0.4,0.7,0.7,0.7c1.1,0.1,2.3,0.1,3.4,0.1c0.8,0,1.5,0,2.2-0.1c0.4,0,0.7-0.4,0.6-0.7
		c-0.6-4.3-2.5-8.8-4.5-11.2c-0.2-0.3-0.8-0.5-1.1-0.4c-1.9,0.3-3.6,1-5,2.2c-0.3,0.2-0.3,0.7,0,1C18.5,18.3,20.1,21.3,20.5,24.7z"
		/>
	<path d="M43.7,5C37.5-3.4,11.3,0.5,4,4.5c-7.3,4-2.7,32.8-1,37.2c1.7,4.4,5.1,4.5,6.5,8.2c1.5,3.7,0.7,16.2,3.7,18.8
		c0.6,0.6,2,1,3.7,1.3c-0.5,1.2-1.1,3.5-0.4,6c0.1,0.3-0.1,0.6-0.4,0.8c-0.7,0.3-1.8,1-2.6,2.1c-0.2,0.3,0,0.5,0.3,0.5
		c1,0.1,3.3,0.2,5.6,0c0.3,0,0.6-0.3,0.5-0.6c-0.1-0.5-0.2-1.2-0.7-1.8c-0.2-0.3-0.5-0.6-0.6-0.9c-0.5-1-1.4-3.3-0.8-5.9
		c3.9,0.6,9.3,0.7,13.1,0.4c0.6,2.4-0.1,4.6-0.5,5.5c-0.1,0.3-0.4,0.7-0.6,1c-0.4,0.7-0.5,1.4-0.5,1.9c0,0.3,0.3,0.6,0.6,0.6
		c2.4,0.1,4.6-0.2,5.6-0.4c0.3,0,0.4-0.3,0.2-0.5c-0.9-1.1-2.1-1.6-2.7-1.9c-0.3-0.1-0.5-0.4-0.4-0.7c0.4-2.2-0.1-4.2-0.6-5.5
		c1.8-0.2,3.1-0.4,3.6-0.8c2-1.4,0-8.2,2.2-9.5c2.2-1.2,5.1-0.3,7.6-3.4C48,53.8,50.8,14.5,43.7,5z M25,66.6c-5.5,0-9.6-0.2-9.6-3.9
		c0-3.6,4.1-3.3,9.6-3.3c5.5,0,9.6-0.3,9.6,3.3C34.6,66.3,30.5,66.6,25,66.6z M18,52.6c2,0,2,3.6,0,3.6C14,56.2,16,52.6,18,52.6z
		 M31,51.7c0,0,3,4.2,0,4.2S28,51.7,31,51.7z M43.3,40.4c-3.1,2.8-32.3,6.1-34.7-1.2C6.1,31.9,4.5,10.9,7,8.1
		c3.4-3.8,30.4-5.6,34.2-1.2C45,11.2,46.4,37.6,43.3,40.4z"/>
	<path d="M29.1,24.6c0,0.4,0.4,0.6,0.8,0.6c0.4-0.1,0.7-0.1,1-0.2c0.4-0.1,0.6-0.5,0.6-0.8c-0.2-3.4,0.4-6.9,0.9-7.7c0,0,0,0,0,0
		c0,0-0.2-0.3-0.5-0.5c-1.9-1.5-4.2-2.4-6.5-2.7c-0.4,0-0.5,0.2-0.3,0.5C27.4,16.5,28.7,20.8,29.1,24.6z"/>
	<path d="M25.3,62c-3.7,0-6.4-0.6-6.4,0.6c0,1.1,2.7,1.5,6.4,1.5c3.7,0,6.4-0.4,6.4-1.5C31.7,61.5,28.9,62,25.3,62z"/>
</g>
<g>
</g>
<g>
</g>
<g>
</g>
<g>
</g>
<g>
</g>
<g>
</g>
<g>
</g>
<g>
</g>
<g>
</g>
<g>
</g>
<g>
</g>
<g>
</g>
<g>
</g>
<g>
</g>
<g>
</g>
</svg>
