<svg xmlns="http://www.w3.org/2000/svg" viewBox="0 0 48.2 79.6"><path d="M36.1 24.9c-.6.3-1.2.6-1.9.9-.4.1-.6.5-.5.9.3 1.1.7 2 1.3 2.7.3.3.7.2.8-.1.6-1.2.9-2.5.9-4 0-.4-.3-.6-.6-.4zM33.9 24.1c.8-.3 1.6-.7 2.2-1.2 0 0 .1-.1.2-.1.1-.1.1-.4 0-.8-.4-1.5-1.1-2.8-2-3.9-.2-.3-.5-.2-.6.1-.3 1.1-.5 3.2-.4 5.4-.1.4.3.6.6.5zM13.6 24c.2.1.6.2.9.3.7.2 2 .5 3.7.7.4.1.7-.2.6-.6-.4-2.8-1.7-5.2-3.1-6.8-.3-.3-.6-.3-.8.1-.9 1.5-1.4 3.3-1.5 5.5-.1.4 0 .8.2.8zM32 27.2c-.1-.4-.5-.6-.8-.5-.4.1-.8.2-1.2.2-.4.1-.7.4-.7.8 0 2.8-.5 5-1.5 6.5-.2.3-.1.5.3.4 2.3-.5 4.4-1.5 5.9-2.9.3-.3.2-.7 0-1-.9-.8-1.5-2-2-3.5zM18.2 26.8c-1.4-.2-3-.5-4.1-.8-.4-.1-.6 0-.6.3 0 .2.1.3.1.5.4 2.2 1.4 4 2.9 5.3.3.3.7.2.9-.2.8-1.4 1.3-2.8 1.5-4.3-.1-.4-.4-.7-.7-.8zM26.9 27.2c-.7 0-1.5.1-2.3.1-1.1 0-2.2-.1-3.4-.1-.4 0-.7.3-.8.6-.2 1.7-.8 3.4-1.7 5.1-.2.3-.1.7.3.9 1.5.7 3.1 1.1 4.8 1.2.4 0 .9-.1 1.1-.3.3-.2.7-.5 1-.8 1-1.1 1.6-3.2 1.6-5.9.1-.5-.2-.8-.6-.8zM20.5 24.7c0 .4.4.7.7.7 1.1.1 2.3.1 3.4.1.8 0 1.5 0 2.2-.1.4 0 .7-.4.6-.7-.6-4.3-2.5-8.8-4.5-11.2-.2-.3-.8-.5-1.1-.4-1.9.3-3.6 1-5 2.2-.3.2-.3.7 0 1 1.7 2 3.3 5 3.7 8.4z"/><path d="M43.7 5C37.5-3.4 11.3.5 4 4.5c-7.3 4-2.7 32.8-1 37.2 1.7 4.4 5.1 4.5 6.5 8.2 1.5 3.7.7 16.2 3.7 18.8.6.6 2 1 3.7 1.3-.5 1.2-1.1 3.5-.4 6 .1.3-.1.6-.4.8-.7.3-1.8 1-2.6 2.1-.2.3 0 .5.3.5 1 .1 3.3.2 5.6 0 .3 0 .6-.3.5-.6-.1-.5-.2-1.2-.7-1.8-.2-.3-.5-.6-.6-.9-.5-1-1.4-3.3-.8-5.9 3.9.6 9.3.7 13.1.4.6 2.4-.1 4.6-.5 5.5-.1.3-.4.7-.6 1-.4.7-.5 1.4-.5 1.9 0 .3.3.6.6.6 2.4.1 4.6-.2 5.6-.4.3 0 .4-.3.2-.5-.9-1.1-2.1-1.6-2.7-1.9-.3-.1-.5-.4-.4-.7.4-2.2-.1-4.2-.6-5.5 1.8-.2 3.1-.4 3.6-.8 2-1.4 0-8.2 2.2-9.5 2.2-1.2 5.1-.3 7.6-3.4C48 53.8 50.8 14.5 43.7 5zM25 66.6c-5.5 0-9.6-.2-9.6-3.9 0-3.6 4.1-3.3 9.6-3.3s9.6-.3 9.6 3.3c0 3.6-4.1 3.9-9.6 3.9zm-7-14c2 0 2 3.6 0 3.6-4 0-2-3.6 0-3.6zm13-.9s3 4.2 0 4.2-3-4.2 0-4.2zm12.3-11.3c-3.1 2.8-32.3 6.1-34.7-1.2C6.1 31.9 4.5 10.9 7 8.1c3.4-3.8 30.4-5.6 34.2-1.2 3.8 4.3 5.2 30.7 2.1 33.5z"/><path d="M29.1 24.6c0 .4.4.6.8.6.4-.1.7-.1 1-.2.4-.1.6-.5.6-.8-.2-3.4.4-6.9.9-7.7 0 0-.2-.3-.5-.5-1.9-1.5-4.2-2.4-6.5-2.7-.4 0-.5.2-.3.5 2.3 2.7 3.6 7 4 10.8zM25.3 62c-3.7 0-6.4-.6-6.4.6 0 1.1 2.7 1.5 6.4 1.5s6.4-.4 6.4-1.5-2.8-.6-6.4-.6z"/></svg>
