<?xml version="1.0" encoding="utf-8"?>
<svg id="monster" viewBox="88 48 255 417" xmlns="http://www.w3.org/2000/svg">
  <style>
    @keyframes slide-first {
      0% { 
        transform: translate(0); 
      }
      70% { 
        transform: translate(0); 
      }
      100% { 
        transform: translate(200px);
      }
    } 
    @keyframes slide-last {
      0% { 
        transform: translate(-200px); 
      }
      30% { 
        transform: translate(0); 
      }
      100% { 
        transform: translate(0);
      }
    } 
    @keyframes slide {
      0% { 
        transform: translate(-200px);
      }
      30% { 
        transform: translate(0); 
      }
      70% { 
        transform: translate(0); 
      }
      100% { 
        transform: translate(200px);
      }
    } 
    @keyframes show {
      0% { 
        opacity: 0;
      }
      90% {
        opacity: 0;
      }
      100% { 
        opacity: 1;
      }
    } 
    .body-happy {
      #display: none;
      #animation: hideshow 1s ease infinite;
    }

    .icon {
      transform: translate(-200px);
    }

    .icon.icon-js {
      animation: slide-first 3s ease;
    }
    .icon.icon-angular {
      animation: slide 3s 3s ease;
    }
    .icon.icon-github {
      animation: slide 3s 6s ease;
    }
    .icon.icon-codezilla {
      animation: slide-last 3s 9s ease forwards;
    }

    .body-happy {
      opacity: 0;
      animation: show 2s 9s forwards;
    }

  </style>
  <defs>
    <clipPath id="screen">
      <path d="M 220.002 395.698 C 191.466 395.698 170.194 389.435 170.194 370.238 C 170.194 351.56 191.466 358.341 220.002 358.341 C 248.539 358.341 270.268 351.332 270.268 370.01 C 270.268 388.688 248.539 395.698 220.002 395.698 Z M 183.684 323.06 C 194.06 323.06 199.975 341.567 183.684 341.738 C 172.254 341.858 173.307 323.06 183.684 323.06 Z M 251.346 321.41 C 261.889 321.535 265.105 340.638 251.133 340.182 C 237.083 339.725 239.485 321.27 251.346 321.41 Z M 314.951 259.761 C 298.866 274.289 147.365 291.411 134.912 253.535 C 121.941 215.66 113.64 106.703 126.611 92.175 C 144.252 72.459 284.339 63.12 304.055 85.949 C 323.771 108.26 331.035 245.234 314.951 259.761 Z"></path>
    </clipPath>
  </defs>
  <g class="body">
    <title>Body</title>
    <path class="body-normal" d="M 220.002 395.698 C 191.466 395.698 170.194 389.435 170.194 370.238 C 170.194 351.56 191.466 358.341 220.002 358.341 C 248.539 358.341 270.268 351.332 270.268 370.01 C 270.268 388.688 248.539 395.698 220.002 395.698 Z M 183.684 323.06 C 194.06 323.06 199.975 341.567 183.684 341.738 C 172.254 341.858 173.307 323.06 183.684 323.06 Z M 251.346 321.41 C 261.889 321.535 265.105 340.638 251.133 340.182 C 237.083 339.725 239.485 321.27 251.346 321.41 Z M 314.951 259.761 C 298.866 274.289 147.365 291.411 134.912 253.535 C 121.941 215.66 113.64 106.703 126.611 92.175 C 144.252 72.459 284.339 63.12 304.055 85.949 C 323.771 108.26 331.035 245.234 314.951 259.761 Z" style="fill: rgb(255, 255, 255);">
      <title>ScreenBg</title>
    </path>
    <g clip-path="url(#screen)">
      <title>Icons</title>
      <g class="icon icon-js">
        <title>JavaScript</title>
        <rect id="background" width="112.572" height="112.572" y="117.125" x="165.765" rx="12.465" ry="12.465"/>
        <path id="j" d="M 195.365 211.199 L 203.979 205.985 C 205.642 208.931 207.153 211.425 210.779 211.425 C 214.255 211.425 216.447 210.065 216.447 204.776 L 216.447 168.806 L 227.026 168.806 L 227.026 204.925 C 227.026 215.882 220.603 220.87 211.233 220.87 C 202.77 220.87 197.858 216.487 195.365 211.197" style="fill: rgb(255, 255, 255);"/>
        <path id="s" d="M 232.772 210.065 L 241.387 205.077 C 243.653 208.781 246.601 211.501 251.814 211.501 C 256.198 211.501 258.993 209.309 258.993 206.287 C 258.993 202.659 256.121 201.375 251.286 199.26 L 248.641 198.126 C 241.009 194.877 235.945 190.796 235.945 182.182 C 235.945 174.247 241.991 168.202 251.437 168.202 C 258.162 168.202 262.998 170.544 266.474 176.665 L 258.237 181.955 C 256.423 178.705 254.459 177.422 251.437 177.422 C 248.338 177.422 246.374 179.386 246.374 181.955 C 246.374 185.129 248.338 186.413 252.872 188.378 L 255.517 189.512 C 264.509 193.366 269.572 197.295 269.572 206.136 C 269.572 215.657 262.091 220.87 252.041 220.87 C 242.217 220.87 235.87 216.187 232.772 210.065" style="fill: rgb(255, 255, 255);"/>
      </g>
      <g class="icon icon-angular">
        <title>Angular</title>
        <polygon points="211.514 179.936 222.419 179.936 222.419 179.936 222.419 179.936 233.324 179.936 222.419 153.7"/>
        <path d="M 222.419 112.324 L 222.419 112.324 L 222.419 112.324 L 162.696 133.621 L 171.805 212.588 L 222.419 240.621 L 222.419 240.621 L 222.419 240.621 L 273.032 212.588 L 282.141 133.621 L 222.419 112.324 Z M 259.689 210.215 L 245.769 210.215 L 245.769 210.215 L 238.264 191.483 L 222.419 191.483 L 222.419 191.483 L 222.419 191.483 L 206.574 191.483 L 199.069 210.215 L 199.069 210.215 L 185.148 210.215 L 185.148 210.215 L 222.419 126.5 L 222.419 126.5 L 222.419 126.5 L 222.419 126.5 L 222.419 126.5 L 259.689 210.215 L 259.689 210.215 Z"/>
      </g>
      <g class="icon icon-github">
        <title>GitHub</title>
        <path d="M 270.016 147.338 C 265.094 138.905 258.418 132.228 249.985 127.306 C 241.551 122.385 232.344 119.924 222.357 119.924 C 212.371 119.924 203.161 122.385 194.729 127.306 C 186.295 132.228 179.619 138.905 174.697 147.338 C 169.776 155.771 167.315 164.98 167.315 174.965 C 167.315 186.958 170.814 197.744 177.815 207.323 C 184.814 216.903 193.856 223.532 204.941 227.211 C 206.231 227.45 207.186 227.282 207.807 226.71 C 208.428 226.137 208.739 225.419 208.739 224.56 C 208.739 224.417 208.726 223.127 208.703 220.69 C 208.678 218.253 208.666 216.127 208.666 214.313 L 207.018 214.598 C 205.967 214.791 204.641 214.872 203.04 214.849 C 201.44 214.827 199.779 214.659 198.059 214.347 C 196.339 214.038 194.739 213.322 193.257 212.199 C 191.777 211.076 190.726 209.606 190.105 207.792 L 189.388 206.143 C 188.91 205.045 188.158 203.825 187.131 202.488 C 186.103 201.15 185.064 200.243 184.013 199.765 L 183.511 199.406 C 183.177 199.167 182.867 198.879 182.58 198.545 C 182.293 198.211 182.079 197.876 181.935 197.542 C 181.792 197.206 181.911 196.932 182.294 196.716 C 182.676 196.5 183.368 196.396 184.372 196.396 L 185.805 196.61 C 186.76 196.801 187.943 197.373 189.353 198.329 C 190.762 199.285 191.92 200.527 192.828 202.055 C 193.928 204.015 195.252 205.508 196.806 206.535 C 198.358 207.563 199.923 208.075 201.5 208.075 C 203.076 208.075 204.438 207.956 205.585 207.718 C 206.731 207.479 207.806 207.12 208.81 206.643 C 209.24 203.44 210.41 200.98 212.321 199.26 C 209.598 198.974 207.15 198.543 204.975 197.97 C 202.802 197.396 200.556 196.465 198.239 195.173 C 195.921 193.884 193.998 192.283 192.469 190.372 C 190.94 188.461 189.686 185.952 188.707 182.847 C 187.728 179.741 187.238 176.158 187.238 172.097 C 187.238 166.314 189.126 161.394 192.9 157.332 C 191.132 152.985 191.299 148.112 193.402 142.713 C 194.787 142.282 196.842 142.605 199.565 143.68 C 202.289 144.755 204.283 145.676 205.55 146.44 C 206.816 147.203 207.831 147.85 208.596 148.375 C 213.04 147.133 217.627 146.512 222.356 146.512 C 227.086 146.512 231.674 147.133 236.118 148.375 L 238.841 146.655 C 240.704 145.508 242.903 144.457 245.434 143.501 C 247.966 142.546 249.903 142.283 251.241 142.714 C 253.39 148.113 253.582 152.986 251.813 157.333 C 255.587 161.395 257.476 166.316 257.476 172.097 C 257.476 176.158 256.984 179.753 256.007 182.883 C 255.028 186.013 253.762 188.52 252.21 190.408 C 250.656 192.296 248.72 193.885 246.404 195.174 C 244.086 196.464 241.839 197.396 239.666 197.97 C 237.492 198.543 235.044 198.975 232.32 199.261 C 234.804 201.411 236.046 204.803 236.046 209.437 L 236.046 224.558 C 236.046 225.417 236.345 226.134 236.943 226.708 C 237.54 227.28 238.483 227.448 239.773 227.208 C 250.859 223.53 259.901 216.901 266.901 207.321 C 273.899 197.742 277.4 186.956 277.4 174.963 C 277.397 164.979 274.935 155.771 270.016 147.338 Z"/>
      </g>
      <g class="icon icon-codezilla">
        <title>CODEZILLA</title>
        <path class="st0" d="M 274.379 164.872 L 233.618 123.737 C 227.26 117.379 216.79 117.379 210.806 123.737 L 170.045 164.872 C 163.687 171.229 163.687 181.7 170.045 188.057 L 210.806 229.193 C 217.164 235.55 227.634 235.55 233.618 229.193 L 274.379 188.057 C 280.737 181.7 280.737 171.229 274.379 164.872 Z M 222.773 214.608 L 208.936 200.773 L 217.537 192.17 L 223.521 198.154 L 244.088 177.587 L 223.147 156.645 L 218.285 161.505 L 209.684 153.278 L 222.773 140.191 L 259.794 177.212 L 222.773 214.608 Z" style="fill: rgb(82, 215, 11);"/>
      </g>
    </g>
    <g>
      <title>BodyTypes</title>
      <path class="body-happy" d="M 317.066 76.209 C 284.898 32.627 148.961 52.861 111.086 73.615 C 73.21 94.369 97.077 243.795 105.897 266.624 C 114.718 289.453 132.358 289.972 139.622 309.169 C 147.405 328.366 143.254 393.222 158.819 406.711 C 161.932 409.825 169.196 411.9 178.016 413.456 C 175.422 419.682 172.309 431.616 175.941 444.587 C 176.46 446.143 175.422 447.7 173.866 448.738 C 170.234 450.294 164.526 453.926 160.376 459.633 C 159.338 461.19 160.376 462.228 161.932 462.228 C 167.121 462.746 179.054 463.265 190.987 462.228 C 192.544 462.228 194.1 460.671 193.582 459.115 C 193.063 456.52 192.544 452.888 189.95 449.775 C 188.912 448.219 187.355 446.662 186.837 445.106 C 184.242 439.917 179.573 427.984 182.686 414.494 C 202.921 417.607 230.938 418.126 250.654 416.569 C 253.767 429.022 250.135 440.436 248.06 445.106 C 247.541 446.662 245.985 448.738 244.947 450.294 C 242.872 453.926 242.353 457.558 242.353 460.152 C 242.353 461.709 243.909 463.265 245.466 463.265 C 257.918 463.784 269.332 462.228 274.521 461.19 C 276.077 461.19 276.596 459.633 275.559 458.596 C 270.889 452.888 264.663 450.294 261.55 448.738 C 259.993 448.219 258.956 446.662 259.474 445.106 C 261.55 433.691 258.956 423.314 256.361 416.569 C 265.701 415.532 272.445 414.494 275.04 412.419 C 285.417 405.155 275.04 369.874 286.454 363.129 C 297.869 356.903 312.915 361.572 325.886 345.488 C 339.376 329.404 353.904 125.499 317.066 76.209 Z M 220.042 395.816 C 191.506 395.816 170.234 389.553 170.234 370.356 C 170.234 351.678 191.506 358.459 220.042 358.459 C 248.579 358.459 270.308 351.45 270.308 370.128 C 270.308 388.806 248.579 395.816 220.042 395.816 Z M 183.724 320.871 C 188.882 320.871 192.938 327.752 193.711 332.372 C 194.493 337.047 191.916 327.417 183.724 327.503 C 178.3 327.56 175.687 337.709 175.548 333.276 C 175.393 328.368 178.272 320.871 183.724 320.871 Z M 251.386 319.221 C 256.966 319.287 260.494 326.977 260.507 331.963 C 260.518 336.396 257.75 325.906 251.173 325.691 C 244.311 325.468 241.374 335.561 241.545 331.014 C 241.725 326.252 245.318 319.149 251.386 319.221 Z M 314.991 259.879 C 298.906 274.407 147.405 291.529 134.952 253.653 C 121.981 215.778 113.68 106.821 126.651 92.293 C 144.292 72.577 284.379 63.238 304.095 86.067 C 323.811 108.378 331.075 245.352 314.991 259.879 Z">
        <title>Happy</title>
      </path>
      <path class="body-normal" d="M 317.066 76.209 C 284.898 32.627 148.961 52.861 111.086 73.615 C 73.21 94.369 97.077 243.795 105.897 266.624 C 114.718 289.453 132.358 289.972 139.622 309.169 C 147.405 328.366 143.254 393.222 158.819 406.711 C 161.932 409.825 169.196 411.9 178.016 413.456 C 175.422 419.682 172.309 431.616 175.941 444.587 C 176.46 446.143 175.422 447.7 173.866 448.738 C 170.234 450.294 164.526 453.926 160.376 459.633 C 159.338 461.19 160.376 462.228 161.932 462.228 C 167.121 462.746 179.054 463.265 190.987 462.228 C 192.544 462.228 194.1 460.671 193.582 459.115 C 193.063 456.52 192.544 452.888 189.95 449.775 C 188.912 448.219 187.355 446.662 186.837 445.106 C 184.242 439.917 179.573 427.984 182.686 414.494 C 202.921 417.607 230.938 418.126 250.654 416.569 C 253.767 429.022 250.135 440.436 248.06 445.106 C 247.541 446.662 245.985 448.738 244.947 450.294 C 242.872 453.926 242.353 457.558 242.353 460.152 C 242.353 461.709 243.909 463.265 245.466 463.265 C 257.918 463.784 269.332 462.228 274.521 461.19 C 276.077 461.19 276.596 459.633 275.559 458.596 C 270.889 452.888 264.663 450.294 261.55 448.738 C 259.993 448.219 258.956 446.662 259.474 445.106 C 261.55 433.691 258.956 423.314 256.361 416.569 C 265.701 415.532 272.445 414.494 275.04 412.419 C 285.417 405.155 275.04 369.874 286.454 363.129 C 297.869 356.903 312.915 361.572 325.886 345.488 C 339.376 329.404 353.904 125.499 317.066 76.209 Z M 220.042 395.816 C 191.506 395.816 170.234 389.553 170.234 370.356 C 170.234 351.678 191.506 358.459 220.042 358.459 C 248.579 358.459 270.308 351.45 270.308 370.128 C 270.308 388.806 248.579 395.816 220.042 395.816 Z M 183.724 323.178 C 194.1 323.178 200.015 341.685 183.724 341.856 C 172.294 341.976 173.347 323.178 183.724 323.178 Z M 251.386 321.528 C 261.929 321.653 265.145 340.756 251.173 340.3 C 237.123 339.843 239.525 321.388 251.386 321.528 Z M 314.991 259.879 C 298.906 274.407 147.405 291.529 134.952 253.653 C 121.981 215.778 113.68 106.821 126.651 92.293 C 144.292 72.577 284.379 63.238 304.095 86.067 C 323.811 108.378 331.075 245.352 314.991 259.879 Z">
        <title>Normal</title>
      </path>
    </g>
    <path d="M 221.599 371.949 C 202.402 371.949 185.441 366.335 185.441 372.561 C 185.441 378.269 202.402 382.845 221.599 382.845 C 240.796 382.845 255.485 378.045 255.485 372.338 C 255.485 366.631 240.277 371.949 221.599 371.949 Z">
      <title>Mouth</title>
    </path>
  </g>
</svg>