<?xml version="1.0" encoding="UTF-8"?>
<svg width="137px" height="198px" viewBox="0 0 137 198" version="1.1" xmlns="http://www.w3.org/2000/svg" xmlns:xlink="http://www.w3.org/1999/xlink">
    <!-- Generator: Sketch 43.2 (39069) - http://www.bohemiancoding.com/sketch -->
    <title>Group</title>
    <desc>Created with Sketch.</desc>
    <defs></defs>
    <g id="Website-2" stroke="none" stroke-width="1" fill="none" fill-rule="evenodd">
        <g id="Artboard-9" transform="translate(-78.000000, -9.000000)" fill="#000000">
            <g id="Group" transform="translate(78.000000, 9.000000)">
                <path d="M70.0184573,28.8597144 C71.6821813,28.8597144 72.5756628,27.8198868 72.5756628,26.2216334 C72.5756628,24.6253056 71.6821813,23.5816268 70.0184573,23.5816268 C68.3566588,23.5816268 67.4612518,24.6253056 67.4612518,26.2216334 C67.4612518,27.8198868 68.3566588,28.8597144 70.0184573,28.8597144" id="Fill-1"></path>
                <path d="M83.4150947,28.5889741 C84.9074398,28.5889741 85.7104177,27.6531293 85.7104177,26.220478 C85.7104177,24.7897524 84.9074398,23.8539076 83.4150947,23.8539076 C81.9246752,23.8539076 81.1216973,24.7897524 81.1216973,26.220478 C81.1216973,27.6531293 81.9246752,28.5889741 83.4150947,28.5889741" id="Fill-3"></path>
                <g id="Group-7" transform="translate(0.000000, 0.517000)">
                    <path d="M90.681371,96.6482154 C89.3835122,96.6270337 86.7165471,84.3147054 84.798643,84.5842903 C84.798643,84.5842903 85.0066085,91.970917 80.4429209,95.7759156 C77.4139418,98.5045001 66.655578,98.6912839 63.5457234,96.0686078 C58.8761275,92.3964761 58.8568714,84.9982957 58.8568714,84.9982957 C56.9389673,84.7922558 54.6455699,97.1758316 53.3477111,97.227823 C39.16947,99.0436699 27.4155675,60.6644056 45.5682606,44.0483466 C47.6421388,41.1021686 51.096677,59.6265037 53.8676248,59.6380573 C55.4215893,59.9692616 55.2482847,42.0149061 57.4993188,41.2985804 C59.7484273,40.5841804 82.1528596,40.0854483 84.8506344,40.8633934 C87.1209245,41.5065459 87.4867897,59.4628271 89.0330518,59.0892594 C91.8001484,58.9852767 94.6943351,40.3646613 96.8625681,43.2492199 C115.50244,59.316481 104.901975,98.0269497 90.681371,96.6482154 M69.0337021,20.0187024 C73.2045659,20.0187024 73.7918759,20.5983099 76.9190609,20.6657062 C79.6457198,20.7273256 80.3389382,19.8107368 84.2305891,19.8107368 C89.2044308,19.8107368 91.332226,20.9295143 91.332226,25.7050185 C91.332226,30.4785972 88.9560275,33.5980798 84.6792554,33.5980798 C79.1431365,33.5980798 78.8581468,29.7218338 76.1334135,29.7815276 C73.0023772,29.8527751 72.8752872,33.1782976 68.8719511,33.2630243 C63.4725503,33.3766351 60.9307497,30.890677 60.9307497,25.7050185 C60.9307497,20.5193601 63.6304501,20.0187024 69.0337021,20.0187024 M136.589757,80.6329456 C136.797723,79.2638394 120.501314,72.6050919 119.66175,81.5668648 C118.843367,90.4131013 113.773245,120.66438 102.188796,114.914519 C105.606747,103.039304 114.697536,78.5937283 116.218765,53.4761163 C119.66175,54.8664043 125.896864,54.8875859 129.661425,53.9016754 C129.661425,53.9016754 124.587451,49.7847285 122.224732,46.4553548 C122.224732,46.4553548 127.741595,44.8166636 130.874557,42.2633093 C130.874557,42.2633093 125.833319,39.6598893 121.104029,38.5199302 C121.104029,38.5199302 121.643199,35.5005791 125.313405,31.8611827 C125.313405,31.8611827 119.401793,32.4099806 115.637232,34.0486717 C115.356093,32.3464355 114.868915,30.7404797 114.194953,29.246209 C114.329745,29.2673907 114.433728,29.246209 114.506901,29.1942176 C116.197584,28.0118952 114.951716,9.98436658 111.321948,5.21271352 C107.701807,0.441060468 101.643849,-0.720080287 100.877458,0.471870173 C100.107215,1.65611821 106.363511,5.19153185 104.807621,11.7058588 C103.448143,17.3709933 100.5347,16.9435087 100.107215,16.8510796 C86.7069191,11.3130351 67.4354486,11.9754438 52.9144496,18.6033815 C53.2456539,18.2625492 47.6633205,19.1329233 43.4000276,14.3728239 C39.1482883,9.62042694 43.172806,3.92640834 41.9693019,3.26207408 C40.7561698,2.60929345 35.8593523,6.23906182 34.7193932,11.8098416 C33.5794341,17.3806214 38.3491616,26.9335555 40.3826021,27.1819588 C38.7862743,28.8418316 37.372879,30.8964538 36.1404908,33.2919084 C33.3291053,30.6981163 25.9347761,29.2673907 25.9347761,29.2673907 C28.9329455,33.1879256 29.0658123,36.2265328 29.0658123,36.2265328 C24.4924968,36.9313048 19.4628124,39.0591 19.4628124,39.0591 C22.0739349,41.8589319 27.0419999,43.9751736 27.0419999,43.9751736 C24.4193237,47.0561441 19.1604922,50.6859124 19.1604922,50.6859124 C22.1682896,51.8470532 27.0862888,52.3881486 30.5389014,51.7546241 C27.5099222,69.47213 27.9451093,92.602516 29.6877833,113.545413 C16.8574668,118.555841 16.3491066,87.1145373 16.8670948,78.1219547 C17.385083,69.129372 0.272217465,73.2771286 0.272217465,74.6674165 C0.272217465,76.0480764 8.22882377,76.2233066 8.56965613,77.6039665 C8.92204213,78.9827008 0.965435827,80.8909769 0.272217465,82.094481 C-0.41329847,83.3076131 6.67100806,81.6284842 9.60563246,83.4231495 C12.5537361,85.2062612 6.72299944,119.416587 30.7969326,125.12216 C33.2039408,147.287817 36.7200984,164.922522 38.3087238,167.410405 C39.839581,169.803934 48.512513,169.753868 58.9839615,168.625463 C58.3234784,171.192296 57.0256196,178.209207 59.5828251,187.130542 C59.8408564,188.010544 59.3228682,188.956017 58.4101307,189.339213 C56.2958147,190.230769 52.6313854,192.139045 50.029891,195.479972 C49.4483578,196.225182 49.8758424,196.972317 50.8694554,197.055118 C54.1583914,197.326629 61.4911012,197.771444 69.1049495,197.066672 C70.1004881,196.972317 70.9631599,196.142381 70.8476235,195.231569 C70.6916493,193.818174 70.1832892,191.734667 68.6890185,189.857201 C68.0978573,189.121619 67.071509,187.979734 66.6363219,187.159426 C64.8647639,183.910928 61.0096996,176.333666 64.7550043,167.911063 C67.2717721,167.570231 69.827052,167.190886 72.3727039,166.778806 L72.6307351,166.736443 C72.871436,166.697931 73.10636,166.655567 73.3451352,166.61513 C78.5539009,171.908622 81.9063819,185.732552 78.2015149,189.857201 C76.6128895,191.619131 76.2624291,193.818174 76.1083806,195.231569 C76.0024722,196.142381 76.8324087,196.972317 77.7990631,197.066672 C85.1625826,197.771444 90.6293796,197.035862 93.8027793,196.766277 C94.7675081,196.671922 95.1815136,195.934415 94.621162,195.189205 C92.1005431,191.850204 89.7551543,190.904731 87.7024577,190.022803 C86.8205299,189.628054 84.1882257,187.918115 84.436629,187.036187 C86.9957601,177.779797 81.2016099,168.484894 79.1662438,165.606112 C90.8758573,163.457135 100.80621,161.01354 101.924988,160.046886 C104.278079,158.013445 101.882624,136.904946 101.104679,125.826932 C101.100828,125.765312 101.096977,125.707544 101.093126,125.645925 C123.464823,121.740794 122.973793,89.1826387 126.050912,87.8924824 C129.226238,86.5657394 135.987042,89.2846959 135.480608,87.9868371 C134.981876,86.6793502 127.398837,83.6099334 127.947635,82.2928185 C128.500284,80.9853316 136.381791,82.0020519 136.589757,80.6329456" id="Fill-5"></path>
                </g>
            </g>
        </g>
    </g>
</svg>