<?xml version="1.0" encoding="UTF-8"?>
<svg width="100px" height="198px" viewBox="0 0 100 198" version="1.1" xmlns="http://www.w3.org/2000/svg" xmlns:xlink="http://www.w3.org/1999/xlink">
    <!-- Generator: Sketch 43.2 (39069) - http://www.bohemiancoding.com/sketch -->
    <title>Fill 1</title>
    <desc>Created with Sketch.</desc>
    <defs></defs>
    <g id="Website-2" stroke="none" stroke-width="1" fill="none" fill-rule="evenodd">
        <g id="Artboard-9" transform="translate(-96.000000, -9.000000)" fill="#000000">
            <g id="Page-1" transform="translate(96.000000, 9.000000)">
                <path d="M80.7068586,96.8200895 C79.0578388,98.8881865 18.6132692,99.89787 17.3813773,98.6835209 C15.818122,97.1397576 13.5102739,74.8253612 16.7186506,70.9523087 C16.8901799,70.7456939 18.5606409,70.5956058 21.256379,70.4903492 C21.4357051,72.248524 21.9990227,74.6655271 23.7649943,74.6226448 C25.5680007,74.5895085 26.1488611,72.0945375 26.3359839,70.3597531 C28.6243401,70.3227183 31.2167708,70.299328 33.9982736,70.289582 C34.1522601,72.0516552 34.6921874,74.6499336 36.5302793,74.614848 C38.3547268,74.5797625 38.9277904,72.0224173 39.1051673,70.2837344 C41.9509935,70.2876328 44.9020763,70.3012772 47.8629051,70.3227183 C48.0188408,72.08869 48.5568189,74.6655271 50.3851648,74.6226448 C52.1901204,74.5875593 52.7709808,72.1003851 52.9600528,70.3656006 C55.6596893,70.3909402 58.310596,70.4260257 60.8387033,70.4630605 C61.0414196,72.1919974 61.6300769,74.4082333 63.3258774,74.3750969 C64.9865925,74.3478082 65.608386,72.2329305 65.8422895,70.5410283 C68.5438753,70.5858598 71.0018115,70.6326405 73.0796545,70.6833196 C73.2492345,72.1413183 73.7423811,73.9989021 75.1477515,73.967715 C76.5121887,73.9404262 77.0345733,72.2114893 77.2353404,70.796373 C78.9584298,70.8548489 79.9700625,70.9074772 80.0363352,70.9523087 C81.6580663,72.0380109 82.6268167,94.4128323 80.7068586,96.8200895 M24.8526457,39.4065197 C28.7023079,39.4065197 29.4040185,43.5739009 29.4040185,49.947772 C29.4040185,56.3333383 28.7023079,60.4987702 24.8526457,60.4987702 C21.0029835,60.4987702 20.3110189,56.3333383 20.3110189,49.947772 C20.3110189,43.5739009 21.0029835,39.4065197 24.8526457,39.4065197 M72.5260828,37.2585057 C76.9117739,37.2585057 77.7401822,41.7806405 77.7401822,49.1018209 C77.7401822,56.4191029 76.9117739,60.9490345 72.5260828,60.9490345 C68.1384425,60.9490345 67.3100341,56.4191029 67.3100341,49.1018209 C67.3100341,41.7806405 68.1384425,37.2585057 72.5260828,37.2585057 M92.5696658,26.3839409 C92.0005005,26.0486792 91.2188729,25.7134175 90.2345289,25.3762066 C90.176053,20.3589759 95.9905049,6.83350452 93.049168,6.65807687 C90.3553791,6.4982428 84.4278739,17.9283284 84.3401601,23.8226973 C81.5001814,23.2242941 78.1241738,22.6395353 74.4051078,22.0957096 C74.3563779,17.1213613 77.7694202,3.33859599 74.8066422,3.17096513 C71.9861555,3.00528347 68.5653164,15.7530257 68.5087897,21.314082 C65.6590651,20.9671251 62.6787443,20.6494061 59.6302017,20.3648235 C59.6282525,17.3182301 61.0414196,0.196491958 57.7570243,0.0015723532 C54.6168695,-0.17970288 53.7163409,15.7686192 53.7124425,19.8697277 C50.3578761,19.6163322 46.9721225,19.4116666 43.6350989,19.2615785 C43.5902674,14.4685055 42.3174424,0.178949194 39.321528,0.0015723532 C36.3606992,-0.171906095 37.7563236,14.016292 37.7251365,19.0549638 C34.6337115,18.9808943 31.626102,18.9633516 28.7744282,19.0062339 C28.7217999,13.9792572 25.1352792,0.176999998 22.1919931,0.0015723532 C19.2019264,-0.171906095 22.8937037,14.3086714 22.8683642,19.2108994 C19.6346479,19.3882763 16.712803,19.6748081 14.24707,20.0880377 C14.0794392,14.0416315 8.00379506,4.16895351 5.50492572,4.0266622 C2.75850848,3.86877732 8.48719568,15.9128597 8.41702462,21.6805308 C7.84785937,21.9456215 7.36835714,22.2321533 6.98436552,22.5381771 C-3.31713561,30.7832764 1.58509246,97.4028991 6.98436552,105.283499 C12.3836386,113.171895 31.1154127,112.936042 31.6592384,114.401838 C32.203064,115.863735 30.9789689,177.054847 31.6592384,183.588552 C31.7956821,184.917903 33.107491,185.884705 35.1405025,186.545482 C35.1229597,188.221791 35.2438099,197.234873 38.8498226,197.137414 C41.9217556,197.059446 42.522108,190.586166 42.6351613,187.676016 C45.465394,187.796866 48.5295302,187.691609 51.4318831,187.405078 C51.5293429,190.469214 52.1121525,196.691048 55.1119653,196.601385 C58.6380609,196.505874 58.9031516,188.036617 58.9187451,186.124456 C61.4702428,185.438339 63.3024871,184.574845 63.7741925,183.588552 C65.9105114,179.191165 60.975147,115.998229 62.1758517,114.803372 C63.3746073,113.598769 88.8915328,110.519039 92.969251,105.40045 C97.0489183,100.281862 98.4328475,79.5911456 99.0799806,75.3594409 C99.6471967,71.7027491 101.767922,31.8124519 92.5696658,26.3839409" id="Fill-1"></path>
            </g>
        </g>
    </g>
</svg>