<svg xmlns="http://www.w3.org/2000/svg" viewBox="0 0 52.7 75.46"><g data-name="Laag 2"><g data-name="Layer 2"><path d="M4.61 47.33a12.65 12.65 0 0 0 1.74 1.48c3.5 2.19.23 16.55 2.59 16.84s-.52-13.81 4.16-13.82c4.92 0 1.48 23.36 3.58 23.63s-.07-23.33 4.45-23.33c5.12 0 2.52 21 4.82 21.09S26 52.56 30.7 49.9a34.42 34.42 0 0 0 14.4-9.26C55 29.5 55 14.37 46.43 5.55S21.5-1.24 10.86 9.15-4 38.52 4.61 47.33zm-1.12-9.48c-1.12-5.72.22-18.65 12.22-25.57 4.54-2.93 12.63-5.1 17.21-2.21.38 1.23-1.48-.55-6.57 3-4.39 3-7.16 9.27-4.22 10.26 5 1.68 10.06-7.75 12-6.21 1.68 1.33-7.68 8.24-5.24 9.91s5.24-1.88 6.49-1-4.61 4.41-1.47 6.64c1.71 1.21 4.74-1.11 6.77-4.81 1.7-3.11 2.5-7.62 3.07-7.68C45 20 47.61 26.9 41.61 36.25 37.39 42.83 22.94 47.93 15 46.55c-6.75-1.18-10.39-2.98-11.51-8.7z"/><path d="M9 33.39a2.06 2.06 0 1 1-1.63 3.75A2.06 2.06 0 1 1 9 33.39zM18.65 37.28a1.79 1.79 0 1 1-1.42 3.27 1.79 1.79 0 1 1 1.42-3.27z"/></g></g></svg>
