<?xml version="1.0" encoding="utf-8"?>
<svg viewBox="336.08 226.107 59.275 72.499" xmlns="http://www.w3.org/2000/svg">
  <path d="M389.213,226.484 C387.093,224.676 337.576,229.822 336.335,232.321 C335.225,234.555 337.996,265.956 339.743,267.116 C341.853,268.517 358.528,268.108 359.612,268.634 C360.496,269.062 360.727,270.019 360.934,271.55 C358.089,272.291 352.068,274.077 350.891,276.044 C349.67,278.085 351.103,287.733 351.971,288.725 C352.564,289.4 357.322,289.525 354.898,282.915 C354.473,281.756 353.786,279.108 354.478,278.344 C355,277.771 359.217,276.982 361.299,276.624 C361.423,278.518 361.625,280.155 362.216,280.712 C362.759,281.222 363.901,281.345 365.221,281.253 C365.565,284.873 366.078,295.368 368.898,297.669 C371.414,299.726 377.841,298.355 377.772,293.97 C377.698,289.585 374.96,287.984 374.001,288.533 C373.042,289.082 378.316,293.353 373.316,294.382 C370.324,294.996 369.893,284.797 369.316,280.523 C370.579,280.18 371.581,279.799 371.879,279.561 C372.256,279.265 372.036,277.922 371.807,276.194 C373.896,275.854 378.111,275.226 378.79,275.598 C379.696,276.094 379.91,278.82 379.887,280.052 C379.763,287.092 384.216,285.419 384.552,284.584 C385.051,283.366 383.248,273.781 381.424,272.25 C379.873,270.942 374.764,271.019 371.585,271.209 C371.691,270.269 371.807,269.255 372.357,268.634 C372.832,268.094 394.2,262.934 395.16,261.089 C396.432,258.639 391.141,228.126 389.213,226.484 Z M353.482,256.891 C353.274,259.884 352.637,261.502 352.637,261.502 C351.862,259.93 351.46,258.293 351.298,256.715 C347.664,255.761 345.864,251.072 347.013,250.425 C347.519,250.142 349.489,250.389 351.625,250.831 C352.047,248.719 352.637,247.318 352.637,247.318 C352.955,248.71 353.171,250.009 353.315,251.212 C355.719,251.801 357.902,252.526 358.015,252.912 C358.465,254.458 356.545,256.659 353.482,256.891 Z M356.972,239.915 C356.4,236.323 360.626,236.456 361.176,239.248 C361.725,242.037 357.367,242.385 356.972,239.915 Z M362.25,245.611 C361.676,242.018 365.898,242.151 366.45,244.94 C367.002,247.731 362.641,248.08 362.25,245.611 Z M365.109,238.559 C364.533,234.966 368.761,235.1 369.309,237.891 C369.859,240.68 365.502,241.031 365.109,238.559 Z M380.058,255.377 C375.583,256.538 372.171,253.774 372.56,251.652 C372.732,250.694 383.33,246.887 384.783,247.515 C386.234,248.144 384.53,254.217 380.058,255.377 L380.058,255.377 Z" id="Fill-100" fill="#000000"/>
</svg>