<?xml version="1.0" encoding="utf-8"?>
<svg version="1.1" xmlns="http://www.w3.org/2000/svg" xmlns:xlink="http://www.w3.org/1999/xlink" x="0px" y="0px"
	 viewBox="0 0 281 360" style="enable-background:new 0 0 281 360;" xml:space="preserve">
<g id="Layer_1">
	<path d="M238.6,247.94c0.29-3.47-0.7-7.05-3.07-9.96l-7.11-8.76c14.65-22.96,27.19-70.76,10.63-89.9
		c-5.82-6.73-24.25,38.85-40.16,53.49l-11.56-14.26c17.75-17.19,27.66-43.18,27.66-75.05c0-59.09-34.05-95-89-95s-90,35.91-90,95
		c0,33.6,11.34,60.67,31.22,77.78c-0.81,2.09-1.6,4.21-2.37,6.33l-51.81,53.36c-2.62,2.69-3.92,6.17-3.94,9.65l-2,5.48
		c-0.85,2.32,1.1,4.7,3.55,4.32l2.07-0.32c0.2,0.22,0.4,0.45,0.62,0.67l0.6,0.58l-1.24,3.4c-0.62,1.71,0.81,3.45,2.61,3.18
		l4.66-0.72l0.77,0.74l-0.97,2.67c-0.73,2,0.95,4.04,3.05,3.72l6.74-1.04c4.38,0.83,9.07-0.45,12.46-3.8
		c0.06,20.35,10.71,39.04,26.17,52.79l-24.78,3.56c-9.81,1.41-16.62,10.5-15.21,20.31c0.48,3.31,3.55,5.61,6.86,5.14l53.39-7.66
		c2.77-0.4,4.92-2.37,5.7-4.87c10.16,4.33,20.88,6.76,31.27,6.76c10.14,0,20.81-2.42,31.04-6.69c0.87,2.32,2.94,4.11,5.57,4.48
		l53.39,7.66c3.31,0.48,6.38-1.82,6.86-5.14c1.41-9.81-5.4-18.9-15.21-20.31l-23.62-3.39c16.59-14.3,27.86-33.75,26.45-54.26
		c2.02,0.76,4.2,1.06,6.35,0.85l6.62,1.64c2.06,0.51,3.92-1.38,3.37-3.43l-0.73-2.75l0.83-0.67l4.58,1.14
		c1.76,0.44,3.35-1.18,2.88-2.93l-0.93-3.5l0.65-0.53c0.24-0.19,0.45-0.4,0.68-0.61l2.04,0.5c2.4,0.59,4.55-1.6,3.92-3.99
		L238.6,247.94z M103.78,122.99c17.18-1.93,32.61-2.01,46.3-0.23c4.01,0.52,6.91,3.05,6.91,5.98c-20-3.79-40-3.79-60,0
		C97,125.89,99.86,123.43,103.78,122.99z M156.41,174.82l-1.03-1.05c-0.23-0.23-0.6-0.13-0.7,0.19l-0.46,1.55
		c-0.62,0.18-1.24,0.35-1.87,0.52l-2.37-2.43c-0.23-0.23-0.6-0.13-0.7,0.19l-1,3.28c-12.1,2.79-24.21,3.14-36.32,1.05l-2.14-3.76
		c-0.16-0.29-0.55-0.29-0.72-0.01l-1.73,2.86c-0.62-0.14-1.23-0.26-1.85-0.41l-0.63-2.11c-0.09-0.32-0.47-0.42-0.7-0.19l-1.52,1.54
		c-3.36-0.92-6.72-2.01-10.07-3.32c-4.03-1.56-6.61-4.74-6.61-8.25c6.15,1.02,12.29,1.81,18.44,2.38l1.11,3.98
		c0.22,0.78,1.15,1.03,1.69,0.45l3.63-3.91c12.5,0.83,24.99,0.74,37.49-0.31l3.14,3.38c0.54,0.58,1.47,0.34,1.69-0.45l0.97-3.49
		c4.95-0.53,9.9-1.2,14.85-2.02c0,3.51-2.58,6.68-6.61,8.25C160.4,173.5,158.4,174.18,156.41,174.82z M65,102.11
		c0-13.36,6.49-18.53,14.5-18.53S94,87.89,94,102.11c0,10.24-4.86-0.47-13.92-0.47C71.72,101.65,65,112.35,65,102.11z M125,314.49
		c-28.17,0-51-3.74-51-35.5c0-31.76,22.83-71.5,51-71.5s51,39.74,51,71.5C176,310.74,153.17,314.49,125,314.49z M176.9,102.48
		c-8.36,0-15.08,10.7-15.08,0.47c0-13.36,6.49-18.53,14.5-18.53s14.5,4.31,14.5,18.53C190.82,113.18,185.97,102.48,176.9,102.48z"/>
	<path d="M262.09,109.16c10.81,14.55-14.83,30.15-23.49,28.03c-8.66-2.12-12.18-18.11-7.86-35.72s26.45-36.44,23.49-28.03
		C251.78,80.39,253.26,97.27,262.09,109.16z"/>
</g>
</svg>
