<?xml version="1.0" encoding="UTF-8"?>
<svg width="146px" height="198px" viewBox="0 0 146 198" version="1.1" xmlns="http://www.w3.org/2000/svg" xmlns:xlink="http://www.w3.org/1999/xlink">
    <!-- Generator: Sketch 43.2 (39069) - http://www.bohemiancoding.com/sketch -->
    <title>Page 1</title>
    <desc>Created with Sketch.</desc>
    <defs></defs>
    <g id="Website-2" stroke="none" stroke-width="1" fill="none" fill-rule="evenodd">
        <g id="Artboard-9" transform="translate(-73.000000, -11.000000)" fill="#000000">
            <g id="Page-1" transform="translate(73.000000, 10.000000)">
                <g id="Group-3" transform="translate(0.000000, 0.974684)">
                    <path d="M79.0905621,90.4255696 C74.0773552,87.5293671 75.4814586,76.3293671 73.078769,75.3192405 C71.9838724,74.8660759 69.3252,74.4863291 66.6462517,74.423038 C63.450269,74.3243038 60.2010621,74.6331646 59.4432517,75.7243038 C58.0518207,77.7192405 56.4398897,86.336962 53.4314586,88.936962 C50.4280966,91.5293671 24.7867345,85.1268354 22.7794241,81.9268354 C20.7822517,78.7268354 23.5853897,59.7040506 26.7915103,57.3091139 C29.9925621,54.9040506 61.0551828,60.3040506 61.8484759,63.3065823 C62.6569759,66.3167089 60.2517517,67.9192405 60.8498897,69.5192405 C61.1793724,70.3951899 63.9875793,70.901519 66.7172172,71.0053165 C68.9653034,71.1091139 71.1550966,70.9217722 71.8723552,70.4939241 C73.4766828,69.5192405 71.4693724,61.5141772 74.2801138,58.5091139 C77.0807172,55.5065823 100.917528,52.1091139 105.332597,54.9040506 C110.862838,58.423038 116.5122,79.7951899 115.128372,83.2686076 C113.747079,86.7268354 84.0860276,93.3192405 79.0905621,90.4255696 M68.4001138,115.498987 C55.8138724,115.498987 46.3754586,114.99519 46.3754586,107.56481 C46.3754586,100.126835 55.8138724,100.772405 68.4001138,100.772405 C80.9914241,100.772405 90.4273034,100.126835 90.4273034,107.56481 C90.4273034,114.99519 80.9914241,115.498987 68.4001138,115.498987 M64.5046138,38.9293671 C67.7664931,38.9293671 70.3947517,41.8053165 70.3947517,45.3470886 C70.3947517,48.8762025 68.4710793,51.7470886 64.5046138,51.7470886 C60.5508207,51.7470886 58.6296828,48.8762025 58.6296828,45.3470886 C58.6296828,41.8053165 61.2604759,38.9293671 64.5046138,38.9293671 M144.857855,140.142025 C143.595683,138.055949 126.247148,128.119241 121.01851,125.154684 C121.705355,124.18 122.197045,123.367342 122.463166,122.754684 C125.048338,116.807848 123.15001,64.2483544 111.450838,41.4458228 C117.1737,37.8407595 128.6397,30.301519 128.989459,27.4382278 C129.458338,23.6129114 115.503476,2.75468354 113.062769,1.18 C111.400148,0.0964556962 101.497924,-0.359240506 106.087872,6.66101266 C109.598131,12.0002532 117.868148,21.9673418 117.234528,23.9116456 C116.778321,25.3420253 108.467752,30.1825316 104.022269,32.6762025 C84.1367172,18.6078481 33.9108724,21.0559494 22.0824414,36.1217722 C17.2998724,34.4356962 11.5516655,32.2103797 10.9839414,31.18 C10.0132345,29.3926582 16.2658034,18.0660759 18.7166483,12.1420253 C21.9253034,4.41037975 12.284131,6.70405063 10.8546828,8.0635443 C8.73838966,10.0686076 -1.07005862,33.1572152 0.0958034483,36.8356962 C0.899234483,39.3293671 11.4654931,43.9318987 18.1033034,46.5977215 C13.7490621,69.3496203 18.825631,116.245823 22.6805793,126.258481 C23.2964586,127.845823 24.4749931,129.587595 26.0995966,131.405316 C21.4437517,135.344557 6.37118276,148.233165 5.51706207,150.501519 C4.51847586,153.187595 11.3818552,168.815443 12.9354931,170.076203 C14.0025103,170.931899 21.3373034,171.815443 19.0993552,166.569873 C17.3961828,162.569873 12.9101483,155.020506 13.7237172,153.676203 C14.4004241,152.544557 27.9472345,141.023038 32.4079241,137.245823 C34.1389759,138.640759 36.0525103,140.033165 38.0699586,141.402785 C34.0806828,144.785063 25.2226655,152.374937 24.0415966,154.261013 C22.5285103,156.704051 26.1680276,173.347089 27.4555448,174.893924 C28.3223379,175.931899 35.3403207,178.245823 34.1769931,172.666076 C33.3025966,168.405316 30.4006138,160.131899 31.4574931,158.969873 C32.2279759,158.119241 40.0747345,149.757215 44.2490276,145.316709 C44.7787345,145.633165 45.295769,145.929367 45.8254759,146.228101 C46.7404241,146.752152 47.6655103,147.253418 48.6007345,147.757215 C46.9330448,155.873671 44.8927862,167.106582 44.8623724,168.78 C44.7660621,173.53443 50.283631,183.838228 50.283631,183.838228 C50.283631,183.838228 40.5233379,193.023038 39.8364931,194.78 C39.258631,196.276203 39.7173724,197.54962 41.3039586,197.463544 L69.0134586,196.744557 C70.6152517,196.666076 70.5316138,195.620506 70.0602,194.068608 C67.4395448,185.240759 55.8645621,171.483797 55.6339241,168.154684 C55.5249414,166.486329 55.6415276,158.698987 55.9355276,151.405316 C64.3043897,155.212911 72.4476828,157.691392 77.9829931,157.478734 C82.9860621,157.286329 89.165131,154.172405 95.3315276,149.861013 C95.863769,157.412911 96.2338034,165.845823 96.157769,167.605316 C96.0361138,170.947089 84.8489069,185.01038 82.4690276,193.916709 C82.0483034,195.463544 82.0026828,196.519241 83.5918034,196.557215 L111.311441,196.498987 C112.900562,196.536962 113.326355,195.258481 112.71301,193.76481 C111.97801,192.035696 101.954131,183.126835 101.954131,183.126835 C101.954131,183.126835 107.175166,172.666076 106.941993,167.924304 C106.853286,166.066076 104.004528,152.736962 102.05551,144.686329 C102.780372,144.086329 103.5027,143.481266 104.21489,142.866076 C104.597597,142.531899 104.970166,142.205316 105.357941,141.871139 C110.127838,145.352152 120.009786,152.557215 120.960217,153.276203 C122.22239,154.223038 120.912062,162.893924 120.841097,167.243291 C120.742252,172.936962 127.197579,169.352152 127.859079,168.169873 C128.834855,166.41038 129.313872,149.372405 127.36739,147.258481 C125.790941,145.569873 114.816631,139.298987 110.606855,136.936962 C112.388597,135.182532 114.033476,133.463544 115.503476,131.853418 C120.019924,134.412911 136.491528,143.752152 137.391269,144.774937 C138.435476,145.952152 135.457459,154.202785 134.5197,158.453418 C133.295545,164.01038 140.336338,161.78 141.23101,160.74962 C142.526131,159.220506 146.360803,142.590127 144.857855,140.142025" id="Fill-1"></path>
                </g>
                <path d="M69.0491948,107.143797 C60.6372466,107.143797 54.3263845,105.976709 54.3263845,108.295696 C54.3263845,110.604557 60.6372466,111.358987 69.0491948,111.358987 C77.4662121,111.358987 83.7745397,110.604557 83.7745397,108.295696 C83.7745397,105.976709 77.4662121,107.143797 69.0491948,107.143797" id="Fill-4"></path>
            </g>
        </g>
    </g>
</svg>