<svg xmlns="http://www.w3.org/2000/svg" viewBox="0 0 67.32 79.16"><g data-name="Laag 2"><path d="M63.81 21.52a2.82 2.82 0 0 0-2.57 1.4 25.67 25.67 0 0 0-3.4-8.92c.09-.49.58-3.4.25-4S52 4.8 51.29 4.78A5.88 5.88 0 0 0 49.16 6a26.48 26.48 0 0 0-6-2.25C43 3.41 41.69.66 41.08.37S33.27-.2 32.66.22a7.19 7.19 0 0 0-1.16 2.6 29.53 29.53 0 0 0-8.06 1.66c-.51-.29-2.93-1.61-3.56-1.49s-6.68 4.08-6.93 4.78.53 2.73.84 3.57a25.44 25.44 0 0 0-5.23 13.77A3 3 0 0 0 6 23.85c-1.94 0-3.68 3.07-3.68 5.74s1.57 4.31 3.5 4.31a3.13 3.13 0 0 0 3.15-1.82 9.61 9.61 0 0 0 1.73 4.15 112.38 112.38 0 0 0 10.06 9.88s-.45 1.78-.93 4.41c-3.91 0-22.39 1.3-19.48 27.61.54 1.44 4.38 1.19 5 .35s-2.91-12 2.15-18.56a14 14 0 0 1 11.7-5.52c-.14 1-.26 2.1-.35 3.18v-1.06S6.78 54.68 9.59 78.33c.47 1.16 3.77 1 4.32.28s-1.25-10.92.32-14.32c1.31-2.84 2.81-3.71 4.44-3.9a23.72 23.72 0 0 0 .69 7.07c-3 1.41-2.11 10.37-1.69 10.59s3.31.38 3.65 0-1.67-6.31 1.35-6.44a5 5 0 0 0 1.87.24 5.39 5.39 0 0 0 2.23-.56l-.26.36c3 0 1.34 6 1.7 6.36s3.23 0 3.65-.19.78-9.11-2.2-10.46a29.35 29.35 0 0 0 1-7.07c1.45.23 2.83 1.12 4.14 3.6 1.75 3.31.5 13.63 1.08 14.28s3.89.67 4.3-.51c1.25-19.39-6.48-21.31-9.36-21.36 0-.64.06-1.27.1-1.89a13.7 13.7 0 0 1 11.85 5.51c5 6.59 1.5 17.71 2.12 18.56s4.42 1.09 5-.35c2.72-24.82-13.39-27.39-18.46-27.59.48-2.37 1.37-4.17 3.14-4.81 1.52-.55 2.93-1 4.27-1.33a25.77 25.77 0 0 1 2.1 5.05s.89-4.08 1-3.44a6.77 6.77 0 0 0 3.69 5.35s-.32-3.31 0-3.43c2.42 3.31 4.59 2.23 4.14 2.18s-2.34-5.28-1-7.45c2-.29 4.19-.61 6.75-1.08 3.14-.58 5.53-5.1 6.1-10.87a3.23 3.23 0 0 0 2.39.87c1.84 0 3.34-1.64 3.34-4.31s-1.7-5.75-3.54-5.75zM4.92 29.2a1.38 1.38 0 1 1 2.74 0 1.38 1.38 0 1 1-2.74 0zm31.46-4.13c1.25-.5 3.34.77 4.59 2.82s1.65 3.78-.07 4.6-2.73.22-4.35-2.43c-1.55-2.5-1.65-4.39-.17-4.99zM53 35.56c-.08.15-.36 2.54-7.7 3.7s-8.34-1-8.46-1.15c-.43-.44-.21-1.08.49-1.44a12 12 0 0 1 1.52-.34c.64.68 1.55 1.57 1.86 1.52s0-1 .77-1.59 5.67-1.24 6.52-1 1.22 1.16 1.47 1.12.62-1 .84-1.83a12.89 12.89 0 0 1 1.77-.16c.76.08 1.16.61.92 1.17zm.21-6c-1.2 2.08-2.27 2.57-3.55 2.16-1.74-.57-2-2.29-.47-5 1.45-2.53 3.05-3.55 4.29-2.55 1.01.92.89 3.36-.3 5.44zm9-2.73c0-2.12 2.61-2.12 2.61 0s-2.63 2.17-2.63.04z" data-name="Layer 2"/></g></svg>