<?xml version="1.0" encoding="utf-8"?>
<svg viewBox="152.103 300.31 43.897 94.924" xmlns="http://www.w3.org/2000/svg">
  <path d="M192.543,326.391 C193.42,325.625 183.983,300.222 183.273,300.309772 C182.471,300.415 172.878,305.346 172.579,306.519 C172.282,307.693 173.968,309.505 174.635,309.827 C175.303,310.144 180.463,307.64 180.898,307.901 C181.338,308.177 182.23,312.031 181.732,312.583 C181.233,313.131 165.711,323.837 165.004,323.839 C164.292,323.844 161.798,319.14 161.908,318.724 C162.02,318.302 164.271,316.235 164.514,315.799 C164.751,315.367 162.916,313.163 162.347,313.151 C161.777,313.139 156.37,315.735 156.319,316.828 C156.171,320.222 161.59,345.248 164.259,356.721 C162.756,357.152 155.736,356.892 155.534,357.576 C155.331,358.26 163.394,361.534 165.534,361.939 C165.613,362.237 165.67,362.402 165.692,362.431 C166.502,363.298 169.139,361.433 169.795,361.995 C170.449,362.56 168.071,363.911 167.751,364.6 C167.433,365.289 169.31,364.735 169.487,365.199 C169.655,365.657 167.415,367.119 167.196,368.441 C163.154,368.226 153.549,368.848 152.264,369.769 C151.319,370.45 154.769,379.888 156.325,384.034 C158.298,389.279 163.139,395.065 163.745,395.23 C164.838,395.53 156.135,378.696 158.716,375.953 C159.623,374.989 164.922,372.742 168.522,372.438 C169.549,374.602 170.919,376.84 171.683,377.035 C172.21,377.169 174.058,375.644 176.528,373.052 C179.619,374.66 182.151,379.819 182.662,381.072 C184.082,384.562 172.903,395.049 174.027,395.164 C174.655,395.227 179.629,391.681 183.361,387.499 C186.31,384.194 187.851,379.06 187.213,378.085 C186.35,376.76 182.446,371.381 179.349,369.924 C180.13,369.016 180.942,368.038 181.766,367.008 C183.484,367.456 187.63,367.928 187.678,367.452 C187.72,367.014 185.114,365.374 183.822,364.363 C184.412,363.581 185.001,362.778 185.583,361.96 C188.293,362.497 195.886,362.972 195.998,362.317 C196.117,361.602 189.504,358.68 188.486,357.674 C189.054,356.791 189.605,355.895 190.135,354.998 C194.083,348.329 193.116,336.128 192.988,335.725 C192.852,335.321 191.448,335.116 191.478,334.706 C191.51,334.303 193.089,333.293 193.086,332.641 C193.083,331.99 191.69,331.842 191.438,331.792 C191.189,331.745 192.095,330.578 191.809,330.208 C191.516,329.842 188.596,331.095 188.055,330.68 C187.515,330.257 191.668,327.148 192.543,326.391 Z M182.578,352.14 C179.651,354.5 174.635,354.334 171.702,351.777 C171.221,352.433 169.845,353.574 169.148,353.654 C168.29,353.753 167.008,352.093 166.973,351.515 C166.943,350.981 169.359,349.134 169.71,348.775 C169.552,348.286 169.444,347.763 169.395,347.205 C169.182,344.85 169.499,342.971 170.167,341.523 C169.135,340.767 167.805,339.68 167.552,338.973 C167.126,337.795 168.825,336.194 169.413,336.072 C169.839,335.976 171.866,337.641 172.917,338.536 C177.549,336.931 181.232,339.427 181.232,339.427 C181.232,339.427 183.105,336.758 184.002,336.729 C184.906,336.694 186.299,338.573 186.356,339.198 C186.401,339.721 184.276,341.89 183.711,342.452 C184.261,343.456 184.646,344.608 184.809,345.898 C184.962,347.115 184.877,348.189 184.593,349.125 C185.292,349.771 187.002,351.13 187.117,351.881 C187.265,352.891 185.29,354.089 184.787,354.152 C184.461,354.193 183.321,352.981 182.578,352.14 L182.578,352.14 Z" id="Fill-116" fill="#000000"/>
  <path d="M173.498,346.119 C173.083,349.903 179.881,351.078 180.4,346.872 C180.956,342.384 174.144,340.211 173.498,346.119" id="Fill-117" fill="#000000"/>
</svg>