<?xml version="1.0" encoding="UTF-8" standalone="no"?>
<!-- Created with Inkscape (http://www.inkscape.org/) -->

<svg
   width="125.32854mm"
   height="126.22884mm"
   version="1.1"
   viewBox="0 0 125.32854 126.22883"
   id="svg36"
   sodipodi:docname="matthijsmonster.svg"
   inkscape:version="1.1.1 (1:1.1+202109281949+c3084ef5ed)"
   xmlns:inkscape="http://www.inkscape.org/namespaces/inkscape"
   xmlns:sodipodi="http://sodipodi.sourceforge.net/DTD/sodipodi-0.dtd"
   xmlns="http://www.w3.org/2000/svg"
   xmlns:svg="http://www.w3.org/2000/svg">
  <defs
     id="defs40" />
  <sodipodi:namedview
     id="namedview38"
     pagecolor="#505050"
     bordercolor="#eeeeee"
     borderopacity="1"
     inkscape:pageshadow="0"
     inkscape:pageopacity="0"
     inkscape:pagecheckerboard="0"
     inkscape:document-units="mm"
     showgrid="false"
     fit-margin-top="0.5"
     fit-margin-left="0.5"
     fit-margin-right="0.5"
     fit-margin-bottom="0.5"
     inkscape:zoom="0.81869388"
     inkscape:cx="81.83767"
     inkscape:cy="277.27091"
     inkscape:window-width="2560"
     inkscape:window-height="1361"
     inkscape:window-x="0"
     inkscape:window-y="48"
     inkscape:window-maximized="1"
     inkscape:current-layer="svg36" />
  <g
     id="g4"
     transform="translate(-37.866463,-74.969829)">
    <path
       transform="scale(0.26458)"
       d="m 395.92,373.7 c -1.206,-0.004 -2.416,0.008 -3.6289,0.0312 -18.466,0.76463 -36.408,2.5666 -53.484,6.0391 -32.6,6.6292 -62.036,19.346 -85.889,42.564 -54.637,57.225 -61.912,147.67 -33.434,218.98 42.829,91.369 172.32,122.2 255.17,67.906 64.997,-46.845 85.111,-136.32 68.205,-211.58 -9.0884,-70.115 -70.959,-123.72 -146.94,-123.94 z m -89.504,80.818 a 32.605,32.605 0 0 1 31.783,26.789 32.605,32.605 0 0 1 -26.268,37.896 32.605,32.605 0 0 1 -37.896,-26.266 32.605,32.605 0 0 1 26.266,-37.898 32.605,32.605 0 0 1 6.1152,-0.52148 z m 151.95,3.8242 a 32.605,32.605 0 0 1 31.781,26.787 32.605,32.605 0 0 1 -26.266,37.898 32.605,32.605 0 0 1 -37.898,-26.268 32.605,32.605 0 0 1 26.268,-37.896 32.605,32.605 0 0 1 6.1152,-0.52148 z m -78.295,82.814 c 21.943,-0.1592 43.932,3.9055 48.896,12.291 1.8506,3.1261 2.0198,8.0316 0.95117,13.941 4.7147,-0.81723 9.446,-1.7143 14.195,-2.748 30.326,-6.601 53.366,30.806 52.705,56.562 -0.77733,30.304 -9.6974,72.681 -32.469,86.49 -28.6,17.344 -69.743,22.956 -93.297,20.617 -26.605,-2.6422 -72.531,-9.9025 -90.906,-38.389 -23.003,-35.661 -22.47,-42.948 -21.072,-68.736 1.1799,-21.765 17.804,-66.279 55.959,-56.463 v -0.002 c 5.1189,1.317 10.377,2.446 15.74,3.4141 -1.1774,-5.8732 -1.1037,-10.771 0.67383,-13.932 4.7832,-8.5047 26.68,-12.888 48.623,-13.047 z"
       id="path2" />
  </g>
  <path
     d="m 22.087537,46.290171 c 0,0 -0.48516,-3.0956 -1.931,-5.9286 -1.5047,-2.3798 -3.0204,-3.9138 -5.2247,-4.8789 -2.3176,-0.85752 -4.9764998,-0.3132 -7.2196998,0.50275 -4.4191,1.3718 -6.2288,4.8936 -6.437,6.8238 -0.94872995,2.9589 -0.66176995,5.1864 -0.31572995,7.7782 0.78665995,3.8885 1.99159995,8.2035 3.20119995,11.152 4.0845,8.6625 12.5389998,18.941 12.5389998,18.941"
     stroke="#000000"
     stroke-width="0.26458px"
     id="path6" />
  <path
     d="m 98.963537,53.170171 c 1.385003,-5.3969 4.800803,-9.8134 6.801103,-12.206 9.043,-10.465 20.318,-0.62623 18.791,7.1721 0,0 -1.3931,9.3961 -4.5598,15.403 -4.5925,8.948 -5.4031,9.4908 -13.579,18.319"
     stroke="#000000"
     stroke-width="0.26458px"
     id="path8" />
  <g
     stroke="#000000"
     stroke-width="0.26458px"
     id="g14"
     transform="translate(-37.866463,-74.969829)">
    <path
       d="m 81.428,102.86 c -9.1347,-2.4547 -17.982,-5.3035 -14.376,-14.591 -5.225,6.4613 -3.1679,17.337 4.5609,19.829"
       id="path10" />
    <path
       d="m 122.56,102.88 c 9.3327,-1.539 18.418,-3.4988 15.749,-13.097 4.5602,6.9464 1.4374,17.566 -6.5,19.281"
       id="path12" />
  </g>
  <g
     stroke="#000000"
     stroke-width="0.26458px"
     id="g20"
     transform="translate(-37.866463,-74.969829)">
    <path
       d="m 142.52,195.42 c -3.169,-2.6744 -3.8546,-3.7077 -6.9234,-4.331 -4.2687,-0.86706 -5.7047,0.32532 -9.274,1.2692 4.2342,1.6627 5.9457,2.77 6.9118,6.3352 0,0 -2.8799,-5.1278 -8.5794,-3.6327 0,0 1.454,0.73443 2.6028,4.718 -4.477,-6.3582 -12.14,-5.0186 -13.875,-5.4986 -1.5994,-0.86209 -1.9116,-2.667 -0.28329,-3.7913 2.1728,-1.1356 13.266,-4.926 17.098,-4.61 4.4437,0.60952 9.9725,3.1693 12.322,9.5412 z"
       id="path16" />
    <path
       d="m 77.614,187.49 c -2.9555,0.0992 -9.0996,-1.2019 -14.924,2.493 -3.8793,3.041 -5.8824,5.1351 -7.0032,10.584 1.302,-1.7802 2.7906,-3.0952 4.2171,-4.272 1.3527,-1.1159 2.4179,-1.7344 6.0682,-2.2877 -2.385,1.6908 -2.5136,2.8153 -2.419,6.4604 0,0 -0.43149,-3.587 5.3926,-4.4815 0,0 -0.74577,0.55495 -0.21585,4.6669 3.1305,-8.5305 11.328,-8.5173 12.729,-9.6477"
       id="path18" />
  </g>
  <g
     transform="matrix(1.4674,0.036919,-0.036919,1.4674,-84.179463,-147.50383)"
     id="g28">
    <path
       d="m 89.729,130.59 c -2.7704,0.16271 -4.7791,3.4272 -3.7324,5.9297 0.88027,2.5348 4.3343,3.7809 6.5537,2.179 2.0692,-1.2952 2.709,-4.4064 1.1564,-6.3385 -0.8999,-1.218 -2.4609,-1.9572 -3.9777,-1.7702 z"
       id="path22" />
    <path
       d="m 117.13,130.59 c -2.8098,0.15359 -4.833,3.515 -3.6858,6.0578 0.93651,2.402 4.1877,3.5855 6.3788,2.1313 2.1505,-1.2486 2.8764,-4.4361 1.2907,-6.4091 -0.90099,-1.2226 -2.4615,-1.9667 -3.9837,-1.78 z"
       id="path24" />
    <path
       d="m 103.21,145.87 c -2.2992,0.18279 -4.7728,0.33037 -6.7598,1.6133 -0.52287,0.79272 0.02067,1.7777 0.19448,2.6049 1.1224,3.242 3.0349,6.186 5.3309,8.717 0.65156,0.63684 1.3569,1.3337 2.2344,1.6058 1.1573,-0.19756 1.8045,-1.3324 2.5569,-2.1214 2.1446,-2.7139 3.6958,-5.853 4.5506,-9.197 0.15038,-0.77504 0.41424,-1.9635 -0.52539,-2.3379 -1.5912,-0.6785 -3.304,-0.81168 -5.002,-0.91015 -0.8402,-0.0298 -1.6976,-0.009 -2.5801,0.0254 z"
       id="path26" />
  </g>
  <path
     d="m 107.5935,75.145418 a 16.090751,13.943274 87.819452 0 1 7.96651,13.647746 16.090751,13.943274 87.819452 0 1 -6.44669,14.502456 16.090751,13.943274 87.819452 0 1 -14.184829,0.3404"
     fill="none"
     stroke="#000000"
     stroke-width="3.99013"
     id="path30" />
  <path
     d="M 72.723447,46.921303 A 31.358,11.197 66.049 0 1 58.237403,9.850972"
     fill="none"
     stroke="#000000"
     stroke-width="4"
     id="path32" />
  <path
     d="M 68.139538,14.827847 C 67.686627,16.048904 50.628887,18.948885 49.797713,17.946148 48.966538,16.943411 54.984118,0.72085168 56.268009,0.50265278 57.551938,0.28436689 68.592228,13.606755 68.139292,14.827977 Z"
     id="path34"
     style="stroke-width:0.264586" />
</svg>
