<?xml version="1.0" encoding="UTF-8"?>
<svg width="167px" height="197px" viewBox="0 0 167 197" version="1.1" xmlns="http://www.w3.org/2000/svg" xmlns:xlink="http://www.w3.org/1999/xlink">
    <!-- Generator: Sketch 43.2 (39069) - http://www.bohemiancoding.com/sketch -->
    <title>Page 1</title>
    <desc>Created with Sketch.</desc>
    <defs>
        <polygon id="path-1" points="166.90768 0.857595238 0 0.857595238 0 196.630952 166.90768 196.630952 166.90768 0.857595238"></polygon>
    </defs>
    <g id="Website-2" stroke="none" stroke-width="1" fill="none" fill-rule="evenodd">
        <g id="Artboard-9" transform="translate(-62.000000, -11.000000)">
            <g id="Page-1" transform="translate(62.000000, 10.000000)">
                <g id="Group-3" transform="translate(0.000000, 0.512163)">
                    <mask id="mask-2" fill="white">
                        <use xlink:href="#path-1"></use>
                    </mask>
                    <g id="Clip-2"></g>
                    <path d="M68.5518085,89.4502631 C69.2924282,81.6892631 81.2204282,83.5300131 97.1851606,85.0746321 C113.161724,86.609775 125.212766,87.0812155 124.46978,94.8422155 C123.724428,102.605585 111.685217,101.97068 95.7181183,100.42843 C79.7415549,98.8909179 67.8088225,97.2136321 68.5518085,89.4502631 M121.467076,65.565525 C122.347301,62.7961083 126.246794,60.4365369 133.934569,60.4365369 C141.62471,60.4365369 148.578963,62.7700488 149.295921,65.565525 C150.128823,68.851394 144.724428,70.6945131 135.375583,70.6945131 C125.430456,70.6945131 120.26978,69.3228345 121.467076,65.565525 M62.5629634,62.7250369 C54.9485408,61.5144536 50.7769352,59.3207155 51.8866817,56.7502988 C52.826062,54.5612988 58.8007099,53.5639298 65.0664,54.5541917 C71.3297239,55.5515607 74.2093859,57.9750964 74.5643155,60.344144 C75.0517521,63.5684179 70.6813859,64.0137988 62.5629634,62.7250369 M0.242061972,148.328204 L28.7500056,172.329025 C29.4551324,172.947346 29.8029634,172.518549 30.1862873,171.750977 C32.3489915,167.34218 45.6375549,150.232918 46.778062,148.88493 C48.2947944,147.091561 64.765893,128.807251 71.9733296,120.816454 C73.6509634,118.954382 77.0204282,117.750906 79.4978366,118.101525 C87.9972169,119.300263 96.9485408,120.326061 105.696372,121.065204 C108.190344,121.278418 111.325555,123.126275 112.693217,125.222882 C119.313837,135.371882 131.497386,154.054192 132.550344,155.726739 C133.475527,157.197918 139.163865,165.373501 142.58302,170.27743 C144.016935,172.331394 143.619414,175.297442 141.745386,176.958144 C139.528259,178.922085 136.873386,181.39537 135.827527,182.840489 C134.242175,185.022382 127.685442,194.20718 127.867639,195.199811 C128.021442,196.055037 127.962287,197.023977 128.712372,196.467251 L158.06978,173.513549 C158.817499,172.949715 158.472034,172.518549 157.8024,171.990251 C153.940766,168.955501 139.973104,152.398227 138.891752,150.99812 C137.687358,149.446394 127.392034,135.272382 120.35733,125.573501 C118.885555,123.545596 119.718456,122.015192 122.221893,122.109954 C142.810175,122.917799 159.401949,121.44662 161.500766,115.879358 C167.321611,100.445013 168.753161,18.1395607 164.266851,10.2695845 C159.76871,2.39723929 47.629893,-1.53064167 42.4905127,2.39723929 C37.3558648,6.33696548 28.2885972,97.7206083 33.4232451,106.500299 C35.0109634,109.210489 47.2607662,112.605335 63.6135549,115.559537 C66.0767662,116.002549 66.6470197,117.776965 64.8794704,119.553751 C56.1032451,128.368977 42.1758085,142.358204 40.8460056,143.651704 C39.6013859,144.864656 32.786738,152.125787 28.7074141,156.489573 C26.9966535,158.318477 24.0176113,158.545906 22.0039775,157.053406 C19.6283155,155.290835 16.658738,153.201335 15.0331606,152.476406 C12.5699493,151.374799 2.24149859,146.857025 1.30448451,147.240811 C0.497611268,147.56537 -0.458332394,147.707513 0.242061972,148.328204" id="Fill-1" fill="#000000" mask="url(#mask-2)"></path>
                </g>
                <path d="M77.2679324,88.4564226 C79.1703549,88.174506 80.8385239,88.626994 80.9213408,88.9799821 C80.9686648,89.1955655 81.0088901,89.4135179 81.0372845,89.6267321 C81.1248338,90.3516607 81.1437634,91.0718512 81.0656789,91.7683512 C81.0088901,92.2137321 80.9331718,92.652006 80.8243268,93.0879107 C80.6515944,93.8057321 78.7302423,94.0071012 76.8775099,93.052375 C75.3726085,92.2753274 74.5349746,91.3679821 74.6343549,90.2995417 C74.7361014,89.2405774 75.6991437,88.6862202 77.2679324,88.4564226" id="Fill-4" fill="#000000"></path>
                <path d="M82.6046535,89.7809571 C82.6756394,89.5606357 82.7584563,89.3426833 82.8602028,89.1271 C83.0211042,88.7741119 84.925893,88.6651357 87.0791324,88.9138857 C89.2300056,89.1626357 91.0093859,89.5393143 91.0543437,89.7454214 C91.0756394,89.8686119 91.1016676,89.9918024 91.118231,90.1173619 C91.1986817,90.8351833 91.2294423,91.5506357 91.1466254,92.258981 C91.0614423,92.9365286 90.9360338,93.6117071 90.7159775,94.2774095 C90.3563155,95.3576952 88.1368225,95.9191595 86.0829634,95.5803857 C84.0291042,95.2392429 82.2047662,94.2110762 82.1550761,93.3819095 C82.1266817,92.8749333 82.1385127,92.3774333 82.1692732,91.8775643 C82.214231,91.1715881 82.3798648,90.47035 82.6046535,89.7809571" id="Fill-6" fill="#000000"></path>
                <path d="M92.6886761,90.2725345 C92.724169,90.1588202 92.7667606,90.045106 92.8164507,89.9313917 C92.8898028,89.746606 93.6280563,89.6826417 94.451493,89.7726655 C94.943662,89.8247845 95.4429296,89.8721655 95.9421972,89.9171774 C96.7892958,89.997725 97.6340282,90.0735345 98.471662,90.1422369 C99.8677183,90.2559512 101.038986,90.4999631 101.083944,90.7060702 C101.109972,90.8292607 101.136,90.9571893 101.147831,91.0803798 C101.237746,91.8053083 101.263775,92.5231298 101.176225,93.231475 C101.091042,93.9090226 100.960901,94.5889393 100.743211,95.2593798 C100.381183,96.3467726 98.8123944,97.0503798 97.5559437,96.9461417 C96.7987606,96.8845464 96.0439437,96.811106 95.279662,96.7376655 C94.8750423,96.6997607 94.4704225,96.6571179 94.0658028,96.614475 C93.3938028,96.5457726 92.4449577,95.6123679 92.2958873,94.4633798 C92.2036056,93.7574036 92.2059718,93.0609036 92.2509296,92.3691417 C92.2958873,91.6607964 92.4615211,90.9619274 92.6886761,90.2725345" id="Fill-8" fill="#000000"></path>
                <path d="M102.71733,91.233894 C102.759921,91.1083345 102.811977,90.980406 102.864034,90.8595845 C102.951583,90.6534774 104.558231,90.5942512 106.441724,90.7553464 C108.329949,90.9164417 109.896372,91.283644 109.943696,91.5134417 C109.97209,91.6555845 109.995752,91.7953583 110.014682,91.930394 C110.106963,92.6600607 110.132992,93.3755131 110.043076,94.0838583 C109.974456,94.6429536 109.875076,95.1996798 109.721273,95.7516679 C109.472823,96.654275 107.695808,97.398156 105.961386,97.3815726 C104.226963,97.3649893 102.457048,96.4481679 102.322175,95.3441917 C102.236992,94.666644 102.236992,93.9985726 102.281949,93.3305012 C102.336372,92.624525 102.499639,91.925656 102.71733,91.233894" id="Fill-10" fill="#000000"></path>
                <path d="M111.58489,92.0874619 C111.625115,91.9690095 111.672439,91.8505571 111.724496,91.7344738 C111.804946,91.542581 113.290918,91.5212595 114.890468,92.1680095 C116.172946,92.6844619 116.875707,93.383331 116.781059,94.3570095 C116.691144,95.3188429 115.881904,96.0082357 114.545003,96.4844143 C112.846073,97.0885214 111.189735,96.5009976 111.137679,95.6789381 C111.106918,95.1767 111.118749,94.681569 111.14951,94.184069 C111.203932,93.4757238 111.364834,92.7768548 111.58489,92.0874619" id="Fill-12" fill="#000000"></path>
            </g>
        </g>
    </g>
</svg>