<?xml version="1.0" encoding="utf-8"?>
<svg viewBox="329.983 196.136 70.817 102.517" xmlns="http://www.w3.org/2000/svg">
  <path d="M366.228,210.836 C367.092,210.836 367.556,210.296 367.556,209.466 C367.556,208.637 367.092,208.095 366.228,208.095 C365.364,208.095 364.899,208.637 364.899,209.466 C364.899,210.296 365.364,210.836 366.228,210.836" id="Fill-151" fill="#000000"/>
  <path d="M373.185,210.695 C373.96,210.695 374.377,210.21 374.377,209.466 C374.377,208.722 373.96,208.236 373.185,208.236 C372.41,208.236 371.993,208.722 371.993,209.466 C371.993,210.21 372.41,210.695 373.185,210.695" id="Fill-152" fill="#000000"/>
  <path d="M400.799,237.991 C400.907,237.28 392.444,233.822 392.008,238.476 C391.583,243.07 388.95,258.78 382.934,255.794 C384.709,249.627 389.43,236.932 390.22,223.888 C392.008,224.61 395.246,224.621 397.201,224.109 C397.201,224.109 394.566,221.971 393.339,220.242 C393.339,220.242 396.204,219.391 397.831,218.065 C397.831,218.065 395.213,216.713 392.757,216.121 C392.757,216.121 393.037,214.553 394.943,212.663 C394.943,212.663 391.873,212.948 389.918,213.799 C389.773,212.915 389.52,212.081 389.169,211.305 C389.239,211.316 389.293,211.305 389.331,211.278 C390.209,210.664 389.562,201.302 387.677,198.824 C385.797,196.346 382.651,195.743 382.253,196.362 C381.854,196.977 385.103,198.814 384.294,202.196 C383.588,205.138 382.075,204.917 381.854,204.868 C374.895,201.992 364.886,202.336 357.345,205.778 C357.517,205.601 354.618,206.053 352.404,203.581 C350.196,201.113 352.286,198.156 351.661,197.811 C351.031,197.472 348.488,199.357 347.897,202.25 C347.304,205.143 349.781,210.104 350.837,210.233 C350.008,211.095 349.274,212.162 348.634,213.406 C347.174,212.059 343.334,211.316 343.334,211.316 C344.891,213.352 344.96,214.93 344.96,214.93 C342.585,215.296 339.973,216.401 339.973,216.401 C341.329,217.855 343.909,218.954 343.909,218.954 C342.547,220.554 339.816,222.44 339.816,222.44 C341.378,223.043 343.932,223.323 345.725,222.994 C344.152,232.195 344.378,244.207 345.283,255.083 C338.62,257.685 338.356,241.357 338.625,236.687 C338.895,232.017 330.007,234.171 330.007,234.893 C330.007,235.61 334.139,235.701 334.316,236.418 C334.499,237.134 330.367,238.126 330.007,238.751 C329.651,239.38 333.33,238.508 334.855,239.44 C336.385,240.366 333.357,258.132 345.859,261.095 C347.109,272.606 348.935,281.764 349.76,283.056 C350.555,284.299 355.059,284.273 360.497,283.688 C360.154,285.02 359.481,288.664 360.808,293.297 C360.942,293.754 360.673,294.245 360.199,294.444 C359.101,294.907 357.198,295.898 355.847,297.633 C355.545,298.021 355.767,298.408 356.283,298.451 C357.991,298.592 361.799,298.823 365.753,298.457 C366.271,298.408 366.718,297.978 366.658,297.504 C366.577,296.771 366.314,295.688 365.537,294.713 C365.23,294.331 364.697,293.738 364.471,293.313 C363.551,291.625 361.549,287.69 363.494,283.316 C364.801,283.139 366.128,282.942 367.45,282.728 L367.584,282.706 C367.709,282.687 367.831,282.664 367.955,282.643 C370.66,285.392 372.401,292.571 370.478,294.713 C369.652,295.628 369.47,296.771 369.39,297.504 C369.335,297.978 369.766,298.408 370.268,298.457 C374.092,298.823 376.931,298.441 378.579,298.301 C379.08,298.252 379.295,297.869 379.004,297.482 C377.695,295.748 376.478,295.257 375.411,294.799 C374.953,294.594 373.586,293.706 373.715,293.248 C375.044,288.441 372.035,283.614 370.979,282.119 C377.059,281.003 382.216,279.734 382.797,279.232 C384.02,278.176 382.775,267.214 382.371,261.461 C382.369,261.429 382.367,261.399 382.365,261.367 C393.983,259.339 393.728,242.431 395.326,241.761 C396.975,241.072 400.486,242.484 400.223,241.811 C399.964,241.131 396.026,239.537 396.312,238.853 C396.598,238.174 400.691,238.702 400.799,237.991 Z M365.716,206.513 C367.882,206.513 368.188,206.814 369.812,206.849 C371.228,206.881 371.587,206.405 373.608,206.405 C376.191,206.405 377.296,206.986 377.296,209.466 C377.296,211.945 376.063,213.565 373.841,213.565 C370.966,213.565 370.818,211.552 369.403,211.583 C367.777,211.62 367.711,213.347 365.632,213.391 C362.828,213.45 361.508,212.159 361.508,209.466 C361.508,206.773 362.91,206.513 365.716,206.513 Z M376.958,246.308 C376.284,246.297 374.899,239.903 373.903,240.044 C373.903,240.044 374.011,243.879 371.641,245.855 C370.068,247.273 364.481,247.369 362.866,246.007 C360.441,244.1 360.431,240.258 360.431,240.258 C359.435,240.151 358.244,246.583 357.57,246.609 C350.207,247.552 344.104,227.621 353.53,218.992 C354.607,217.462 356.401,227.083 357.84,227.088 C358.647,227.26 358.557,217.936 359.726,217.565 C360.895,217.193 372.529,216.934 373.93,217.338 C375.109,217.672 375.299,226.997 376.102,226.803 C377.539,226.749 379.042,217.08 380.168,218.577 C389.848,226.921 384.343,247.024 376.958,246.308 L376.958,246.308 Z" id="Fill-153" fill="#000000"/>
</svg>