<?xml version="1.0" encoding="utf-8"?>
<!-- Generator: Adobe Illustrator 20.1.0, SVG Export Plug-In . SVG Version: 6.00 Build 0)  -->
<svg version="1.1" id="Laag_1" xmlns="http://www.w3.org/2000/svg" xmlns:xlink="http://www.w3.org/1999/xlink" x="0px" y="0px"
	 viewBox="0 0 70.5 82.6" style="enable-background:new 0 0 70.5 82.6;" xml:space="preserve">
<g>
	<path d="M0.1,62.2l12,10.1c0.3,0.3,0.4,0.1,0.6-0.2c0.9-1.9,6.5-9.1,7-9.7c0.6-0.8,7.6-8.5,10.6-11.8c0.7-0.8,2.1-1.3,3.2-1.1
		c3.6,0.5,7.4,0.9,11.1,1.3c1.1,0.1,2.4,0.9,3,1.8c2.8,4.3,7.9,12.2,8.4,12.9c0.4,0.6,2.8,4.1,4.2,6.1c0.6,0.9,0.4,2.1-0.4,2.8
		c-0.9,0.8-2.1,1.9-2.5,2.5C56.7,77.7,54,81.6,54,82c0.1,0.4,0,0.8,0.4,0.5l12.4-9.7c0.3-0.2,0.2-0.4-0.1-0.6
		c-1.6-1.3-7.5-8.3-8-8.9c-0.5-0.7-4.9-6.6-7.8-10.7c-0.6-0.9-0.3-1.5,0.8-1.5c8.7,0.3,15.7-0.3,16.6-2.6C70.7,42,71.3,7.3,69.4,4
		C67.5,0.7,20.1-1,18,0.7c-2.2,1.7-6,40.2-3.8,43.9c0.7,1.1,5.8,2.6,12.8,3.8c1,0.2,1.3,0.9,0.5,1.7c-3.7,3.7-9.6,9.6-10.2,10.2
		c-0.5,0.5-3.4,3.6-5.1,5.4c-0.7,0.8-2,0.9-2.8,0.2c-1-0.7-2.3-1.6-2.9-1.9c-1-0.5-5.4-2.4-5.8-2.2C0.2,61.9-0.2,62,0.1,62.2z
		 M26.4,26.1c-3.2-0.5-5-1.4-4.5-2.5c0.4-0.9,2.9-1.3,5.6-0.9c2.6,0.4,3.9,1.4,4,2.4C31.7,26.5,29.9,26.7,26.4,26.1z M51.3,27.3
		c0.4-1.2,2-2.2,5.3-2.2c3.2,0,6.2,1,6.5,2.2c0.4,1.4-1.9,2.2-5.9,2.2C53,29.5,50.8,28.9,51.3,27.3z M29,37.4
		c0.3-3.3,5.4-2.5,12.1-1.8c6.8,0.6,11.8,0.8,11.5,4.1c-0.3,3.3-5.4,3-12.2,2.4C33.7,41.4,28.7,40.7,29,37.4z"/>
	<path d="M32.7,36.8c0.8-0.1,1.5,0.1,1.5,0.2c0,0.1,0,0.2,0,0.3c0,0.3,0,0.6,0,0.9c0,0.2-0.1,0.4-0.1,0.6c-0.1,0.3-0.9,0.4-1.7,0
		c-0.6-0.3-1-0.7-0.9-1.2C31.6,37.1,32,36.9,32.7,36.8z"/>
	<path d="M34.9,37.3c0-0.1,0.1-0.2,0.1-0.3c0.1-0.1,0.9-0.2,1.8-0.1c0.9,0.1,1.7,0.3,1.7,0.4c0,0.1,0,0.1,0,0.2c0,0.3,0,0.6,0,0.9
		c0,0.3-0.1,0.6-0.2,0.9c-0.2,0.5-1.1,0.7-2,0.5c-0.9-0.1-1.6-0.6-1.7-0.9c0-0.2,0-0.4,0-0.6C34.7,37.9,34.8,37.6,34.9,37.3z"/>
	<path d="M39.2,37.5c0,0,0-0.1,0.1-0.1c0-0.1,0.3-0.1,0.7-0.1c0.2,0,0.4,0,0.6,0.1c0.4,0,0.7,0.1,1.1,0.1c0.6,0,1.1,0.2,1.1,0.2
		c0,0.1,0,0.1,0,0.2c0,0.3,0,0.6,0,0.9c0,0.3-0.1,0.6-0.2,0.9c-0.2,0.5-0.8,0.8-1.3,0.7c-0.3,0-0.6-0.1-1-0.1c-0.2,0-0.3,0-0.5-0.1
		c-0.3,0-0.7-0.4-0.7-0.9c0-0.3,0-0.6,0-0.9C39,38.1,39.1,37.8,39.2,37.5z"/>
	<path d="M43.4,37.9c0-0.1,0-0.1,0.1-0.2c0-0.1,0.7-0.1,1.5,0c0.8,0.1,1.5,0.2,1.5,0.3c0,0.1,0,0.1,0,0.2c0,0.3,0,0.6,0,0.9
		c0,0.2-0.1,0.5-0.1,0.7c-0.1,0.4-0.9,0.7-1.6,0.7c-0.7,0-1.5-0.4-1.5-0.9c0-0.3,0-0.6,0-0.9C43.2,38.5,43.3,38.2,43.4,37.9z"/>
	<path d="M47.2,38.3c0,0,0-0.1,0.1-0.1c0-0.1,0.7-0.1,1.3,0.2c0.5,0.2,0.8,0.5,0.8,0.9c0,0.4-0.4,0.7-0.9,0.9
		c-0.7,0.3-1.4,0-1.4-0.3c0-0.2,0-0.4,0-0.6C47,38.9,47.1,38.6,47.2,38.3z"/>
</g>
<g>
</g>
<g>
</g>
<g>
</g>
<g>
</g>
<g>
</g>
<g>
</g>
<g>
</g>
<g>
</g>
<g>
</g>
<g>
</g>
<g>
</g>
<g>
</g>
<g>
</g>
<g>
</g>
<g>
</g>
</svg>
