<svg id="Laag_1" xmlns="http://www.w3.org/2000/svg" viewBox="0 0 52.9 59.8"><path d="M27.5.1C-10-1.8-2.9 35.8 12.1 37.4c-1 2.2-2.1 4.6-1.7 8.9.4 5.3.7 12.8 2.5 12.7 1.6-.1 1.5-2.5 2.5-2.6 1.5 0 2.5 2.3 4 2.2 1.5-.1-1.5-7.9-2.4-12.7-.5-2.9-.6-4.3.3-7.5 2.7.5 5.7.9 9 1-1.5 2.1-2.5 4.4-2.3 7.5.4 5.3.6 12.8 2.4 12.7 1.6-.1 1.5-2.5 2.5-2.6 1.5 0 2.5 2.3 3.9 2.2 1.5-.1-1.5-7.9-2.4-12.7-.5-2.7-.5-3.9.5-7.1 8.1-.2 16.1-2 19.7-7.4C58.1 20.7 47.4 1 27.5.1zm3.8 28.7c-4.9 7.6-24.7 6.7-27.2-2.7C2 18.2 5.1 6.6 17.8 5c15.8-2 18.4 16.2 13.5 23.8zM18 27.8c5.4 0 2.7 4.1 9.4-1.5"/><circle  cx="12.1" cy="17.2" r="2.3"/><circle  cx="21.1" cy="16.2" r="2.3"/></svg>
