<?xml version="1.0" encoding="utf-8"?>
<!-- Generator: Adobe Illustrator 20.1.0, SVG Export Plug-In . SVG Version: 6.00 Build 0)  -->
<svg version="1.1" id="Laag_1" xmlns="http://www.w3.org/2000/svg" xmlns:xlink="http://www.w3.org/1999/xlink" x="0px" y="0px"
	 viewBox="0 0 52.9 59.8" style="enable-background:new 0 0 52.9 59.8;" xml:space="preserve">
<style type="text/css">
	.st0{fill:#52D70B;}
</style>
<path d="M27.5,0.1C-10-1.8-2.9,35.8,12.1,37.4c-1,2.2-2.1,4.6-1.7,8.9c0.4,5.3,0.7,12.8,2.5,12.7c1.6-0.1,1.5-2.5,2.5-2.6
	c1.5,0,2.5,2.3,4,2.2c1.5-0.1-1.5-7.9-2.4-12.7c-0.5-2.9-0.6-4.3,0.3-7.5c2.7,0.5,5.7,0.9,9,1c-1.5,2.1-2.5,4.4-2.3,7.5
	c0.4,5.3,0.6,12.8,2.4,12.7c1.6-0.1,1.5-2.5,2.5-2.6c1.5,0,2.5,2.3,3.9,2.2c1.5-0.1-1.5-7.9-2.4-12.7c-0.5-2.7-0.5-3.9,0.5-7.1
	c8.1-0.2,16.1-2,19.7-7.4C58.1,20.7,47.4,1,27.5,0.1z M31.3,28.8c-4.9,7.6-24.7,6.7-27.2-2.7C2,18.2,5.1,6.6,17.8,5
	C33.6,3,36.2,21.2,31.3,28.8z"/>
<path d="M18,27.8c5.4,0,2.7,4.1,9.4-1.5"/>
<circle class="st0" cx="12.1" cy="17.2" r="2.3"/>
<circle class="st0" cx="21.1" cy="16.2" r="2.3"/>
</svg>
