<?xml version="1.0" encoding="utf-8"?>
<!-- Generator: Adobe Illustrator 20.1.0, SVG Export Plug-In . SVG Version: 6.00 Build 0)  -->
<svg version="1.1" id="Laag_1" xmlns="http://www.w3.org/2000/svg" xmlns:xlink="http://www.w3.org/1999/xlink" x="0px" y="0px"
	 viewBox="0 0 70.5 90.5" style="enable-background:new 0 0 70.5 90.5;" xml:space="preserve">
<g>
	<path d="M40.3,0C16.7,0.2-3.1,41.2,0.4,60.4c0.9,4.9,7.2,8,15.6,9.5c1.2,2.2,2.5,5.3,2.5,7.8c-0.1,4.2-5.6,10.2-5.3,11.8
		c0.3,1.7,22.9,0.8,22.6-0.1c-1.4-4.3-11.6-4-12.4-5.4c-0.8-1.4,1.1-3.6,1.1-5.9c0-2.4-1-5.2-2.2-7.4c7.9,0.7,16.8,0.3,24.8-1.1
		c1.2,2.2,2.7,5.4,2.6,8.1c-0.1,4.2-5.6,10.2-5.3,11.8c0.3,1.7,22.9,0.8,22.6-0.1c-1.4-4.3-11.6-4-12.4-5.4
		c-0.8-1.4,1.1-3.6,1.1-5.9c0.1-3.3-1.9-7.2-3.4-9.6c9.2-2.3,16.3-6,17.6-10.9C73.2,46.3,58.9-0.1,40.3,0z M46.8,41.4
		c-9.3,0.4-13.5-1.7-13.7-6.3c-0.2-4.6,3.7-7.1,13-7.5c9.3-0.5,13.5,1.5,13.7,6.3C60.1,38.6,56.1,41,46.8,41.4z"/>
	<path d="M51.4,31.8c-1.4,0.1-2.3,1-2.3,2.6c0.1,1.6,1,2.4,2.5,2.4c1.4-0.1,2.3-1,2.3-2.6C53.9,32.6,52.9,31.8,51.4,31.8z"/>
	<path d="M42.1,31.8c-1.7,0.1-2.6,1.3-2.5,3.1c0.1,1.8,1.1,2.9,2.8,2.8c1.7-0.1,2.6-1.3,2.5-3.1C44.9,32.8,43.9,31.7,42.1,31.8z"/>
</g>
<g>
</g>
<g>
</g>
<g>
</g>
<g>
</g>
<g>
</g>
<g>
</g>
<g>
</g>
<g>
</g>
<g>
</g>
<g>
</g>
<g>
</g>
<g>
</g>
<g>
</g>
<g>
</g>
<g>
</g>
</svg>
