<?xml version="1.0" encoding="utf-8"?>
<svg viewBox="0 0 89.3 115.8" xmlns="http://www.w3.org/2000/svg">
  <path d="M 69.432 34.381 C 67.865 46.226 63.986 60.286 58.523 68.402 C 57.449 74.204 69.105 87.81 69.162 89.194 C 69.3 92.413 65.432 105.459 65.57 106.141 C 65.707 106.824 72.066 112.196 72.536 113.372 C 72.933 114.376 72.657 115.243 71.63 115.215 L 52.106 115.215 C 51.068 115.192 51.107 114.48 51.383 113.424 C 52.06 110.818 57.972 106.559 58.322 105.946 C 58.666 105.326 61.794 93.986 61.846 92.7 C 61.914 91.122 53.269 76.614 48.201 76.827 C 35.804 79.788 31.348 77.401 26.499 74.538 C 26.361 74.457 26.212 74.349 26.073 74.245 C 22.412 74.061 13.408 96.185 13.454 97.471 C 13.488 98.516 15.744 107.75 15.996 108.25 C 16.249 108.748 20.513 112.221 21.001 114.338 C 21.196 115.193 21.224 115.773 20.478 115.796 L 6.401 115.796 C 5.654 115.818 5.453 115.113 5.741 114.298 C 6.08 113.339 10.665 108.967 10.768 108.41 C 10.865 107.853 8.076 97.236 8.18 94.62 C 8.22 93.488 20.616 66.313 19.779 61.62 L 19.904 61.871 C 17.259 54.462 14.762 45.01 13.563 36.769 C 13.551 36.81 13.551 36.844 13.546 36.873 C 11.433 34.961 6.079 36.873 6.533 50.686 C 6.624 53.401 7.841 55.403 10.142 56.373 C 11.313 56.873 12.616 56.672 13.735 57.303 C 14.573 57.78 14.929 59.668 13.379 59.857 C 11.531 60.082 9.276 57.602 9.759 61.332 C 9.93 62.675 11.209 64.196 11.852 65.315 C 12.117 65.786 12.628 66.446 12.559 67.042 C 12.398 68.357 11.164 67.972 10.619 67.255 C 9.769 66.136 8.891 64.087 7.669 63.501 C 6.464 62.922 7.411 67.329 7.451 67.736 C 7.503 68.299 7.715 69.206 7.382 69.705 C 6.819 70.549 5.776 70.021 5.591 69.12 C 5.356 67.926 5.121 65.545 4.662 64.448 C 3.87 62.548 2.687 66.159 2.406 66.686 C 1.414 68.557 -0.245 67.565 0.57 65.59 C 1.034 64.466 1.947 62.6 1.832 61.165 C 1.414 55.759 2.303 55.616 2.182 53.493 C 1.981 49.871 -0.285 39.272 0.03 35.679 C 0.139 34.342 0.352 23.317 15.979 18.209 C 16.811 17.699 17.918 17.228 19.25 16.804 C 24.318 13.762 20.547 0 23.394 0 C 27.199 0 22.797 14.697 28.955 14.743 C 29.517 14.657 30.091 14.582 30.671 14.508 C 36.875 13.062 34.103 7.242 36.869 7.242 C 39.876 7.242 37.729 13.728 43.188 13.309 C 43.359 13.291 44.989 13.079 45.178 13.05 C 51.635 12.098 48.215 0.94 51.131 0.94 C 54.161 0.94 49.862 12.005 55.354 12.355 C 55.509 12.361 55.664 12.361 55.831 12.355 C 62.035 12.086 58.258 5.6 61.174 5.6 C 64.222 5.6 61.127 12.148 64.703 13.084 C 65.679 13.222 66.476 13.376 67.079 13.554 C 67.251 13.606 67.401 13.658 67.533 13.709 C 67.59 13.732 67.647 13.755 67.722 13.801 C 85.541 20.734 87.665 30.987 87.539 33.864 C 87.212 41.331 86.875 40.618 86.459 45.295 C 86.212 48.378 86.185 49.009 86.31 51.142 C 86.406 52.783 87.054 54.608 86.857 56.461 C 86.59 58.981 85.25 58.649 85.017 58.801 L 85.017 60.883 L 87.33 60.883 C 88.415 60.883 89.295 61.763 89.295 62.848 L 89.295 86.916 C 89.295 88.001 88.415 88.881 87.33 88.881 L 78.448 88.881 C 77.363 88.881 76.483 88.001 76.483 86.916 L 76.483 62.848 C 76.483 61.763 77.363 60.883 78.448 60.883 L 80.761 60.883 L 80.761 58.813 C 80.275 58.501 79.54 58.327 79.554 57.029 C 79.571 55.428 80.059 55.846 80.424 54.73 C 81.177 52.427 80.229 46.102 80.229 46.102 C 79.666 34.418 72.175 31.822 69.432 34.381 Z M 57.527 22.875 C 55.053 22.875 53.051 24.459 53.051 27.035 C 53.051 29.612 55.053 31.19 57.527 31.19 C 59.53 31.19 61.975 29.75 61.975 27.145 C 61.975 23.936 59.994 22.875 57.527 22.875 Z M 29.756 32.826 C 29.607 30.272 27.535 28.826 25.091 28.969 C 23.104 29.084 20.769 30.651 20.918 33.233 C 21.108 36.407 23.128 37.337 25.572 37.193 C 28.017 37.05 29.905 35.373 29.756 32.826 Z M 39.397 37.577 C 37.188 35.46 34.417 35.638 32.672 37.463 C 31.254 38.938 30.755 41.928 32.993 44.075 C 35.736 46.709 38.049 46.118 39.794 44.298 C 41.544 42.474 41.607 39.701 39.397 37.577 Z M 46.565 25.25 C 46.565 20.08 43.368 18.375 39.392 18.375 C 35.414 18.375 32.183 20.923 32.183 25.073 C 32.183 29.228 35.414 31.77 39.392 31.77 C 42.623 31.77 46.565 29.452 46.565 25.25 Z M 57.182 40.9 C 57.182 36.763 54.623 35.397 51.438 35.397 C 48.253 35.397 45.67 37.434 45.67 40.757 C 45.67 44.08 45.578 45.638 48.763 45.638 C 51.351 45.638 57.182 44.264 57.182 40.9 Z" id="Fill-25" style=""/>
  <path d="M 56.727 26.53 C 56.727 28.159 59.522 28.159 59.522 26.53 C 59.522 24.894 56.727 24.894 56.727 26.53" id="Fill-26" fill="#000000"/>
  <path d="M 50.426 40.143 C 50.426 42.248 54.035 42.248 54.035 40.143 C 54.035 38.042 50.426 38.042 50.426 40.143" id="Fill-27" fill="#000000"/>
  <path d="M 38.138 24.338 C 38.138 26.972 42.644 26.972 42.644 24.338 C 42.644 21.709 38.138 21.709 38.138 24.338" id="Fill-28" fill="#000000"/>
  <path d="M 35.057 42.569 C 36.457 43.913 38.437 41.853 37.037 40.51 C 35.642 39.167 33.662 41.233 35.057 42.569" id="Fill-29" fill="#000000"/>
  <path d="M 23.28 33.451 C 23.372 35.063 26.138 34.903 26.046 33.284 C 25.949 31.671 23.183 31.832 23.28 33.451" id="Fill-30" fill="#000000"/>
  <g transform="matrix(0.263936, 0, 0, 0.263936, 27.345642, 47.694939)" style="">
    <path d="M 45.454 16 L 55.667 16 C 57.173 16 58 14.77 58 13.323 L 58 7.479 C 58 6.033 57.173 5 55.667 5 L 45.454 5 C 43.948 5 43 6.033 43 7.479 L 43 13.323 C 43 14.77 43.948 16 45.454 16 Z" style="fill: rgb(255, 255, 255);"/>
    <path d="M 64.257 73.419 C 64.236 72.891 64.214 72.368 64.214 71.835 C 64.214 71.78 64.21 71.731 64.199 71.686 C 64.009 70.529 56.698 20.264 56.62 19.759 C 56.559 19.352 56.198 19 55.789 19 L 50.332 19 C 50.298 19 50.277 19.042 50.253 19.042 C 50.219 19.042 50.204 19 50.17 19 L 44.715 19 C 44.298 19 43.942 19.352 43.88 19.759 C 43.814 20.264 36.494 70.453 36.298 71.651 C 36.296 71.708 36.288 71.768 36.288 71.823 C 36.288 72.356 36.264 72.885 36.243 73.404 C 36.179 75.056 36.109 76.771 36.707 78.548 C 37.421 80.659 40.486 88.114 49.633 95.376 C 49.791 95.493 49.978 95.565 50.17 95.565 C 50.204 95.565 50.219 95.551 50.253 95.551 C 50.277 95.551 50.304 95.566 50.332 95.566 C 50.515 95.566 50.705 95.495 50.856 95.378 C 60.012 88.122 63.073 80.662 63.786 78.551 C 64.395 76.773 64.321 75.068 64.257 73.419 Z" style="fill: rgb(255, 255, 255);"/>
  </g>
</svg>