<?xml version="1.0" encoding="utf-8"?>
<svg viewBox="416.681 238.333 58.935 94.815" xmlns="http://www.w3.org/2000/svg">
  <path d="M458.214,265.495 C460.706,263.671 472.599,265.783 474.324,260.507 C476.051,255.23 476.913,245.548 471.16,241.422 C465.406,237.303 426.891,237.303 421.138,241.422 C415.384,245.547 416.247,255.23 417.973,260.507 C419.699,265.782 431.592,263.671 434.083,265.495 C434.958,266.134 435.229,268.24 435.264,270.811 L435.062,269.84 C430.229,269.994 414.884,278.096 419.958,281.646 C422.49,283.694 429.273,275.627 435.223,274.057 C435.156,276.175 435.045,278.326 435.053,280.075 C430.031,280.548 415.738,289.286 420.633,293.232 C423.221,295.637 430.229,285.822 436.191,284.621 L436.14,284.342 C436.738,284.916 437.584,285.389 438.587,285.769 C439.275,287.069 436.406,303.603 435.967,308.628 C435.391,315.214 435.689,325.925 436.259,329.353 C431.369,329.776 431.393,332.378 431.472,333.01 C431.481,333.086 431.566,333.148 431.653,333.148 L441.795,333.148 C441.882,333.148 441.963,333.086 441.971,333.009 C442.023,332.531 442.099,330.929 440.971,330.004 C439.935,326.298 439.39,316.412 439.515,310.323 C439.602,306.12 440.857,289.61 444.117,287.165 C444.117,287.165 443.737,287 443.176,286.772 C445.275,286.989 447.526,286.962 449.594,286.7 C449.231,286.865 449,286.974 449,286.974 C452.34,289.31 454.142,305.769 454.367,309.967 C454.694,316.049 454.477,325.946 453.565,329.685 C452.467,330.647 452.598,332.246 452.664,332.722 C452.676,332.798 452.758,332.856 452.846,332.855 L462.981,332.518 C463.069,332.516 463.151,332.45 463.157,332.374 C463.216,331.74 463.153,329.139 458.253,328.878 C458.709,325.433 458.65,314.719 457.857,308.155 C457.257,303.186 453.89,286.977 454.467,285.442 C455.424,285.003 456.169,284.47 456.605,283.843 L456.56,284.169 C462.57,285.104 470.007,294.597 472.486,292.08 C477.293,287.837 461.93,279.493 457.197,279.565 C457.18,277.78 457.071,275.637 457.023,273.561 C463.035,274.845 470.199,282.642 472.645,280.478 C477.546,276.715 461.948,269.327 457.069,269.351 C457.195,267.463 457.512,266.008 458.214,265.495 Z M426.995,254.482 C424.769,254.482 423.577,253.171 423.577,251.157 C423.577,249.149 424.769,247.838 426.995,247.838 C429.217,247.838 430.413,249.149 430.413,251.157 C430.413,253.171 429.217,254.482 426.995,254.482 Z M440.061,271.036 C440.637,271.036 441.109,272.853 441.109,275.103 C441.109,277.348 440.764,279.166 440.061,279.166 C439.354,279.166 439.008,277.348 439.008,275.103 C439.008,272.853 439.481,271.036 440.061,271.036 Z M445.712,279.166 C444.653,279.166 444.141,277.348 444.141,275.103 C444.141,272.853 444.842,271.036 445.712,271.036 C446.58,271.036 447.282,272.853 447.282,275.103 C447.282,277.348 446.771,279.166 445.712,279.166 Z M451.281,271.036 C451.856,271.036 452.328,272.853 452.328,275.103 C452.328,277.348 451.982,279.166 451.281,279.166 C450.572,279.166 450.229,277.348 450.229,275.103 C450.229,272.853 450.699,271.036 451.281,271.036 Z M456.085,251.641 C456.085,249.046 457.69,247.349 460.682,247.349 C463.668,247.349 465.273,249.046 465.273,251.641 C465.273,254.235 463.668,255.933 460.682,255.933 C457.69,255.933 456.085,254.235 456.085,251.641 L456.085,251.641 Z" id="Fill-117" fill="#000000"/>
</svg>
