<?xml version="1.0" encoding="UTF-8"?>
<svg width="168px" height="190px" viewBox="0 0 168 190" version="1.1" xmlns="http://www.w3.org/2000/svg" xmlns:xlink="http://www.w3.org/1999/xlink">
    <!-- Generator: Sketch 43.2 (39069) - http://www.bohemiancoding.com/sketch -->
    <title>Page 1</title>
    <desc>Created with Sketch.</desc>
    <defs>
        <polygon id="path-1" points="12.1263971 10.2872015 0.342544023 10.2872015 0.342544023 0.152412465 12.1263971 0.152412465"></polygon>
        <polygon id="path-3" points="0.00100380057 0.30320147 167.590726 0.30320147 167.590726 180.774733 0.00100380057 180.774733 0.00100380057 0.30320147"></polygon>
    </defs>
    <g id="Website-2" stroke="none" stroke-width="1" fill="none" fill-rule="evenodd">
        <g id="Artboard-9" transform="translate(-62.000000, -13.000000)">
            <g id="Page-1" transform="translate(62.000000, 13.000000)">
                <g id="Group-3" transform="translate(62.096774, 179.410444)">
                    <mask id="mask-2" fill="white">
                        <use xlink:href="#path-1"></use>
                    </mask>
                    <g id="Clip-2"></g>
                    <path d="M6.81653226,0.198136436 C3.58185484,-0.174341212 0.697177419,1.76987924 0.381048387,4.5352436 C0.0620967742,7.30625156 1.71612903,9.77250508 5.66209677,10.2239931 C9.60806452,10.678303 11.7814516,8.64942854 12.0975806,5.88688598 C12.4165323,3.11305622 10.0512097,0.567792284 6.81653226,0.198136436" id="Fill-1" fill="#000000" mask="url(#mask-2)"></path>
                </g>
                <path d="M63.4804032,150.599626 C62.0098387,150.097345 58.9981452,161.328111 73.2973387,169.426678 C87.5908871,177.530888 95.6860484,169.181181 94.4949194,168.179442 C93.3037903,167.174881 64.9566129,151.10755 63.4804032,150.599626" id="Fill-4" fill="#000000"></path>
                <g id="Group-8" transform="translate(0.000000, 0.167333)">
                    <mask id="mask-4" fill="white">
                        <use xlink:href="#path-3"></use>
                    </mask>
                    <g id="Clip-7"></g>
                    <path d="M114.752863,88.2812933 C78.1157661,94.1506381 54.7419758,55.3452394 68.8238306,48.6434636 C72.3718145,47.8985083 73.2327016,53.908943 74.9572984,59.4453154 C74.0794758,60.1789835 71.3754435,62.6988512 72.82625,64.3862878 C73.8706048,65.6109492 75.6939919,64.8631721 76.972621,64.0956424 C80.2355242,67.8571023 83.8060887,70.687368 87.5290726,72.6795591 C87.2609274,74.1948659 86.8488306,77.86885 88.9121371,78.2385058 C90.554879,78.5319731 91.5822984,76.3450778 92.1072984,74.70279 C98.4693952,76.9602303 105.074234,77.0561715 111.224637,75.5465083 C111.602863,76.9094378 112.731895,80.1234685 114.752863,79.578861 C116.946008,78.9891047 116.220605,75.0780894 115.983508,74.0227361 C120.897621,72.072872 125.365766,69.0958726 128.981492,65.3908487 C129.867782,66.2204581 132.475847,68.3960661 133.971815,66.8243233 C135.65125,65.0353019 132.631089,61.9708267 132.218992,61.5729528 C133.980282,59.1659571 135.402863,56.5501482 136.393589,53.7763184 C137.57625,54.0218151 140.342379,54.3604311 140.808105,52.3428438 C141.316169,50.1305524 138.17746,49.103417 137.296815,48.863564 C137.545202,44.1342266 136.757702,39.5600882 140.03754,39.9353876 C151.658105,41.2672774 151.387137,82.4006614 114.752863,88.2812933 M103.166169,47.3397918 C108.904476,59.8206148 86.0528629,67.1431868 81.4774597,55.9603919 C74.8105242,39.6983564 97.4306855,34.8533252 103.166169,47.3397918 M115.402056,46.120774 C116.006089,39.1847887 128.284315,36.8229418 127.900444,45.7003258 C127.629476,51.8010582 114.792379,53.0652247 115.402056,46.120774 M141.722621,122.320671 C141.779073,122.230374 141.841169,122.137254 141.897621,122.046957 C163.354879,88.3969871 181.628266,41.2249504 152.448427,14.2259645 C108.057702,-26.8566271 31.7774597,36.7552186 0.232298387,29.6583907 C-2.33342742,35.6660037 16.3577016,72.7162425 60.7597177,100.169538 C66.0746371,104.876301 67.83875,110.34495 67.9290726,115.585034 C67.9290726,115.633004 67.92625,115.680975 67.92625,115.728945 C64.3641532,116.39489 50.1355242,119.524267 44.5129435,128.017886 C40.2480242,134.443126 43.0621371,153.335079 51.2702016,150.612042 C59.7097177,147.826925 51.6964113,138.323101 54.7419758,132.558163 C58.5016532,125.438761 64.1778629,125.822525 66.2157661,126.231686 C66.1931855,126.293766 66.17625,126.361489 66.1564919,126.426391 C64.8947984,130.509536 63.3677823,133.754606 63.1391532,135.329171 C62.4758468,139.838408 98.760121,165.76511 108.870605,161.018841 C110.245202,160.375471 112.27746,158.798085 114.761331,156.450347 C116.13875,157.663721 117.496411,160.149727 115.554476,165.003224 C113.451653,170.27999 102.706089,170.548061 105.983105,177.774692 C109.166976,184.803797 123.536734,178.118952 125.343185,171.659851 C127.61254,163.561284 123.161331,152.810224 121.558105,149.342231 C121.735927,149.141884 121.91375,148.944358 122.091573,148.738366 C126.661331,143.515214 131.840766,136.906557 137.031492,129.383637 C144.48875,130.475674 150.314556,144.776558 144.121815,151.007094 C139.924637,155.222863 130.516976,151.771802 130.079476,159.675664 C129.661734,167.373536 143.915766,164.814163 149.586331,160.626611 C166.290363,148.292522 149.354879,125.966437 141.722621,122.320671" id="Fill-6" fill="#000000" mask="url(#mask-4)"></path>
                </g>
            </g>
        </g>
    </g>
</svg>