<?xml version="1.0" encoding="utf-8"?>
<!-- Generator: Adobe Illustrator 20.1.0, SVG Export Plug-In . SVG Version: 6.00 Build 0)  -->
<svg version="1.1" id="Laag_1" xmlns="http://www.w3.org/2000/svg" xmlns:xlink="http://www.w3.org/1999/xlink" x="0px" y="0px"
	 viewBox="0 0 57.8 71" style="enable-background:new 0 0 57.8 71;" xml:space="preserve">
<g>
	<path d="M46.1,32.9c-0.1,0.6,0.3,0.7,0,0.7c-0.4,0,0-0.1,0-0.9c0,0-1-0.1-1.2-0.1c0,0-0.3,0.1-0.3,0.1c0,0.8-0.5,0.9-0.8,0.9
		c-0.4,0-0.7-0.1-0.7-0.9c0,0,0-0.1,0-0.1c-0.2,0-0.5,0-0.7,0c0,0.1,0,0.1,0,0.2c0,0.8-0.3,0.9-0.6,0.9s-0.6-0.3-0.6-1.1
		c0-0.1,0-0.3,0-0.3c-0.1,0-0.2,0-0.3,0c-0.1,0-0.2,0-0.3,0c0,0,0,0.3,0,0.4c0,0.8-0.3,1-0.6,1c-0.4,0-0.6-0.1-0.6-0.9
		c0-0.1-0.1-0.1-0.1-0.2c-0.2,0-0.8,0-0.8,0c0,0.8-0.2,0.9-0.5,0.9c-0.3,0-0.6-0.1-0.7-0.9c-0.3,0-0.8,0-0.8,0.1c0,0.9-0.2,1-0.6,1
		c-0.3,0-0.6-0.1-0.6-0.7c-1.5,0.4-1.5,1-1.5,1.4c0,0.4,0,1,1.5,1.4c0.1-0.5,0.3-0.6,0.6-0.6c0.3,0,0.8,0.1,0.8,0.9
		c0.2,0-0.3,0,0.7,0.1c0-0.8,0.1-0.9,0.5-0.9s0.6,0.1,0.6,0.9c0,0,0,0.1,0,0.1c0.2,0,0.5,0,0.7,0c0,0,0-0.1,0-0.1
		c0-0.8,0.3-0.9,0.6-0.9c0.4,0,0.6,0.1,0.6,0.9c0,0,0-0.4,0-0.4c0.2,0,0.3-0.5,0.5-0.5c0,0,0.1,0,0.1,0c0,0,0,0.4,0,0.3
		c0-0.8,0.3-0.7,0.6-0.7c0.4,0,0.6,0.2,0.6,1c0,0.1,0,0.2,0,0.2c0.2,0,0.5,0,0.7,0c0-0.8,0.3-0.9,0.6-0.9c0.3,0,1.3,0.1,1.3,0.8
		c0.3,0-0.5,0,1.5-0.1c0-0.8-0.4-0.9,0-0.9c0.3,0,0.3,0.1,0.3,0.7c0,0-0.1,0-0.1,0c1.6-0.4,1.6-1.1,1.6-1.5
		C47.8,34,47.7,33.4,46.1,32.9z"/>
	<path d="M55.4,14.8c-1.5-1.4-8.3-0.6-9.7-1.2C43.9,12.8,39.1-0.1,25.6,0C8,0.1,3.5,11.9,1.7,17.9c-1.9,6.3-3.6,28.7,2.9,34.5
		c2,1.8,5.5,2.9,9.9,3.2c1.3,4.6,2.1,9.4,2.4,14.3c0.1,0.8,0.6,1.3,1.5,1c0.3-0.1,1.8-0.6,2.2-0.7c0.9-0.1,1.6-0.7,1.7-1.3
		c0-0.6-2.1-0.7-2.1-0.7c0,0,2-1.2,1.8-1.7c-0.2-0.5-1-0.7-1.8-0.4c0,0-0.8,0.3-0.9,0.4c-0.7-3.7-1.6-7.3-2.7-10.8
		c4.5,0.1,9.6-0.3,14.1-1c1.1,4.4,1.9,8.9,2.2,13.5c0.1,0.8,0.6,1.3,1.5,1c0.3-0.1,1.8-0.6,2.2-0.7c0.9-0.1,1.6-0.7,1.7-1.3
		c0-0.6-2.1-0.7-2.1-0.7c0,0,2-1.2,1.8-1.7c-0.2-0.5-1-0.7-1.8-0.4c0,0-0.8,0.3-0.9,0.4c-0.7-3.6-1.5-7-2.6-10.4
		c5.5-1,9.9-2.1,10.8-3c1.6-1.5,4.4-10.5,5.8-11.5c1.6-1.2,5.9-1.5,7.7-3C59,35.2,56.9,16.2,55.4,14.8z M37.8,18.9
		c3.8-0.5,5.4,2.1,5.8,4.5c0.3,2.4-1.8,3.8-4.6,4.2c-2.8,0.4-5.2-0.4-5.5-2.8C33.1,22.3,34.1,19.4,37.8,18.9z M40.6,38.5
		c-4.2,0-9.3,0-9.3-4c0-4,5.2-4,9.3-4c4.2,0,9.3,0,9.3,4C49.9,38.5,44.8,38.5,40.6,38.5z M50.4,26.1c-2.8,0.4-5.2-0.4-5.5-2.8
		c-0.3-2.4,0.6-5.4,4.4-5.9c3.8-0.5,5.4,2.1,5.8,4.5C55.3,24.3,53.2,25.7,50.4,26.1z"/>
	<path d="M39.4,25.9c1.4-0.2,2.3-1.4,2.1-2.8c-0.2-1.4-1.4-2.3-2.8-2.1c-1.4,0.2-2.3,1.4-2.1,2.8C36.8,25.1,38,26.1,39.4,25.9z
		 M38.9,21.9c0.8-0.1,1.6,0.5,1.7,1.3c0.1,0.8-0.5,1.6-1.3,1.7c-0.8,0.1-1.6-0.5-1.7-1.3C37.4,22.8,38,22,38.9,21.9z"/>
	<path d="M48.9,19.6c-1.4,0.2-2.3,1.4-2.1,2.8c0.2,1.4,1.4,2.3,2.8,2.1c1.4-0.2,2.3-1.4,2.1-2.8C51.5,20.4,50.3,19.4,48.9,19.6z
		 M49.4,23.6c-0.8,0.1-1.6-0.5-1.7-1.3c-0.1-0.8,0.5-1.6,1.3-1.7c0.8-0.1,1.6,0.5,1.7,1.3C50.9,22.7,50.3,23.5,49.4,23.6z"/>
</g>
<g>
</g>
<g>
</g>
<g>
</g>
<g>
</g>
<g>
</g>
<g>
</g>
<g>
</g>
<g>
</g>
<g>
</g>
<g>
</g>
<g>
</g>
<g>
</g>
<g>
</g>
<g>
</g>
<g>
</g>
</svg>
