<?xml version="1.0" encoding="utf-8"?>
<!-- Generator: Adobe Illustrator 20.1.0, SVG Export Plug-In . SVG Version: 6.00 Build 0)  -->
<svg version="1.1" id="Laag_1" xmlns="http://www.w3.org/2000/svg" xmlns:xlink="http://www.w3.org/1999/xlink" x="0px" y="0px"
	 viewBox="0 0 71.8 64.8" style="enable-background:new 0 0 71.8 64.8;" xml:space="preserve">
<g>
	<path d="M33,15c-1.7-0.2-20,3.7-20.9,4C11.2,19.4,1,29.7,0.5,30.8c-2.4,6,3.8,23.7,4.6,25.3c0.8,1.5,5.9,1.2,8.5,0.7
		c0.3,0,0.6-0.3,1.1-0.6c1.7,1.7,7.5,6.4,8.1,6.5c0.1,0,0.1,0,0.2,0c-0.3,0.3-0.4,0.6-0.4,0.7c0.5,0.8,10.9,1.8,11.9,1.4
		c0.9-0.4,10.7-5.7,11.5-6.8c0.8-1.1,5.1-11.4,5.3-12.3c0.2-0.9-2.7-18.9-3.3-19.9C47.5,24.6,34.7,15.3,33,15z M9.1,37.2
		c0.1-1.1,1.9-8.9,3-9.4c1.1-0.5,9.3,0.1,10,0.6c0.7,0.5,5.7,7.6,5.1,8.1C26.6,37,15.4,44.1,14.5,44C13.7,43.9,9,38.4,9.1,37.2z
		 M24.3,61.4c-0.9-0.8-6.3-4.7-7.5-6.9c0.4-0.4,0.8-0.8,1.2-1.2c1.3,1.4,7.3,6.4,7.9,6.5c0,0,0.1,0,0.1,0
		C25.3,60.4,24.7,60.9,24.3,61.4z M27.2,58.6c-0.6-0.6-6.7-5.1-7.3-7.2c0.5-0.5,1.1-1.1,1.6-1.7c1,1.2,6.7,6,8,6.8
		C28.7,57.2,27.9,57.9,27.2,58.6z M30.9,55.2c-1.2-1.1-7-5.5-7.4-7.5c0.6-0.6,1.1-1.1,1.7-1.6c1.2,1.2,7.8,6.2,8.6,6.5
		C32.9,53.4,31.9,54.3,30.9,55.2z M35.2,51.3c-1.2-1-7.4-5.1-7.9-7.1c1-0.9,2-1.6,2.8-2.1c0,0,0,0.1,0,0.1c0.5,1,4.7,6.4,6.2,8
		C36.1,50.5,35.7,50.9,35.2,51.3z M38.4,48c-0.1,0.2-0.3,0.5-0.7,0.9c-0.5-0.8-4-4.7-5.6-7.6c0.2,0,0.4,0,0.6,0
		C37.1,41.6,39.1,46.3,38.4,48z"/>
	<path d="M15.6,39.9c0.4,0,1.9-1.6,1.9-1.8c0-0.3-2-2.9-2.2-2.9c-0.3,0-2.1,1.6-2,2C13.3,37.4,15.2,39.9,15.6,39.9z"/>
	<path d="M55.1,27.7c0.6-0.3,11.7-10.8,11.4-11.2c-0.2-0.5-13.8,6.6-15,7.6C50.7,24.8,54.4,28,55.1,27.7z"/>
	<path d="M64.7,12.4c0.4-0.2,6.4-7.1,6.2-7.4c-0.2-0.3-8,4.6-8.7,5.3C61.8,10.8,64.3,12.6,64.7,12.4z"/>
	<path d="M63.2,25.4c-0.5,0.5,2.1,2.4,2.5,2.1c0.4-0.2,6.4-7.1,6.2-7.4C71.7,19.8,63.8,24.7,63.2,25.4z"/>
	<path d="M52.2,7.4c0.4-0.2,6.3-7.1,6.2-7.4c-0.2-0.3-8,4.6-8.7,5.3C49.2,5.8,51.8,7.6,52.2,7.4z"/>
	<path d="M52.5,37.8c-0.5,0.5,2.8,3.1,3.2,2.9c0.4-0.2,6.8-8.1,6.5-8.4C62,31.9,53.2,37,52.5,37.8z"/>
	<path d="M36.5,13.2C37.1,12.9,48.1,2.5,47.9,2c-0.2-0.5-13.9,6.6-15,7.6C32.1,10.3,35.8,13.5,36.5,13.2z"/>
	<path d="M47.3,19.8c0.5-0.2,8.5-8.5,8.2-8.9c-0.2-0.4-10.8,4.4-11.6,5.2C43.3,16.6,46.8,20,47.3,19.8z"/>
</g>
<g>
</g>
<g>
</g>
<g>
</g>
<g>
</g>
<g>
</g>
<g>
</g>
<g>
</g>
<g>
</g>
<g>
</g>
<g>
</g>
<g>
</g>
<g>
</g>
<g>
</g>
<g>
</g>
<g>
</g>
</svg>
