<?xml version="1.0" encoding="utf-8"?>
<svg viewBox="293.524 7.086 54.959 79.624" xmlns="http://www.w3.org/2000/svg">
  <path d="M337.642,72.833 C339.42,70.998 349.262,47.039 348.433,45.26 C347.603,43.482 332.425,38.501 329.579,38.146 C326.733,37.789 307.142,37.601 305.625,35.182 C299.815,25.932 310.843,13.601 311.79,11.584 C312.738,9.569 304.742,5.95 303.135,7.434 C300.052,10.275 293.766,27.592 293.53,33.521 C293.294,39.45 299.815,64.117 303.135,67.792 C303.743,68.461 305.217,69.119 307.233,69.727 C306.777,71.401 306.271,73.758 305.94,76.823 C305.183,83.719 308.969,85.536 310.824,84.417 C314.537,82.184 308.395,77.268 309.215,70.272 C312.019,70.98 315.473,71.611 318.998,72.109 C318.568,73.754 318.113,75.979 317.805,78.806 C317.052,85.703 320.836,87.523 322.691,86.404 C326.38,84.185 320.338,79.318 321.068,72.392 C324.21,72.796 327.315,73.09 329.98,73.242 C329.683,74.631 329.397,76.306 329.185,78.27 C328.431,85.167 332.22,86.983 334.075,85.863 C337.489,83.81 332.553,79.478 332.388,73.346 C335.224,73.421 337.222,73.27 337.642,72.833 Z M326.178,47.504 C326.628,45.234 327.651,43.89 329.005,44.163 C330.355,44.427 330.787,46.059 330.337,48.331 C329.882,50.607 328.863,51.95 327.511,51.684 C326.159,51.414 325.726,49.782 326.178,47.504 Z M319.228,46.125 C319.622,44.141 320.515,42.976 321.694,43.207 C322.871,43.44 323.245,44.863 322.853,46.846 C322.459,48.828 321.572,49.999 320.39,49.768 C319.21,49.53 318.834,48.107 319.228,46.125 Z M329.525,65.662 C329.503,64.856 329.404,64.041 329.112,63.798 C328.588,63.348 326.065,63.594 325.669,64.121 C325.323,64.585 325.182,65.42 325.124,66.179 C324.323,66.146 323.44,66.07 322.459,65.937 C321.481,65.808 320.613,65.652 319.827,65.471 C320.035,64.604 320.196,63.618 319.97,63.234 C319.585,62.599 317.165,61.882 316.667,62.247 C316.261,62.545 315.936,63.214 315.699,63.879 C312.199,61.56 313.547,57.879 314.428,53.789 C314.495,53.477 315.533,53.368 317.089,53.396 C317.004,54.236 316.989,55.285 317.317,55.858 C317.64,56.408 320.115,56.816 320.704,56.399 C321.141,56.09 321.377,54.682 321.496,53.699 C323.165,53.875 324.943,54.113 326.603,54.379 C326.501,55.246 326.435,56.494 326.802,57.133 C327.122,57.685 329.602,58.092 330.19,57.68 C330.588,57.395 330.82,56.189 330.948,55.242 C332.473,55.625 333.458,56.015 333.421,56.351 C332.982,60.269 333.387,64.252 329.525,65.662 L329.525,65.662 Z" id="Fill-118" fill="#000000"/>
</svg>