<svg xmlns="http://www.w3.org/2000/svg" viewBox="0 0 69.76 88.86"><title>Roque</title><g id="Layer_2" data-name="Layer 2"><g id="Layer_1-2" data-name="Layer 1"><path d="M43,0c.07,0,.14.12.21.13C51.73.9,55.92,6.27,57.62,14.05c.94,4.3,1.58,8.67,2.2,13,.19,1.3.37,2,1.87,2.41,1.29.32,2.4,1.38,4,2.36-.9.43-1.1.62-1.29.6-3.44-.29-5.81,1.74-5.64,5.09,0,.69.93,1.52,1.64,2,6.34,3.94,8.71,10,9.31,17.06a13.51,13.51,0,0,1-.08,3.24A4,4,0,0,1,65,63.36c-2.11-.47-3-2.31-2.74-4.86.32-3.1.86-6.3.38-9.32a12.89,12.89,0,0,0-3.45-6.13c-2.36-2.56-3.07-2.27-5.82-.07-1.5,1.2-1.59,2.19-.53,3.72,6.3,9.09,6.64,18.73,2.44,28.72a5.2,5.2,0,0,0,0,4.72,4.61,4.61,0,0,1-1,5.51L51.63,81.1c-1,2.74-1.51,5.23-4.6,6.82.26-1.12.34-1.66.51-2.18a4.24,4.24,0,0,0-1.3-4.92c-3.08-2.83-3.14-5.62-.18-8.61a21.08,21.08,0,0,0,6-12.84,13.37,13.37,0,0,0-3-10c-.78-1-1.52-1.68-2.89-.75-1.17.8-1.52,1.53-.84,2.88A8,8,0,0,1,45,59.17c-.42.77-2,1.69-2.57,1.45-1.63-.65-.52-1.75,0-2.82A17.58,17.58,0,0,0,44,52.72c.14-1.34-.85-2.2-2.31-1.2-3.46,2.4-7,2.14-10.66.49-2.91-1.3-5,0-5,3.28a14,14,0,0,0,1.19,4.5c.24.68,1,1.24,1.11,1.91a9,9,0,0,1-.49,2.65c-.85-.3-2.12-.35-2.48-.95-1.73-2.87-2.6-6-1.15-9.26.57-1.29,1.28-2.51,1.92-3.74-2.57-2.42-3.23-2.4-5.39.17-4.36,5.18-4.27,13.68.25,20,.92,1.29,2,2.46,2.94,3.73,1.64,2.18,1.92,4.54,0,6.33-2.47,2.25-3.93,4.44-1.85,8.24-3.63-1.37-3.52-4.16-5-6.68l-2.48,4.45c-1.8-1.87-1.33-3.94-.84-6.12a10.07,10.07,0,0,0,.09-4c-.68-3.58-1.7-7.11-2.33-10.7-.88-5,.7-9.55,3.13-13.85,1.14-2,2.32-4,3.62-6.27a28.39,28.39,0,0,0-4-3,3.09,3.09,0,0,0-2.65.38c-4.22,3.14-5.47,7.55-5,12.59.13,1.23.56,2.44.72,3.67.31,2.34-.94,4.17-3,4.5A3.89,3.89,0,0,1,0,60.38c-.1-6.2.92-12.12,5.61-16.74a20.15,20.15,0,0,1,3.47-2.86c1.68-1,2.09-2.1,1.5-4.1-1.12-3.77-.95-3.82-5.48-3.84.92-.91,1.46-1.91,2.23-2.14,2.1-.64,2-2.06,2.12-3.83A127.19,127.19,0,0,1,11,12.26c1.13-6.07,5.61-9,11.25-10.33a17.64,17.64,0,0,1,3.1,0c-2,1.83-3.4,3.17-4.86,4.47-4.92,4.4-5.58,9.78-3.61,15.74a9.07,9.07,0,0,0,1.38,2.63C20,26.9,22.18,26.59,23,24a47.74,47.74,0,0,0,1-5.9c.28-1.65.63-3.3.94-5l.9,0c.42,1.54.83,3.08,1.26,4.63A53,53,0,0,0,28.55,23c.28.74,1.14,1.26,1.73,1.89a10.5,10.5,0,0,0,1.83-2.15,23.9,23.9,0,0,0,.69-2.89c.16-.49.72-1.29,1-1.24a2.69,2.69,0,0,1,1.49,1.05c.41.6.45,1.47.89,2a28.53,28.53,0,0,0,2.44,2.48c.58-1,1.49-2,1.69-3.05.41-2.2.42-4.47.63-6.71.06-.78.2-1.54.31-2.31l.71-.16a21.41,21.41,0,0,1,1.43,2.93c.64,2,1,4,1.7,6,.5,1.52,1.22,3.07,3.22,2.94s2.46-1.76,2.87-3.31c1.81-6.8-.28-12.37-6.11-16.32-1.17-.8-2.39-1.52-3.61-2.23s-1-1.33.06-1.94ZM27.52,32.52c4.36,4.29,12,4.12,14.74-.19C38.24,29.79,31.21,29.82,27.52,32.52ZM19.68,34.8c-1.41.78-2.95,1.19-3,1.78A3.51,3.51,0,0,0,18,39.37a21.44,21.44,0,0,0,5.38,2.5,2.78,2.78,0,0,0,2.52-.73,2.72,2.72,0,0,0-.31-2.65A60.54,60.54,0,0,0,19.68,34.8Zm29.76-.51c-2.94,0-5.61,2-5.4,3.62a2.56,2.56,0,0,0,1.78,1.69c1.85.16,5.41-2.41,5.12-3.6C50.75,35.21,49.75,34.62,49.44,34.29Zm-16,6.06c1,.62,1.62,1.38,2.17,1.3s1.07-.94,1.6-1.47c-.59-.56-1.12-1.43-1.8-1.59C35,38.5,34.32,39.51,33.43,40.35Z"/></g></g></svg>