<?xml version="1.0" encoding="utf-8"?>
<!-- Generator: Adobe Illustrator 20.1.0, SVG Export Plug-In . SVG Version: 6.00 Build 0)  -->
<svg version="1.1" id="Laag_1" xmlns="http://www.w3.org/2000/svg" xmlns:xlink="http://www.w3.org/1999/xlink" x="0px" y="0px"
	 viewBox="0 0 85.9 73" style="enable-background:new 0 0 85.9 73;" xml:space="preserve">
<path d="M82.9,1.9c-4.1-3.3-14,4-16.3,5.8c-0.9-2.9-2.2-5.3-4.1-6.5c-8.5-5.4-46.4,8.9-48.2,10.6c-0.3,0.3-0.5,1-0.7,2
	c-1.4-0.9-8-4.5-11.6-1.5c-1.2,1-2.6,8-2,8.7c0.4,0.5,5.8,1.9,6.1-0.3c0.2-1.7-0.7-5.1,0.2-5.5c0.8-0.3,5.6,2,6.9,2.7
	c0,0,0,0.1,0,0.1c-0.1,2.2-0.2,4.7-0.1,7c-1-0.1-4.3-0.3-6.5,0.5C4.1,26.3,0,27,0.6,27.5c0.6,0.4,10.8,1.2,12.7,1.3
	c0.2,2.6,0.6,4.5,1.1,4.6c1.7,0.5,13.7,2.1,14.4,2.9c0.3,0.3,0.2,0.6,0.7,2.1c0,0-5.7,6.9-5.4,14.2c0.3,7.1,4.9,11.7,2.4,15.8
	c0,0,1.5-0.2,2.8-1.6c0.6,0.2,1.4,0.5,1.6,0.2c0.4-0.4,1.3-4.2,1-4.5c-0.1-0.2-0.7-0.3-1.2-0.4c0-0.7-0.1-1.4-0.2-2.2
	c0.6-0.1,1.4-0.2,1.5-0.6c0.1-0.6-0.9-4.3-1.3-4.4c-0.2-0.1-0.8,0.1-1.4,0.3c-0.1-0.9-0.1-1.9,0-2.8c0.4,0.2,0.9,0.4,1.1,0.2
	c0.5-0.3,1.9-3.9,1.7-4.3c-0.2-0.2-1-0.5-1.6-0.7c0.3-0.7,0.6-1.5,0.9-2.1c0.5,0.3,1.3,0.7,1.6,0.5c0.3-0.2,0.9-1.6,1.3-2.7
	c0.5,0.1,0.9,0.3,1.5,0.4c0.4,0.1,0.9,0.1,1.4,0.2c-0.9,2.2-3.2,8.5-1.6,14.3c1.9,6.8,7.5,10.2,6,14.8c0,0,1.5-0.6,2.3-2.2
	c0.6,0.1,1.4,0.1,1.6-0.2c0.3-0.5,0.3-4.4-0.1-4.6c-0.2-0.1-0.7-0.1-1.2-0.1c-0.2-0.6-0.4-1.3-0.7-2.1c0.6-0.2,1.3-0.6,1.3-0.9
	c0-0.6-1.9-4-2.3-4c-0.2,0-0.8,0.3-1.3,0.6c-0.3-0.9-0.5-1.8-0.6-2.7c0.5,0.1,1,0.2,1.2,0c0.4-0.4,1-4.3,0.6-4.6
	c-0.2-0.2-1.1-0.3-1.7-0.3c0.1-0.8,0.3-1.6,0.4-2.3c0.6,0.2,1.5,0.4,1.7,0.1c0.4-0.4,1-4.3,0.6-4.6c-0.1-0.1-0.6-0.2-1-0.2
	c0.2-0.5,0.3-0.8,0.4-1.1c0.8-0.1,1.6-0.2,2.3-0.4c0.5-0.1,0.9-0.2,1.3-0.3c0.4,1.2,1.1,2.7,1.4,3c0.3,0.2,1.1-0.2,1.6-0.5
	c0.3,0.7,0.7,1.4,0.9,2.1c-0.6,0.2-1.4,0.5-1.6,0.7c-0.2,0.4,1.2,3.9,1.7,4.3c0.2,0.2,0.7,0,1.1-0.2c0.1,0.9,0.1,1.9,0,2.8
	c-0.5-0.2-1.1-0.4-1.4-0.3c-0.4,0.1-1.4,3.9-1.3,4.4c0.1,0.3,0.9,0.5,1.5,0.6c-0.1,0.8-0.2,1.5-0.2,2.2c-0.5,0.1-1,0.2-1.2,0.4
	c-0.3,0.3,0.6,4.1,1,4.5c0.2,0.3,1,0,1.6-0.2c1.2,1.4,2.8,1.6,2.8,1.6c-2.5-4.2,2.1-8.7,2.4-15.8c0.2-6.2-3.8-12-5-13.7
	c0.4-0.8,0.5-1.6,0.6-2c0.4-1.3,8,0.8,11.6-1.4c1.5-0.9,2.8-5.6,3.4-11.4c3,0.8,10.3,2.9,10.7,3.6c0.5,0.9-3,3.5-4.2,5.2
	c-1.5,2.2,4.1,4.7,4.8,4.6c1-0.3,5.4-7.7,5.2-9.5c-0.7-5.6-14.6-6.9-16.3-7c0.2-3.3,0.1-6.8-0.5-10c0-0.1,0-0.1,0-0.2
	c1.7-0.9,10.2-5.5,11.2-5.2c1,0.3,0.2,4.6,0.6,6.6c0.4,2.7,6.3,0.6,6.6,0C86.3,11.4,84.3,3,82.9,1.9z M52.1,6.2c5-1,6.2,2.8,5.7,3.3
	c-0.6,0.6-8.8,2.1-9.3,2.1C48.1,11.6,47.2,7.2,52.1,6.2z M17.4,17.2c-0.6-0.2-1.1-4.2,3.8-5.4c4.9-1.2,5.9,3.1,5.5,3.3
	C26.2,15.4,18.2,17.5,17.4,17.2z M43.4,32.2c-25.1,4.7-23-9.2-21.5-10.3c0.4-0.3,0.3-0.4,4.2-1.3c0.4,1.7,0.1,2.2,0.6,2.3
	c0.7,0.1,4.7-0.4,5-0.9c0.2-0.3-0.4-0.6-0.6-2.4c2.2-0.4,11.5-2.7,13.7-3.1c0.5,1.8,0.2,2.1,0.5,2.3c0.5,0.4,3.9-0.3,4.5-0.7
	c0.4-0.3,0.1-1-0.1-2.7c3.3-0.5,6-0.9,6.4-0.8C58,15.1,68.5,27.4,43.4,32.2z"/>
</svg>
