<svg xmlns="http://www.w3.org/2000/svg" viewBox="0 0 82.49 72.21"><g data-name="Layer 2"><path d="M80.6 13.52a15 15 0 0 0-9.24-6.8s3.76-.17 3.55-.93-5.75-.69-5.75-.69S67.67.44 63.52.59s-5.26 6-5.26 6l-6.82.7a3.48 3.48 0 0 0-3.17-1.46c-2 .31-2.74.85-2.53 3.29S47 12.52 49 12.3s3-2.77 3-2.77l6.18-.75s1.62 4.29 5.2 4.36S70 9.62 70 9.62s9.14 3.75 8.44 9.67c-.61 5.17-9.35 9-11.55 9.94a9.82 9.82 0 0 1 .33-3c.58-.22 1.6.36 2.11 0s.51-6.2 0-6.56-56.56-2.62-57.08-1.6-.95 5.4 0 5.91 2.48.13 3.14.72a9.6 9.6 0 0 1 .34 2.83c-2-.81-10.77-4.71-11.42-9.73C3.57 12.18 13 8.61 13 8.61S16.1 12 19.82 12s5.4-4.16 5.4-4.16l6.41.72s1 2.42 3.14 2.64 3.21-.66 3.42-3-.58-2.87-2.62-3.2a3.69 3.69 0 0 0-3.28 1.39l-7.08-.66S24.05.15 19.75 0s-5.84 4.3-5.84 4.3-5.75-.07-6 .65 3.68.89 3.68.89A15.72 15.72 0 0 0 2 12.32c-6.72 9.1 4.54 19.37 13.8 20.74.12 6 0 12.27-.31 12.5-.49.36-2.77-.51-3.28.07s-.14 4.34 0 4.81c0 .15 5.83.48 13.72.84l2.57.12c-.79 3.41-1.74 7.93-1.77 8.62-.09 2 2.18 6.48 2.18 6.48s-4.32 3.81-4.63 4.55-.08 1.18.6 1.16h12c.69 0 .66-.46.48-1.13-1-3.79-5.89-9.78-5.95-11.2 0-.81.14-4.93.39-8.33 5.62.24 11.76.47 17.44.67l2.1.07c.22 3.23.37 6.84.34 7.58-.06 1.42-4.91 7.41-6 11.2-.18.66-.21 1.11.48 1.13h12c.69 0 .87-.53.61-1.16s-4.63-4.55-4.63-4.55S56.44 62 56.35 60c0-.63-.81-4.39-1.54-7.62 8.43.27 14.8.4 15 .23.66-.51.52-5.58-.14-6.23s-1.25.18-2.19-.47c-.56-.39-.77-5.91-.71-11.42C75.69 33 87 23 80.6 13.52zM47.73 24c.16-.67.88-1.25 2.31-1.25s2.71.57 2.84 1.25-.88 1.24-2.58 1.24-2.79-.33-2.57-1.24zm-18.17-.6c.16-.83 1.72-1.52 3.44-1.52s2.59.7 2.79 1.52c.27 1.12-.89 1.52-3.12 1.52s-3.3-.55-3.11-1.52zm12 13.78c-8.45 0-14.79-.26-14.79-4.18s6.34-3.57 14.79-3.57 14.75-.36 14.75 3.57-6.31 4.18-14.79 4.18z"/><path d="M42 32.26c-5.65 0-9.89-.61-9.89.61s4.24 1.62 9.89 1.62 9.89-.4 9.89-1.62-4.28-.61-9.89-.61z"/></g></svg>
