<svg xmlns="http://www.w3.org/2000/svg" viewBox="0 0 72.14 94.33"><g data-name="Laag 2"><g data-name="Layer 2"><path d="M3.19 80.38c-.89.2-2.11 1.06-1.89 2.12s1.76 1.16 2.6 1 1.62-.82 1.41-1.88a1.58 1.58 0 0 0-2.12-1.24zM70 66.7a1.47 1.47 0 0 0-1.55 1.3c-.1.93.28 1.75 1.27 1.84s2.28-.31 2.42-1.38S71 66.68 70 66.7zM69.25 82.14a1.57 1.57 0 0 0-.81 3c.8.25 2.14.21 2.48-.75s-.75-2.02-1.67-2.25zM64.46 48.77c1.47 1.89 4.19-1.36 3-2.85-.59-.75-1.75-.48-2.42 0a1.92 1.92 0 0 0-.58 2.85z"/><path d="M54.88 67.53a1.38 1.38 0 0 1-1.5-1.19c-.15-1.1-.08-2.24-.2-3.34a1.78 1.78 0 0 1-.09-1 3.09 3.09 0 0 1 .72-1c.46-.47 1-.91 1.46-1.36 2.15-2 4.27-4 6.33-6.12a26.69 26.69 0 0 0 2-2.1 1.51 1.51 0 0 0-1.12-2.24c-.58-.06-1.25.78-1.62 1.11-1 .89-2 1.8-2.91 2.73q-1.69 1.62-3.35 3.29l-1.44 1.46c-.54.55-1 1.18-1.87 1.11s-1.56-.78-2.29-1.12a12.76 12.76 0 0 0-2.76-.9 21 21 0 0 0-2.65-.39A9.77 9.77 0 0 1 41 56.2c-1.46-.57-1.33-2.16-1.42-3.47-.11-1.62-.17-3.24-.22-4.87s-.09-3.53-.14-5.3c0-.77 0-1.54-.06-2.31 0-.55-.22-1.94.49-2.18a4.66 4.66 0 0 1 1.26 0h1.38q1.47-.07 2.93-.27a33.66 33.66 0 0 0 5.28-1.13 26.78 26.78 0 0 0 8.7-4.37c4.37-3.39 7.22-8.58 6-14.2-1.31-5.96-5.94-10.88-10.96-13.97A26.89 26.89 0 0 0 34 .68a26.12 26.12 0 0 0-15.48 10.68C15.42 16 14.17 21.83 17 26.93c3.25 5.88 10 9.15 16.35 10.44 1.81.37 1.49 2.5 1.51 3.87 0 1.68.07 3.37.1 5.05s0 3.34 0 5a14.4 14.4 0 0 1-.28 3.8c-.52 1.67-3.29 1.4-4.61 1.62a15.66 15.66 0 0 0-5.5 1.8 2 2 0 0 1-2.31.09 17.79 17.79 0 0 1-1.41-1.31q-1.6-1.48-3.23-2.92c-1.9-1.69-3.8-3.41-5.83-4.95-.69-.52-1.25-.74-2 0a1.25 1.25 0 0 0 0 2c1.7 1.77 3.61 3.36 5.46 5q1.64 1.42 3.3 2.82c.9.76 2.37 1.61 2.88 2.7.16.34-.06.74-.09 1.09q-.09.79-.13 1.59c0 .85.15 2-.7 2.51a3.17 3.17 0 0 1-1.87.13l-2.17-.13c-2.84-.15-5.68-.27-8.52-.26-.53 0-1.51-.16-1.94.24-.63.59-.7 2.15.32 2.34a47.92 47.92 0 0 0 7 .43q2.2.07 4.41.11c1.2 0 3.08-.32 3.54 1.15a13.7 13.7 0 0 1 .23 3.1c.05.95.2 1.92-.69 2.54a4.62 4.62 0 0 1-1.86.5l-2.18.41c-2.76.54-5.52 1.1-8.25 1.8-.58.15-1.47.22-1.71.87-.3.83.07 2 1.08 2a59.56 59.56 0 0 0 7.55-1.43q2.2-.48 4.39-1c2.37-.56 1.62 2.27 1.37 3.68-.31 1.73-.72 3.91-2.06 5.18a5 5 0 0 1-2.37 1c-.64.15-1.77.58-1.9 1.34-.27 1.48 2.55 1.64 3.47 1.79 1.49.24 3 .42 4.48.58 5.28.55 10.59.79 15.9.9 2.41 0 4.83 0 7.24-.11 2-.06 4-.15 5.93-.38a27.24 27.24 0 0 0 6-1.13c.56-.2 1.44-.83 1.16-1.54s-1.5-1.13-2.28-1.36a3.18 3.18 0 0 1-2-1.37 8.59 8.59 0 0 1-1-2.55c-.24-.95-1.46-4.73.75-4.15q2.34.61 4.7 1.16c1.46.34 2.93.68 4.4 1 .62.12 1.77.56 2.22-.09a1.46 1.46 0 0 0-.52-2.26c-1.05-.36-2.15-.62-3.23-.88q-2.3-.74-4.6-1.19l-2.11-.45a3 3 0 0 1-2.05-.9c-.57-.75-.35-1.8-.31-2.67.05-1.16.12-2.33.18-3.49.11-2 1.85-1.78 3.34-1.81 2.47 0 4.95-.12 7.42-.28a21 21 0 0 0 2.43-.24c.84-.15.88-1.19.63-1.87s-.78-.7-1.44-.71h-3.07c-2.52.09-5.1.2-7.64.4zM41.49 7.42c.75-3.19 5.33-2.89 4.51 1.23-.56 2.83-5.27 1.96-4.51-1.23zm3 7.33c.34.1-.12 1.4-.18 1.56a4.72 4.72 0 0 1-1.95 2.42 4.6 4.6 0 0 1-6.4-1.9 3.23 3.23 0 0 1-.47-2c.07-.28 1.17-.16 1.38-.16h6.62a4 4 0 0 1 .98.08zM32.84 8.66C32.1 3.29 38 3.39 38.73 7.57s-5.39 4.79-5.89 1.09zm2.76 63.81a6.79 6.79 0 0 1 3.14.52 6.37 6.37 0 0 1 3.46 5.12c.35 2.29.25 5.16-1.91 6.56a7.92 7.92 0 0 1-5.37.75 8.76 8.76 0 0 1-3.37-.89c-.3-.2-.24-.89-.23-1.19a7.73 7.73 0 0 1 .29-1.9c.25-.85.58-.69 1.31-.47 1.64.49 4.25 1.24 5.06-.9a2.37 2.37 0 0 0-.54-2.82 5.39 5.39 0 0 0-2.79-.86c-.79-.08-1.59 0-2.37-.14-.41-.06-.33-.65-.35-1a57.7 57.7 0 0 1 0-6.53 20.08 20.08 0 0 1 .27-2.84c.1-.54.18-.81.75-.89a36.6 36.6 0 0 1 6.58-.07c.77 0 1.55.06 2.32.12.53 0 .67.1.71.69a9.81 9.81 0 0 1-.28 2.8c-.16.7-.25 1-1 1-1.79-.05-3.57-.34-5.36-.44-.66 0-.72.64-.79 1.2-.05.38-.24 2.22.46 2.18zM6 48.56a1.67 1.67 0 0 0 2.79-.41c.62-1.1-.3-2.2-1.29-2.66-.79-.36-2.1-.49-2.5.51s.32 2 1 2.56zM4.1 68.15c.1-2.37-4-2.11-4.1-.08 0 1.09 1.42 1.55 2.28 1.57 1.02.02 1.77-.41 1.82-1.49z"/></g></g></svg>