<?xml version="1.0" encoding="utf-8"?>
<svg viewBox="0 0 72.3 94.8" xmlns="http://www.w3.org/2000/svg">
  <path d="M 71.846 37.991 C 72.586 32.857 75.669 9.085 47.253 1.411 C 18.839 -6.264 6.221 19.72 6.707 23.13 C 7.361 27.702 17.951 22.478 21.709 26.732 C 25.463 30.988 22.43 36.357 18.854 38.154 C 15.279 39.95 5.483 38.644 4.99 39.296 C 4.686 39.704 5.035 41.075 8.135 41.962 C 7.914 42.482 7.609 43.386 7.54 44.48 C 7.419 46.439 8.391 47.935 8.785 47.935 C 9.178 47.935 8.698 45.898 9.075 44.56 C 9.271 43.861 9.792 43.027 10.23 42.402 C 10.763 42.486 11.347 42.556 11.985 42.613 C 11.896 43.171 11.831 43.937 11.939 44.792 C 12.179 46.743 13.404 48.036 13.794 47.96 C 14.179 47.89 13.325 45.974 13.45 44.591 C 13.503 44.019 13.732 43.331 13.984 42.726 C 14.659 42.749 15.386 42.755 16.165 42.741 C 16.193 43.247 16.279 43.866 16.478 44.519 C 17.05 46.396 18.48 47.462 18.849 47.322 C 19.218 47.185 18.048 45.449 17.935 44.062 C 17.904 43.657 17.943 43.181 18.023 42.704 C 28.872 42.55 34.788 45.331 36.218 51.054 C 36.417 51.845 36.388 52.906 36.193 54.167 C 34.4 53.324 29.605 51.667 24.296 54.865 C 17.618 58.884 17.935 62.892 19.425 64.247 C 23.329 67.802 28.425 51.765 35.708 56.294 L 35.781 56.193 C 35.398 57.79 34.841 59.595 34.191 61.501 C 32.72 61.281 30.79 61.398 28.743 62.628 C 24.415 65.24 24.616 67.835 25.583 68.714 C 27.642 70.585 30.202 64.093 33.618 63.146 C 30.806 71.066 26.864 80.187 27.103 83.876 C 27.739 93.732 39.148 95.472 39.486 94.656 C 39.921 93.587 36.161 89.486 37.689 83.876 C 38.573 80.616 44.835 74.583 51.851 67.495 C 54.321 70.368 50.56 77.523 53.523 77.812 C 54.821 77.941 57 76.351 56.031 71.388 C 55.545 68.91 54.133 67.363 53.133 66.433 C 54.133 65.095 55.67 63.722 56.998 62.327 C 63.621 65.521 55.984 78.898 61.019 79.386 C 63.027 79.583 65.067 77.13 63.57 69.476 C 62.586 64.458 60.133 61.917 56.133 60.753 C 65.133 53.097 70.846 44.907 71.846 37.991" id="Fill-5" fill="#000000"/>
  <path d="M 4.133 27.966 C -0.867 27.966 -1.867 35.583 4.133 35.583 C 10.133 35.583 7.133 27.966 4.133 27.966 Z M 4.671 28.939 C 5.714 28.509 6.323 29.07 5.314 29.767 C 4.306 30.462 4.087 29.181 4.671 28.939 Z M 6.173 32.136 C 4.661 32.587 3.232 30.249 5.624 30.07 C 8.021 29.888 7.394 31.771 6.173 32.136 L 6.173 32.136 Z" id="Fill-6" fill="#000000"/>
  <path d="M 13.133 35.763 C 22.133 35.763 18.133 26.993 13.133 26.993 C 10.133 26.993 7.133 35.763 13.133 35.763 Z M 15.181 27.757 C 16.22 27.327 16.833 27.888 15.821 28.583 C 14.816 29.281 14.593 27.999 15.181 27.757 Z M 16.134 28.888 C 18.534 28.704 17.904 30.589 16.685 30.956 C 15.169 31.407 13.737 29.068 16.134 28.888 L 16.134 28.888 Z" id="Fill-7" fill="#000000"/>
</svg>