<?xml version="1.0" encoding="utf-8"?>
<svg viewBox="399.386 369.277 70.568 98.287" xmlns="http://www.w3.org/2000/svg">
  <path d="M467.14,401.86 C465.092,399.311 463.003,397.289 460.728,395.714 C465.518,386.302 462.055,372.697 446.584,369.277 C446.584,369.277 464.44,383.666 445.574,386.783 C424.714,390.231 438.117,370.913 438.117,370.913 C427.407,378.228 427.373,386.441 432.79,391.498 C413.595,393.643 402.734,406.088 400.102,416.113 C397.67,425.382 401.922,440.022 405.559,441.191 C405.948,441.316 406.472,441.374 407.092,441.383 C406.826,442.034 406.855,443.232 407.479,444.291 C408.328,445.719 410.127,446.288 410.43,446.003 C410.735,445.719 409.009,444.508 409.859,442.836 C410.296,441.976 410.372,441.461 410.324,441.153 C411.603,440.994 413.023,440.769 414.51,440.52 C414.293,441.55 414.454,443.04 415.277,444.379 C416.605,446.541 419.436,447.396 419.919,446.963 C420.399,446.528 417.685,444.702 419.03,442.165 C419.714,440.878 419.842,440.1 419.777,439.634 C420.964,439.444 422.131,439.273 423.242,439.141 C422.993,440.029 423.098,441.429 423.852,442.679 C424.983,444.552 427.394,445.297 427.802,444.922 C428.21,444.547 425.899,442.962 427.042,440.766 C427.499,439.886 427.661,439.283 427.683,438.866 C428.321,438.887 428.899,438.943 429.4,439.047 C430.449,439.266 431.469,439.622 432.441,440.078 C432.089,440.588 431.92,441.548 432.306,442.512 C432.856,443.877 434.502,444.723 434.856,444.547 C435.21,444.372 433.758,443.007 434.916,441.784 C434.973,441.725 435.022,441.666 435.073,441.612 C438.795,444.225 441.331,447.978 441.288,449.766 C441.239,451.512 435.83,462.299 439.985,464.188 C444.145,466.069 441.677,454.961 447.523,455.87 C455.385,457.093 451.289,467.757 455.319,467.561 C459.344,467.367 457.201,457.883 457.915,456.13 C458.631,454.376 460.386,452.338 462.073,452.252 C463.761,452.167 462.992,454.193 465.32,453.92 C470.324,453.336 464.541,444.437 464.541,440.801 C464.541,435.925 474.74,411.316 467.14,401.86 Z M409.433,436.678 C404.634,434.433 407.301,429.003 407.807,429.088 C408.317,429.175 416.293,432.688 416.701,433.564 C417.033,434.265 414.231,438.923 409.433,436.678 Z M432.986,433.107 C428.745,436.846 424.609,431.978 424.914,431.518 C425.217,431.062 432.047,424.754 433.075,424.724 C433.901,424.696 437.222,429.374 432.986,433.107 L432.986,433.107 Z" id="Fill-14" fill="#000000"/>
</svg>