<?xml version="1.0" encoding="UTF-8"?>
<svg width="178px" height="197px" viewBox="0 0 178 197" version="1.1" xmlns="http://www.w3.org/2000/svg" xmlns:xlink="http://www.w3.org/1999/xlink">
    <!-- Generator: Sketch 43.2 (39069) - http://www.bohemiancoding.com/sketch -->
    <title>Page 1</title>
    <desc>Created with Sketch.</desc>
    <defs></defs>
    <g id="Website-2" stroke="none" stroke-width="1" fill="none" fill-rule="evenodd">
        <g id="Artboard-9" transform="translate(-58.000000, -10.000000)" fill="#000000">
            <g id="Page-1" transform="translate(58.000000, 10.000000)">
                <path d="M72.7907836,68.1906988 C68.3895507,68.1906988 66.0219068,70.9462667 66.0219068,75.1562296 C66.0219068,79.3783531 68.3895507,82.1241926 72.7907836,82.1241926 C77.1968932,82.1241926 79.5620986,79.3783531 79.5620986,75.1562296 C79.5620986,70.9462667 77.1968932,68.1906988 72.7907836,68.1906988" id="Fill-1"></path>
                <path d="M108.249359,68.9057358 C104.30166,68.9057358 102.177852,71.3791802 102.177852,75.1562296 C102.177852,78.9405753 104.30166,81.4091556 108.249359,81.4091556 C112.204373,81.4091556 114.335496,78.9405753 114.335496,75.1562296 C114.335496,71.3791802 112.204373,68.9057358 108.249359,68.9057358" id="Fill-3"></path>
                <path d="M111.602099,95.3358395 C96.9427014,95.3358395 96.1965644,84.6005556 88.9765918,84.6005556 C80.6886192,87.0326543 80.3496877,94.2243704 69.7477151,94.4505556 C55.4565096,94.7497037 48.7266466,88.5235309 48.7266466,74.8259506 C48.7266466,61.1356667 55.8759068,59.9779877 70.1768658,59.9779877 C80.2253315,59.9779877 82.4247288,61.3326667 88.9717151,61.6926173 C89.6178795,61.7315309 90.3079342,61.7947654 91.0613863,61.8142222 C98.2764822,61.9796049 100.107688,59.5742593 110.412181,59.5742593 C123.586619,59.5742593 129.216784,62.203358 129.216784,74.8162222 C129.216784,87.4242222 122.923386,95.3358395 111.602099,95.3358395 M175.482153,126.432654 C172.873112,114.114074 160.886153,102.474049 154.614701,97.0942469 C166.496811,66.2673951 169.754455,16.4093704 151.837414,5.29467901 C126.690647,-10.3120988 107.676345,13.5589506 88.9717151,13.5589506 C70.2597699,13.5589506 51.2479068,-10.3120988 26.1035781,5.29467901 C8.22067397,16.3923457 11.431989,66.0995802 23.2677699,96.9410247 C17.0475233,102.252728 4.8484274,113.994901 2.2174411,126.432654 C-1.3425589,143.294395 -1.23283288,164.747938 7.1624274,164.057222 C15.5576877,163.368938 9.44472877,154.880914 13.5387288,154.769037 C17.6327288,154.654728 18.4325096,163.142753 24.5259616,160.963593 C30.6267288,158.779568 25.7939068,149.146025 26.9472493,146.738247 C28.0908384,144.328037 36.7031123,148.032123 37.7491671,141.803519 C39.1317151,133.660852 25.7939068,136.873654 25.5647014,133.089309 C25.3696329,129.893531 27.9567288,119.688444 32.9139068,114.843704 C35.5058795,118.041914 38.2636603,120.306198 41.1311671,121.332543 C47.9293041,123.77437 53.4082904,123.730593 58.1557699,122.431852 C59.5822082,127.296049 61.9986192,133.215778 66.0560438,138.276975 C63.8176329,142.139148 57.2365096,153.861864 53.9764274,163.213284 C49.3947562,176.370938 47.7561808,191.646951 50.3384,194.516827 C52.9157425,197.396432 82.7782904,197.690716 84.446126,194.516827 C86.1164,191.340506 78.4989753,173.082741 76.8677151,164.424469 C75.7802082,158.662827 75.7972767,151.368963 75.9752767,146.41721 C79.9839342,148.404235 84.7826192,149.58137 90.5444548,149.467062 C96.1282904,149.576506 100.819688,148.469901 104.747879,146.587457 C104.928318,151.534346 104.928318,158.726062 103.853003,164.424469 C102.226619,173.082741 94.6043178,191.340506 96.2745918,194.516827 C97.9424274,197.690716 127.804975,197.396432 130.387195,194.516827 C132.964537,191.646951 131.330838,176.370938 126.746729,163.213284 C123.559797,154.06616 117.183496,142.645025 114.81829,138.539642 C118.826948,133.631667 121.275058,127.874889 122.745386,123.049605 C126.793058,123.643037 131.374729,123.280654 136.812263,121.332543 C139.635879,120.32079 142.352208,118.10758 144.919797,114.979901 C149.784318,119.865988 152.327523,129.920284 152.137332,133.089309 C151.903249,136.873654 138.563003,133.660852 139.945551,141.803519 C141.003797,148.032123 149.603879,144.328037 150.75966,146.738247 C151.903249,149.146025 147.072866,158.779568 153.176071,160.963593 C159.262208,163.142753 160.071742,154.654728 164.163304,154.769037 C168.257304,154.880914 162.139468,163.368938 170.539605,164.057222 C178.927551,164.747938 179.044592,143.294395 175.482153,126.432654" id="Fill-5"></path>
            </g>
        </g>
    </g>
</svg>