<svg version="1.2" baseProfile="tiny" xmlns="http://www.w3.org/2000/svg" viewBox="0 0 200 200"><path d="M84.9 71.9c-4.2 0-6.4 2.6-6.4 6.6 0 4 2.2 6.6 6.4 6.6s6.4-2.6 6.4-6.6c.1-4-2.2-6.6-6.4-6.6zM118.6 72.6c-3.7 0-5.8 2.4-5.8 6s2 6 5.8 6 5.8-2.4 5.8-6-2-6-5.8-6z"/><path d="M182.4 127.4c-2.5-11.7-13.9-22.8-19.8-27.9C173.9 70.1 177 22.6 160 12c-23.9-14.9-41.9 7.9-59.7 7.9-17.8 0-35.8-22.7-59.7-7.9-17 10.6-13.9 57.9-2.7 87.2-5.9 5.1-17.5 16.2-20 28.1-3.4 16.1-3.3 36.5 4.7 35.8 8-.7 2.2-8.7 6.1-8.8 3.9-.1 4.6 8 10.4 5.9 5.8-2.1 1.2-11.3 2.3-13.5 1.1-2.3 9.3 1.2 10.3-4.7 1.3-7.8-11.4-4.7-11.6-8.3-.2-3 2.3-12.8 7-17.4 2.5 3 5.1 5.2 7.8 6.2 6.5 2.3 11.7 2.3 16.2 1 1.4 4.6 3.7 10.3 7.5 15.1-2.1 3.7-8.4 14.8-11.5 23.7-4.4 12.5-5.9 27.1-3.5 29.8 2.4 2.7 30.8 3 32.4 0 1.6-3-5.6-20.4-7.2-28.6-1-5.5-1-12.4-.8-17.1 3.8 1.9 8.4 3 13.8 2.9 5.3.1 9.8-.9 13.5-2.7.2 4.7.2 11.6-.9 17-1.5 8.2-8.8 25.6-7.2 28.6 1.6 3 29.9 2.7 32.4 0 2.4-2.7.9-17.3-3.5-29.8-3-8.7-9.1-19.6-11.3-23.5 3.8-4.7 6.1-10.2 7.5-14.7 3.8.6 8.2.2 13.4-1.6 2.7-1 5.3-3.1 7.7-6 4.6 4.7 7 14.2 6.9 17.2-.2 3.6-12.9.5-11.6 8.3 1 5.9 9.2 2.4 10.3 4.7 1.1 2.3-3.5 11.5 2.3 13.5 5.8 2.1 6.5-6 10.4-5.9 3.9.1-1.9 8.2 6.1 8.8 7.9.6 8-19.8 4.6-35.8zm-60.6-29.6c-13.9 0-14.6-10.2-21.5-10.2-7.9 2.3-8.2 9.2-18.3 9.4-13.6.3-20-5.6-20-18.7 0-13 6.8-14.1 20.4-14.1 9.5 0 11.6 1.3 17.8 1.6.6 0 1.3.1 2 .1 6.9.2 8.6-2.1 18.4-2.1 12.5 0 17.9 2.5 17.9 14.5 0 11.9-6 19.5-16.7 19.5z"/></svg>
