<?xml version="1.0" encoding="utf-8"?>
<svg viewBox="0 0 72.2 76.7" xmlns="http://www.w3.org/2000/svg">
  <g transform="matrix(0.866431, 0, 0, 0.866431, 13.011307, -5.578072)" style="">
    <circle cx="50.07" cy="24.957" r="6.333"/>
    <path d="M 68.258 56.474 L 67.378 48.272 C 67.215 47.801 65.724 43.226 63.668 39.292 C 63.138 38.278 61.889 35.684 60.486 34.81 C 57.185 32.753 54.673 32.654 54.194 32.648 L 54.193 32.625 L 46.209 32.635 C 46.116 32.634 46.023 32.63 45.931 32.635 L 45.879 32.635 L 45.879 32.641 C 44.8 32.726 43.793 33.303 43.191 34.259 L 35.946 45.771 L 28.865 52.686 C 27.013 53.24 25.96 55.19 26.514 57.042 C 27.068 58.894 29.018 59.943 30.87 59.393 C 30.87 59.393 40.502 51.04 40.954 50.323 L 42.653 48.257 L 42.653 59.974 L 39.046 74.046 C 38.909 74.581 38.9 75.141 39.021 75.68 L 42.737 92.263 C 43.103 93.893 44.548 95 46.15 95 C 46.403 95 46.661 94.972 46.919 94.915 C 48.805 94.492 49.992 92.621 49.569 90.734 L 46.036 74.97 L 49.544 61.285 C 49.617 61.001 49.653 60.709 49.653 60.416 L 49.653 59.999 L 50.652 59.999 L 50.652 91.499 C 50.652 93.432 52.219 94.999 54.152 94.999 C 56.085 94.999 57.652 93.432 57.652 91.499 L 57.652 41.564 L 61.431 49.069 L 62.392 58.723 C 63.022 60.55 64.253 61.331 66.081 60.898 C 67.909 60.465 68.346 58.455 68.258 56.474 Z"/>
  </g>
  <path d="M 19.051 27.405 C 19.229 29.943 23.617 29.737 23.307 26.872 C 22.998 24.008 18.785 23.719 19.051 27.405" id="Fill-108" fill="#000000" style=""/>
  <path d="M 42.298 41.002 C 41.487 40.785 41.367 43.554 40.771 43.437 C 38.708 43.028 38.092 39.92 37.057 38.896 C 35.952 37.805 40.657 31.111 40.613 30.065 C 40.571 29.05 35.247 18.655 28.981 15.515 C 28.882 12.959 28.987 10.158 29.438 7.078 C 29.565 6.196 23.673 4.491 22.777 4.728 C 22.106 4.905 21.562 6.633 22.281 7.008 C 22.998 7.379 25.104 6.767 25.117 7.349 C 25.131 7.928 24.735 10.047 24.199 10.649 C 23.667 11.245 15.579 8.735 15.364 8.147 C 15.157 7.561 15.575 4.775 16.215 4.567 C 16.855 4.36 19.139 4.502 19.508 4.447 C 19.875 4.384 19.913 1.333 19.748 0.582 C 19.581 -0.167 14.476 -0.075 13.718 0.206 C 12.956 0.488 12.226 4.236 11.718 7.092 C 11.214 9.948 12.597 11.518 12.975 12.116 C 13.177 12.446 11.785 19.205 10.591 25.966 C 5.776 28.586 2.712 35.235 2.607 36.03 C 2.484 36.913 5.953 42.949 4.93 43.789 C 3.973 44.578 3.216 47.161 1.435 47.347 C 0.921 47.399 1.035 45.045 0.331 45.166 C -0.371 45.284 0.189 49.457 0.669 49.611 C 2.378 50.177 4.065 46.768 4.53 46.875 C 4.995 46.981 4.189 51.447 3.039 51.55 C 2.378 51.608 1.443 50.194 1.208 50.374 C 0.969 50.554 1.819 53.428 3.032 53.463 C 4.242 53.499 7.554 48.921 7.522 46.775 C 7.492 44.632 4.498 36.739 4.766 35.626 C 4.931 34.928 7.758 32.339 9.826 30.521 C 9.208 34.444 8.817 37.819 9.062 39.177 C 9.649 42.457 17.384 56.522 18.055 56.347 C 18.726 56.167 17.002 52.048 19.801 52.468 C 22.6 52.889 22.341 61.698 23.342 61.184 C 24.345 60.669 31.524 40.083 31.88 34.378 C 32.102 30.817 30.094 26.033 29.28 19.246 C 31.574 21.603 37.97 28.267 38.126 29.359 C 38.32 30.691 33.972 39.608 33.702 42.115 C 33.438 44.623 36.82 50.337 38.245 50.426 C 39.669 50.516 40.972 47.244 40.712 47.007 C 40.455 46.769 39.208 48.325 38.438 48.184 C 37.108 47.943 36.64 42.628 37.195 42.554 C 37.752 42.476 39.359 46.648 41.424 46.169 C 42.004 46.039 43.109 41.216 42.298 41.002 Z M 25.421 44.4 C 25.239 43.781 24.073 42.677 23.789 42.794 C 23.396 42.961 22.879 44.961 22.986 45.563 C 22.315 45.698 19.145 46.059 18.454 46.075 C 18.453 45.361 17.471 43.531 17.134 43.543 C 16.74 43.563 15.883 44.977 15.822 45.545 C 12.452 44.44 11.984 38.08 14.166 36.101 C 14.266 36.77 15.684 41.564 16.183 41.554 C 16.602 41.548 17.226 39.366 17.124 38.581 C 18.545 38.382 21.169 38.081 22.6 37.959 C 22.688 38.654 23.738 40.614 24.3 40.642 C 24.925 40.677 25.002 35.641 24.913 34.877 C 27.446 35.747 28.336 42.527 25.421 44.4 Z M 26.653 32.256 C 26.417 32.291 25.622 31.479 25.104 30.913 C 22.999 32.619 19.438 32.628 17.376 30.924 C 17.024 31.39 16.027 32.663 15.531 32.735 C 14.919 32.825 14.261 31.471 14.243 31.067 C 14.223 30.703 15.745 29.142 15.995 28.886 C 15.887 28.553 15.817 28.192 15.785 27.807 C 15.662 26.178 15.91 24.867 16.402 23.844 C 15.675 23.34 14.739 22.62 14.565 22.137 C 14.276 21.324 15.5 20.172 15.922 20.068 C 16.229 19.996 17.655 21.107 18.39 21.706 C 20.225 20.682 22.663 20.958 24.439 22.32 L 24.289 22.118 C 24.289 22.118 25.653 20.215 26.288 20.171 C 26.927 20.132 27.666 21.632 27.699 22.061 C 27.727 22.429 26.428 23.753 26.016 24.156 C 26.395 24.843 26.656 25.632 26.76 26.523 C 26.856 27.366 26.784 28.114 26.574 28.771 C 27.065 29.203 28.034 30.109 28.101 30.625 C 28.2 31.323 27.006 32.198 26.653 32.256 Z" id="Fill-109" fill="#000000" style=""/>
</svg>