<?xml version="1.0" encoding="utf-8"?>
<svg viewBox="452.671 54.811 59.375 67.059" xmlns="http://www.w3.org/2000/svg">
  <path d="M477.086,118.295 C475.94,118.163 474.918,118.852 474.806,119.832 C474.692,120.814 475.279,121.687 476.677,121.848 C478.075,122.009 478.845,121.29 478.957,120.311 C479.07,119.328 478.232,118.426 477.086,118.295" id="Fill-54" fill="#000000"/>
  <path d="M475.161,108.015 C474.64,107.837 473.573,111.816 478.639,114.687 C483.703,117.559 486.571,114.6 486.149,114.244 C485.728,113.889 475.684,108.194 475.161,108.015" id="Fill-55" fill="#000000"/>
  <path d="M502.881,98.052 C502.901,98.021 502.923,97.987 502.943,97.955 C510.545,86.03 517.019,69.313 506.681,59.745 C490.954,45.187 463.929,67.729 452.753,65.214 C451.844,67.343 458.466,80.474 474.197,90.202 C476.08,91.87 476.705,93.809 476.737,95.665 C476.737,95.683 476.736,95.699 476.736,95.716 C475.475,95.952 470.434,97.062 468.441,100.071 C466.93,102.349 467.927,109.043 470.835,108.078 C473.825,107.091 470.986,103.724 472.065,101.681 C473.398,99.157 475.408,99.293 476.13,99.439 C476.122,99.46 476.116,99.484 476.109,99.507 C475.662,100.954 475.121,102.104 475.04,102.662 C474.805,104.261 487.66,113.448 491.242,111.767 C491.73,111.538 492.449,110.98 493.329,110.148 C493.817,110.577 494.298,111.458 493.61,113.179 C492.865,115.048 489.059,115.144 490.219,117.704 C491.347,120.195 496.439,117.826 497.078,115.537 C497.882,112.667 496.305,108.857 495.737,107.628 C495.8,107.558 495.863,107.487 495.926,107.414 C497.545,105.564 499.38,103.222 501.219,100.556 C503.861,100.942 505.925,106.011 503.731,108.218 C502.244,109.712 498.911,108.489 498.756,111.29 C498.608,114.019 503.658,113.111 505.667,111.627 C511.585,107.256 505.585,99.344 502.881,98.052 Z M493.556,71.048 C493.771,68.59 498.12,67.753 497.984,70.899 C497.888,73.062 493.34,73.509 493.556,71.048 Z M489.221,71.48 C491.254,75.903 483.158,78.498 481.537,74.535 C479.175,68.773 487.19,67.056 489.221,71.48 Z M493.326,85.989 C480.346,88.069 472.065,74.317 477.054,71.942 C478.312,71.679 478.616,73.809 479.228,75.771 C478.916,76.03 477.958,76.923 478.472,77.521 C478.842,77.955 479.488,77.69 479.941,77.418 C481.098,78.751 482.362,79.754 483.681,80.46 C483.586,80.997 483.44,82.299 484.171,82.431 C484.753,82.534 485.117,81.759 485.303,81.178 C487.558,81.978 489.898,82.012 492.076,81.477 C492.21,81.959 492.61,83.099 493.326,82.905 C494.104,82.696 493.846,81.311 493.762,80.937 C495.503,80.245 497.086,79.19 498.367,77.877 C498.682,78.171 499.606,78.942 500.135,78.385 C500.731,77.751 499.66,76.665 499.515,76.524 C500.138,75.671 500.643,74.744 500.993,73.762 C501.412,73.849 502.393,73.968 502.558,73.253 C502.737,72.47 501.625,72.105 501.314,72.021 C501.401,70.345 501.122,68.724 502.284,68.856 C506.401,69.328 506.305,83.905 493.326,85.989 L493.326,85.989 Z" id="Fill-56" fill="#000000"/>
</svg>