<?xml version="1.0" encoding="utf-8"?>
<svg viewBox="0 0 77.9 76.7" xmlns="http://www.w3.org/2000/svg">
  <path d="M 39.365 43.407 C 33.928 43.407 29.539 39.018 29.539 33.58 C 29.539 28.156 33.928 23.755 39.365 23.755 C 44.791 23.755 49.192 28.156 49.192 33.58 C 49.192 39.018 44.791 43.407 39.365 43.407 Z M 32.49 33.101 C 33.222 33.301 33.952 32.888 34.152 32.144 C 34.724 30.044 36.534 28.501 38.7 28.236 C 39.459 28.129 39.964 27.465 39.884 26.72 C 39.777 25.99 39.113 25.458 38.369 25.537 C 35.111 25.937 32.424 28.277 31.534 31.441 C 31.346 32.171 31.771 32.902 32.49 33.101 Z M 77.731 40.075 C 76.235 41.212 74.029 37.091 73.206 38.393 C 72.387 39.692 76.954 51.407 73.803 50.845 C 70.648 50.286 70.903 47.201 68.916 48.288 C 66.934 49.376 73.34 65.293 68.784 66.482 C 64.23 67.675 64.191 62.587 61.534 63.506 C 58.876 64.43 60.331 73.658 57.969 73.078 C 55.603 72.5 55.339 69.213 53.521 69.623 C 51.7 70.036 49.657 75.623 48.23 75.377 C 46.801 75.133 47.459 71.002 45.992 70.855 C 44.634 70.717 42.358 76.812 40.522 76.652 C 38.709 76.959 35.962 71.063 34.616 71.304 C 33.164 71.567 34.145 75.633 32.742 75.992 C 31.337 76.347 28.86 70.942 27.015 70.672 C 25.169 70.407 25.161 73.705 22.851 74.468 C 20.545 75.234 21.265 65.915 18.541 65.207 C 15.816 64.497 16.182 69.576 11.551 68.75 C 6.917 67.92 12.042 51.547 9.978 50.621 C 7.914 49.693 8.412 52.749 5.311 53.555 C 2.213 54.362 5.84 42.326 4.92 41.093 C 3.999 39.861 2.124 44.141 0.542 43.128 C -1.037 42.114 5.161 29.667 4.266 27.182 C 3.371 24.697 -0.788 34.304 0.132 28.625 C 1.327 21.242 7.393 12.843 14.162 10.741 C 13.812 9.674 13.522 8.341 13.53 6.873 C 13.558 2.762 16.604 -0.1 17.73 0.003 C 18.858 0.106 17.084 4.221 17.901 7.103 C 18.113 7.856 18.549 8.7 19.072 9.531 C 28.224 7.797 33.777 7.637 37.785 7.386 C 41.874 7.13 48.455 7.035 57.051 9.251 C 57.164 8.471 57.205 7.728 57.136 7.094 C 56.811 4.113 53.618 0.972 54.624 0.452 C 55.627 -0.069 59.53 1.435 61.1 5.234 C 62 7.418 62.054 9.564 61.979 10.804 C 68.942 13.445 75.136 17.96 76.997 25.582 C 78.361 31.172 73.457 21.924 72.761 24.472 C 72.062 27.022 79.229 38.941 77.731 40.075 Z M 67.954 33.58 C 58.486 17.784 37.995 12.679 22.199 22.145 C 17.52 24.965 13.583 28.901 10.765 33.58 C 20.232 49.376 40.736 54.482 56.52 45.016 C 61.212 42.209 65.134 38.287 67.954 33.58 Z" style=""/>
</svg>