<?xml version="1.0" encoding="utf-8"?>
<svg viewBox="245.05 494.557 77.937 76.663" xmlns="http://www.w3.org/2000/svg">
  <path d="M293.54,543.906 C291.425,542.974 291.766,539.529 288.254,539.058 C286.27,538.79 285.225,539.39 284.712,539.894 C284.201,539.39 283.156,538.79 281.169,539.058 C277.66,539.529 277.999,542.974 275.886,543.906 C274.059,544.713 271.847,543.906 271.847,543.906 C271.847,543.906 274.023,548.194 278.497,547.758 C282.515,547.369 284.373,545.079 284.712,544.614 C285.05,545.079 286.908,547.369 290.929,547.758 C295.402,548.194 297.577,543.906 297.577,543.906 C297.577,543.906 295.365,544.713 293.54,543.906" id="Fill-10" fill="#000000"/>
  <path d="M317.811,519.029 C318.507,516.481 323.411,525.729 322.047,520.139 C320.186,512.517 313.992,508.002 307.029,505.361 C307.104,504.121 307.05,501.975 306.15,499.791 C304.58,495.992 300.677,494.488 299.674,495.009 C298.668,495.529 301.861,498.67 302.186,501.651 C302.255,502.285 302.214,503.028 302.101,503.808 C293.505,501.592 286.924,501.687 282.835,501.943 C278.827,502.194 273.274,502.354 264.122,504.088 C263.599,503.257 263.163,502.413 262.951,501.66 C262.134,498.778 263.908,494.663 262.78,494.56 C261.654,494.457 258.608,497.319 258.58,501.43 C258.572,502.898 258.862,504.231 259.212,505.298 C252.443,507.4 246.377,515.799 245.182,523.182 C244.262,528.861 248.421,519.254 249.316,521.739 C250.211,524.224 244.013,536.671 245.592,537.685 C247.174,538.698 249.049,534.418 249.97,535.65 C250.89,536.883 247.263,548.919 250.361,548.112 C253.462,547.306 252.964,544.25 255.028,545.178 C257.092,546.104 251.967,562.477 256.601,563.307 C261.232,564.133 260.866,559.054 263.591,559.764 C266.315,560.472 265.595,569.791 267.901,569.025 C270.211,568.262 270.219,564.964 272.065,565.229 C273.91,565.499 276.387,570.904 277.792,570.549 C279.195,570.19 278.214,566.124 279.666,565.861 C281.012,565.62 283.759,571.516 285.572,571.209 C287.408,571.369 289.684,565.274 291.042,565.412 C292.509,565.559 291.851,569.69 293.28,569.934 C294.707,570.18 296.75,564.593 298.571,564.18 C300.389,563.77 300.653,567.057 303.019,567.635 C305.381,568.215 303.926,558.987 306.584,558.063 C309.241,557.144 309.28,562.232 313.834,561.039 C318.39,559.85 311.984,543.933 313.966,542.845 C315.953,541.758 315.698,544.843 318.853,545.402 C322.004,545.964 317.437,534.249 318.256,532.95 C319.079,531.648 321.285,535.769 322.781,534.632 C324.279,533.498 317.112,521.579 317.811,519.029 Z M265.725,537.554 C265.321,509.026 301.693,512.177 302.117,537.043 C302.498,559.333 266.001,557.164 265.725,537.554 L265.725,537.554 Z" id="Fill-11" fill="#000000"/>
  <path d="M275.231,536.504 C276.716,536.545 277.614,535.597 277.765,534.039 C277.921,532.481 277.216,531.489 275.729,531.448 C274.248,531.409 273.353,532.355 273.196,533.914 C273.042,535.47 273.748,536.463 275.231,536.504 Z M276.304,534.052 C276.186,535.218 274.557,534.944 274.646,534.006 C274.769,532.784 276.421,532.887 276.304,534.052 L276.304,534.052 Z" id="Fill-12" fill="#000000"/>
  <path d="M284.701,536.099 C285.846,536.084 286.433,535.321 286.375,534.115 C286.314,532.905 285.654,532.164 284.506,532.179 C283.355,532.193 282.772,532.957 282.829,534.162 C282.891,535.368 283.55,536.113 284.701,536.099 Z M285.352,534.171 C285.399,535.113 284.047,534.948 284.006,534.187 C283.959,533.199 285.303,533.227 285.352,534.171 L285.352,534.171 Z" id="Fill-13" fill="#000000"/>
  <path d="M292.728,536.658 C294.213,536.643 294.986,535.665 294.934,534.106 C294.884,532.547 294.051,531.584 292.566,531.597 C291.079,531.611 290.308,532.59 290.36,534.146 C290.406,535.71 291.245,536.671 292.728,536.658 Z M293.478,534.173 C293.516,535.338 291.851,535.125 291.817,534.185 C291.782,532.963 293.441,533.006 293.478,534.173 L293.478,534.173 Z" id="Fill-14" fill="#000000"/>
</svg>