<?xml version="1.0" encoding="utf-8"?>
<svg viewBox="212.277 276.767 44.76 68.953" xmlns="http://www.w3.org/2000/svg">
  <path d="M239.525,294.659 C239.525,296.454 240.531,297.627 242.4,297.627 C244.27,297.627 245.273,296.454 245.273,294.659 C245.273,292.865 244.27,291.692 242.4,291.692 C240.531,291.692 239.525,292.865 239.525,294.659" id="Fill-178" fill="#000000"/>
  <path d="M228.24,294.659 C228.24,296.224 229.117,297.246 230.748,297.246 C232.377,297.246 233.253,296.224 233.253,294.659 C233.253,293.094 232.377,292.073 230.748,292.073 C229.117,292.073 228.24,293.094 228.24,294.659" id="Fill-179" fill="#000000"/>
  <path d="M255.705,321.523 C256.264,321.033 257.569,303.479 256.801,302.969 C256.031,302.454 251.625,302.595 251.183,303.154 C250.739,303.712 251.205,315.276 250.623,315.672 C250.04,316.068 239.527,316.629 238.851,315.719 C238.176,314.81 238.221,312.433 238.781,311.896 C239.34,311.358 246.683,311.732 247.266,311.29 C247.85,310.848 248.711,301.941 247.92,301.267 C247.127,300.59 224.701,300.543 224.072,299.727 C223.443,298.911 223.163,289.982 224.072,289.354 C224.981,288.725 247.545,289.844 248.176,289.075 C248.804,288.306 249.363,278.048 248.338,277.303 C247.312,276.557 214.234,276.651 213.395,277.209 C212.556,277.769 212.766,309.051 213.605,309.797 C214.445,310.544 222.416,310.706 222.884,311.452 C223.349,312.199 223.209,314.32 222.859,314.647 C222.511,314.973 213.395,314.298 212.673,314.856 C211.951,315.416 212.335,330.394 212.877,331.052 C213.427,331.72 217.51,331.734 218.069,331.175 C218.629,330.615 217.919,322.223 218.641,321.711 C219.363,321.196 221.881,321.243 222.23,321.711 C222.579,322.177 223.395,329.961 223.326,330.917 C223.256,331.873 223.723,338.261 223.209,338.611 C222.695,338.959 215.237,338.4 214.864,338.749 C214.491,339.1 213.699,344.53 214.234,345.09 C214.771,345.649 228.082,345.977 228.828,345.464 C229.573,344.95 228.99,333.365 229.48,332.735 C229.97,332.106 241.904,332.152 242.395,332.689 C242.884,333.225 242.837,344.135 243.676,344.881 C244.515,345.627 248.804,345.649 249.363,345.09 C249.924,344.53 249.807,329.168 249.363,328.423 C248.92,327.677 239.434,326.418 239.154,325.905 C238.874,325.393 238.828,322.363 239.317,322.036 C239.807,321.711 255.145,322.014 255.705,321.523" id="Fill-180" fill="#000000"/>
</svg>