<svg xmlns="http://www.w3.org/2000/svg" width="892.913" height="287.008"><path d="M317.542 243.24c0-5.594.773-13.105 1.54-20.995h-.388c-9.24 17.134-21.76 23.104-33.708 23.104-16.755 0-27.734-13.087-27.734-31.986 0-31.97 22.34-66.05 66.072-66.05 10.215 0 21.188 1.92 28.507 4.23l-9.82 48.926c-2.704 13.875-4.24 31.596-3.856 42.77h-20.612zm9.057-77.63c-2.316-.582-5.207-.97-9.25-.97-20.618 0-36.792 23.31-36.792 44.685 0 9.832 3.66 17.924 13.486 17.924 10.59 0 23.306-13.108 27.744-36.99l4.81-24.65zM359.736 260.004c5.398 3.26 15.795 5.575 24.655 5.575 14.64 0 25.814-6.936 30.43-28.705l2.324-10.58h-.384c-7.708 11.16-17.53 16.56-29.483 16.56-18.68 0-29.275-15.422-29.275-33.127-.192-31.41 22.346-62.418 61.26-62.418 12.136 0 23.887 2.684 32.556 6.54l-14.26 77.45c-3.47 18.292-8.667 32.93-19.26 41.79-9.827 8.092-22.934 10.402-34.68 10.402-12.13 0-23.31-2.497-29.468-6.348l5.586-17.14zm67.805-92.866c-2.506-1.152-7.318-2.304-12.52-2.304-19.656 0-33.51 21.188-33.51 41.41 0 9.822 3.847 19.076 15.012 19.076 11.18 0 22.356-13.293 25.62-30.24l5.4-27.942zM456.633 243.24l10.98-57.792c2.5-13.288 3.855-27.744 4.815-36.028h19.465c-.586 6.353-1.157 12.914-2.123 19.652h.582c6.353-12.52 16.563-21.76 29.275-21.76 1.74 0 3.478.187 5.02.187l-4.444 21.956c-1.157-.197-2.694-.197-4.23-.197-15.993 0-26.203 16.188-29.867 36.214l-7.117 37.767h-22.357zM523.488 243.24l17.913-93.82h22.347l-17.913 93.82h-22.346zm21.376-119.25c0-7.89 6.166-13.484 13.485-13.484 7.126 0 11.943 4.827 11.943 11.938-.192 8.29-6.36 13.49-14.062 13.49-6.736 0-11.366-4.81-11.366-11.943M574.145 243.24l14.45-76.488h-12.328l3.473-17.332h12.13l.96-4.812c2.124-11.954 6.75-23.69 15.61-31.59 6.737-5.964 15.992-8.668 24.66-8.668 6.55 0 11.165 1.152 13.87 2.49l-4.24 17.93c-2.503-1.153-5.586-1.74-9.06-1.74-10.775 0-16.557 9.827-18.68 21.776l-.774 4.614h19.455l-3.274 17.332H610.94l-14.45 76.49h-22.345zM633.352 243.24l17.902-93.82h22.35l-17.907 93.82h-22.345zm21.37-119.25c0-7.89 6.17-13.484 13.49-13.484 7.137 0 11.95 4.827 11.95 11.938-.203 8.29-6.354 13.49-14.073 13.49-6.733 0-11.368-4.81-11.368-11.943M677.465 243.24l10.978-57.792c2.497-13.288 3.852-27.744 4.817-36.028h19.455c-.58 6.353-1.158 12.914-2.118 19.652h.582c6.347-12.52 16.562-21.76 29.274-21.76 1.74 0 3.462.187 5.014.187l-4.433 21.956c-1.163-.197-2.7-.197-4.24-.197-15.993 0-26.198 16.188-29.862 36.214l-7.122 37.767h-22.345zM744.317 243.24l11.928-64.726c2.123-11.176 3.478-21.007 4.63-29.094h19.455l-2.118 16.377h.384c8.67-12.515 20.42-18.484 32.748-18.484 14.643 0 21.194 9.43 21.962 19.257 8.476-12.722 20.223-19.07 33.324-19.257 12.717 0 22.74 8.284 22.74 25.034 0 4.044-.78 10.984-1.552 15.993l-10.205 54.9H855.85l9.627-52.404c.77-3.654 1.345-8.092 1.345-11.75 0-8.094-3.27-13.476-11.368-13.476-10.402 0-21.764 12.904-25.424 32.742l-8.273 44.89h-21.78l10.215-53.164c.58-3.86 1.152-7.516 1.152-10.993 0-6.925-2.118-13.475-11.367-13.475-10.392 0-22.34 14.248-25.808 33.324l-8.094 44.307h-21.76zM27.153 94.434c4.677-18.925 14.26-38.208 28.123-56.64H3.546v69.28c.4-.29 9.094-6.203 23.607-12.64M181.04 196.494c9.396-19.854 7.086-39.77 5.747-45.652l-.078-.296-.183-.757-.212-.588c5.43-2.382 14.025-6.613 22.662-12.717v-98.69h-55.374c-31.113 25.195-48.2 51.48-54.08 71.465-4.154 14.103-3.443 26.446 2.096 35.7 2.77 4.657 7.416 8.28 13.795 10.886 9.68-23.924-2.398-34.928-10.77-39.475 0 0 11.16-15.99 38.01-28.584 14.935 7.174 22.58 16.615 27.678 26.903 25.58 51.574-44.12 128.172-44.47 128.55h83.114v-59.053c-12.02 7.407-22.802 10.932-27.936 12.307M27.66 146.59c-1.85-6.057-2.996-12.317-3.505-18.712-12.545 6.93-20.58 13.07-20.612 13.085V243.24c31.928-8.295 59.065-23.96 79.417-42.916-27.873-9.343-47.427-27.983-55.3-53.734" fill="#007c28"/><path d="M187.18 3.516h-84.645c-43.798 34.865-69.04 78.39-69.04 116.79 0 8.097 1.115 15.945 3.41 23.456 7.334 23.976 26.514 40.934 53.925 48.725 8.357-8.95 15.21-18.453 20.457-28.144-8.092-3.353-14.202-8.102-17.96-14.425-4.085-6.81-6.135-14.81-6.135-23.628 0-6.218 1.022-12.84 3.057-19.76 10.666-36.21 47.146-74.595 96.93-103.014m39.11 131.334c-13.972 13.174-30.785 21.058-38.415 24.214.44 6.613.16 15.873-2.585 25.89 10.246-3.762 27.116-11.927 41.022-28.033 0-2.122-.02-12.166-.02-22.07" fill="#fecc00"/></svg>