<svg xmlns="http://www.w3.org/2000/svg" width="258.666" height="258.666" viewBox="0 0 2694 2694" shape-rendering="geometricPrecision" text-rendering="geometricPrecision" image-rendering="optimizeQuality" fill-rule="evenodd" clip-rule="evenodd"><defs><style><![CDATA[
    .fil1 {fill:#0671B5}
    .fil2 {fill:#FDB92E}
    .fil0 {fill:#FEFEFE}
   ]]></style></defs><g id="Layer_x0020_1"><path class="fil0" d="M4 2687h2677V9H4z"/><path class="fil1" d="M153 1546c0 13 10 23 21 23 6 0 12-2 16-6l242-243 78 78-242 242c-31 31-58 43-96 43-72 0-130-58-130-130v-312c0-71 58-130 130-130 39 0 65 12 96 44l68 68-78 77-68-69c-4-3-10-6-16-6-12 0-21 11-21 23v299z"/><path class="fil1" d="M539 1546c0 13-10 23-21 23-6 0-12-2-16-6l-69-69-77 78 68 68c31 31 58 43 96 43 72 0 130-58 130-130v-312c0-71-58-130-130-130-39 0-65 12-96 44l-242 242 77 77 243-243c4-3 10-6 16-6 12 0 21 11 21 23v299z"/><path class="fil2" d="M202 1063h289v-39H202zM327 1011h39V910h-39zM346 903c13 0 25-11 25-25 0-13-12-25-25-25-14 0-25 12-25 25 0 14 11 25 25 25zM266 960c-1-1-2-2-2-4 0-4 3-8 8-8h43v-39h-44c-25 0-47 20-47 45 0 12 5 23 13 31l26 26h55l-50-51z"/><path class="fil2" d="M193 960c-1-1-2-2-2-4 0-4 3-8 8-8h13c1-15 11-33 29-39h-44c-25 0-46 20-46 45 0 12 5 23 13 31l26 26h55l-50-51zM427 960l-50 51h55l26-26c8-9 13-19 13-31 0-25-23-45-47-45h-44v39h43c4 0 8 3 8 8 0 2-1 3-2 4z"/><path class="fil2" d="M500 960l-50 51h55l26-26c8-9 13-19 13-31 0-25-21-45-46-45h-44c18 5 28 24 29 39h13c4 0 8 3 8 8 0 2-1 3-2 4z"/><path class="fil1" d="M1290 1135h104v191h2c26-44 69-57 107-57 110 0 142 69 142 165v240h-104v-221c0-64-18-95-66-95-57 0-80 31-80 111v205h-104v-539zM1126 1560l35 114h115l-191-539H970l-191 539h114l35-114h197zm-96-309l71 227H955l72-227h3zM2117 1674h101v-539h-101zM2540 1630h-1c-25 42-83 55-109 55-113 0-174-96-174-209 0-105 59-205 170-205 42 0 86 20 115 48h-1 2v-184h100v539h-100l-2-44zm-89-277c-69 0-92 61-92 125 0 61 27 125 92 125 70 0 94-62 94-126 0-63-27-124-94-124zM1880 1267c122 0 202 83 202 209s-79 209-202 209c-122 0-202-83-202-209s79-209 202-209zm0 339c77 0 101-65 101-130 0-64-24-130-101-130-78 0-101 65-101 130 0 64 23 130 101 130z"/></g></svg>