<svg xmlns="http://www.w3.org/2000/svg" width="63.46" height="35.296" viewBox="0 0 63.46 35.296"><path fill="#00588E" d="M0 0h17.647v35.296H0z"/><path fill="#FFF" d="M9.13 27.28h-.306v-.852h.307v.85zm1.384-3.752h-.307v-.85h.307v.85zm-5.68-1.467c-.024 0-.183.002-.183.034l.183.035c.246.04.342.165.514.165.156 0 .317-.106.254-.332l-.037-.004c-.024.1-.147.158-.28.158-.16 0-.195-.057-.45-.057zm-1.692.85c.027.04.316.414-.128.558l.004.038c.328.137.487-.115.487-.115.166.38-.09.588-.09.588.037.068.194.182.432.235.09-.048.218-.14.27-.283 0 0 .064.165.005.323.67.06.908-.475 1.424-.378l.022-.023c0-.33-.203-.935-.842-1.057-.638-.123-.466-.385-.466-.385.27-.013.425.104.425.104.05-.08-.02-.168-.02-.168.026-.03.04-.14.04-.14-.304 0-.383-.065-.383-.065-.046-.177.078-.43.528-.16.113-.098.104-.25.104-.25.034-.017.055-.07.055-.093 0-.075-.36-.275-.453-.3-.022-.11-.162-.266-.585-.21-.2.025-.344-.027-.277-.143l-.042-.006c-.046.046-.11.176.065.265.195.098.206.293.207.32.003.042-.046.046-.057.005-.09-.328-.537-.4-.803-.225.015.176.205.292.308.292.06 0 .142-.06.142-.142l.032-.004c.044.117-.128.357-.385.21-.26.26-.157.584-.13.703.046.214-.06.42-.25.324l-.02.014c0 .135.174.287.38.17zm1.44-1.317c-.122.137-.32.105-.368-.12.25-.012.358.013.368.12zm7.78.524c-.13 0-.254-.06-.277-.16l-.038.004c-.06.227.098.334.254.334.173 0 .27-.124.515-.166.11-.018.182 0 .182-.034l-.182-.033c-.256 0-.29.057-.452.057zm2.524.624l-.02-.013c-.19.096-.296-.11-.248-.323.026-.12.13-.44-.13-.703-.258.147-.43-.093-.386-.21l.032.004c0 .082.083.14.142.14.104 0 .293-.116.308-.29-.266-.176-.714-.105-.804.223-.012.04-.06.038-.058-.004.002-.028.013-.222.207-.32.174-.09.11-.22.064-.266l-.043.004c.068.118-.076.17-.276.144-.423-.057-.56.1-.585.21-.094.023-.453.224-.453.3 0 .022.02.075.055.09 0 0-.01.153.104.253.45-.272.574-.017.528.163 0 0-.08.065-.383.065 0 0 .015.11.04.14 0 0-.07.088-.02.17 0 0 .156-.12.425-.105 0 0 .17.262-.467.384-.64.123-.84.727-.84 1.057l.02.024c.517-.096.754.44 1.424.378-.058-.158.006-.323.006-.323.053.142.18.234.27.282.238-.053.395-.167.43-.235 0 0-.253-.21-.088-.587 0 0 .16.252.487.116l.003-.04c-.445-.142-.155-.518-.128-.556.21.117.384-.035.384-.17zm-1.452-1.266c-.048.224-.247.256-.368.12.01-.108.118-.133.368-.12zm-4.728-3.767c0 .056.024.106.044.135.04.056.033.087.014.105-.02.02-.05.025-.106-.014-.027-.02-.077-.043-.133-.043-.096 0-.144.064-.144.118 0 .054.05.118.145.118.056 0 .106-.024.133-.044.057-.04.088-.033.106-.014.018.02-.01.213-.03.365-.16.034-.238.163-.238.236 0 .192.206.303.327.367.12-.064.327-.176.327-.368 0-.076-.077-.204-.237-.237-.022-.153-.05-.347-.03-.365.017-.018.048-.025.104.014.028.02.077.044.133.044.097 0 .145-.064.145-.118 0-.053-.048-.118-.145-.118-.056 0-.105.024-.133.043-.056.04-.088.033-.105.014-.02-.018-.026-.05.014-.105.02-.028.043-.078.043-.135 0-.096-.065-.145-.12-.145s-.114.048-.114.145zm.117 1.432c-.13 0-.235.103-.235.234 0 .13.105.235.235.235s.235-.106.235-.236-.105-.235-.235-.235zm0 2.26c.94 0 1.472.18 1.472.18.005-.476.003-.742.274-.702-.15-.4.492-.557.492-1.077 0-.34-.243-.38-.314-.38-.213 0-.18.138-.36.138l-.047.01c0 .06.052.163.136.163.11 0 .114-.11.195-.11.038 0 .09.028.09.142 0 .22-.146.467-.318.657-.04-.055-.093-.09-.157-.09-.1 0-.19.106-.19.236l.026.124c-.057.032-.107.05-.145.05-.078 0-.194-.032-.194-.2 0-.38.506-.71.506-1.187 0-.228-.152-.456-.47-.456-.343 0-.278.312-.575.312l-.023.015c0 .02.05.192.204.192.166 0 .21-.283.356-.283.054 0 .135.033.135.223 0 .15-.073.39-.18.622-.038-.04-.09-.067-.148-.067-.127 0-.218.123-.218.27 0 .092.037.18.1.24-.075.096-.15.174-.254.174-.205 0-.295-.116-.295-.242 0-.136.25-.186.25-.4 0-.144-.095-.226-.186-.226-.098 0-.148.064-.158.064-.01 0-.06-.065-.158-.065-.09 0-.185.08-.185.225 0 .214.248.263.248.4 0 .126-.09.242-.295.242-.104 0-.18-.078-.254-.173.062-.06.098-.148.098-.24 0-.147-.09-.27-.218-.27-.06 0-.11.027-.15.065-.105-.232-.18-.473-.18-.623 0-.192.082-.223.136-.223.145 0 .19.283.354.283.153 0 .204-.172.204-.192L8.4 19.21c-.295 0-.23-.312-.573-.312-.318 0-.47.227-.47.456 0 .478.504.81.504 1.186 0 .17-.116.2-.193.2-.038 0-.09-.018-.146-.05l.027-.123c0-.13-.09-.236-.19-.236-.064 0-.118.035-.156.09-.17-.19-.316-.436-.316-.657 0-.114.053-.143.088-.143.083 0 .085.112.196.112.084 0 .135-.103.135-.162l-.046-.01c-.18 0-.147-.14-.36-.14-.073 0-.315.04-.315.382 0 .52.64.678.493 1.077.273-.04.27.224.274.7.002-.002.533-.18 1.473-.18zm-1.724.7c-.257.057-.44.11-.523.136.004-.113.047-.218.148-.24l.004-.03c-.23-.15-.352.14-.354.15-.08-.008-.203.017-.203.127 0 .327-.75.508-.922.535.306.118.433.503.433.503.22-.22.482-.416.538-.416.06 0 .082.074.087.118l.024.008c.117-.173.06-.212.052-.263-.008-.04.004-.193.173-.174v2.182l-.088.017c-.04.007-.358-.264-.724-.517-.365-.252-.56-.1-.978.123-.545.296-1.096.028-1.096.028-.47.336-.632 1.306-.632 1.306-.093.04-.248.083-.396.083-.358 0-.425-.218-.425-.347 0-.554.693-.792.693-1.338 0-.132-.06-.67-.728-.67l-.596-.002c-.25 0-.312-.18-.347-.248l-.03.01-.028.254c0 .22.13.354.373.354.11 0 .215-.03.248-.05l.024.02c-.106.123-.114.353-.07.41h.025c.06-.236.277-.457.574-.457.362 0 .36.31.36.383 0 .444-.78.77-.78 1.38 0 .62.654.754 1.033.656-.023.618-.733.83-.755.386l-.028.003c-.09.22-.054.41.22.472l-.007.026c-.274.175-.124.86-.11 1.06.02.29-.27.255-.293.247l-.005.024c.205.25.457.02.457.02.19.06.07.223-.056.308l.004.028c.028.002.324.027.377-.208.13.156.324.1.363.08.057-.03.333-.13.36.18l.024-.004c.21-.263-.014-.425-.14-.444.01-.014.178-.153.328.04l.02-.012c.02-.333-.252-.364-.43-.22-.007-.033-.065-.22.2-.214l.005-.023c-.205-.22-.375-.02-.413.027-.092.108-.32.065-.34.062.07-1.16 1.092-.75 1.233-1.313l.023-.008c.04.136.384.155.45-.115l-.012-.016c-.295.295-.96-.628-.053-1.378.776-.64 1.47-.283 1.734-.073.014.09-.04.122-.076.133l.004.023c.074.028.178.02.226-.05.167.116.024.263-.043.303l.005.025c.153.027.278-.13.285-.22l.026.015v.66c0 .937 1.082 1.067 2.27 1.863 1.186-.795 2.267-.925 2.267-1.864v-.66l.026-.014c.006.09.132.247.285.22l.005-.027c-.066-.04-.21-.188-.043-.304.05.068.153.078.226.05l.003-.023c-.034-.01-.09-.04-.075-.134.264-.212.96-.568 1.734.072.907.75.242 1.672-.054 1.377l-.01.017c.063.27.41.25.448.114l.023.01c.14.56 1.16.15 1.233 1.31-.02.004-.25.047-.34-.062-.04-.048-.21-.246-.416-.028l.006.023c.265-.007.206.18.198.215-.175-.145-.446-.115-.43.22l.022.01c.15-.193.318-.054.328-.04-.124.02-.348.182-.14.445l.024.004c.028-.31.304-.21.36-.18.04.02.234.077.364-.08.053.235.348.21.377.208l.003-.028c-.127-.085-.246-.248-.054-.307 0 0 .252.228.456-.022l-.005-.024c-.024.01-.312.043-.292-.247.014-.2.163-.885-.112-1.06l-.008-.025c.276-.062.312-.254.222-.473l-.028-.004c-.022.444-.732.233-.754-.387.378.097 1.033-.036 1.033-.656 0-.61-.78-.936-.78-1.38 0-.075-.003-.383.36-.383.295 0 .514.222.573.457h.026c.043-.055.035-.286-.07-.41l.023-.02c.034.02.138.05.248.05.243 0 .373-.132.373-.353l-.025-.256-.028-.01c-.036.068-.098.248-.347.248h-.596c-.667 0-.728.54-.728.672 0 .546.693.783.693 1.338 0 .13-.065.347-.425.347-.147 0-.302-.042-.395-.083 0 0-.16-.97-.63-1.306 0 0-.552.268-1.097-.028-.417-.225-.612-.377-.978-.123-.365.253-.684.524-.724.517l-.088-.017V22.55c.17-.017.18.134.174.174-.01.05-.065.09.05.263l.024-.008c.005-.044.027-.12.087-.12.057 0 .317.196.537.418 0 0 .128-.384.432-.503-.173-.026-.92-.208-.92-.535 0-.11-.124-.135-.205-.128-.004-.01-.126-.3-.354-.15l.004.03c.1.023.144.128.148.24-.218-.065-1.147-.326-2.247-.326-.534 0-1.027.062-1.418.132v.756h-.303v-.696l.002.003M5.067 29.85c-.08-.033-.135-.085-.135-.192v-.47C4.798 29.14 4.43 29 3.696 29c-.61 0-.8.137-.81.185l-.162.895s.247-.225 1.132-.168c1.065.067 2.17.696 2.17.026v-.393c-.837 0-.958.264-.958.303zm6.554-.304v.393c0 .67 1.104.04 2.17-.026.884-.058 1.13.17 1.13.17l-.16-.896c-.01-.048-.2-.186-.81-.186-.734 0-1.103.14-1.238.188v.47c0 .106-.054.16-.135.19 0-.037-.122-.302-.958-.302zm-2.8-.407c1.716 0 3.458.09 3.687.348l.025-.015v-.91c0-.265-1.797-.42-3.712-.42s-3.712.156-3.712.42v.91l.027.015c.23-.258 1.97-.348 3.686-.348zm-1.53-4.286l-.172-.044-.014.022-.2-.09h.18l.01-.02-.155-.15.2.074.012-.013-.133-.196.194.13.014-.01-.092-.228.178.17.015-.01-.05-.23.13.19.02-.005.003-.207.083.19.023-.002.065-.16.008.217-.03.006-.035.26c.26-.06.582-.503.83-.503.294 0 .4.345.946.17.138.203.185.38.238.624.21.198.505.132.505-.077 0-.282-.307-.336-.307-.63 0-.132.09-.32.343-.32l.44.056c.133 0 .16-.096.176-.136.012-.03.048-.02.044.003l.015.13c0 .185-.272.21-.304.186l-.014.013c.04.032.03.142-.017.214h-.015c-.028-.134-.185-.3-.323-.3-.05 0-.15.03-.15.146 0 .168.334.32.334.667 0 .36-.356.447-.715.357.013.342.522.545.534.3h.014c.075.105.04.185-.056.225.09.038.105.22.13.325.04.16.21.07.22.067l.008.01c-.065.168-.236.104-.236.104-.09.064.02.12.1.144l.003.015c-.06.022-.19.062-.25-.046-.046.11-.142.108-.178.108-.065 0-.11.066-.093.156l-.012.008c-.156-.104-.066-.226-.003-.256-.01-.008-.12-.052-.165.074H9.58c-.07-.18.08-.234.187-.19-.008-.025-.064-.113-.205-.085l-.007-.01c.023-.056.093-.14.22-.054.066.04.18-.018.19-.023-.228-.454-.672-.074-.77-.43l-.017.005c-.024.076-.218.08-.252-.068l.01-.006c.027.03.088.054.168-.06.053-.078.06-.18.06-.25 0-.275-.275-.74-.705-.74-.274 0-.565.106-.782.264l.202.048c-.02.205-.215.324-.396.274l.03-.234c-.03.01-.11.04-.152.098l-.012-.003c-.037-.132.073-.198.106-.216l-.003-.006c-.1-.004-.154.068-.17.093h-.006c-.012-.02-.03-.088.016-.136zm.602 1.58c-.078.093-.145.003-.248.003-.096 0-.112.08-.114.112l-.008.003c-.108-.148.013-.228.083-.24-.01-.01-.117-.082-.185.016l-.01-.004c-.004-.183.142-.196.237-.116.015-.07-.03-.116-.106-.12l-.007-.01c.033-.035.064-.05.095-.05.103 0 .116.128.182.128.1 0 .242-.135.255-.15-.004-.007-.1-.265-.08-.42l-.007-.005c-.048.027-.17.026-.17-.125l.01-.003c.054.073.14-.01.185-.06.047-.053.3-.42.635-.42.074 0 .17.04.247.095-.117.14 0 .275.085.26l.003.01c-.444.167-.642.234-.642.606 0 .196.066.303.18.278l.005.008c-.04.05-.088.065-.127.065-.09 0-.11-.05-.158-.05-.05 0-.217.097-.217.18 0 .03.02.072.078.11l-.002.006c-.038.006-.17.016-.2-.107zm1.17-3.616c-.14-.008-.23.023-.224.067.066.07.157.064.223-.066zm-.513.343c.1-.024.207-.013.22-.01l-.004.032c-.205.025-.215.12-.344.12-.087 0-.18-.088-.144-.215l.022-.002c.01.056.09.116.25.074zm-2.654 4.535c.136.173.266.01.444.01.087 0 .193.03.213.203h.017c.194-.264-.027-.414-.154-.432.027-.025.217-.142.336.03l.02-.005c0-.335-.25-.358-.433-.214-.034-.13.064-.216.19-.216l.013-.02c-.224-.24-.392.064-.43.112-.09.12-.41-.104-.538-.238 0 0 .283-.297.283-.568l-.002-.048.012-.007.105.026c.065 0 .187-.02.187-.25l-.015-.006c-.034.05-.07.06-.1.06-.227 0-.704-.763-1.267-.763-.146 0-.425.106-.566.258.068.04.08.122.074.183-.01.097-.088.145-.166.167v.02c.285.107.8.303.918.404.14.118.113.346.032.66-.078.3-.245.26-.305.248l-.006.012c.072.092.162.123.238.123.148 0 .203-.09.28-.09.128 0 .397.183.397.324 0 .08-.062.15-.14.2l.003.013c.057.006.31.027.358-.198zm6.217.193l.004-.01c-.08-.052-.14-.124-.14-.202 0-.14.27-.325.397-.325.076 0 .132.09.28.09.075 0 .165-.03.238-.122l-.006-.01c-.06.01-.228.05-.305-.25-.08-.314-.107-.54.033-.662.118-.1.634-.297.918-.405v-.02c-.077-.023-.154-.07-.165-.167-.007-.06.006-.143.074-.183-.142-.152-.42-.258-.567-.258-.563 0-1.04.763-1.268.763-.028 0-.066-.01-.1-.06l-.014.007c0 .23.123.25.188.25l.105-.027.01.007v.048c0 .272.282.567.282.567-.128.134-.45.358-.537.238-.038-.048-.206-.35-.43-.11l.013.02c.127 0 .226.085.192.215-.182-.145-.432-.12-.432.213l.02.006c.118-.172.308-.057.336-.032-.127.02-.348.17-.154.433h.016c.02-.173.126-.203.212-.203.178 0 .308.164.444-.01.046.23.298.21.36.198zM7.56 23.488c-.018.025-.077 0-.1-.012l-.004.004c.014.032.072.128.156.128.04 0 .094-.023.11-.048 0 0 .33.108.495.153-.064.084-.103.186-.112.298-.132-.08-.66-.364-.66-.364l-.164.224c-.026.037-.157-.06-.13-.096l.124-.17c-.04-.045-.14-.017-.17-.01l-.003-.008c.017-.034.08-.138.235-.09 0-.095-.14-.066-.178-.055l-.002-.005c.04-.04.153-.134.282-.058l.056-.078-.113-.118.07-.098.08.108.61-.836c.015-.02.137-.056.182-.066.005.047.01.172-.004.193l-.6.843.126.04-.07.1-.15-.07-.064.092zm2.14-.137c0 .078.048.19.15.157l.008.004c-.015.087-.168.164-.237.064-.062.13-.047.25.087.325v.02c-.08.057-.203.044-.26-.067-.11.083-.094.258-.028.318 0 0-.304.18-.58.052-.182-.088-.33-.2-.566-.18.033-.33.198-.418.5-.465.243-.04.273-.15.24-.235-.084-.022-.234.054-.234.054-.027-.044.013-.092.013-.092l-.023-.08c.17 0 .198-.037.198-.037.032-.174-.148-.194-.285-.098-.064-.057-.054-.132-.054-.132l-.032-.052c0-.04.2-.155.253-.168.014-.06.088-.14.3-.12.027-.057-.014-.264-.04-.32l.023-.013.198.225s.24-.126.252-.12c.01.007.045.275.045.275l.298.036v.027c-.06.01-.253.094-.285.146.112.166.06.41.06.478z"/><path d="M21.78 22.69c.212-.05.362-.18.362-.462v-3.076l-.394-.13v-.14c.394-.074.656-.087 1.25-.087.907 0 1.345.33 1.345.925 0 .475-.425.913-.913 1.007v.006c.656 0 1.088.363 1.088.945 0 .68-.638 1.212-1.607 1.212-.443 0-.793-.013-1.13-.08v-.12zm1.994-2.914c0-.4-.275-.644-.82-.644-.087 0-.174.006-.28.02v1.487c.682 0 1.1-.32 1.1-.864zm-.77 2.77c.508 0 .92-.337.92-.813 0-.525-.363-.794-1.05-.794h-.2v1.58c.125.02.212.026.33.026zM26.365 19.79c.675 0 1.082.45 1.082 1.168 0 .12 0 .245-.006.4h-1.843c0 .7.407 1.108.925 1.108.306 0 .644-.106.88-.27.014.032.026.1.026.164 0 .282-.412.544-1.075.544-.713 0-1.294-.557-1.294-1.432-.002-1.09.654-1.683 1.305-1.683zm.58 1.243c0-.613-.26-.906-.63-.906-.344 0-.706.412-.706.906h1.336zM27.947 22.702c.163-.063.332-.188.332-.337v-3.627l-.408-.17v-.138c.282-.08.576-.113.75-.113h.2l-.03.35v3.876l.35.094v.118c-.213.075-.413.106-.726.106-.15 0-.325-.012-.47-.055v-.103zM31.162 21.19v-.17c0-.675-.163-.82-.556-.82-.344 0-.676.144-.938.407-.013-.063-.02-.12-.02-.188 0-.4.295-.632 1.026-.632.632 0 1.007.32 1.007.838 0 .138-.018.45-.024.632l-.02 1.013c.045.114.14.232.25.32-.092.113-.26.237-.424.32-.118-.076-.213-.176-.287-.308-.175.17-.513.3-.845.3-.47 0-.794-.295-.794-.694 0-.55.6-1.018 1.626-1.018zm-.6 1.338c.194 0 .444-.076.6-.17v-.875c-.706 0-1.088.295-1.088.632 0 .25.17.413.488.413zM32.39 22.133c.28.263.55.395.88.395.35 0 .532-.17.532-.388 0-.22-.125-.356-.538-.532l-.312-.13c-.363-.157-.562-.42-.562-.776 0-.494.437-.92 1.087-.92.5 0 .7.15.7.388 0 .093-.012.175-.03.263-.2-.138-.476-.238-.714-.238-.4 0-.587.175-.587.387 0 .225.113.35.487.494l.338.13c.45.176.62.407.62.776 0 .482-.462.92-1.163.92-.55 0-.794-.175-.794-.513 0-.088.02-.187.056-.257zM35.01 21.102l.02-.83h-.345v-.207l.675-.67.206-.024-.025.563h.826l-.044.338h-.8l-.013.79c-.007.262-.007.5-.007.73 0 .508.15.683.38.683.182 0 .34-.063.463-.163l.063.025c-.026.37-.246.557-.677.557-.5 0-.744-.263-.744-.87 0-.3.014-.633.02-.92zM36.68 22.702c.17-.063.332-.188.332-.337V20.25l-.4-.168v-.13c.282-.082.57-.12.744-.12h.2l-.03.338v2.376l.35.094v.118c-.214.075-.407.106-.726.106-.144 0-.326-.013-.47-.056v-.106zm.263-3.8c0-.196.138-.37.356-.37.174 0 .324.13.324.337 0 .218-.15.387-.35.387-.187 0-.33-.15-.33-.356zM38.382 22.702c.163-.063.33-.188.33-.337V20.25l-.405-.168v-.138c.288-.08.57-.113.75-.113h.15v.34c.213-.214.562-.35.925-.35.52 0 .875.33.875.974v1.75l.326.095v.117c-.17.068-.388.106-.657.106-.13 0-.282-.013-.406-.056V22.7c.156-.067.225-.187.225-.412v-1.194c0-.612-.256-.845-.625-.845-.256 0-.507.087-.644.194v2.1l.35.094v.118c-.213.075-.413.106-.725.106-.15 0-.325-.013-.468-.056v-.104zM42.354 21.896v-.006c-.282-.113-.562-.438-.562-.87 0-.7.562-1.238 1.244-1.238.256 0 .57.106.676.206.113-.106.35-.2.55-.2.106 0 .206.02.27.038l-.044.413c-.2-.045-.425-.07-.67-.07v.007c.207.156.357.425.357.68 0 .726-.594 1.22-1.27 1.22-.137 0-.28-.03-.387-.074-.093.056-.2.188-.2.3 0 .188.156.288.4.288l.875-.005c.525-.006.82.237.82.7 0 .594-.657 1.094-1.525 1.094-.788 0-1.194-.32-1.194-.732 0-.332.256-.6.594-.694v-.007c-.23-.08-.368-.25-.368-.487-.002-.24.196-.483.434-.564zm.613 2.12c.594 0 .988-.294.988-.594 0-.244-.163-.382-.462-.382h-1.007c-.18.082-.32.288-.32.5 0 .257.276.476.8.476zm.656-3.14c0-.524-.294-.775-.626-.775-.356 0-.657.34-.657.883 0 .525.294.78.6.78.383.002.683-.274.683-.886zM46.226 19.795c.15 0 .33.02.43.043v-1.1l-.424-.17v-.138c.288-.08.594-.113.775-.113h.2l-.038.35v3.583c.043.125.118.256.237.362-.124.113-.263.2-.437.295-.125-.1-.238-.245-.3-.375-.2.206-.544.356-.8.356-.632 0-1.138-.525-1.138-1.357 0-1.122.68-1.735 1.494-1.735zm.438 2.488v-2.07c-.106-.037-.287-.068-.456-.068-.532 0-.93.42-.93 1.288 0 .682.356 1.05.75 1.05.235 0 .492-.08.636-.2zM47.978 22.702c.17-.063.33-.188.33-.337V20.25l-.4-.168v-.13c.283-.082.57-.12.745-.12h.2l-.03.338v2.376l.35.094v.118c-.214.075-.407.106-.726.106-.144 0-.326-.013-.47-.056v-.106zm.263-3.8c0-.196.14-.37.357-.37.175 0 .325.13.325.337 0 .218-.15.387-.35.387-.187 0-.33-.15-.33-.356zM50.93 19.79c.675 0 1.082.45 1.082 1.168 0 .12 0 .245-.006.4h-1.844c0 .7.406 1.108.925 1.108.306 0 .644-.106.88-.27.014.032.026.1.026.164 0 .282-.413.544-1.076.544-.713 0-1.294-.557-1.294-1.432 0-1.09.657-1.683 1.307-1.683zm.582 1.243c0-.613-.263-.906-.632-.906-.344 0-.706.412-.706.906h1.338zM52.514 22.702c.163-.063.33-.188.33-.337V20.25l-.405-.168v-.138c.287-.08.568-.113.75-.113h.15v.34c.212-.214.56-.35.924-.35.52 0 .875.33.875.974v1.75l.325.095v.117c-.17.068-.388.106-.657.106-.13 0-.282-.013-.406-.056V22.7c.156-.067.225-.187.225-.412v-1.194c0-.612-.256-.845-.625-.845-.256 0-.507.087-.644.194v2.1l.35.094v.118c-.213.075-.413.106-.725.106-.15 0-.326-.013-.47-.056v-.104zM55.917 22.133c.28.263.55.395.88.395.35 0 .533-.17.533-.388 0-.22-.125-.356-.538-.532l-.312-.13c-.363-.157-.562-.42-.562-.776 0-.494.437-.92 1.087-.92.5 0 .7.15.7.388 0 .093-.012.175-.03.263-.2-.138-.476-.238-.714-.238-.4 0-.586.175-.586.387 0 .225.113.35.487.494l.34.13c.45.176.618.407.618.776 0 .482-.462.92-1.163.92-.55 0-.794-.175-.794-.513 0-.088.02-.187.057-.257zM58.538 21.102l.02-.83h-.345v-.207l.675-.67.206-.024-.025.563h.824l-.044.337h-.8l-.013.788c-.006.263-.006.5-.006.732 0 .507.15.682.382.682.18 0 .338-.063.462-.163l.063.024c-.025.37-.245.557-.676.557-.5 0-.743-.262-.743-.87.002-.3.015-.63.02-.918z"/></svg>