<svg width="90" height="21" viewBox="0 0 90 21" xmlns="http://www.w3.org/2000/svg"><title>bolcom</title><g fill="none" fill-rule="evenodd"><path d="M0 6.75h4.193v3.35c.818-.3 1.637-.45 2.506-.45 1.686 0 3.067.55 4.09 1.55 1.074 1.05 1.636 2.4 1.636 4 0 1.3-.46 2.5-1.33 3.55-.92 1.15-2.352 1.75-4.295 1.75H0V6.75zm4.193 10.3c.563.1 1.023.15 1.432.15.818 0 1.432-.2 1.892-.55.46-.35.716-.85.716-1.5s-.205-1.15-.665-1.5c-.46-.35-1.074-.55-1.79-.55-.51 0-1.022.1-1.585.25v3.7zm8.796-1.8c0-1.45.51-2.75 1.533-3.85 1.022-1.15 2.66-1.7 4.858-1.75 2.302.05 3.938.65 4.96 1.8.973 1.1 1.484 2.35 1.433 3.75 0 1.5-.512 2.75-1.534 3.85-1.024 1.15-2.66 1.7-4.808 1.75-2.25-.05-3.938-.65-4.96-1.8-1.023-1.15-1.483-2.4-1.483-3.75zm4.192 0c0 .6.204 1.1.613 1.5.41.4.92.6 1.586.6.665 0 1.228-.2 1.586-.6.41-.4.614-.9.614-1.5s-.205-1.15-.614-1.5c-.41-.4-.92-.6-1.585-.6-.664 0-1.175.2-1.585.6-.41.35-.613.85-.613 1.5zm9.102-8.5h4.193V20.6h-4.193V6.75zm7.466 9.05c.716 0 1.278.25 1.74.7.46.45.715 1.05.715 1.8 0 .7-.256 1.3-.716 1.75-.462.5-1.024.75-1.74.75s-1.278-.25-1.74-.75c-.51-.45-.766-1.05-.766-1.75s.256-1.3.767-1.8c.462-.45 1.024-.65 1.74-.7zm12.068 4.35c-1.227.45-2.352.7-3.375.65-1.79 0-3.22-.55-4.346-1.55-1.125-1-1.688-2.3-1.688-3.95 0-1.4.46-2.7 1.43-3.8.972-1.15 2.455-1.75 4.5-1.8 1.177 0 2.302.2 3.427.55v3.6c-.92-.45-1.79-.65-2.66-.65-.766 0-1.33.2-1.79.6-.46.4-.715.9-.715 1.5 0 .65.256 1.1.767 1.45.46.4 1.073.6 1.89.6.717 0 1.587-.2 2.61-.65v3.45h-.052zm.716-4.9c0-1.45.51-2.75 1.534-3.85 1.023-1.15 2.66-1.7 4.858-1.75 2.3.05 3.938.65 4.96 1.8.972 1.1 1.483 2.35 1.432 3.75 0 1.5-.51 2.75-1.534 3.85-1.023 1.15-2.66 1.7-4.807 1.75-2.25-.05-3.937-.65-4.96-1.8-.972-1.15-1.483-2.4-1.483-3.75zm4.193 0c0 .6.205 1.1.614 1.5.41.4.92.6 1.586.6.665 0 1.227-.2 1.585-.6.41-.4.615-.9.615-1.5s-.205-1.15-.614-1.5c-.408-.4-.92-.6-1.584-.6-.665 0-1.176.2-1.585.6-.408.35-.613.85-.613 1.5zm9.307-5.35h4.193v1.4c.972-1.05 2.148-1.6 3.478-1.6 1.483 0 2.556.6 3.323 1.9 1.125-1.25 2.455-1.9 3.938-1.9 1.227 0 2.097.4 2.66 1.2.56.8.817 1.75.817 2.85v6.9H74.25v-6.2c0-.4-.102-.7-.307-.95-.204-.25-.51-.35-.87-.35-.664 0-1.226.4-1.738 1.1v6.35h-4.193v-6.05c0-.4-.102-.75-.307-1-.204-.25-.51-.35-.92-.35-.614 0-1.176.4-1.688 1.1v6.35h-4.193V9.9z" fill="#000"/><path d="M83.148 12.35c3.477 0 6.34-2.75 6.34-6.2 0-3.4-2.812-6.15-6.34-6.15-3.478 0-6.34 2.75-6.34 6.2.05 3.4 2.862 6.15 6.34 6.15z" fill="#36C"/><path d="M81.614 1.8c.05 0 .204.2.255.25.05.2-.256.25-.41.35-.51.3-.92.6-1.33 1-.357.35-.715.8-.97 1.25-.154.35-.308.9-.154 1.3.204.5 1.125.4 1.534.3.41-.1.818-.35 1.227-.6.41-.25.818-.55 1.074-.95.154-.2.257-.5.103-.75-.153-.25-.51-.25-.767-.25-.562 0-1.125.25-1.534.65-.153.15-.307.35-.358.55-.05.05-.153.4-.153.4v-.15c0-.05-.05.1-.05.1s0-.15-.052-.1c-.05.05 0 .1-.05.15-.052 0 0-.3 0-.3s-.103.25-.103.2c-.05-.1.102-.45.153-.55.103-.25.256-.5.46-.7.46-.45 1.126-.75 1.79-.55.563.15 1.023.55 1.023 1.2-.05.45-.306.85-.613 1.2-.715.7-1.84 1.2-2.863 1-.512-.1-1.023-.4-1.176-.9-.205-.45-.05-1.05.204-1.5.307-.65.87-1.2 1.38-1.65.103-.25 1.28-1.2 1.382-.95zm4.602 1.25c.562.05 1.125.35 1.38.9.205.45.154 1.05-.102 1.45-.562.95-1.738 1.55-2.863 1.3-.306-.1-.562-.2-.715-.5-.103-.2-.205-.35-.154-.6 0-.1.155-.45.257-.4.05.05-.102.1-.05.15.1-.05.152-.25.306-.25 0 .05-.103.1-.154.15 0 0 .255-.15.306-.15l-.05.05c0 .05 0 0 .05.05 0 0-.102.1-.102.15 0 0 .204-.1.153 0-.358.25-.665.85 0 1.05.358.1.87 0 1.228-.1.818-.25 1.84-1.25 1.687-2.15-.153-.9-1.432-.55-1.994-.3-.358.15-.665.35-.972.6-.153.15-.256.3-.41.45-.152.15-.152.1-.255 0-.254-.2-.152-.35.052-.55.205-.2.41-.35.614-.55.256-.2.614-.4.92-.5l.46-.15c.103-.1.256-.05.41-.1zm-3.477 3.4c.203.15.46.25.152.45-.256.2-.562.45-.818.65-.41.35-.767.75-1.023 1.25-.203.35-.46.9-.152 1.3.358.4 1.074.25 1.534.2.307-.05.613-.1.87-.2l.46-.15c.05-.05.306-.15.357-.15 0 .05-.205.1-.154.15.05-.05.256-.15.256-.1l-.052.05c.052.1.256-.15.256-.05l-.153.1c.05.05.102 0 .153 0 0 .05-.153.1-.204.15 0 .05.153-.05.153 0 0 0-.102.1-.05.1-.87.5-1.995.8-2.967.5-.716-.25-1.125-.75-1.023-1.5.102-.65.512-1.15.92-1.65.205-.25.46-.45.717-.7.102-.1.204-.2.358-.3.05-.05.153-.1.204-.1h.205z" fill="#FFF"/></g></svg>
