<svg xmlns="http://www.w3.org/2000/svg" width="513.333" height="204" viewBox="0 0 5347 2125" shape-rendering="geometricPrecision" text-rendering="geometricPrecision" image-rendering="optimizeQuality" fill-rule="evenodd" clip-rule="evenodd"><defs><style><![CDATA[
    .fil0 {fill:#215498;fill-rule:nonzero}
    .fil1 {fill:#9BCB52;fill-rule:nonzero}
   ]]></style></defs><g id="Layer_x0020_1"><path class="fil0" d="M1823 1271c-18 6-37 12-56 16-22 5-45 7-68 7-75 0-134-25-144-85h322c2-11 7-39 7-68 0-136-68-260-240-260-167 0-257 131-257 278 0 170 119 267 284 267 42 0 73-4 98-9 26-5 56-14 80-25l-26-120zm-183-269c64 0 83 58 83 90h-172c0-45 31-90 89-90zM4320 1271c-18 6-37 12-56 16-22 5-45 7-68 7-75 0-134-25-144-85h322c2-11 7-39 7-68 0-136-68-260-240-260-167 0-257 131-257 278 0 170 119 267 284 267 42 0 73-4 98-9 26-5 56-14 80-25l-26-120zm-183-269c64 0 83 58 83 90h-172c0-45 31-90 89-90zM1962 1414h174V707h-174zM2484 1425c136 0 274-86 274-277 0-114-68-267-265-267-204 0-278 148-278 276 0 160 111 268 269 268zm2-129c-57 0-94-56-94-143 0-69 25-143 94-143 67 0 91 76 91 142 0 87-36 143-92 143zM2834 1414h174V892h-174zM2834 843h174V707h-174zM3146 750v142h-67v129h67v214c0 118 54 189 176 189 23 0 49-2 73-6 22-3 42-7 50-10 0 0-1-136-1-137-6 2-45 9-60 9-14 0-35-2-50-17-11-11-18-29-18-57v-185h113V892h-113V731l-171 19zM3550 750v142h-67v129h67v214c0 118 54 189 176 189 23 0 49-2 73-6 22-3 42-7 50-10 0 0-1-136-1-137-6 2-45 9-60 9-14 0-35-2-50-17-11-11-18-29-18-57v-185h113V892h-113V731l-171 19z"/><path class="fil1" d="M4455 1329c0-53 43-96 96-96s97 43 97 96-43 97-97 97c-53 0-96-43-96-97z"/><path class="fil0" d="M964 1274c-7 1-18 1-25 1h-55V841c19-2 43-3 60-3 101 0 209 66 209 218 0 159-102 211-189 219zm-252 141h197c13 0 30 0 42-1 270-14 383-174 383-358 0-231-156-360-424-360-69 0-130 2-198 8v711z"/></g></svg>