<svg xmlns="http://www.w3.org/2000/svg" viewBox="0 0 242.5 242.5" height="242.5" width="242.5"><g fill-rule="evenodd"><path d="M.325 241.792H241.27V.846H.325v240.946z" fill="#fff"/><path d="M80.308 114.826h83.343v-14.58H80.31v14.58zM79.717 73.45c-6.108 0-11.23 4.926-11.23 11.034 0 6.107 5.122 11.23 11.23 11.23 6.108 0 11.034-5.123 11.034-11.23 0-6.108-4.925-11.034-11.033-11.034M107.3 73.056c-6.107 0-11.033 4.927-11.033 11.23 0 6.11 4.926 11.034 11.034 11.034 6.306 0 11.23-4.925 11.23-11.034 0-6.303-4.924-11.23-11.23-11.23M134.49 73.056c-6.108 0-11.033 4.927-11.033 11.23 0 6.11 4.926 11.034 11.034 11.034 6.11 0 11.23-4.925 11.23-11.034 0-6.303-5.12-11.23-11.23-11.23M162.863 73.056c-6.305 0-11.232 4.927-11.232 11.23 0 6.11 4.928 11.034 11.233 11.034 6.107 0 11.033-4.925 11.033-11.034 0-6.303-4.926-11.23-11.033-11.23M118.137 73.648h6.108v-21.28h-6.108v21.28zM31.643 127.83H10.955v54.773h20.688v-22.067l21.476 22.067h25.218l-28.766-31.327 23.446-23.446H51.345l-19.702 20.294V127.83M79.914 127.83h19.703v40.98h35.07v13.793H79.915V127.83M186.9 158.96l10.443-31.13h33.297v54.773h-19.703v-41.178l-14.186 41.178h-20.293l-13.594-41.178v41.178H142.57V127.83h33.888l10.442 31.13" fill="#5fc6ee"/><path d="M111.044 66.16h21.28v-6.108h-21.28v6.108z" fill="#5fc6ee"/></g></svg>