<svg xmlns="http://www.w3.org/2000/svg" width="257.333" height="257.333" viewBox="0 0 2681 2681" shape-rendering="geometricPrecision" text-rendering="geometricPrecision" image-rendering="optimizeQuality" fill-rule="evenodd" clip-rule="evenodd"><defs><style><![CDATA[
    .fil2 {fill:#5D3989}
    .fil1 {fill:#F9EC22}
    .fil0 {fill:#FEFEFE}
   ]]></style></defs><g id="Layer_x0020_1"><path class="fil0" d="M0 2681h2677V3H0z"/><path class="fil1" d="M118 732h1221v291h-78v42l78 32v63c35-92 116-148 225-148 148 0 245 103 245 260s-96 260-245 260c-115 0-199-62-231-162-10 61-45 95-105 95-68 0-107-45-107-130v-240l71-29v-42H939v42l71 29v245c0 133 68 194 207 194 51 0 92-9 121-25v443H117V732z"/><path class="fil2" d="M1339 1509c-29 16-70 25-121 25-139 0-207-61-207-194v-245l-71-29v-42h253v42l-71 29v240c0 85 39 130 107 130 60 0 96-34 105-95 32 100 116 162 231 162 148 0 245-103 245-260s-96-260-245-260c-109 0-190 56-225 148v-63l-78-32v-42h78V732h1220v1220H1340v-443z"/><path class="fil2" d="M1431 1273c0-120 52-198 133-198s133 78 133 198-52 198-133 198-133-78-133-198z"/><path class="fil1" d="M2092 1521v-38l-71-28v-298l281 368h53v-432l71-27v-39h-209v39l71 27v254l-247-320h-158v36l71 29v363l-71 28v38z"/><path class="fil2" d="M904 1023v43l-81 33v591h-48l-373-500v415l80 33v43H244v-43l81-33v-506l-81-33v-43h176l326 431v-355l-81-33v-43z"/></g></svg>