<svg xmlns="http://www.w3.org/2000/svg" width="312" height="377.33" viewBox="0 0 3250 3931" shape-rendering="geometricPrecision" text-rendering="geometricPrecision" image-rendering="optimizeQuality" fill-rule="evenodd" clip-rule="evenodd">
  <defs>
    <style>
<![CDATA[
    .fil26 {fill:none;fill-rule:nonzero}
    .fil140 {fill:#A93235}
    .fil142 {fill:#B83032}
    .fil139 {fill:#C52F33}
    .fil137 {fill:#CA373C}
    .fil138 {fill:#CC563C}
    .fil141 {fill:#CD683C}
    .fil136 {fill:#FEFEFE}
    .fil177 {fill:#363B82;fill-rule:nonzero}
    .fil176 {fill:#363C83;fill-rule:nonzero}
    .fil175 {fill:#363C84;fill-rule:nonzero}
    .fil174 {fill:#363C85;fill-rule:nonzero}
    .fil173 {fill:#373D86;fill-rule:nonzero}
    .fil172 {fill:#373D87;fill-rule:nonzero}
    .fil171 {fill:#373E88;fill-rule:nonzero}
    .fil170 {fill:#383E89;fill-rule:nonzero}
    .fil169 {fill:#383E8A;fill-rule:nonzero}
    .fil168 {fill:#383F8B;fill-rule:nonzero}
    .fil167 {fill:#383F8C;fill-rule:nonzero}
    .fil166 {fill:#38408E;fill-rule:nonzero}
    .fil165 {fill:#39408F;fill-rule:nonzero}
    .fil164 {fill:#394190;fill-rule:nonzero}
    .fil163 {fill:#394191;fill-rule:nonzero}
    .fil162 {fill:#394192;fill-rule:nonzero}
    .fil161 {fill:#3A4293;fill-rule:nonzero}
    .fil160 {fill:#3A4294;fill-rule:nonzero}
    .fil159 {fill:#3A4395;fill-rule:nonzero}
    .fil158 {fill:#3A4396;fill-rule:nonzero}
    .fil0 {fill:#3B4498;fill-rule:nonzero}
    .fil144 {fill:#6A3D4B;fill-rule:nonzero}
    .fil143 {fill:#6A3E4B;fill-rule:nonzero}
    .fil154 {fill:#6B3E4B;fill-rule:nonzero}
    .fil156 {fill:#6D3E4B;fill-rule:nonzero}
    .fil155 {fill:#6D3F4B;fill-rule:nonzero}
    .fil69 {fill:#7A4244;fill-rule:nonzero}
    .fil70 {fill:#7B4144;fill-rule:nonzero}
    .fil68 {fill:#7C4244;fill-rule:nonzero}
    .fil67 {fill:#7E4244;fill-rule:nonzero}
    .fil66 {fill:#7E4344;fill-rule:nonzero}
    .fil65 {fill:#804344;fill-rule:nonzero}
    .fil64 {fill:#814344;fill-rule:nonzero}
    .fil63 {fill:#814444;fill-rule:nonzero}
    .fil62 {fill:#834444;fill-rule:nonzero}
    .fil61 {fill:#844444;fill-rule:nonzero}
    .fil60 {fill:#844544;fill-rule:nonzero}
    .fil146 {fill:#853642;fill-rule:nonzero}
    .fil59 {fill:#864544;fill-rule:nonzero}
    .fil58 {fill:#874544;fill-rule:nonzero}
    .fil57 {fill:#874744;fill-rule:nonzero}
    .fil56 {fill:#894744;fill-rule:nonzero}
    .fil55 {fill:#8B4743;fill-rule:nonzero}
    .fil54 {fill:#8C4843;fill-rule:nonzero}
    .fil53 {fill:#8E4843;fill-rule:nonzero}
    .fil52 {fill:#8E4943;fill-rule:nonzero}
    .fil51 {fill:#8F4943;fill-rule:nonzero}
    .fil152 {fill:#913A48;fill-rule:nonzero}
    .fil153 {fill:#91464A;fill-rule:nonzero}
    .fil50 {fill:#914943;fill-rule:nonzero}
    .fil49 {fill:#924A43;fill-rule:nonzero}
    .fil48 {fill:#944A43;fill-rule:nonzero}
    .fil47 {fill:#944C43;fill-rule:nonzero}
    .fil46 {fill:#954C43;fill-rule:nonzero}
    .fil45 {fill:#974C43;fill-rule:nonzero}
    .fil44 {fill:#974D43;fill-rule:nonzero}
    .fil43 {fill:#984D43;fill-rule:nonzero}
    .fil42 {fill:#9A4D42;fill-rule:nonzero}
    .fil41 {fill:#9A4F43;fill-rule:nonzero}
    .fil40 {fill:#9C4F42;fill-rule:nonzero}
    .fil39 {fill:#9E4F42;fill-rule:nonzero}
    .fil38 {fill:#9E5142;fill-rule:nonzero}
    .fil37 {fill:#9F5142;fill-rule:nonzero}
    .fil151 {fill:#9F8795;fill-rule:nonzero}
    .fil36 {fill:#A15142;fill-rule:nonzero}
    .fil145 {fill:#A2564B;fill-rule:nonzero}
    .fil150 {fill:#A2574B;fill-rule:nonzero}
    .fil149 {fill:#A2574C;fill-rule:nonzero}
    .fil148 {fill:#A2594C;fill-rule:nonzero}
    .fil147 {fill:#A2594D;fill-rule:nonzero}
    .fil35 {fill:#A35242;fill-rule:nonzero}
    .fil34 {fill:#A45242;fill-rule:nonzero}
    .fil33 {fill:#A45442;fill-rule:nonzero}
    .fil32 {fill:#A65442;fill-rule:nonzero}
    .fil31 {fill:#A75441;fill-rule:nonzero}
    .fil30 {fill:#A95541;fill-rule:nonzero}
    .fil29 {fill:#AB5541;fill-rule:nonzero}
    .fil28 {fill:#AB5741;fill-rule:nonzero}
    .fil27 {fill:#AD5741;fill-rule:nonzero}
    .fil25 {fill:#AF5741;fill-rule:nonzero}
    .fil24 {fill:#AF5841;fill-rule:nonzero}
    .fil23 {fill:#B05840;fill-rule:nonzero}
    .fil22 {fill:#B25A40;fill-rule:nonzero}
    .fil21 {fill:#B45A40;fill-rule:nonzero}
    .fil20 {fill:#B65B40;fill-rule:nonzero}
    .fil19 {fill:#B65C40;fill-rule:nonzero}
    .fil18 {fill:#B75C40;fill-rule:nonzero}
    .fil17 {fill:#B95E3F;fill-rule:nonzero}
    .fil16 {fill:#BA5E3F;fill-rule:nonzero}
    .fil15 {fill:#BD5E3F;fill-rule:nonzero}
    .fil14 {fill:#BD603F;fill-rule:nonzero}
    .fil13 {fill:#BF603F;fill-rule:nonzero}
    .fil12 {fill:#C0603E;fill-rule:nonzero}
    .fil11 {fill:#C0623E;fill-rule:nonzero}
    .fil10 {fill:#C2623E;fill-rule:nonzero}
    .fil9 {fill:#C4623E;fill-rule:nonzero}
    .fil8 {fill:#C4643E;fill-rule:nonzero}
    .fil7 {fill:#C6643D;fill-rule:nonzero}
    .fil6 {fill:#C7643D;fill-rule:nonzero}
    .fil5 {fill:#C7653D;fill-rule:nonzero}
    .fil4 {fill:#C9663D;fill-rule:nonzero}
    .fil3 {fill:#CB683D;fill-rule:nonzero}
    .fil2 {fill:#CD683C;fill-rule:nonzero}
    .fil1 {fill:#CD693C;fill-rule:nonzero}
    .fil71 {fill:#F47D35;fill-rule:nonzero}
    .fil135 {fill:#F47F36;fill-rule:nonzero}
    .fil134 {fill:#F48135;fill-rule:nonzero}
    .fil133 {fill:#F48136;fill-rule:nonzero}
    .fil132 {fill:#F58336;fill-rule:nonzero}
    .fil131 {fill:#F58337;fill-rule:nonzero}
    .fil130 {fill:#F58437;fill-rule:nonzero}
    .fil129 {fill:#F58638;fill-rule:nonzero}
    .fil128 {fill:#F5883A;fill-rule:nonzero}
    .fil127 {fill:#F5893A;fill-rule:nonzero}
    .fil126 {fill:#F68B3B;fill-rule:nonzero}
    .fil125 {fill:#F68D3B;fill-rule:nonzero}
    .fil124 {fill:#F68D3D;fill-rule:nonzero}
    .fil123 {fill:#F68F3D;fill-rule:nonzero}
    .fil122 {fill:#F68F3E;fill-rule:nonzero}
    .fil121 {fill:#F6903E;fill-rule:nonzero}
    .fil120 {fill:#F79240;fill-rule:nonzero}
    .fil119 {fill:#F79341;fill-rule:nonzero}
    .fil118 {fill:#F79541;fill-rule:nonzero}
    .fil117 {fill:#F79543;fill-rule:nonzero}
    .fil116 {fill:#F79743;fill-rule:nonzero}
    .fil115 {fill:#F79745;fill-rule:nonzero}
    .fil114 {fill:#F79945;fill-rule:nonzero}
    .fil113 {fill:#F89B45;fill-rule:nonzero}
    .fil112 {fill:#F89B46;fill-rule:nonzero}
    .fil111 {fill:#F89C46;fill-rule:nonzero}
    .fil110 {fill:#F89C48;fill-rule:nonzero}
    .fil109 {fill:#F89E48;fill-rule:nonzero}
    .fil108 {fill:#F8A04A;fill-rule:nonzero}
    .fil107 {fill:#F9A24C;fill-rule:nonzero}
    .fil106 {fill:#F9A34C;fill-rule:nonzero}
    .fil105 {fill:#F9A34D;fill-rule:nonzero}
    .fil104 {fill:#F9A54D;fill-rule:nonzero}
    .fil103 {fill:#F9A550;fill-rule:nonzero}
    .fil102 {fill:#F9A750;fill-rule:nonzero}
    .fil101 {fill:#FAA950;fill-rule:nonzero}
    .fil100 {fill:#FAA951;fill-rule:nonzero}
    .fil99 {fill:#FAAB54;fill-rule:nonzero}
    .fil98 {fill:#FAAC54;fill-rule:nonzero}
    .fil97 {fill:#FAAF57;fill-rule:nonzero}
    .fil96 {fill:#FBB057;fill-rule:nonzero}
    .fil95 {fill:#FBB058;fill-rule:nonzero}
    .fil94 {fill:#FBB258;fill-rule:nonzero}
    .fil93 {fill:#FBB25B;fill-rule:nonzero}
    .fil92 {fill:#FBB45B;fill-rule:nonzero}
    .fil157 {fill:#FBB45F;fill-rule:nonzero}
    .fil91 {fill:#FBB65D;fill-rule:nonzero}
    .fil90 {fill:#FCB75F;fill-rule:nonzero}
    .fil89 {fill:#FCBA61;fill-rule:nonzero}
    .fil88 {fill:#FCBB61;fill-rule:nonzero}
    .fil87 {fill:#FCBB63;fill-rule:nonzero}
    .fil86 {fill:#FCBD64;fill-rule:nonzero}
    .fil85 {fill:#FCBD65;fill-rule:nonzero}
    .fil84 {fill:#FDBF66;fill-rule:nonzero}
    .fil83 {fill:#FDC168;fill-rule:nonzero}
    .fil82 {fill:#FDC369;fill-rule:nonzero}
    .fil81 {fill:#FDC56A;fill-rule:nonzero}
    .fil80 {fill:#FDC56D;fill-rule:nonzero}
    .fil79 {fill:#FEC76D;fill-rule:nonzero}
    .fil78 {fill:#FEC870;fill-rule:nonzero}
    .fil77 {fill:#FECB70;fill-rule:nonzero}
    .fil76 {fill:#FECB72;fill-rule:nonzero}
    .fil75 {fill:#FECC72;fill-rule:nonzero}
    .fil74 {fill:#FECC74;fill-rule:nonzero}
    .fil73 {fill:#FFCE74;fill-rule:nonzero}
    .fil72 {fill:#FFD176;fill-rule:nonzero}
   ]]>
    </style>
  </defs>
  <g id="Layer_x0020_1">
    <path class="fil0" d="M1515 3710c8-41 16-120-55-120-47 0-92 32-111 145-12 69 1 124 56 124 40 0 89-33 110-148zm1743-191h-120l-139 147h-2l56-326h-101l-101 581h102l10-58 21-127c54 0 84 6 108 113l16 72h104s-26-110-43-153c-18-45-37-75-79-83l167-166zm-2018 237c16-148 83-240 241-240 118 0 157 90 141 187-25 155-85 227-236 227-98 0-156-80-146-174zm-213-162c53 0 75 36 62 127-13 93-59 135-115 135-35 0-55-24-48-62l19-120c7-44 34-79 81-79h1zm-43 334c123 0 193-89 212-204 24-141-44-206-131-206-41 0-70 4-93 16l33-195H903l-101 582h77s11-24 22-24c7 0 25 31 83 31zm1304-190c-16 117-32 129-88 129-39 0-53-26-46-61 9-47 45-68 135-68zm122-104c15-86-31-115-124-115-115 0-166 55-166 55l36 60s37-44 112-44c42 0 42 21 38 44l-8 51c-149-4-225 28-242 126-14 80 46 119 113 119 35 0 63-5 97-35 7 19 18 29 32 32 21 4 59-1 70-9-1-12 0-42 13-113l30-170zM655 3738c-17 117-32 129-88 129-38 0-53-26-46-61 9-47 45-68 135-68zm122-104c15-86-31-115-124-115-115 0-166 55-166 55l36 60s37-44 112-44c42 0 42 21 38 44l-8 51c-149-4-225 28-242 126-14 80 46 119 113 119 35 0 63-5 97-35 7 19 19 29 32 32 21 4 58-1 70-9-1-12 0-42 13-113l30-170zm-465-107c-9 50-48 86-96 86h-61l31-179h55c65 0 78 43 70 94zm-21 135c75-16 114-77 124-116 27-108-21-193-159-191H98l-99 567h103l41-228c95-3 106 21 124 131l16 97h107c-13-58-21-114-31-158-11-47-28-83-73-100l5-1zm2535-12c16-88-17-131-112-131-71 0-99 31-126 58l3-49-95 1-7 73-55 321h104l33-208c12-72 61-127 108-127 52 0 51 30 43 75l-45 260h103l47-272zm-1086 248c7 0 25 31 83 31 123 0 193-89 212-204 24-141-44-206-131-206-41 0-71 4-93 16l33-195h-102l-101 582h77s11-24 23-24h-1zm188-176c-14 88-60 135-114 135-35 0-55-24-49-62l19-120c7-44 34-79 81-79 53 0 77 36 62 127z"/>
    <path class="fil1" d="M543 2192v-9 9zM551 2277v-177c-5 27-8 55-8 84v9c0 28 3 56 8 85z"/>
    <path class="fil2" d="M560 2314v-249c-3 11-6 23-8 35v177c2 12 5 25 8 37zM568 2342v-173-17-113c-3 9-6 17-8 26v249c3 9 5 19 8 28zM576 2366v-131c-5-22-7-44-8-66v173c3 8 5 16 8 23zm0-294v-54c-3 7-6 14-8 22v98c1-22 4-44 8-66zM585 2386v-119c-3-11-6-22-8-32v131c3 7 5 14 8 20zm0-347v-40c-3 6-6 12-8 19v54c2-11 5-22 8-33z"/>
    <path class="fil3" d="M593 2404v-113c-3-8-6-17-8-25v119c3 6 5 12 8 18zm0-391v-32l-6 12c-1 2-2 3-2 5v40c3-8 5-17 8-25zM602 2421v-108c-3-7-6-14-8-21v113c3 6 5 11 8 17zm0-429v-26c-3 5-6 10-8 15v32c3-7 5-14 8-21zM610 2436v-105c-3-6-6-12-8-18v108c3 5 5 10 8 15zm0-462v-21c-3 5-6 9-8 14v26c3-6 5-12 8-19zM618 2450v-103c-3-5-6-11-8-16v105c3 5 5 9 8 14zm0-493v-18c-3 4-6 9-8 13v21c1-2 2-3 3-5l3-6c0-1 1-1 1-2l2-4z"/>
    <path class="fil4" d="M627 2464v-101c-3-5-6-10-8-15v103c3 4 6 9 8 13zm0-522v-15c-3 4-6 8-8 12v18l1-1c0-1 1-1 1-2l3-6c0-1 1-1 1-2 1-1 1-2 2-4l1-1z"/>
    <path class="fil4" d="M635 2476v-100c-3-5-6-9-8-14v101c3 4 6 8 8 12zm0-548v-13c-3 4-6 8-8 12v15l1-2c0-1 1-2 1-2 2-3 4-7 6-10zM643 2488v-99c-3-4-6-9-8-13v100c3 4 6 8 8 12zm0-573v-11c-3 4-6 7-8 11v13c3-4 6-9 8-13zM652 2499v-98c-3-4-6-8-8-12v99c3 4 6 7 8 11zm0-597v-9c-3 3-6 7-8 10v11c3-4 6-8 8-12zM660 2509v-97c-3-4-6-8-8-12v98c3 4 6 7 8 11zm0-619v-7c-3 3-6 7-8 10v9l2-3c2-3 4-6 7-9z"/>
    <path class="fil4" d="M668 2519v-96c-3-4-6-7-8-11v97c3 3 6 7 8 10zm0-640v-6c-3 3-6 6-8 10v7c3-4 6-7 8-11z"/>
    <path class="fil5" d="M677 2529v-95c-3-3-6-7-8-10v96c3 3 6 6 8 10zm0-660v-4c-3 3-6 6-8 9v6c3-4 6-7 8-11zM685 2538v-94c-3-3-6-7-8-10v95c3 3 6 6 8 9zm0-679v-3c-3 3-6 6-8 9v4c3-3 6-7 8-10z"/>
    <path class="fil6" d="M694 2547v-93c-3-3-6-6-8-10v94c3 3 6 6 8 9zm0-698v-2c-3 3-6 6-8 9v3c3-3 6-6 8-10zM702 2556v-92c-3-3-6-6-8-9v93l8 8zm0-716v-1l-8 8v2c3-3 6-6 8-9z"/>
    <path class="fil7" d="M710 2564v-92c-3-3-6-6-8-9v92l1 1 7 7zm0-733v-1l-8 8v1c3-3 6-6 8-9zM719 2572v-91c-3-3-6-6-8-9v92c3 3 6 5 8 8zm0-749c-3 3-6 5-8 8v1c3-3 6-6 8-9z"/>
    <path class="fil7" d="M727 2579v-90l-2-2-7-7v91c3 3 6 5 8 8zm-8-757l1-1-1 1zM735 2587v-90c-3-3-6-5-8-8v90c3 3 6 5 8 8zM744 2594v-89c-3-3-6-5-8-8v90c3 2 6 5 8 7zM752 2601v-89c-3-3-6-5-8-8v89c3 2 6 5 8 7z"/>
    <path class="fil8" d="M761 2608v-89c-3-2-6-5-8-7v89c3 2 6 5 8 7zM769 2615v-88c-3-2-6-5-8-7v89c3 2 6 5 8 7zM777 2622v-88c-3-2-6-5-8-7v88c3 2 6 4 8 7zM786 2628v-88c-3-2-6-5-8-7v88c3 2 6 4 8 6z"/>
    <path class="fil9" d="M794 2634v-87c-3-2-6-4-8-7v88c3 2 6 4 8 6zM802 2641v-87c-3-2-6-4-8-6v87c3 2 6 4 8 6z"/>
    <path class="fil10" d="M811 2647v-87c-3-2-6-4-8-6v87c3 2 6 4 8 6zM819 2652v-87c-3-2-6-4-8-6v87c3 2 6 4 8 6zM828 2658v-87c-3-2-6-4-8-6v87c3 2 6 4 8 6zM836 2664v-86c-3-2-6-4-8-6v87c3 2 6 4 8 6z"/>
    <path class="fil11" d="M844 2669v-86c-3-2-6-4-8-6v86c3 2 6 4 8 5zM853 2675v-86c-3-2-6-4-8-6v86c3 2 6 4 8 5z"/>
    <path class="fil12" d="M861 2680v-86c-3-2-6-4-8-5v86c3 2 6 4 8 5zM869 2685v-86c-3-2-6-4-8-5v86c3 2 6 3 8 5zM878 2690v-85c-3-2-6-3-8-5v86c3 2 6 3 8 5zM886 2695v-85c-3-2-6-3-8-5v85c3 2 6 3 8 5z"/>
    <path class="fil13" d="M895 2700v-85c-3-2-6-3-8-5v85c3 2 6 3 8 5zM903 2704v-85c-3-2-6-3-8-5v85c3 2 6 3 8 5zM911 2709v-85c-3-2-6-3-8-5v85c3 2 6 3 8 5zM920 2713v-85c-3-2-6-3-8-5v85c3 2 6 3 8 4z"/>
    <path class="fil14" d="M928 2718v-85c-3-2-6-3-8-5v85c3 1 6 3 8 4zM936 2722v-84c-3-1-6-3-8-4v85c3 1 6 3 8 4zM945 2726v-84c-3-1-6-3-8-4v84c3 1 6 3 8 4zM953 2730v-84c-3-1-6-3-8-4v84c3 1 6 3 8 4z"/>
    <path class="fil15" d="M962 2734v-84c-3-1-6-3-8-4v84c3 1 6 3 8 4zM970 2738v-84c-3-1-6-3-8-4v84c3 1 6 3 8 4z"/>
    <path class="fil16" d="M978 2742v-84c-3-1-6-3-8-4v84c3 1 6 3 8 4zM987 2746v-84c-3-1-6-3-8-4v84c3 1 6 3 8 4zM995 2750v-84c-3-1-6-3-8-4v84c3 1 6 2 8 4zM1003 2753v-83c-3-1-6-2-8-4v84c3 1 6 2 8 4z"/>
    <path class="fil17" d="M1012 2757v-83c-3-1-6-2-8-4v83c3 1 6 2 8 4zM1020 2760v-83c-3-1-6-2-8-4v83c3 1 6 2 8 3zM1029 2764v-83c-3-1-6-2-8-3v83c3 1 6 2 8 3zM1037 2767v-83c-3-1-6-2-8-3v83c3 1 6 2 8 3zM1045 2770v-83c-3-1-6-2-8-3v83c3 1 6 2 8 3zM1054 2773v-83c-3-1-6-2-8-3v83c3 1 6 2 8 3z"/>
    <path class="fil18" d="M1062 2776v-82c-3-1-6-2-8-3v83l8 3zM1070 2779v-82c-3-1-6-2-8-3v82c3 1 6 2 8 3zM1079 2782v-82c-3-1-6-2-8-3v82c3 1 6 2 8 3zM1087 2785v-82c-3-1-6-2-8-3v82c3 1 6 2 8 3zM1095 2788v-82c-3-1-6-2-8-3v82l8 3z"/>
    <path class="fil19" d="M1104 2791v-82c-3-1-6-2-8-3v82l8 3zM1112 2793v-81l-8-3v82zM1121 2796v-81l-8-3v81c3 1 6 2 8 3zM1129 2798v-81c-3-1-6-2-8-3v81c3 1 6 2 8 3z"/>
    <path class="fil20" d="M1137 2801v-81c-3-1-6-2-8-3v81c3 1 6 2 8 3zM1146 2803v-81c-3-1-6-2-8-3v81c3 1 6 2 8 2z"/>
    <path class="fil21" d="M1154 2806v-81c-3-1-6-2-8-3v81c3 1 6 2 8 2zM1162 2808v-81l-8-2v81zM1171 2810v-80c-3-1-6-2-8-2v81l8 2zM1179 2812v-80l-8-2v80z"/>
    <path class="fil22" d="M1188 2814v-80c-3-1-6-2-8-2v80l8 2zM1196 2817v-80c-3-1-6-1-8-2v80c3 1 6 1 8 2zM1204 2819v-80c-3-1-6-1-8-2v80c3 1 6 1 8 2zM1213 2821v-80l-8-2v80c3 1 6 1 8 2zM1221 2822v-79l-8-2v80c3 1 6 1 8 2zM1229 2824v-79l-8-2v79c3 1 6 1 8 2z"/>
    <path class="fil23" d="M1238 2826v-79l-8-2v79c3 1 6 1 8 2zM1246 2828v-79l-8-2v79c3 1 6 1 8 2zM1255 2830v-79l-8-2v79c3 1 6 1 8 2zM1263 2831v-79l-8-2v79c3 1 6 1 8 2zM1271 2833v-79l-8-1v78z"/>
    <path class="fil24" d="M1280 2834v-78c-3-1-6-1-8-2v79c3 1 6 1 8 2z"/>
    <path class="fil25" d="M1288 2836v-78c-3-1-6-1-8-2v78l8 2zM1296 2837v-78c-3-1-6-1-8-2v78c3 1 6 1 8 1z"/>
    <path class="fil26" d="M1305 2839v-78m-8-2v78l8 1"/>
    <path class="fil27" d="M1313 2840v-78c-3-1-6-1-8-2v78l8 1zM1322 2842v-78c-3 0-6-1-8-1v78l8 1zM1330 2843v-78l-8-1v78zM1338 2844v-77l-8-2v78zM1347 2845v-77l-9-1v77z"/>
    <path class="fil28" d="M1355 2846v-77c-3 0-6-1-8-1v77l8 1zM1363 2848v-77l-8-1v77c3 0 6 1 8 1z"/>
    <path class="fil29" d="M1372 2849v-77l-8-1v77c3 0 6 1 8 1zM1380 2850v-77l-8-1v77c3 0 6 1 8 1z"/>
    <path class="fil30" d="M1389 2851v-77l-8-1v77c3 0 6 1 8 1zM1397 2852v-77l-8-1v77zM1405 2853v-76l-8-1v77c3 0 6 1 8 1zM1414 2853v-76l-8-1v76c3 0 6 1 8 1zM1422 2854v-76l-8-1v76zM1430 2855v-76l-8-1v76c3 0 6 1 8 1z"/>
    <path class="fil31" d="M1439 2856v-76l-9-1v76zM1447 2857v-76l-8-1v76zM1455 2857v-76h-8v76zM1464 2858v-76l-8-1v76z"/>
    <path class="fil32" d="M1472 2859v-76l-8-1v76zM1481 2859v-75l-9-1v76zM1489 2860v-76h-8v75zM1497 2860v-75l-8-1v76zM1506 2861v-76h-9v75zM1514 2861v-75h-8v75h8z"/>
    <path class="fil33" d="M1522 2861v-75h-8v75h8zM1531 2862v-75h-8v75h8z"/>
    <path class="fil34" d="M1539 2862v-75h-8v75zM1548 2862v-75h-8v75h8z"/>
    <path class="fil35" d="M1556 2863v-75l-8-1v75zM1564 2863v-75h-8v75zM1573 2863v-75h-9v75zM1581 2863v-75h-8v75h8zM1589 2863v-75h-8v75zM1598 2863v-75h-8v75h8z"/>
    <path class="fil36" d="M1606 2863v-75h-8v75h8zM1615 2864v-75h-8v75h8z"/>
    <path class="fil36" d="M1623 2864v-75h-9v75h9zM1631 2863v-75l-8 1v75zM1640 2863v-75h-9v75zM1648 2863v-75h-8v75zM1656 2863v-75h-8v75h8z"/>
    <path class="fil37" d="M1665 2863v-75h-9v75zM1673 2863v-75h-8v75zM1682 2863v-76l-9 1v75zM1690 2862v-75h-8v76z"/>
    <path class="fil38" d="M1698 2862v-75h-8v75zM1707 2862v-76l-9 1v75z"/>
    <path class="fil39" d="M1715 2861v-76h-8v75h8zM1723 2861v-76h-8v76h8zM1732 2860v-76l-8 1v76h8zM1740 2860v-76l-8 1v75z"/>
    <path class="fil40" d="M1749 2859v-75h-9v76zM1757 2859v-76l-8 1v75zM1765 2858v-76l-8 1v76zM1774 2858v-76h-9v76z"/>
    <path class="fil41" d="M1782 2857v-76l-8 1v76zM1790 2856v-76l-8 1v76zM1799 2856v-77l-9 1v76zM1807 2855v-77l-8 1v77z"/>
    <path class="fil42" d="M1816 2854v-77l-9 1v77zM1824 2853v-77l-8 1v77z"/>
    <path class="fil43" d="M1832 2852v-77l-8 1v77c3 0 6-1 8-1zM1841 2851v-77l-8 1v77c3 0 6-1 8-1zM1849 2850v-77l-8 1v77c3 0 6-1 8-1zM1857 2849v-77l-8 1v77c3 0 6-1 8-1z"/>
    <path class="fil44" d="M1866 2848v-78l-8 1v77c3 0 6-1 8-1zM1874 2847v-78l-8 1v78c3 0 6-1 8-1z"/>
    <path class="fil45" d="M1883 2846v-78l-8 1v78c3 0 6-1 8-1zM1891 2845v-78l-8 1v78zM1899 2844v-78l-8 1v78c3 0 6-1 8-1zM1908 2842v-78l-9 2v78z"/>
    <path class="fil46" d="M1916 2841v-78l-8 1v78zM1924 2840v-79l-8 2v78zM1933 2838v-79l-8 2v79c3 0 6-1 8-1zM1941 2837v-79l-8 2v79c3 0 6-1 8-1z"/>
    <path class="fil47" d="M1949 2835v-79c-3 1-6 1-8 2v79l8-2zM1958 2834v-79c-3 1-6 1-8 2v79c3-1 6-1 8-2zM1966 2832v-79c-3 1-6 1-8 2v79c3-1 6-1 8-2zM1975 2830v-79c-3 1-6 1-8 2v79c3-1 6-1 8-2z"/>
    <path class="fil48" d="M1983 2829v-80l-8 2v79zM1991 2827v-80l-8 2v80c3-1 6-1 8-2z"/>
    <path class="fil49" d="M2000 2825v-80l-8 2v80c3-1 6-1 8-2zM2008 2823v-80l-8 2v80c3-1 6-1 8-2zM2016 2821v-80l-8 2v80c3-1 6-1 8-2zM2025 2820v-80l-8 2v80c3-1 6-1 8-2zM2033 2818v-81c-3 1-6 1-8 2v80c3-1 6-1 8-2zM2042 2815v-81c-3 1-6 1-8 2v81c3-1 6-1 8-2z"/>
    <path class="fil50" d="M2050 2813v-81c-3 1-6 2-8 2v81l8-2zM2058 2811v-81l-8 2v81zM2067 2809v-81l-9 2v81zM2075 2807v-81l-8 2v81c3-1 6-2 8-2z"/>
    <path class="fil51" d="M2083 2804v-82l-8 3v81c3-1 6-2 8-2zM2092 2802v-82l-8 3v82c3-1 6-2 8-2zM2100 2799v-82c-3 1-6 2-8 3v82c3-1 6-2 8-2zM2109 2797v-82c-3 1-6 2-8 3v82c3-1 6-2 8-3zM2117 2794v-82c-3 1-6 2-8 3v82c3-1 6-2 8-3zM2125 2792v-82c-3 1-6 2-8 3v82c3-1 6-2 8-3z"/>
    <path class="fil52" d="M2134 2789v-83l-9 3v83zM2142 2786v-83c-3 1-6 2-8 3v83c3-1 6-2 8-3z"/>
    <path class="fil53" d="M2150 2783v-83c-3 1-6 2-8 3v83l8-3zM2159 2781v-83c-3 1-6 2-8 3v83c3-1 6-2 8-3zM2167 2778v-83c-3 1-6 2-8 3v83c3-1 6-2 8-3z"/>
    <path class="fil54" d="M2176 2774v-83l-8 3v83c3-1 6-2 8-3zM2184 2771v-84c-3 1-6 2-8 3v83c3-1 6-2 8-3zM2192 2768v-84c-3 1-6 2-8 3v84c3-1 6-2 8-3zM2201 2765v-84c-3 1-6 2-8 3v84c3-1 6-2 8-3zM2209 2762v-84l-8 3v84c3-1 6-2 8-3zM2217 2758v-84c-3 1-6 2-8 4v84c3-1 6-2 8-3z"/>
    <path class="fil55" d="M2226 2755v-84c-3 1-6 2-8 4v84c3-1 6-2 8-3zM2234 2751v-84c-3 1-6 3-8 4v84c3-1 6-2 8-4zM2243 2747v-85c-3 1-6 3-8 4v84c3-1 6-2 8-4zM2251 2744v-85c-3 1-6 3-8 4v85c3-1 6-2 8-4z"/>
    <path class="fil56" d="M2259 2740v-85c-3 1-6 3-8 4v85c3-1 6-3 8-4zM2268 2736v-85c-3 1-6 3-8 4v85c3-1 6-3 8-4zM2276 2732v-85c-3 1-6 3-8 4v85c3-1 6-3 8-4zM2284 2728v-85c-3 1-6 3-8 4v85c3-1 6-3 8-4zM2293 2724v-85c-3 1-6 3-8 4v85c3-1 6-3 8-4zM2301 2719v-86c-3 1-6 3-8 4v85c3-1 6-3 8-4z"/>
    <path class="fil57" d="M2310 2715v-86c-3 2-6 3-8 5v86c3-1 6-3 8-4zM2318 2711v-86c-3 2-6 3-8 5v86c3-1 6-3 8-4z"/>
    <path class="fil58" d="M2326 2706v-86c-3 2-6 3-8 5v86c3-2 6-3 8-5zM2335 2701v-86c-3 2-6 3-8 5v86c3-2 6-3 8-5z"/>
    <path class="fil59" d="M2343 2697v-86c-3 2-6 3-8 5v86c3-2 6-3 8-5zM2351 2692v-86c-3 2-6 3-8 5v86c3-2 6-3 8-5zM2360 2687v-87c-3 2-6 3-8 5v86c3-2 6-3 8-5zM2368 2682v-87c-3 2-6 4-8 5v87c3-2 6-3 8-5zM2376 2676v-87c-3 2-6 4-8 5v87c3-2 6-3 8-5zM2385 2671v-87c-3 2-6 4-8 6v87c3-2 6-4 8-5z"/>
    <path class="fil60" d="M2393 2665v-87c-3 2-6 4-8 6v87c3-2 6-4 8-6zM2402 2660v-87c-3 2-6 4-8 6v87c3-2 6-4 8-6zM2410 2654v-88c-3 2-6 4-8 6v87c3-2 6-4 8-6zM2418 2648v-88c-3 2-6 4-8 6v88c3-2 6-4 8-6z"/>
    <path class="fil61" d="M2427 2642v-88c-3 2-6 4-8 6v88c3-2 6-4 8-6zM2435 2636v-88c-3 2-6 4-8 6v88c3-2 6-4 8-6z"/>
    <path class="fil62" d="M2443 2630v-88c-3 2-6 4-8 7v88c3-2 6-4 8-6zM2452 2623v-89c-3 2-6 5-8 7v88c3-2 6-4 8-7zM2460 2616v-89c-3 2-6 5-8 7v89c3-2 6-4 8-7zM2469 2610v-89c-3 2-6 5-8 7v89c3-2 6-5 8-7z"/>
    <path class="fil63" d="M2477 2602v-89c-3 2-6 5-8 7v89c3-2 6-5 8-7zM2485 2595v-90c-3 3-6 5-8 8v89c3-2 6-5 8-7z"/>
    <path class="fil64" d="M2494 2588v-90c-3 3-6 5-8 8v90c3-2 6-5 8-7zM2502 2580v-90c-3 3-6 5-8 8v90c3-3 6-5 8-8z"/>
    <path class="fil64" d="M2510 2572v-91l-6 6-3 3v90c3-3 6-5 8-8zM2519 2564v-91l-1 1-2 2-5 5v91c3-3 6-5 8-8zm0-735v-1l-5-4 5 5z"/>
    <path class="fil65" d="M2527 2556v-92l-4 4-3 3-1 1-1 1v91l7-7 1-1zm0-717v-2c-3-3-6-5-8-8v1c3 3 6 6 8 9zM2536 2547v-92c-3 3-6 6-8 9v92c3-3 6-6 8-9zm0-699v-3c-3-3-6-5-8-8v2c3 3 6 6 8 9zM2544 2538v-93c-3 3-6 6-8 10v92c3-3 6-6 8-9zm0-681v-4l-8-8v3c3 3 6 6 8 10z"/>
    <path class="fil65" d="M2552 2529v-93l-1 1-1 1c-2 3-5 6-7 8v93c3-3 6-6 8-9zm0-662v-5c-3-3-6-6-8-9v4c3 3 6 7 8 10z"/>
    <path class="fil66" d="M2561 2519v-94c-2 3-5 6-7 9l-1 1v93c3-3 6-7 8-10zm0-641v-6c-3-3-6-6-8-9v5c3 3 6 7 8 10zM2569 2509v-95c-3 4-6 7-8 11v94c3-3 6-7 8-10zm0-620v-8c-3-3-6-6-8-10v6c3 4 6 7 8 11zM2577 2498v-95c-3 4-6 8-8 11v95c3-4 6-7 8-11zm0-598v-9c-3-3-6-7-8-10v8c3 4 6 8 8 12zM2586 2487v-96c-3 4-6 8-8 12v95c3-4 6-7 8-11zm0-574v-11c-3-4-6-7-8-10v9c3 4 6 8 8 12z"/>
    <path class="fil67" d="M2594 2475v-97c-3 4-6 9-8 13v96c3-4 6-8 8-12zm0-549v-13c-3-4-6-7-8-11v11c3 4 6 9 8 13zM2603 2462v-98c-3 5-5 9-8 14v97c3-4 6-8 8-13zm0-523v-15c-3-4-6-8-8-12v13c3 5 6 9 8 14z"/>
    <path class="fil68" d="M2611 2449v-100c-3 5-5 10-8 15v98c3-4 6-9 8-13zm0-494v-18c-3-4-6-8-8-12v15c3 4 5 9 7 13 0 0 0 1 1 1v1zM2619 2435v-102c-3 5-5 11-8 16v100c3-5 6-10 8-14zm0-463v-22c-3-4-6-9-8-13v18l1 1c0 1 1 1 1 2v1c2 3 3 6 5 10l1 3zM2628 2419v-104c-2 5-4 9-6 14l-2 4v102c3-5 6-10 8-15zm0-430v-26c-3-5-6-9-8-14v22c2 4 4 8 6 13 0 1 0 1 1 2 0 1 1 1 1 2l1 2z"/>
    <path class="fil68" d="M2636 2403v-107c-3 7-5 13-8 20v104c3-6 6-11 8-17zm0-392v-32c-3-5-6-10-8-15v26c3 7 6 14 8 21z"/>
    <path class="fil69" d="M2644 2384v-113c-3 8-5 16-8 24v107c3-6 6-12 8-18zm0-349v-40l-3-6c-2-3-4-7-5-10v32c3 8 6 16 8 24zM2653 2364v-122c-2 10-5 20-8 30v113c3-7 6-14 8-21zm0-298v-53c-3-6-5-12-8-18v40c3 10 6 21 8 31z"/>
    <path class="fil70" d="M2661 2340v-149c-2 17-4 34-8 51v122c3-8 6-16 8-24zm0-222v-84c-3-7-5-14-8-21v53c2 10 4 19 5 29 1 8 2 15 3 23zM2670 2311v-251c-3-9-5-18-8-26v84c2 24 2 49 0 73v149c3-9 6-19 8-28zM2678 2274v-179c-2-12-5-24-8-35v251c3-12 6-25 8-37zM2678 2095v179c12-63 11-124 0-179z"/>
    <path class="fil71" d="M2205 1625c-176-73-381-111-590-111-208 0-413 38-589 111-193 80-342 199-413 344-83 169-53 356 113 519 190 187 514 301 890 301s699-115 890-301c166-163 197-350 113-519-72-145-221-264-413-344z"/>
    <path class="fil72" d="M569 2188l11 64c-6-21-9-42-11-64zM568 2149l25 141c-5-13-9-26-12-38l-11-64c-1-12-2-24-2-36v-3z"/>
    <path class="fil72" d="M569 2125l33 189c-3-8-7-16-9-24l-25-141c0-8 0-16 1-24z"/>
    <path class="fil73" d="M571 2105l40 227c-3-6-6-12-9-19l-33-189c0-6 1-13 2-19z"/>
    <path class="fil73" d="M573 2089l46 260c-3-5-6-11-8-16l-40-227c1-6 1-11 2-17zM576 2074l51 288c-3-5-5-9-8-14l-46-260 3-15z"/>
    <path class="fil73" d="M579 2061l55 314c-3-4-5-8-8-13l-51-288c1-4 2-9 3-13zM582 2048l60 338c-3-4-5-8-7-12l-55-314 3-12z"/>
    <path class="fil74" d="M585 2037l64 360c-2-4-5-7-7-11l-60-338c1-4 2-8 3-11z"/>
    <path class="fil75" d="M589 2026l67 381c-2-3-5-7-7-10l-64-360c1-4 2-7 3-11z"/>
    <path class="fil75" d="M592 2016l71 401c-2-3-5-6-7-9l-67-381c1-3 2-7 4-10z"/>
    <path class="fil76" d="M596 2006l74 419c-2-3-5-6-7-9l-71-401c1-3 2-6 4-10z"/>
    <path class="fil76" d="M600 1997l77 437c-2-3-5-6-7-9l-74-419c1-3 2-6 4-9z"/>
    <path class="fil76" d="M603 1988l80 454c-2-3-5-5-7-8l-77-437c1-3 2-6 4-9z"/>
    <path class="fil76" d="M607 1980l83 470c-2-3-5-5-7-8l-80-454c1-3 3-6 4-9z"/>
    <path class="fil77" d="M611 1971l86 486c-2-2-4-5-7-7l-83-470c1-3 3-5 4-8z"/>
    <path class="fil77" d="M615 1963l88 501c-2-2-4-5-7-7l-86-486 1-3c1-2 2-4 3-5z"/>
    <path class="fil78" d="M619 1956l91 516c-2-2-4-5-7-7l-88-501c1-3 3-5 4-8z"/>
    <path class="fil78" d="M623 1948l93 530-7-7-91-516c1-2 3-5 4-7zM627 1941l96 544c-2-2-4-4-6-7l-93-530c1-2 3-5 4-7z"/>
    <path class="fil78" d="M631 1934l98 557-4-4-3-3-96-544c1-2 3-5 4-7z"/>
    <path class="fil79" d="M635 1927l100 570-6-6-98-557c1-2 3-5 4-7zM639 1921l103 582-6-6-100-570c1-2 3-4 4-7z"/>
    <path class="fil79" d="M644 1914l105 595-6-6-103-582c1-2 3-4 4-6z"/>
    <path class="fil79" d="M648 1908l107 607-6-6-105-595c1-2 3-4 4-6zM652 1902l109 618-6-6-107-607c1-2 3-4 4-6z"/>
    <path class="fil79" d="M656 1896l111 624-5 1-1-1-109-618 2-2z"/>
    <path class="fil80" d="M661 1890l111 630h-5l-110-625c1-2 3-4 4-6z"/>
    <path class="fil80" d="M665 1884l112 636h-5l-111-630c1-2 3-4 4-6zM669 1878l113 641h-5l-112-636c1-2 3-4 4-6z"/>
    <path class="fil81" d="M674 1873l114 646h-5l-113-641c1-2 3-4 4-6zM678 1867l115 651h-5l-114-646c1-2 3-4 4-5zM683 1862l116 656h-5l-115-651c1-2 3-4 4-5z"/>
    <path class="fil81" d="M687 1857l117 661h-5l-116-656c1-2 3-3 4-5z"/>
    <path class="fil82" d="M691 1852l117 666h-5l-117-661c1-2 3-3 4-5zM696 1847l118 670h-5l-117-666c1-2 3-3 4-5z"/>
    <path class="fil82" d="M700 1842l119 675h-5l-118-670c1-2 3-3 4-5zM705 1837l120 679h-5l-119-675c1-2 3-3 4-5z"/>
    <path class="fil83" d="M709 1832l121 683-6 1-119-679z"/>
    <path class="fil83" d="M714 1827l121 688-5 1-121-683c1-2 3-3 5-5z"/>
    <path class="fil83" d="M718 1823l122 692-5 1-121-688c1-2 3-3 5-5z"/>
    <path class="fil83" d="M723 1818l122 696h-5l-122-691 2-2z"/>
    <path class="fil84" d="M727 1814l124 699-6 1-122-696z"/>
    <path class="fil84" d="M732 1809l124 704h-5l-124-699z"/>
    <path class="fil84" d="M736 1805l125 707-5 1-124-703c2-1 3-3 5-4z"/>
    <path class="fil84" d="M741 1801l125 711h-5l-125-707z"/>
    <path class="fil85" d="M746 1797l126 714-6 1-125-711z"/>
    <path class="fil85" d="M750 1792l127 718-5 1-126-714z"/>
    <path class="fil85" d="M755 1788l127 721-5 1-127-718c2-1 3-3 5-4z"/>
    <path class="fil85" d="M760 1784l127 725-5 1-127-722z"/>
    <path class="fil86" d="M764 1780l129 728-6 1-127-725z"/>
    <path class="fil86" d="M769 1776l54 309c1 26 4 52 11 76 2 7 3 13 5 19l58 328-5 1-128-728 5-4z"/>
    <path class="fil87" d="M773 1773l50 285c-1 9-1 18-1 27l-54-309 5-4zm77 434l53 300-5 1-58-328c3 9 6 18 10 27z"/>
    <path class="fil87" d="M778 1769l47 269c-1 7-1 13-2 20l-50-285 5-4zm81 457l50 281-5 1-53-300 9 18z"/>
    <path class="fil88" d="M783 1765l45 256c-1 6-2 11-2 17l-47-269 5-4zm84 475l47 266-5 1-50-281c3 5 5 10 8 15z"/>
    <path class="fil88" d="M787 1761l43 245-3 15-45-256 5-4zm87 491l44 252-5 1-47-266c2 4 5 8 8 12z"/>
    <path class="fil89" d="M792 1758l42 236c-1 2-1 4-2 7 0 2-1 4-1 7l-43-245 5-4zm89 506l42 241-5 1-44-252c2 4 5 7 7 11z"/>
    <path class="fil89" d="M797 1754l40 227-3 12-42-236 5-4zm59 332l15 84c-3-7-5-14-7-22-5-20-7-41-8-63zm33 187l41 230-5 1-42-241c2 3 5 7 7 10z"/>
    <path class="fil89" d="M802 1750l39 219c-1 4-2 8-3 11l-40-227 5-4zm55 309l24 134c-3-7-7-15-9-23l-15-84c0-9 0-18 1-27zm39 222l39 220-5 1-41-230c2 3 5 6 7 9z"/>
    <path class="fil89" d="M806 1747l37 212c-1 3-2 7-3 11l-39-219 5-4zm52 293l30 170c-3-5-6-11-8-17l-24-134c0-6 1-13 2-20zm44 250l37 211-5 1-39-220c2 3 4 6 7 8z"/>
    <path class="fil89" d="M811 1744l36 206c-1 3-2 7-4 10l-37-212 5-3zm49 280l35 200c-3-4-5-9-8-13l-30-170c1-5 1-11 2-16zm48 275l36 202-5 1-37-211c2 3 4 5 7 8z"/>
    <path class="fil89" d="M816 1740l35 200c-1 3-2 6-4 9l-36-206 5-3zm47 269l40 226c-3-4-5-8-7-12l-35-200c1-5 2-10 3-14zm52 297l34 194-5 1-36-202c2 2 4 5 7 7z"/>
    <path class="fil90" d="M820 1737l34 194c-1 3-3 6-4 9l-35-200 5-3zm46 260l44 249c-2-3-5-7-7-10l-40-226v-2c1-4 2-7 3-11zm56 316l33 186-5 1-34-194c2 2 4 5 7 7z"/>
    <path class="fil90" d="M825 1733l33 189c-1 3-3 6-4 8l-34-194 5-3zm44 251l48 270c-2-3-5-6-7-9l-44-249 3-12zm59 335l32 179-5 1-33-186 7 7z"/>
    <path class="fil90" d="M830 1730l33 184c-1 3-3 5-4 8l-33-189 5-3zm43 243l51 290c-2-3-5-6-7-9l-48-270c1-4 2-7 3-11zm62 352l30 171-5 1-32-179 6 6z"/>
    <path class="fil90" d="M835 1727l32 180c-1 3-3 5-4 8l-33-184 5-3zm42 236l54 309c-2-3-5-5-7-8l-51-290c1-3 2-7 4-10zm65 369l29 165-5 1-30-171 6 6z"/>
    <path class="fil91" d="M840 1724l31 176c-1 2-3 5-4 7l-32-180 5-3zm40 230l57 326c-2-2-4-5-7-8l-54-309c1-3 2-7 4-10zm68 384l28 158-5 1-29-165 6 6z"/>
    <path class="fil91" d="M844 1720l30 172c-1 2-3 5-4 7l-31-176 5-3zm39 224l60 342c-2-2-4-5-7-7l-57-326c1-3 2-6 4-9zm70 399l27 151-5 1-28-158c2 2 4 4 6 5zM849 1717l30 168c-1 2-3 5-4 7l-30-172 5-3zm38 218l63 357-7-7-60-342c1-3 2-6 4-9zm73 413l26 145-5 1-27-151c2 2 4 4 6 5z"/>
    <path class="fil91" d="M854 1714l29 164c-1 2-3 4-4 7l-30-168 5-3zm38 213l66 372-6-6-63-357c1-3 3-6 4-8zm75 426l25 139-5 1-26-145c2 2 4 3 6 5z"/>
    <path class="fil92" d="M859 1711l28 161c-1 2-3 4-4 6l-29-164 5-3zm37 208l68 386-6-6-66-372c1-3 3-5 4-8zm77 439l23 133-5 1-25-139c2 2 4 3 6 5z"/>
    <path class="fil92" d="M863 1708l28 158c-1 2-3 4-4 6l-28-161 5-3zm36 204l70 399-6-6-68-386c1-3 3-5 4-8zm80 451l22 127-5 1-23-133c2 2 4 3 6 5z"/>
    <path class="fil92" d="M868 1705l27 155c-1 2-3 4-4 6l-28-158 5-3zm35 199l15 87-4 1h4l57 324-6-6-70-399c1-2 3-5 4-7zm82 463l21 122-5 1-22-127c2 2 4 3 6 5z"/>
    <path class="fil92" d="M873 1702l27 152c-1 2-3 4-4 6l-27-155 5-3zm34 195l16 93-5 1-15-87c1-2 3-5 4-7zm17 95l58 330c-2-2-4-4-6-5l-57-324h5zm67 380l20 116-5 1-21-122c2 1 4 3 6 4z"/>
    <path class="fil93" d="M878 1699l26 149c-1 2-3 4-4 6l-27-152 5-3zm34 191l17 98-5 1-16-93c1-2 3-5 4-7zm18 101l59 335c-2-2-4-3-6-5l-58-330h5zm68 384l20 111-5 1-20-116c2 1 4 3 6 4z"/>
    <path class="fil93" d="M883 1696l26 147c-1 2-3 4-4 6l-26-149 5-3zm33 188l18 104-5 1-17-98c1-2 3-4 4-6zm19 108l60 340c-2-2-4-3-6-5l-59-335h5zm68 388l19 105-5 1-20-111c2 1 4 3 6 4z"/>
    <path class="fil93" d="M888 1693l25 144c-1 2-3 4-4 5l-26-147 5-3zm33 184l19 109-5 1-18-104c1-2 3-4 4-6zm20 114l61 344c-2-2-4-3-6-5l-60-340h5zm69 392l18 100-5 1-19-105c2 1 4 3 6 4z"/>
    <path class="fil93" d="M892 1691l25 142c-1 2-3 4-4 5l-25-144 5-3zm32 181l20 114-5 1-19-109c1-2 3-4 4-6zm21 120l61 349c-2-2-4-3-6-5l-61-344h5zm70 396l17 95-5 1-18-100c2 1 4 3 6 4z"/>
    <path class="fil94" d="M897 1688l25 139c-1 2-3 3-4 5l-25-142 5-3zm31 178l21 118-5 1-20-114c1-2 3-4 4-6zm22 126l62 353c-2-1-4-3-6-4l-61-349h5zm71 400l16 90-5 1-17-95c2 1 4 3 6 4z"/>
    <path class="fil94" d="M902 1685l24 137c-2 2-3 3-4 5l-25-139 5-3zm31 175l22 123-5 1-21-118c1-2 3-4 4-6zm23 132l63 357c-2-1-4-3-6-4l-62-353h5zm71 404l15 85-5 1-16-90c2 1 4 3 6 4z"/>
    <path class="fil95" d="M907 1682l24 135-5 5-24-137 5-3zm30 172l22 128-5 1-22-123c1-2 3-4 4-6zm24 138l64 361c-2-1-4-3-6-4l-63-357h5zm72 407l14 80-5 1-15-85c2 1 4 2 6 4z"/>
    <path class="fil95" d="M912 1680l23 133c-2 2-3 3-4 5l-24-135 5-3zm30 170l23 132-5 1-22-128c1-2 3-4 4-5zm25 143l64 365c-2-1-4-3-6-4l-64-361h5zm72 411l13 76-5 1-14-80 6 4z"/>
    <path class="fil95" d="M917 1677l23 131-5 5-23-133 5-3zm29 167l24 136-5 1-23-132c1-2 3-4 4-5zm26 148l65 369c-2-1-4-3-6-4l-64-365h5zm73 414l12 71-5 1-13-76 6 3z"/>
    <path class="fil95" d="M922 1674l23 129c-2 1-3 3-5 5l-23-131 5-2zm29 165l25 140-5 1-24-136c1-2 3-3 4-5zm27 154l66 373c-2-1-4-3-6-4l-65-369h5zm74 418l12 66-5 1-12-71 6 3z"/>
    <path class="fil96" d="M926 1672l22 127c-2 1-3 3-5 4l-23-129 5-3zm29 162l25 144-5 1-25-140c1-2 3-3 4-5zm28 159l66 377c-2-1-4-2-6-4l-66-373h5zm74 421l11 62-5 1-12-66 6 3z"/>
    <path class="fil96" d="M931 1669l22 126c-2 1-3 3-5 4l-22-127 5-3zm28 160l26 148-5 1-25-144c1-2 3-3 4-5zm29 163l67 380c-2-1-4-2-6-4l-66-377h5zm75 424l10 57-5 1-11-62 6 3z"/>
    <path class="fil97" d="M936 1667l22 124c-2 1-3 3-5 4l-22-126 5-3zm28 158l27 151-5 1-26-148c1-2 3-3 5-5zm30 168l68 384c-2-1-4-2-6-4l-67-380h5zm75 427l9 53-5 1-10-57 6 3z"/>
    <path class="fil97" d="M941 1664l22 122c-2 1-3 3-5 4l-22-124 5-3zm28 156l27 155-5 1-27-151c1-2 3-3 5-5zm30 173l68 387-6-3-68-384h5zm76 430l8 48-5 1-9-53 6 3z"/>
    <path class="fil97" d="M946 1662l21 121c-2 1-3 3-5 4l-22-122 5-2zm27 154l28 158-5 1-27-155 5-5zm31 177l69 390-6-3-68-387h5zm76 433l8 44-5 1-8-48 6 3z"/>
    <path class="fil97" d="M951 1659l21 119c-2 1-3 3-5 4l-21-121 5-2zm27 152l28 161-5 1-28-158c2-1 3-3 5-4zm32 182l69 393-6-3-69-390h5zm77 436l7 39-5 1-8-44 6 3z"/>
    <path class="fil98" d="M956 1657l21 118c-2 1-3 3-5 4l-21-119 5-2zm27 150l29 165-5 1-28-161c2-1 3-3 5-4zm33 186l70 397-6-3-69-393h5zm77 439l6 35-5 1-7-39 6 3z"/>
    <path class="fil98" d="M961 1654l21 117c-2 1-3 3-5 4l-21-118 5-2zm26 149l30 168-5 1-29-165c2-1 3-3 5-4zm34 190l70 400-6-3-70-397h5zm78 442l5 31-5 1-6-35 6 3z"/>
    <path class="fil98" d="M966 1652l20 115c-2 1-3 2-5 4l-21-117 5-2zm26 147l30 171-5 1-30-168c2-1 3-3 5-4zm34 195l71 403-6-3-70-400h5zm78 444l5 27-5 1-5-31 6 3z"/>
    <path class="fil98" d="M971 1650l20 114c-2 1-3 2-5 4l-20-115 5-2zm26 145l31 174-5 1-30-171c2-1 3-3 5-4zm35 199l56 316-3 3 3-2 16 88-6-3-71-403h5zm79 447l4 22-5 1-5-27 6 3z"/>
    <path class="fil98" d="M975 1647l20 113c-2 1-3 2-5 4l-20-114 5-2zm25 144l31 177-5 1-31-174c2-1 3-3 5-4zm36 203l55 312-5 4-56-316h5zm55 315l16 94-6-3-16-88 5-3zm24 135l3 18-5 1-4-22 6 3z"/>
    <path class="fil99" d="M980 1645l20 112-5 3-20-113 5-2zm25 142l32 180-5 1-31-177c2-1 3-3 5-4zm36 207l54 307-5 4-55-312h5zm55 312l17 99-6-3-16-94 5-3zm25 140l2 14-5 1-3-18 6 3z"/>
    <path class="fil99" d="M985 1643l19 110c-2 1-3 2-5 3l-20-112 5-2zm25 141l32 182-5 1-32-180c2-1 3-2 5-4zm37 210l53 302-5 4-54-307h5zm55 309l18 104-6-3-17-99 5-3zm26 145l2 10-5 2-2-14 6 3z"/>
    <path class="fil99" d="M990 1640l19 109c-2 1-3 2-5 3l-19-110 5-2zm25 139l33 185-5 1-32-182c2-1 3-2 5-4zm38 214l53 298-5 4-53-302h5zm54 307l19 110-6-3-18-104 5-3zm27 150l1 6-5 2-2-10 6 3z"/>
    <path class="fil99" d="M995 1638l19 108c-2 1-3 2-5 3l-19-109 5-2zm24 138l33 188-5 1-33-185c2-1 3-2 5-4zm38 218l52 293-5 4-53-298h5zm54 304l20 115-6-3-19-110 5-3zm27 155v2l-5 2-1-6 6 2z"/>
    <path class="fil100" d="M1000 1636l19 107c-2 1-3 2-5 3l-19-108 5-2zm24 137l34 190-5 1-33-188c2-1 3-2 5-4zm39 221l51 289-5 4-52-293h5zm53 301l21 120-6-3-20-115 5-3zm23 160v-2l3 1-2 1z"/>
    <path class="fil100" d="M1005 1634l19 106-5 3-19-107 5-2zm24 135l34 193-5 1-34-190c2-1 3-2 5-3zm40 225l50 284-5 4-51-289h5zm53 299l22 125-6-3-21-120 5-3z"/>
    <path class="fil100" d="M1010 1632l19 105c-2 1-3 2-5 3l-19-106 5-2zm24 134l34 195-5 1-34-193c2-1 3-2 5-3zm37 212h-2 2zm3 16l49 280-5 4-50-284h5zm52 296l23 130-6-3-22-125 5-3z"/>
    <path class="fil100" d="M1015 1630l18 104c-2 1-3 2-5 3l-19-105 5-2zm23 133l35 197-5 1-34-195c2-1 3-2 5-3zm38 215v1h-5 5zm3 17l49 275-5 4-49-280h5zm52 293l24 135-6-2-23-130 5-3z"/>
    <path class="fil101" d="M1020 1628l18 103c-2 1-3 2-5 3l-18-104 5-2zm23 132l35 200-5 1-35-197c2-1 3-2 5-3zm38 218v1h-5v-1h5zm3 17l48 271-5 4-49-275h5zm51 291l25 140-6-2-24-135 5-3zM1025 1625l18 102-5 3-18-103 5-2zm23 131l36 202-5 1-35-200 5-3zm39 221v2h-5v-1h5zm3 18l47 266-5 4-48-271h5zm51 288l26 145-6-2-25-140 5-3z"/>
    <path class="fil102" d="M1030 1623l18 102c-2 1-3 2-5 3l-18-102h1l4-2zm23 130l36 204-5 1-36-202c2-1 3-2 5-3zm39 223v2h-5v-2h5zm3 18l46 262-5 4-47-266h5zm50 285l26 150-6-2-26-145 5-3z"/>
    <path class="fil102" d="M1035 1621l18 101c-2 1-3 2-5 3l-18-102 5-2zm23 129l36 206-5 1-36-204c2-1 3-2 5-3zm40 226v3h-5v-2h5zm3 19l45 257-5 4-46-262h5zm50 283l27 155-6-2-26-150 5-3z"/>
    <path class="fil102" d="M1040 1619l18 100c-2 1-3 2-5 3l-18-101 5-2zm22 128l37 208-5 1-36-206c2-1 3-2 5-3zm40 229l1 3h-5v-3h5zm3 19l45 253-5 4-45-257h5zm49 280l28 160-6-2-27-155 5-3z"/>
    <path class="fil102" d="M1045 1617l17 99-5 3-18-100 5-2zm22 127l37 210-5 1-37-208c2-1 3-2 5-3zm41 231l1 4h-5l-1-3h5zm4 20l44 248-5 4-45-253h5zm49 277l29 165-6-2-28-160 5-3z"/>
    <path class="fil103" d="M1050 1615l17 98c-2 1-3 2-5 3l-17-99 5-2zm22 126l37 212-5 1-37-210 5-3zm41 234l1 4h-5l-1-4h5zm4 21l43 244-5 4-44-248h5zm48 275l29 167-3 1-2-1-29-165 5-3z"/>
    <path class="fil103" d="M1055 1613l17 98c-2 1-3 2-5 3l-17-98 5-2zm22 125l38 214-5 1-37-212c2-1 3-2 5-3zm42 236l1 5h-5l-1-4h5zm4 21l42 239-5 4-43-244h5zm48 272l30 168-5 2-29-167 5-3z"/>
    <path class="fil104" d="M1060 1612l17 97c-2 1-3 2-5 3l-17-98 5-2zm22 124l38 216-5 1-38-214c2-1 3-2 5-3zm42 238l1 5h-5l-1-5h5zm4 22l41 235-5 4-42-239h5zm48 269l30 169-5 2-30-168 5-3z"/>
    <path class="fil104" d="M1065 1610l17 96-5 3-17-97 5-2zm22 123l38 218-5 1-38-216c2-1 3-2 5-3zm42 241l1 5h-5l-1-5h5zm4 22l41 230-5 4-41-235h5zm47 267l30 169-5 2-30-169 5-3z"/>
    <path class="fil104" d="M1070 1608l17 96c-2 1-3 2-5 3l-17-96 5-2zm22 122l39 219-5 1-38-218c2-1 3-2 5-3zm43 243l1 6h-5l-1-5h5zm4 23l40 226-5 4-41-230h5zm47 264l30 170-5 2-30-169 5-3z"/>
    <path class="fil104" d="M1075 1606l17 95c-2 1-3 2-5 3l-17-96 5-2zm21 121l39 221-5 1-39-219c2-1 3-2 5-3zm43 245l1 6h-5l-1-6h5zm4 23l39 221-5 4-40-226h5zm43 242l-3 2 3-2zm3 20l30 171-5 2-30-170 5-3z"/>
    <path class="fil105" d="M1080 1604l17 94-5 2-17-95 5-2zm21 121l39 223-5 1-39-221c2-1 3-2 5-3zm44 247l1 7h-5l-1-6h5zm4 24l38 217-5 4-39-221h5zm42 238v1l-5 3 5-3zm4 20l30 171-5 2-30-171 5-3z"/>
    <path class="fil105" d="M1085 1602l17 94-5 2-17-94 5-2zm21 120l40 225-5 1-39-223c2-1 3-2 5-3zm44 250l1 7h-5l-1-7h5zm4 24l37 212-5 4-38-217h5zm41 235v2l-5 3v-1l5-3zm4 21l30 172-5 2-30-171 5-3z"/>
    <path class="fil106" d="M1090 1601l16 93c-2 1-3 2-5 2l-17-94 5-2zm21 119l40 226-5 1-40-225 5-3zm44 252l1 8h-5l-1-7h5zm4 25l37 208-5 4-37-212h5zm41 231v2l-5 3v-2l5-3zm4 22l30 172-5 2-30-172 5-3z"/>
    <path class="fil106" d="M1095 1599l16 93-5 2-16-93 5-2zm21 118l40 228-5 1-40-226c2-1 3-2 5-3zm45 254l1 8h-5l-1-8h5zm5 26l36 204-5 4-37-208h5zm40 228l1 3-5 3v-2l5-3zm4 23l30 173-5 2-30-172 5-3z"/>
    <path class="fil107" d="M1100 1597l16 92-5 2-16-93 5-2zm21 118l40 229-5 1-40-228c2-1 3-2 5-2zm45 256l2 9h-5l-1-8h5zm5 26l35 199-5 4-36-204h5zm40 224l1 4-5 3-1-3 5-3zm4 24l31 173-5 2-30-173 5-3z"/>
    <path class="fil107" d="M1105 1595l16 91c-2 1-3 2-5 2l-16-92 5-2zm21 117l41 231-5 1-40-229 5-2zm45 258l2 9h-5l-2-9h5zm5 27l34 195-5 4-35-199h5zm39 221l1 4-5 3-1-4 5-3zm4 25l31 174-5 2-31-173 5-3z"/>
    <path class="fil107" d="M1110 1594l16 91c-2 1-3 1-5 2l-16-91 5-2zm21 116l41 232-5 1-41-231 5-2zm46 260l2 10h-5l-2-9h5zm5 27l34 190-5 4-34-195h5zm38 217l1 5-5 3-1-4 5-3zm5 26l31 174-5 2-31-174 5-3z"/>
    <path class="fil107" d="M1115 1592l16 90-5 2-16-91 5-2zm20 116l41 234-5 1-41-232 5-2zm46 262l2 11h-5l-2-10h5zm5 28l33 186-5 4-34-190h5zm38 214l1 6-5 3-1-5 5-3zm5 27l31 175-5 2-31-174 5-3z"/>
    <path class="fil108" d="M1120 1590l16 90c-2 1-3 1-5 2l-16-90 5-2zm20 115l41 235-5 1-41-234c2-1 3-2 5-2zm46 264l2 11h-5l-2-11h5zm5 28l32 181-5 4-33-186h5zm37 210l1 6-5 3-1-6 5-3zm5 27l31 175-5 2-31-175 5-2z"/>
    <path class="fil108" d="M1125 1589l16 89c-2 1-3 1-5 2l-16-90 5-2zm20 115l42 236-5 1-41-235 5-2zm47 265l2 12h-5l-2-11h5zm5 29l31 177-5 4-32-181h5zm36 207l1 7-5 3-1-6 5-3zm5 28l31 175-5 2-31-175 5-2z"/>
    <path class="fil108" d="M1130 1587l16 89-5 2-16-89 5-2zm20 114l42 238-5 1-42-236 5-2zm47 267l2 12h-5l-2-12h5zm5 29l30 173-5 4-31-177h5zm36 203l1 8-5 3-1-7 5-3zm5 29l31 176-5 2-31-175 5-2z"/>
    <path class="fil108" d="M1135 1585l16 88-5 2-16-89 5-2zm20 113l42 239-5 1-42-238c2-1 3-1 5-2zm47 269l2 13h-5l-2-12h5zm5 30l30 168-5 4-30-173h5zm35 200l1 8-5 3-1-8 5-3zm5 30l31 176-5 2-31-176 5-2z"/>
    <path class="fil108" d="M1140 1584l16 88-5 2-16-88 5-2zm20 113l42 240-5 1-42-239c2-1 3-1 5-2zm48 271l2 13h-5l-2-13h5zm5 30l29 164-5 4-30-168h5zm35 196l2 9-5 3-1-8 5-3zm5 31l31 176-5 2-31-176 5-2z"/>
    <path class="fil108" d="M1145 1582l15 88-5 2-16-88 5-2zm20 112l4 25-5-1 6 4 38 214-5 1-42-240 5-2zm48 272l2 14h-5l-2-13h5zm5 31l28 160-5 4-29-164h5zm34 193l2 10-5 3-2-9 5-3zm6 32l31 176-5 2-31-176 5-2z"/>
    <path class="fil109" d="M1150 1581l15 87-5 2-15-88 5-2zm20 112l5 29-6-1-4-25 5-2zm6 34l37 209-5 1-38-214 6 4zm42 240l2 14h-5l-2-14h5zm6 32l27 155-5 4-28-160h5zm33 189l2 10-5 3-2-10 5-3zm6 33l31 177-5 2-31-176 5-2zM1156 1579l15 87-5 2-15-87 5-2zm20 111l6 32-6-1-5-29 5-2zm7 39l36 205-5 1-37-209 1 1 5 3zm42 236l3 15h-5l-2-14h5zm6 32l27 151-5 4-27-155h5zm33 186l2 11-5 3-2-10 5-3zm6 33l31 177-5 2-31-177 5-2z"/>
    <path class="fil109" d="M1161 1578l15 86-5 2-15-87 5-2zm20 111l6 36-6-1-6-32 5-2zm8 45l35 200-5 1-36-205 6 4zm41 232l3 15h-5l-3-15h5zm6 33l26 146-5 4-27-151h5zm32 182l2 12-5 3-2-11 5-3zm6 34l31 177-5 2-31-177 5-2z"/>
    <path class="fil109" d="M1166 1576l15 86-5 2-15-86 5-1zm19 110l7 39-6-1-6-36 5-2zm9 51l34 195-5 1-35-200 6 4zm40 228l3 16h-5l-3-15h5zm6 33l25 142-5 4-26-146h5zm32 179l2 12-5 3-2-12 5-3zm6 35l31 177-5 2-31-177 5-2z"/>
    <path class="fil110" d="M1171 1575l15 86-5 2-15-86 5-1zm19 110l8 43-6-1-7-39 5-2zm10 57l34 190-5 1-34-195 6 4zm39 223l3 16h-5l-3-16h5zm6 34l24 138-5 4-25-142h5zm31 175l2 13-5 3-2-12 5-3zm6 36l31 177-5 2-31-177 5-2z"/>
    <path class="fil110" d="M1176 1573l15 85-5 2-15-86 5-1zm19 109l8 46-6-1-8-43 5-2zm11 63l33 185-5 1-34-190 6 4zm39 219l3 17h-5l-3-16h5zm6 34l24 133-5 4-24-138h5zm30 172l2 14-5 3-2-13 5-3zm6 37l31 177-5 2-31-177 5-2z"/>
    <path class="fil111" d="M1181 1572l15 85-5 2-15-85 5-1zm19 109l9 49-6-1-8-46 5-2zm12 69l32 181-5 1-33-185 6 4zm38 215l3 17h-5l-3-17h5zm6 35l23 129-5 4-24-133h5zm30 168l3 14-5 3-2-14 5-3zm7 38l31 177-5 2-31-177 5-2z"/>
    <path class="fil111" d="M1186 1570l15 85-5 2-15-85 5-1zm19 108l9 53-6-2-9-49 5-2zm13 75l31 176-5 1-32-181 6 4zm37 210l3 18h-5l-3-17h5zm6 35l22 125-5 4-23-129h5zm29 165l3 15-5 3-3-14 5-3zm7 38l31 177-5 2-31-177 5-2z"/>
    <path class="fil111" d="M1191 1569l15 84c-2 1-3 1-5 2l-15-85 5-1zm19 108l10 56-6-2-9-53c2-1 3-1 5-2zm14 81l30 171-5 1-31-176 6 4zm36 206l3 18h-5l-3-18h5zm6 36l21 120-5 4-22-125h5zm28 161l3 16-5 3-3-15 5-3zm7 39l31 177-5 3-31-177 5-2z"/>
    <path class="fil111" d="M1196 1568l15 84-5 2-15-84 5-1zm19 108l10 59-6-2-10-56 5-2zm15 86l29 166-5 1-30-171 6 4zm36 202l3 19h-5l-3-18h5zm6 37l20 116-5 4-21-120h5zm28 158l3 16-5 3-3-16 5-3zm7 40l31 177-5 3-31-177 5-2z"/>
    <path class="fil112" d="M1201 1566l15 83-5 2-15-84 5-1zm19 107l11 63-6-2-10-59 5-2zm16 92l28 161-5 1-29-166 6 4zm35 197l3 20h-5l-3-19h5zm7 37l20 112-5 4-20-116h5zm27 154l3 17-5 3-3-16 5-3zm7 41l31 177-5 3-31-177 5-2z"/>
    <path class="fil112" d="M1206 1565l15 83-5 2-15-83 5-1zm19 107l12 66-6-2-11-63 5-2zm17 98l28 156-5 1-28-161 6 4zm34 193l4 20h-5l-3-20h5zm7 38l19 107-5 4-20-112h5zm27 151l3 18-5 3-3-17 5-3zm7 42l31 177-5 3-31-177 5-2z"/>
    <path class="fil113" d="M1211 1564l15 83-5 2-15-83 5-1zm19 106l12 69-6-2-12-66c2-1 3-1 5-2zm15 83v1l-5-3 5 2zm4 21l27 151-5 1-28-156 6 4zm33 188l4 21h-5l-4-20h5zm7 38l18 103-5 4-19-107h5zm26 147l3 18-5 3-3-18 5-3zm8 43l31 176-5 3-31-177 5-2z"/>
    <path class="fil113" d="M1217 1562l15 83-5 2-15-83 5-1zm19 106l13 72-6-2-12-69 5-2zm15 87v2l-6-4v-1l6 3zm4 23l26 146-5 1-27-151 6 4zm32 183l4 21h-5l-4-21h5zm7 39l17 99-5 4-18-103h5zm25 144l3 19-5 3-3-18 5-3zm8 43l31 176-5 3-31-176 5-2z"/>
    <path class="fil114" d="M1222 1561l15 82-5 2-15-83 5-1zm19 106l13 76-6-2-13-72c2-1 3-1 5-2zm16 91l1 4-6-4v-2l6 3zm4 25l25 141-5 1-26-146 6 4zm32 179l4 22h-5l-4-21h5zm7 39l17 94-5 4-17-99h5zm25 140l3 20-5 3-3-19 5-3zm8 44l31 176-5 3-31-176 5-2z"/>
    <path class="fil114" d="M1227 1560l14 82-5 2-15-82 5-1zm19 105l14 79-6-2-13-76c2-1 3-1 5-2zm17 95l1 5-6-4-1-4 6 3zm5 26l24 136-5 1-25-141 6 4zm31 174l4 22h-5l-4-22h5zm7 40l16 90-5 4-17-94h5zm24 137l4 20-5 3-3-20 5-3zm8 45l31 176-5 3-31-176 5-2z"/>
    <path class="fil114" d="M1232 1559l14 82-5 2-14-82 5-1zm19 105l14 82-6-2-14-79 5-2zm18 100l1 6-6-4-1-5 6 3zm5 28l23 131-5 1-24-136 6 4zm30 170l4 23h-5l-4-22h5zm7 40l15 86-5 4-16-90h5zm24 133l4 21-5 3-4-20 5-3zm8 46l31 175-5 3-31-176 5-2z"/>
    <path class="fil114" d="M1237 1557l14 81-5 2-14-82 5-1zm18 105l15 85-6-2-14-82 5-2zm18 104l1 7-6-4-1-6 6 3zm5 30l22 126-5 1-23-131 6 4zm29 165l4 23h-5l-4-23h5zm7 41l14 82-5 4-15-86h5zm23 130l4 22-5 3-4-21 5-3zm8 47l31 175-5 3-31-175 5-2z"/>
    <path class="fil115" d="M1242 1556l14 81-5 1-14-81 5-1zm18 104l16 88-6-2-15-85 5-2zm19 108l2 9-6-4-1-7 6 3zm6 32l21 121-5 1-22-126 6 4zm28 160l4 24h-5l-4-23h5zm7 42l14 77-5 4-14-82h5zm22 126l4 22-5 3-4-22 5-3zm8 47l31 174-5 3-31-175 5-2z"/>
    <path class="fil115" d="M1247 1555l14 81-5 1-14-81 5-1zm18 104l16 92-6-2-16-88 5-2zm20 112l2 10-6-4-2-9 6 3zm6 33l20 116-5 1-21-121 6 4zm27 156l4 24h-5l-4-24h5zm7 42l13 73-5 4-14-77h5zm22 123l4 23-5 3-4-22 5-3zm9 48l31 174-5 3-31-174 5-2z"/>
    <path class="fil116" d="M1252 1554l14 81-5 1-14-81 5-1zm18 104l17 95-6-2-16-92 5-1zm20 116l2 11-6-4-2-10 6 3zm6 35l19 110-5 1-20-116 6 4zm27 151l4 25h-5l-4-24h5zm8 43l12 69-5 4-13-73h5zm21 120l4 23-5 3-4-23 5-3zm9 49l31 173-5 3-31-174 5-2z"/>
    <path class="fil116" d="M1258 1553l14 80-5 1-14-81 5-1zm18 103l17 98-6-2-17-95 5-1zm21 120l2 13-6-4-2-11 6 3zm6 37l19 105-5 1-19-110 6 4zm26 146l5 26h-5l-4-25h5zm8 43l11 64-5 4-12-69h5zm20 116l4 24-5 3-4-23 5-3zm9 50l30 173-5 3-31-173 5-2z"/>
    <path class="fil117" d="M1263 1552l14 80-5 1-14-80 5-1zm18 103l18 101-6-2-17-98 5-1zm22 124l2 14-6-4-2-13 6 3zm7 39l18 100-5 1-19-105 6 4zm25 141l5 26h-5l-5-26h5zm8 44l11 60-5 4-11-64h5zm20 113l4 25-5 3-4-24 5-3zm9 51l30 172-5 3-30-173 5-2z"/>
    <path class="fil117" d="M1268 1551l14 80-5 1-14-80 5-1zm18 103l18 104-6-2-18-101 5-1zm23 129l3 15-6-4-2-14 6 3zm7 40l17 95-5 1-18-100 6 4zm24 137l5 27h-5l-5-26h5zm8 44l10 56-5 4-11-60h5zm19 109l4 25-5 3-4-25 5-3zm9 51l30 172-5 3-30-172 5-2z"/>
    <path class="fil117" d="M1273 1549l14 80-5 1-14-80 5-1zm18 103l19 107-6-2-18-104 5-1zm23 133l3 17-6-4-3-15 6 3zm7 42l16 89-5 1-17-95 6 5zm23 132l5 27h-5l-5-27h5zm8 45l9 52-5 4-10-56h5zm19 106l5 26-5 3-4-25 5-3zm9 52l30 171-5 3-30-172 5-2z"/>
    <path class="fil117" d="M1278 1548l14 79-5 1-14-80 5-1zm18 102l19 110-6-2-19-107 5-1zm24 137l3 18-6-4-3-17 6 3zm8 44l15 84-5 1-16-89 6 5zm22 127l5 28h-5l-5-27h5zm8 46l8 47-5 4-9-52h5zm18 102l5 27-5 3-5-26 5-3zm9 53l30 170-5 3-30-171 5-2z"/>
    <path class="fil118" d="M1283 1547l14 79-5 1-14-79 5-1zm18 102l20 113-6-2-19-110 5-1zm25 141l3 19-6-4-3-18 6 3zm8 46l14 79-5 1-15-84 6 5zm22 122l5 28h-5l-5-28h5zm8 46l8 43-5 4-8-47h5zm17 99l5 27-5 3-5-27 5-3zm9 54l30 170-5 3-30-170 5-2z"/>
    <path class="fil118" d="M1288 1546l14 79-5 1-14-79 5-1zm18 102l20 116-6-2-20-113 5-1zm26 145l4 21-6-4-3-19 6 3zm8 47l13 74-5 1-14-79 6 5zm21 117l5 29h-5l-5-28h5zm8 47l7 39-5 4-8-43h5zm17 95l5 28-5 3-5-27 5-3zm10 54l30 169-5 3-30-170 5-2z"/>
    <path class="fil118" d="M1294 1545l14 79-5 1-14-79 5-1zm18 101l21 119-6-2-20-116 5-1zm26 149l4 22-6-4-4-21 6 3zm9 49l12 68-5 1-13-74 6 5zm20 112l5 30h-5l-5-29h5zm8 47l6 34-5 4-7-39h5zm16 92l5 29-5 3-5-28 5-3zm10 55l30 168-5 3-30-169 5-2z"/>
    <path class="fil119" d="M1299 1544l14 79-5 1-14-79 5-1zm18 101l22 122-6-2-21-119 5-1zm27 153l4 23-6-4-4-22 6 3zm9 51l11 63-5 1-12-68 6 5zm19 107l5 30h-5l-5-30h5zm8 48l5 30-5 4-6-34h5zm16 88l5 29-5 3-5-29 5-3zm10 56l29 167-5 3-30-168 5-2z"/>
    <path class="fil119" d="M1304 1543l14 78-5 1-14-79 5-1zm18 101l22 125-6-2-22-122 5-1zm28 157l4 25-6-4-4-23 6 3zm9 53l10 57-5 1-11-63 6 5zm18 103l5 31h-5l-5-30h5zm9 48l5 26-5 4-5-30h5zm15 85l5 30-5 3-5-29 5-3zm10 57l29 166-5 3-29-167 5-2z"/>
    <path class="fil119" d="M1309 1542l14 78-5 1-14-78 5-1zm18 101l23 128-6-2-22-125 5-1zm28 161l5 26-6-4-4-25 6 3zm10 55l9 52-5 1-10-57 6 5zm17 98l6 31h-5l-5-31h5zm9 49l4 22-5 4-5-26h5zm14 81l5 30-5 3-5-30 5-3zm10 58l29 165-5 3-29-166 5-2z"/>
    <path class="fil119" d="M1314 1541l14 78-5 1-14-78 5-1zm18 101l23 131-6-2-23-128 5-1zm29 165l5 28-6-4-5-26 6 3zm10 57l8 47-5 1-9-52 6 5zm16 93l6 32h-5l-6-31h5zm9 50l3 17-5 4-4-22h5zm14 78l5 31-5 3-5-30 5-3zm10 58l29 164-5 3-29-165 5-2z"/>
    <path class="fil120" d="M1319 1540l14 78-5 1-14-78 5-1zm18 100l24 134-6-2-23-131 5-1zm30 169l5 29-6-4-5-28 6 3zm10 59l7 41-5 1-8-47 6 5zm15 88l6 32h-5l-6-32h5zm9 50l2 13-5 4-3-17h5zm13 74l6 32-5 3-5-31 5-3zm10 59l29 163-5 3-29-164 5-2z"/>
    <path class="fil120" d="M1325 1540l14 78-5 1-14-78 5-1zm18 100l24 137-6-2-24-134 5-1zm31 173l5 31-6-4-5-29 6 3zm11 60l6 36-5 1-7-41 6 5zm15 83l6 33h-5l-6-32h5zm9 51l2 9-5 4-2-13h5zm13 71l6 32-5 3-6-32 5-3zm11 60l29 162-5 3-29-163 5-2z"/>
    <path class="fil120" d="M1330 1539l14 77-5 1-14-78 5-1zm18 100l25 140-6-2-24-137 5-1zm31 177l6 32-6-4-5-31 6 3zm11 62l5 30-5 1-6-36 6 5zm14 78l6 34h-5l-6-33h5zm9 51l1 4-5 4-2-9h5zm12 68l6 33-5 2-6-32 5-3zm11 61l28 161-5 4-29-162 5-2z"/>
    <path class="fil120" d="M1335 1538l14 77-5 1-14-77 5-1zm18 100l25 143-6-2-25-140 5-1zm32 181l6 33-6-4-6-32 6 3zm11 64l4 25-5 1-5-30 6 5zm13 73l6 34h-5l-6-34h5zm9 52l-5 4-1-4h5zm11 64l6 34-5 2-6-33 5-3zm11 61l28 160-5 4-28-161 5-2z"/>
    <path class="fil120" d="M1340 1537l14 77-5 1-14-77 5-1zm18 99l26 146-6-2-25-143 5-1zm33 185l6 35-6-4-6-33 6 3zm12 66l3 19-5 1-4-25 6 5zm12 68l6 35h-5l-6-34h5zm20 113l6 34-5 2-6-34 5-3zm11 62l28 159-5 4-28-160 5-2zm-27-123z"/>
    <path class="fil120" d="M1345 1536l14 77-5 1-14-77 5-1zm18 99l26 148-6-2-26-146 5-1zm33 189l6 36-6-4-6-35 6 3zm12 68l2 14-5 1-3-19 6 5zm11 63l6 35h-5l-6-35h5zm19 110l6 35-5 2-6-34 5-3zm11 63l28 157-5 4-28-159 5-2z"/>
    <path class="fil121" d="M1351 1535l14 77-5 1-14-77 5-1zm17 99l27 151-6-2-26-148 5-1zm34 193l7 38-6-4-6-36 6 3zm12 70l1 8-5 1-2-14 6 5zm10 57l6 36h-5l-6-35h5zm19 107l6 35-5 2-6-35 5-3zm11 63l27 156-5 4-28-157 5-2z"/>
    <path class="fil121" d="M1356 1534l14 77-5 1-14-77 5-1zm17 99l27 154-6-2-27-151 5-1zm35 197l7 39-6-4-7-38 6 3zm13 72v3l-5 1-1-8 6 5zm9 52l6 36h-5l-6-36h5zm18 104l6 36-5 2-6-35 5-3zm11 64l27 154-5 4-27-156 5-2z"/>
    <path class="fil121" d="M1361 1534l13 76-5 1-14-77 5-1zm17 99l28 157-6-2-27-154 5-1zm36 201l7 41-6-4-7-39 6 3zm21 121l7 37h-5l-6-36h5zm18 102l6 37-5 2-6-36 5-3zm11 65l27 153-5 4-27-154 5-2zm-43-216v-3l3 2h-3z"/>
    <path class="fil121" d="M1366 1533l13 76-5 1-13-76 5-1zm17 98l28 160-6-2-28-157 5-1zm36 205l7 42-6-5-7-41 6 3zm21 118l7 38h-5l-7-37h5zm17 99l7 37-5 2-6-37 5-3zm12 66l27 151-5 4-27-153 5-2z"/>
    <path class="fil122" d="M1371 1532l13 76-5 1-13-76 5-1zm17 98l29 163-6-2-28-160 5-1zm37 209l8 44-6-5-7-42 6 3zm20 114l7 38h-5l-7-38h5zm17 96l7 38-5 2-7-37 5-3zm12 66l26 150-5 4-27-151 5-2z"/>
    <path class="fil122" d="M1376 1531l13 76-5 1-13-76 5-1zm17 98l29 166-6-2-29-163 5-1zm38 213l8 45-6-5-8-44 6 3zm20 111l7 39h-5l-7-38h5zm16 93l7 39-5 2-7-38 5-3zm12 67l26 148-5 4-26-150 5-2z"/>
    <path class="fil123" d="M1382 1531l13 76-5 1-13-76 5-1zm17 98l30 168-6-2-29-166 5-1zm38 217l8 47-6-5-8-45 6 3zm19 108l7 39h-5l-7-39h5zm16 90l7 39-5 2-7-39 5-3zm12 68l26 147-5 4-26-148 5-2z"/>
    <path class="fil123" d="M1387 1530l13 76-5 1-13-76 5-1zm17 98l30 171-6-2-30-168 5-1zm39 221l9 48-6-5-8-47 6 3zm18 105l7 40h-5l-7-39h5zm15 87l7 40-5 2-7-39 5-3zm12 69l26 145-5 4-26-147 5-2z"/>
    <path class="fil124" d="M1392 1529l13 76-5 1-13-76 5-1zm17 98l31 174-6-2-30-171 5-1zm40 225l9 50-6-5-9-48 6 3zm18 101l7 40h-5l-7-40h5zm15 84l7 40-5 2-7-40 5-3zm12 69l25 143-5 4-26-145 5-2z"/>
    <path class="fil124" d="M1397 1528l13 75-5 1-13-76 5-1zm17 97l31 177-6-2-31-174 5-1zm40 229l9 52-6-5-9-50 6 3zm17 98l7 41h-5l-7-40h5zm14 82l7 41-5 2-7-40 5-3zm12 70l25 141-5 4-25-143 5-2zM1403 1528l13 75-5 1-13-75 5-1zm17 97l32 179-6-2-31-177 5-1zm41 233l9 53-6-5-9-52 6 3zm17 95l7 42h-5l-7-41h5zm14 79l7 42-5 2-7-41 5-3zm12 71l25 139c-2 1-3 3-5 4l-25-141 5-2z"/>
    <path class="fil124" d="M1408 1527l13 75-5 1-13-75 5-1zm17 97l32 182-6-2-32-179 5-1zm42 237l9 50-4 1-1-1-9-53 6 3zm16 92l7 42h-5l-7-42h5zm13 76l7 42-5 2-7-42 5-3zm13 71l24 137-5 4-25-139 5-2z"/>
    <path class="fil125" d="M1413 1526l13 75-5 1-13-75 5-1zm17 97l33 185-6-2-32-182 5-1zm42 241l8 47-5 1-9-50 6 3zm16 88l8 43h-5l-7-42h5zm13 73l8 43-5 2-7-42 5-3zm13 72l24 135-5 4-24-137 5-2z"/>
    <path class="fil125" d="M1418 1526l13 75-5 1-13-75 5-1zm17 97l33 188-6-2-33-185 5-1zm43 245l8 43-5 1-8-47 6 3zm15 85l8 43h-5l-8-43h5zm12 70l8 43-5 2-8-43 5-3zm13 73l23 133-5 5-24-135 5-2z"/>
    <path class="fil126" d="M1423 1525l13 75-5 1-13-75 5-1zm17 97l34 190-6-2-33-188 5-1zm44 249l7 39-5 1-8-43 6 3zm14 82l8 44h-5l-8-43h5zm12 67l8 44-5 2-8-43 5-3zm13 73l23 131-5 5-23-133 5-2z"/>
    <path class="fil126" d="M1429 1525l13 75-5 1-13-75 5-1zm17 97l34 193-6-2-34-190 5-1zm45 252l6 35-5 1-7-39 6 3zm14 78l8 44h-5l-8-44h5zm11 64l8 45-5 2-8-44 5-3zm13 74l23 128c-1 2-3 3-5 5l-23-131 5-2z"/>
    <path class="fil126" d="M1434 1524l13 75-5 1-13-75 5-1zm17 96l35 196-6-2-34-193 5-1zm45 256l6 32-5 1-6-35 6 3zm13 75l8 45h-5l-8-44h5zm11 62l8 45-5 2-8-45 5-3zm13 75l22 126-5 5-23-128 5-2z"/>
    <path class="fil126" d="M1439 1524l13 74-5 1-13-75 5-1zm17 96l35 199-6-2-35-196 5-1zm46 260l5 28-5 1-6-32 6 3zm13 72l8 46h-5l-8-45h5zm10 59l8 46-5 2-8-45 5-3zm13 75l22 123c-1 2-3 3-4 5l-22-126 5-2z"/>
    <path class="fil127" d="M1444 1523l13 74-5 1-13-74 5-1zm17 96l35 201-6-2-35-199 5-1zm47 264l4 24-5 1-5-28 6 3zm12 68l8 46h-5l-8-46h5zm10 56l8 46-5 2-8-46 5-3zm20 112l15 85c-1 2-3 3-4 5l-22-123 3-2c3 12 5 23 8 35z"/>
    <path class="fil127" d="M1450 1523l13 74-5 1-13-74 5-1zm17 96l36 204-6-2-35-201 5-1zm47 268l4 20-5 1-4-24 6 3zm11 65l8 47h-5l-8-46h5zm9 53l8 47-5 2-8-46 5-3zm30 200l-15-85 18 81-3 4z"/>
    <path class="fil127" d="M1455 1522l13 74-5 1-13-74 5-1zm17 96l36 207-6-2-36-204 5-1zm48 272l3 16-5 1-4-20 6 3zm11 62l8 47h-5l-8-47h5zm9 50l8 48-5 2-8-47 5-3z"/>
    <path class="fil127" d="M1460 1522l13 74-5 1-13-74h5zm17 96l37 209-6-2-36-207 5-1zm49 276l2 13-5 1-3-16 6 3zm10 58l8 47h-6l-8-47h5zm10 58l7 37-5 2-8-48 4-3 2 11z"/>
    <path class="fil127" d="M1465 1521l13 74-5 1-13-74h5zm17 96l37 212-6-2-37-209 5-1zm49 279l2 9-5 1-2-13 6 3zm10 55l8 45-5 3-8-47h5zm12 96l-7-37c3 12 6 24 8 37l-2 1z"/>
    <path class="fil128" d="M1471 1521l13 74-5 1-13-74h5zm17 96l38 215-6-2-37-212 5-1zm50 283l1 5-5 1-2-9 6 3zm9 51l7 42-5 3-8-45h5z"/>
    <path class="fil128" d="M1476 1520l13 74-5 1-13-74h5zm17 95l38 217-6-2-38-215 5-1zm51 287v1l-5 1-1-5 6 3zm8 48l7 39-5 3-7-42h5z"/>
    <path class="fil128" d="M1481 1520l13 74-5 1-13-74h5zm17 95l39 220-6-2-38-217 5-1zm50 281l2 10-4-2 2-8zm10 55l6 36-5 3-7-39h5zm-14-47v-1l2 1h-2z"/>
    <path class="fil129" d="M1486 1519l13 74h-5l-13-74h5zm17 95l39 222-6-2-39-220 5-1zm48 270l4 24-6-3-2-10 3-11zm12 66l6 33-5 3-6-36h5z"/>
    <path class="fil129" d="M1492 1519l13 73h-5l-13-74h5zm17 95l38 216-3 8-1-1-39-222h5zm46 260l7 39-6-3-4-24 3-11zm14 77l5 30-5 3-6-33h5z"/>
    <path class="fil129" d="M1497 1519l13 73h-5l-13-73h5zm17 95l36 206-4 10-38-216h5zm44 249l9 53-1-1h-1l-4-2-7-39 3-11zm15 88l5 28-5 3-5-30h5z"/>
    <path class="fil129" d="M1502 1518l13 73h-5l-13-73h5zm17 95l35 196-4 10-36-206h5zm42 238l12 68-6-3-9-53 3-11zm17 99l4 25-5 3-5-28h5z"/>
    <path class="fil129" d="M1508 1518l13 73h-5l-13-73h5zm17 95l33 186-4 10-35-196h5zm40 228l14 82-6-3-12-68 3-11zm19 110l4 22-5 3-4-25h5z"/>
    <path class="fil129" d="M1513 1518l13 73h-5l-13-73h5zm17 95l31 176-4 10-33-186h5zm38 217l17 96-6-3-14-82 3-11zm21 120l3 19-5 3-4-22h5zm31 178l1 3v1-4z"/>
    <path class="fil130" d="M1518 1517l13 73h-5l-13-73h5zm17 95l29 166-4 10-31-176h5zm36 207l20 111-6-3-17-96 3-11zm23 131l3 16-5 3-3-19h5zm25 142l6 33c-1 2-3 4-4 7l-1-3-1-36z"/>
    <path class="fil130" d="M1523 1517l13 73h-5l-13-73h5zm17 95l28 156-4 10-29-166h5zm35 196l22 125-6-3-20-111 3-11zm25 142l2 14-5 3-3-16h5zm19 105l11 62c-1 2-3 5-4 7l-6-33-1-37z"/>
    <path class="fil130" d="M1529 1517l13 73h-5l-13-73h5zm17 95l26 147-4 10-28-156h5zm33 186l25 139-6-3-22-125 3-11zm27 153l2 11-5 3-2-14h5zm12 69l16 92c-1 2-3 5-4 7l-11-62-1-37z"/>
    <path class="fil130" d="M1534 1516l13 73h-5l-13-73h5zm17 95l24 137-4 10-26-147h5zm31 175l27 153-6-3-25-139 3-11zm29 163l1 8-5 3-2-11h5zm9 49l19 105c-1 2-3 5-4 7l-16-92-1-19 2-1z"/>
    <path class="fil131" d="M1539 1516l13 73h-5l-13-73h5zm17 94l22 127-4 10-24-137h5zm29 165l29 167-6-3-27-153 3-11zm31 174h-1 1zm1 5l-1 1 1-1zm1 5l2 12c-1 2-3 3-4 5 0-5 0-11-1-16l2-1zm6 37l17 99c-1 2-3 5-4 7l-19-105 5-1zm-12-39l-1-8h5v6l-3 2zm3-8zM1545 1516l13 73h-5l-13-73h5zm17 94l21 118-4 10-22-127h5zm27 155l32 181-6-3-29-167 3-11zm33 184v2h-1c-2-1-3-2-5-3h5zm1 8l2 10c-1 2-3 4-4 6l-2-12 5-3zm7 38l16 93c-1 3-3 5-4 8l-17-99 5-1zm-13-41l4-2c-1 1-2 1-3 2h-1z"/>
    <path class="fil132" d="M1550 1516l13 73h-5l-13-73h5zm17 94l19 108-4 10-21-118h5zm25 144l34 191v4l-5-3-32-181 3-11zm34 194h-1 1zm1 7l1 5c-1 2-3 4-4 5l-2-10 3-2 2 1zm7 38l15 86c-1 3-3 5-4 8l-16-93 5-1zm-13-42v-2h5c-1 1-2 1-4 2h-1z"/>
    <path class="fil132" d="M1555 1516l13 73h-5l-13-73h5zm17 94l17 98-4 10-19-108h5zm24 134l30 171v30l-34-191 3-10zm36 202l1 3h-5l5-3zm8 47l14 80c-1 3-3 5-4 8l-15-86 5-1zm-11-32l-1-5 3 2-3 3z"/>
    <path class="fil132" d="M1560 1515l13 73h-5l-13-73h5zm17 94l16 89-4 10-17-98h5zm22 124l27 151v30l-30-171 3-10zm37 210l1 6h-5l-1-3 5-3zm8 48l13 73c-1 3-3 6-4 8l-14-80 5-1z"/>
    <path class="fil132" d="M1566 1515l13 73h-5l-13-73h5zm17 94l14 79-4 10-16-89h5zm20 114l23 131v30l-27-151 4-10zm38 217l1 6-3 3h-2l-1-6 5-3zm9 50l11 65c-1 3-2 6-4 9l-13-73 5-1z"/>
    <path class="fil133" d="M1571 1515l13 73h-5l-13-73h5zm17 94l12 70-4 10-14-79h5zm18 104l20 111v30l-23-131 4-10zm40 225l1 4-5 5-1-6 5-3zm9 51l10 57c-1 3-2 6-4 9l-11-65 3-1h3z"/>
    <path class="fil133" d="M1576 1515l13 73h-5l-13-73h5zm17 94l11 61-4 10-12-70h5zm17 94l16 91v30l-20-111 4-10zm41 232v2l-5 5-1-4 5-3zm9 54l8 48c-1 3-2 6-4 10l-10-57h5z"/>
    <path class="fil134" d="M1582 1515l13 73h-5l-13-73h5zm17 94l9 51-4 9-11-61h5zm15 84l13 71v30l-16-91 4-10zm42 239l-5 5v-2l5-3zm10 56l7 38c-1 3-2 7-4 10l-8-48h5z"/>
    <path class="fil134" d="M1587 1515l13 73h-5l-13-73h5zm17 94l7 42-4 9-9-51h5zm13 74l9 51v30l-13-71 4-10zm54 306l5 28c-1 4-2 7-3 11l-7-38h5zm-15-56z"/>
    <path class="fil134" d="M1592 1515l13 73h-5l-13-73h5zm17 94l6 33-4 9-7-42h5zm11 64l5 30v30l-9-51 4-10zm56 316l3 16c-1 4-2 7-3 11l-5-28h5z"/>
    <path class="fil135" d="M1598 1515l13 73h-5l-13-73h5zm17 94l4 24-4 9-6-33h5zm9 54l2 10v30l-5-30 4-10zm57 326l1 4-3 12-3-16h5z"/>
    <path class="fil135" d="M1603 1515l13 73h-5l-13-73h5zm17 94l3 15-4 9-4-24h5zm62 384l-1-4h2l-1 4zm-56-320l-2-10 2-5v15z"/>
    <path class="fil135" d="M1608 1515l13 73h-5l-13-73h5zm14 109l-3-15h5c0 3 0 5 1 8l-3 7z"/>
    <path class="fil71" d="M1614 1515l10 59v14h-3l-13-73h5zM1619 1515l7 37c-1 7-1 15-1 22l-10-59h5z"/>
    <path class="fil71" d="M1626 1552l-7-37h11c-2 12-3 24-4 37zm68 313c0-1 0-1-1-2v2z"/>
    <path class="fil136" d="M1183 2240c117-85 237-165 360-241 4 16 7 32 11 47-126 60-249 125-371 194zm442-290c-202 3-360 12-557 29 170 1 302 7 475 21 27-17 54-33 82-50zm442 290c-117-85-237-165-360-241 25-2 50-4 76-6 98 79 192 161 284 247zm-453-290c4 141 9 290 11 426 26-126 54-252 83-377-27-17-65-33-93-49zm396-199c-104 46-206 98-306 153-4-14-8-27-12-41 104-42 210-79 318-112zm-385 199c201 1 401 10 601 30-175-32-346-56-521-76-27 15-53 31-80 46zm-386-199c104 46 206 98 305 153-25 3-49 5-74 8-75-57-152-111-231-161zm386 199v-292c-30 81-56 163-80 246 27 15 54 30 80 46zm-461-231c130 33 254 72 379 119 25-75 51-149 82-222 30 73 57 147 82 222 126-46 247-84 377-117-92 58-172 117-257 183 172 22 333 51 502 87-169-4-328 2-496 13 119 101 221 198 331 308-152-87-294-159-452-234-31 132-60 264-87 397-28-133-54-259-84-391-158 75-301 146-458 229 110-110 215-205 334-305-169-11-330-13-503-16 169-37 337-65 509-87-85-67-168-129-259-186z"/>
    <path class="fil137" d="M1626 1620c30 73 57 147 82 222 122-45 239-81 364-114 4-3 9-6 13-8-130 33-252 71-377 117-25-75-51-149-82-222-30 73-57 147-82 222-126-47-250-86-379-119 4 3 9 6 13 8 126 33 245 71 367 116 25-75 51-149 82-222z"/>
    <path class="fil138" d="M1418 2007c-117 99-225 197-334 305 4-2 13-8 17-10 107-106 202-191 316-288v-7z"/>
    <path class="fil139" d="M1626 1949v0zM1621 1952c-1 1-3 2-4 3-25 15-49 30-74 45l1 5c27-17 54-32 81-48v-6c-1 1-3 2-4 3z"/>
    <path class="fil138" d="M1545 1904c-3 0-5 1-8 1-22 2-44 5-67 7-75-57-152-111-231-161v6c79 50 156 104 231 161 25-3 50-6 74-8 24 13 47 26 71 40h10c-26-15-54-31-80-46zM1183 2247c122-69 245-133 371-194v-7c-126 60-250 125-371 194v7z"/>
    <path class="fil140" d="M1708 1999c-29 124-57 253-83 377v5c26-126 53-251 82-376 84 52 206 131 360 243v-7c-117-85-237-165-360-241zM1839 2008l-5-5v8c115 97 206 184 313 290 4 2 14 8 18 10-112-112-213-207-326-303z"/>
    <path class="fil138" d="M1418 1905c-170 22-336 50-503 86 8 0 18 1 27 0 161-34 319-61 482-82v-6l-5 1zM1544 1999c-158-14-316-21-475-20v5c157-1 312 6 468 20 2-1 4-3 6-4z"/>
    <path class="fil140" d="M1827 1904c172 22 333 51 502 87-8 0-20 0-28-1-161-34-311-60-474-81v-6zM1626 1949c201 1 401 10 601 30v5c-197-20-394-30-592-30-2-1-4-2-5-3s-3-2-4-3h8-8zM1705 1903c3 0 5 1 7 1 97-54 196-104 298-149v-5c-104 46-206 97-305 153z"/>
    <path class="fil139" d="M1705 1903c-4-14-8-27-12-41v5c4 12 7 24 11 37l1-1z"/>
    <path class="fil136" d="M1646 2750c-6 4-14 9-20 13-6-4-14-9-20-13v-164c6-4 14-8 20-12 6 4 14 8 20 12v164zM673 2354c-3 6-6 12-10 19 6 2 18 6 23 8 57-31 114-61 170-91 2-9 3-13 6-20-6-2-12-3-17-5-58 29-115 58-172 88zM631 2017c-5 4-10 8-16 13l9 12c54-8 107-14 161-20 5-5 11-11 16-15-3-3-6-6-9-10-53 6-107 12-160 20zM836 1746c-5 2-11 5-16 7 1 3 1 9 2 12 39 6 79 12 118 20 5-3 12-7 17-10-1-3-1-7-2-10-39-7-79-14-118-19zM2041 1579h15l6 6c-21 13-41 27-61 41h-16c-2-2-4-4-6-7 20-14 41-28 61-40zM1611 1522c4-1 8-2 11-3 4 1 8 2 11 3v48c-4 1-8 3-12 4-4-1-8-3-12-4v-48zM1180 1586c2-2 6-5 8-7h15c21 13 41 26 61 40-2 2-4 4-6 7-5 0-13 1-18 1-20-14-40-28-61-41zM1055 2650c-8 2-18 2-27 4-2-6-6-11-8-17 40-48 80-95 122-142 8-2 18-3 26-5 2 5 6 13 8 18-41 47-81 95-121 143zM2565 2354c3 6 6 12 10 19-6 2-18 6-23 8-57-31-114-61-170-91-2-9-4-13-6-20 6-2 12-3 17-5 58 29 115 58 172 88zM2607 2017c5 4 10 8 16 13l-9 12c-54-8-107-14-161-20-5-5-11-11-16-15 3-3 6-6 9-10 53 6 107 12 160 20zM2401 1746c5 2 11 5 16 7-1 3-1 9-2 12-39 6-79 12-118 20-5-3-12-7-17-10 1-3 1-7 2-10 39-7 79-14 118-19zM2183 2650c7 1 18 3 27 4 3-6 5-11 8-17-40-48-80-95-122-142-8-2-18-3-26-5-2 5-6 13-8 18 41 47 81 95 121 143z"/>
    <path class="fil141" d="M672 2363c-1 3-4 7-5 10-1-1-2-1-4-1 3-6 6-12 10-19 57-30 114-60 172-88 6 1 12 3 17 5-1 3-2 7-3 10-5-1-11-2-16-4-58 29-114 57-171 87zM633 2025c-3 2-11 8-14 10-2-2-2-3-4-5 5-4 10-8 16-13 53-8 107-14 160-20 3 3 6 6 9 10l-3 3c-1-1-4-4-6-5-53 6-106 12-159 20zM821 1762c0-3-1-5-1-8 5-2 11-5 16-7 39 5 79 12 118 19 1 3 1 7 2 10-1 1-81-16-120-21-4 2-11 5-15 7z"/>
    <path class="fil140" d="M2056 1588l1 1c2-1 3-2 5-3l-6-6h-15c-21 13-41 26-61 40l5 5c19-13 38-25 57-37h15z"/>
    <path class="fil142" d="M1611 1531c4-1 8-2 11-3 4 1 8 2 11 3v-8c-4-1-8-2-11-3-4 1-8 2-11 3v8z"/>
    <path class="fil138" d="M1204 1586c19 12 38 26 56 38l5-5c-20-14-41-28-61-40h-15c-2 2-6 5-8 7 2 1 3 2 5 3l4-3h15z"/>
    <path class="fil140" d="M1167 2496c2 3 5 10 7 13l2-2c-1-2-6-13-8-18-8 2-18 3-26 5-41 47-82 95-122 142 1 2 2 5 3 7 26-31 81-97 122-143 6-1 15-3 22-4zM2565 2363c2 3 4 7 5 10 1-1 2-1 4-2-3-6-6-12-10-19-57-30-114-60-172-88-6 2-12 3-17 5 1 3 2 7 3 10 5-1 11-2 16-4 58 29 114 57 171 87zM2605 2025c3 2 11 8 14 10 2-2 2-3 4-5-5-4-10-8-16-13-53-8-107-14-160-20-3 3-6 6-9 10l3 3c1-1 4-4 6-5 53 6 106 12 159 20zM2417 1762c0-3 1-5 1-8-5-2-11-5-16-7-39 5-79 12-118 19-1 3-1 7-2 10 1 1 81-16 120-21 4 2 11 5 15 7zM2071 2496c-2 3-5 10-7 13l-2-2c1-2 6-13 8-18 8 2 18 3 26 5 41 47 82 95 122 142-1 2-2 4-3 7-26-31-81-97-122-143-6-1-15-3-22-4zM1642 2592l4 158v-164c-6-4-14-8-20-12-6 4-14 8-20 12v164l4-158c5-3 12-6 16-10 5 3 11 6 16 10z"/>
    <path class="fil138" d="M861 1998c67-308 494-399 761-399s694 91 761 399c83 381-485 521-761 521s-844-141-761-521zm-29 2c71-318 513-413 790-413s718 95 790 413c89 396-503 544-790 544s-878-148-790-544z"/>
    <path class="fil136" d="M864 2008c67-308 494-399 761-399s694 91 761 399c83 381-485 521-761 521s-844-141-761-521zm-29 2c71-318 494-415 789-415 294 0 718 96 790 415 89 396-503 544-790 544s-878-148-790-544z"/>
    <path class="fil143" d="M2628 2315c-2 5-4 9-6 14 2-5 4-9 6-14zM2636 2295c-3 7-5 14-8 20 3-7 6-13 8-20zM2644 2271v-1c-3 8-5 16-8 24 3-8 6-16 8-24zM2653 2241v-1c-2 10-5 21-8 31v1c3-10 6-20 8-30z"/>
    <path class="fil144" d="M2661 2191v-3c-2 18-4 35-8 53v1c4-17 7-34 8-51zm0-72v-1c-1-8-2-15-3-23l3 24zM2661 2118v1c1 11 1 22 2 33 0 12 0 24-2 35v3c2-24 2-48 0-73z"/>
    <path class="fil145" d="M2604 2361c-26-9-96-38-148-64-10-5-20-10-29-15-13-7-24-13-29-18 0 0-9-5-24-13 36-57 54-124 46-200l17 4 129 20 91 19c3 19 4 38 4 57 0 59-13 119-41 177-5 11-11 21-17 32z"/>
    <path class="fil146" d="M2457 2297c-11-5-21-10-29-15 10 5 20 10 29 15z"/>
    <path class="fil145" d="M2341 2234c-28-14-58-29-77-35-39-14-187-69-215-89-29-21-120-53-175-72-13-12-27-23-40-35 74-5 146-9 217-11 30 14 99 42 153 46-3-13-15-31-29-49h53c24 0 49 0 73 1h29c-61-13-121-25-180-36-6-10-11-20-13-28-12-57-74-123-116-147-7-4-12-7-15-8 21-15 43-29 65-43 4-3 9-6 13-8-48 12-94 25-140 38-4-1-6-1-8-1h-1c-8 0-41-5-45-13 2 1 4 1 7 1 39 0 54-11 65-28 7 0 14 1 24 3 0 0 18 3 33 3h7c17-1 18-8 38-9h3c18 0 28 9 33 20 5 12 23 42 34 59s86 55 119 97c24 30 67 78 86 106 11 17 31 33 50 43 7 75-11 140-48 195zm-525-215c-14-5-37-13-53-16 0 0-11-3-27-7l48-3c11 9 21 17 32 26zm-124-30c-3 0-6-1-9-1 0-1 1-2 1-4 3 1 6 3 8 4zm534-10c-21-2-42-4-64-6-1-2-3-4-4-6 23 4 45 8 68 12zm-251-214c-3-1-5-1-8-2 14-5 29-9 43-13-12 5-23 10-35 16z"/>
    <path class="fil147" d="M1616 1982l3 16-2 1zM1620 1972l4 24-5 1-3-17v-4c1-2 3-4 4-5z"/>
    <path class="fil147" d="M1624 1967l5 29-5 1-4-24c1-2 3-4 4-6zM1628 1961l6 33-5 1-5-29c1-2 3-4 4-5z"/>
    <path class="fil147" d="M1633 1960l6 33-5 1-6-33 3-3z"/>
    <path class="fil148" d="M1639 1963l5 28-5 2-6-33z"/>
    <path class="fil148" d="M1645 1966l4 24-5 1-5-28z"/>
    <path class="fil148" d="M1651 1969l4 20h-3l-3 1-4-24zM1657 1971l3 17h-5l-4-21 6 3z"/>
    <path class="fil149" d="M1663 1974l2 14h-5l-3-17 6 3zM1669 1977l2 11h-5l-2-14 6 3z"/>
    <path class="fil149" d="M1674 1980l1 8h-5l-2-11 6 3zM1680 1983l1 5h-5l-1-8 6 3z"/>
    <path class="fil150" d="M1681 1989l-1-5 4 2c0 1-1 2-1 4h-2z"/>
    <path class="fil151" d="M1874 2038c-12-10-23-20-35-30l-5-5v8c9 7 17 15 26 22-19-6-31-10-31-10s-5-2-13-5c-11-9-21-17-32-26l-48 3c-12-3-28-5-43-7-3-1-5-3-8-4-17-9-36-18-53-27 1-1 2-3 3-4h1c117 0 233 4 349 11 25 7 39 14 39 14l12 6s6 3 15 7c-72 2-144 6-217 11 14 12 27 23 40 35zm-292-31c11-3 19-8 25-16 3-5 6-9 9-14 0 7 0 14 1 21-12 3-25 6-35 9zm748-17c-61-13-121-25-180-36 60 11 119 23 180 36zm0 0h-17 17zm-29-1c-24 0-49-1-73-1h-53c-3-3-5-7-8-10 20 2 40 4 59 6v-5c-21-2-42-4-64-6 21 2 42 4 64 6-23-4-45-8-68-12-2-2-3-5-5-7 49 9 97 19 147 29zm-295-218c-9-4-11-2-22-4h-1c9-4 18-8 28-12v-5c-12 5-23 10-35 15 12-5 23-10 35-16-14 4-29 9-43 13-4-1-9-2-13-3 38-11 77-22 117-32-22 14-44 29-65 43z"/>
    <path class="fil145" d="M1949 1958c-86-5-172-7-259-9 2-13 3-27 4-40 13 2 14 6 36 13 12 4 60 21 184 32 12 1 24 2 35 3z"/>
    <path class="fil148" d="M1642 1946v3h-3z"/>
    <path class="fil148" d="M1646 1941l1 8h-5l-1-3c1-2 3-3 5-5zM1651 1937l2 13h-5l-1-8c1-2 3-3 5-5z"/>
    <path class="fil149" d="M1655 1932l3 17h-5l-2-13c1-2 3-3 5-5z"/>
    <path class="fil149" d="M1660 1929l4 21h-6l-3-18h1z"/>
    <path class="fil149" d="M1665 1926l4 24h-5l-4-21z"/>
    <path class="fil149" d="M1670 1924l4 26h-5l-4-24z"/>
    <path class="fil150" d="M1675 1921l5 29h-6l-4-26z"/>
    <path class="fil150" d="M1679 1918l6 32h-5l-5-29z"/>
    <path class="fil150" d="M1684 1915l6 35h-5l-6-32zM1689 1913l4 20c-1 6-1 12-2 18l-6-35 5-3z"/>
    <path class="fil150" d="M1694 1910c0 8-1 15-2 23l-4-20 5-3z"/>
    <path class="fil151" d="M1656 1932l9-9c5-5 9-10 11-14 4 0 7 0 11 1 3 0 5 0 7 1-13 7-26 15-39 22z"/>
    <path class="fil152" d="M1954 1761c-3-1-7-2-10-2 46-14 93-26 140-38-4 3-9 6-13 8-40 10-79 21-117 32z"/>
    <path class="fil146" d="M1873 2038c-5-2-10-3-14-5-8-7-17-15-26-22v-8l5 5c12 10 23 20 35 30zM2330 1991zm0 0h-29c-50-11-99-20-147-29-1-2-3-4-4-6 60 11 119 23 180 36zM2227 1985c-20-2-40-4-59-6-1-2-3-4-4-6 21 2 42 4 64 6v5zm-243-19c-116-7-232-11-349-11h-1c1-2 3-3 4-5 104 0 207 3 310 9 13 2 25 5 35 7zM1983 1768c-2 0-4-1-7-2 11-5 23-10 35-15v5c-9 4-18 8-28 12z"/>
    <path class="fil153" d="M2348 2238c-2-1-4-2-7-3 37-56 56-120 48-195 1 0 1 1 2 1 10 76-8 141-43 198z"/>
    <path class="fil151" d="M2375 2252c-8-4-17-9-27-14 35-56 52-122 43-198 11 6 22 10 30 12h1c8 76-10 143-46 200zM2618 1969l-3-6 3 6zm-4-8c-1-1-1-2-2-4 0 0 0 1 1 1v1c0 1 1 1 1 2z"/>
    <path class="fil154" d="M2619 1971l-1-3 1 3zm-1-3l-3-6c0-1-1-1-1-2s-1-1-1-2c2 3 3 6 5 10zm-5-11s0-1-1-1v-1c0 1 1 1 1 2z"/>
    <path class="fil143" d="M2619 1971c2 4 4 8 6 13-2-4-4-8-6-13zm7 16c0-1-1-1-1-2 0 1 1 1 1 2z"/>
    <path class="fil145" d="M2634 2005c-36-2-106-4-138-21 0-12-45-15-45-15s-16-10-12-17l35-21s13-3 26-3h18c56 0 79 6 80 7 4 7 8 14 12 22v1c1 1 1 2 2 4 0 1 1 1 1 2l3 6c2 5 5 10 7 15 0 1 0 1 1 2 0 1 1 1 1 2 3 6 5 12 7 17z"/>
    <path class="fil155" d="M2519 2473l-1 1 1-1zm-3 3z"/>
    <path class="fil156" d="M2527 2464l-4 4 4-4zm-8 9l1-1-1 1zm2-2l3-3-3 3zM2536 2455c-3 3-6 6-8 9 3-3 6-6 8-9zM2544 2446c-3 3-6 6-8 10 3-3 6-6 8-10zM2552 2436l-1 1 1-1zm-8 10c2-3 5-6 7-8-2 3-5 6-7 8zM2552 2436l1-2z"/>
    <path class="fil145" d="M2489 2503c-35-11-69-15-69-15s-65-19-84-22c-20-3-113-29-139-47 0 0-2-3-4-7 27-15 52-31 75-49 7 3 13 7 16 16 85 44 196 46 275 47-2 2-4 5-6 7l-2 2-1 1c-9 10-18 21-27 31l-3 3-1 1-2 2-2 2-11 11c-5 5-11 10-16 15zm-311-123c-5-15-6-28 7-28 15 0 25 1 33 3-13 9-26 17-40 25z"/>
    <path class="fil153" d="M2181 2388c-1-3-2-6-4-9 14-8 27-16 40-25 5 1 9 2 12 3-15 11-32 21-48 31z"/>
    <path class="fil151" d="M2193 2413c-3-6-8-15-12-24 17-10 33-20 48-31 7 3 9 5 9 5s5-1 12-1c5 0 12 1 18 3-23 18-48 34-75 49z"/>
    <path class="fil157" d="M2000 1127s-26-24-27-25c-2-8 7-19 10-33-3-1-5-2-8-3-6-24-12-68 0-91 6-11 12-26 9-40-22-74-64-138-94-208-8-19-7-33-8-52-23-26-50-93-63-134-27 69-45 147-45 166 0 77 78 115 51 243-5 25-15 59-24 94 16 89 16 154 40 258 33 33 61 76 76 130 9 33 37 112 73 124 22 7-76 25-103-10-27-33-73-60-95-96-17-28-45-89-62-118l-21 110c29 117 12 143-14 239-11 41-94-151-94-166 0-42-3-57-12-94-17-34-16-82-13-119 4-61 3-177 6-207-21-52-75-145-80-197-8-82 5-164-6-246-14 41-29 93-61 124-47 47-91 99-134 150-15 21-2 31-26 65-24 33-11 18-16 50-1 6-4 10-5 12-13 11-26 20-44 12-35-18-37-43-40-77-5-64 43-67 69-105 52-76 79-203 135-260 4-11 17-52 42-113 1-75 19-142 97-173 32-13 73-16 75-60 0-5-1-19-4-23-13-10-22-11-28-18-13-16-23-120-22-126 18-88 60-117 114-115 63 3 113 33 110 118-2 68-73 156 33 189 40 13 48 4 82 39 39 39 48 108 55 172l40 92c72 122 46 160 73 284 7 32 19 61 21 131 1 34-25 108-62 109z"/>
    <path class="fil0" d="M1707 259l-262 262 2-6v-2c0-37 5-62 11-79 18-55 45-66 98-84 33-11 57-34 58-72 2-45-12-40-36-58-12-18-15-101-16-107 12-51 29-96 86-91 91 8 89 81 68 143-11 34-17 67-10 94z"/>
    <path class="fil0" d="M1709 263l-267 267 4-10 262-262c0 2 1 3 1 5z"/>
    <path class="fil0" d="M1710 268l-273 273 4-10 267-267c0 2 1 3 1 4z"/>
    <path class="fil0" d="M1712 272l-279 279 4-10 273-273c1 1 1 3 2 4z"/>
    <path class="fil0" d="M1714 276l-285 285 4-10 279-279c1 1 1 3 2 4z"/>
    <path class="fil0" d="M1716 280l-291 291c1-3 3-7 4-10l285-285c1 1 1 3 2 4z"/>
    <path class="fil0" d="M1718 284l-297 297c1-3 3-7 4-10l291-291c1 1 1 2 2 4z"/>
    <path class="fil0" d="M1720 287l-303 303c1-3 2-6 4-10l297-297c1 1 2 2 2 4zM1723 291l-309 309c1-3 2-6 4-10l303-303 3 3z"/>
    <path class="fil0" d="M1726 294l-315 315 3-9 309-309 3 3z"/>
    <path class="fil0" d="M1729 297l-321 321 3-9 315-315 3 3z"/>
    <path class="fil0" d="M1732 300l-327 327 3-9 321-321 3 3z"/>
    <path class="fil0" d="M1735 303l-337 337c1-2 3-3 4-5 1-3 2-5 2-8l327-327 3 3z"/>
    <path class="fil0" d="M1738 305l-362 362c7-10 14-19 21-27l337-337 3 3z"/>
    <path class="fil158" d="M1742 308l-375 375c3-6 7-11 10-16l362-362 3 3zM1746 310l-387 387c3-5 5-9 8-14l375-375c1 1 2 2 4 2zM1749 313l-398 398c2-4 5-9 7-13l387-387c1 1 2 2 4 2z"/>
    <path class="fil158" d="M1753 315l-408 408 6-12 398-398c1 1 3 1 4 2z"/>
    <path class="fil158" d="M1757 317l-417 417 6-12 408-408c1 1 3 1 4 2zM1761 319l-427 427c2-4 4-8 5-11l417-417c1 1 3 1 4 2z"/>
    <path class="fil158" d="M1765 320l-256 256c-1-5-4-2-6 4 0 1-1 2-1 4l-173 173c2-4 3-7 5-11l427-427c1 1 3 1 4 2z"/>
    <path class="fil158" d="M1770 322l-260 260-1-5 256-256c1 1 3 1 4 2zm-270 270l-176 176 5-11 173-173-3 9z"/>
    <path class="fil159" d="M1774 324l-264 264-1-5 260-260c1 1 3 1 4 2zm-277 277l-178 178 5-11 176-176-3 9z"/>
    <path class="fil159" d="M1779 325l-268 268-1-5 264-264c1 0 2 1 4 1h1zm-285 285l-180 180 5-11 178-178-3 9z"/>
    <path class="fil159" d="M1783 327l-272 272-1-5 268-268c2 1 3 1 5 1zm-293 293l-181 181c2-4 4-7 5-11l180-180-3 9z"/>
    <path class="fil159" d="M1788 328l-276 276-1-5 272-272c2 0 3 1 5 1zm-302 302l-183 183c2-4 4-8 5-11l181-181c-1 3-2 6-4 10z"/>
    <path class="fil159" d="M1793 329l-280 280-1-5 276-276c2 0 3 1 5 1zm-310 310l-185 185 6-12 183-183c-1 3-3 7-4 10z"/>
    <path class="fil159" d="M1798 330l-284 284-1-5 280-280c2 0 3 1 5 1zm-319 319l-187 187 6-12 185-185c-1 3-3 7-4 10z"/>
    <path class="fil159" d="M1803 331l-289 289-1-5 284-284 5 1zm-329 329l-190 190c2-4 5-9 7-13l187-187c-1 3-3 7-4 10z"/>
    <path class="fil159" d="M1808 332l-293 293-1-5 289-289c2 0 3 1 5 1zm-338 338l-193 193c3-5 5-9 8-14l190-190c-2 4-3 7-5 11z"/>
    <path class="fil159" d="M1812 333l-297 297-1-5 293-293c2 0 3 1 5 1zm-348 348l-199 199c4-5 7-11 11-17l193-193c-2 4-3 7-5 11zM1817 335l-301 301-1-5 297-297c1 0 2 1 3 1s1 0 2 1zm-358 358l-260 260c8-11 21-22 40-40 10-9 19-20 27-33l199-199c-2 4-4 8-5 11z"/>
    <path class="fil159" d="M1821 337l-305 305-1-5 301-301c1 1 3 1 4 2zm-369 369l-260 260c1-4 3-8 6-12l260-260-6 12z"/>
    <path class="fil159" d="M1825 338l-309 309-1-5 305-305c1 1 3 1 4 2zm-379 379l-255 255c0-3 1-5 2-8l260-260c-2 4-5 9-7 13zM1829 341l-312 312-1-5 309-309c1 1 3 1 4 2zm-392 392l-247 247c0-2 0-4 1-7l255-255c-3 5-6 10-8 14z"/>
    <path class="fil159" d="M1833 343l-315 315-1-5 312-312c1 1 2 2 4 2zm-411 411l-231 231v-6l247-247c-5 9-11 16-16 22z"/>
    <path class="fil159" d="M1836 345l-318 318-1-5 315-315c1 1 2 2 3 2zm-470 470l-175 175v-6l231-231c-1 1-2 2-2 3-19 19-36 38-53 59zM1840 348l-321 321-1-5 318-318 3 3zm-500 500l-148 148c0-2 0-4-1-5l175-175-27 33z"/>
    <path class="fil160" d="M1843 351l-323 323-1-5 321-321 3 3zm-526 526l-124 124c0-2-1-4-1-5l148-148c-8 10-15 19-23 29z"/>
    <path class="fil160" d="M1846 354l-326 326-1-5 323-323 3 3zm-552 552l-100 100c0-2-1-3-1-5l124-124c-8 10-15 19-23 29z"/>
    <path class="fil160" d="M1849 357l-328 328v-5l326-326 3 3zm-565 565l-90 90c0-2-1-3-1-5l100-100-2 3c-3 4-5 9-7 12z"/>
    <path class="fil160" d="M1852 360l-331 331v-6l328-328 3 3zm-571 571l-85 85c0-2-1-3-1-5l90-90-3 9z"/>
    <path class="fil160" d="M1854 363l-333 333v-6l331-331 3 3zm-575 575l-82 82c0-2-1-3-1-5l85-85c-1 3-1 5-2 8zM1857 367l-335 335v-6l333-333 3 3zm-580 580l-79 79c-1-1-1-2-1-3v-1l82-82c-1 3-1 5-2 8z"/>
    <path class="fil160" d="M1859 370l-337 337v-6l335-335c1 1 2 2 2 4zm-585 585l-73 73-3-3 79-79c-1 3-1 6-2 8zM1862 374l-339 339v-6l337-337c1 1 2 2 2 4zm-592 592l-66 66-3-3 73-73c-1 3-3 7-5 11z"/>
    <path class="fil161" d="M1864 378l-341 341v-6l339-339c1 1 2 2 2 4zm-604 604l-52 52-3-3 66-66c-2 3-4 6-6 10-2 2-3 5-4 7z"/>
    <path class="fil161" d="M1866 381l-343 343v-6l341-341c1 1 1 3 2 4zm-616 616l-40 40-3-3 52-52c-4 6-7 11-9 15z"/>
    <path class="fil161" d="M1868 385l-345 345v-6l343-343c1 1 1 3 2 4zm-621 621l-34 34-3-3 40-40c-2 3-3 6-3 9z"/>
    <path class="fil161" d="M1870 389l-347 347v-6l345-345c1 1 1 3 2 4zm-624 624l-30 30-3-3 34-34c0 2-1 4-1 7z"/>
    <path class="fil161" d="M1872 393l-349 349v-6l347-347c1 1 1 3 2 4zm-626 626l-26 26-3-3 30-30v6z"/>
    <path class="fil161" d="M1874 397l-350 350v-6l349-349c1 1 1 3 2 4zm-629 629l-22 22c-1-1-2-1-4-2l26-26v6zM1876 402l-352 352v-6l350-350c1 1 1 3 2 4zm-631 631l-13 13c-3 2-7 3-8 2l22-22c0 2 0 4-1 7z"/>
    <path class="fil161" d="M1878 406l-354 354v-6l352-352c1 1 1 3 2 4zm-646 640l13-13v3c0 2-7 7-13 10z"/>
    <path class="fil161" d="M1880 410l-356 356v-6l354-354c1 1 1 3 2 4z"/>
    <path class="fil161" d="M1881 414l-357 357v-6l356-356c1 1 1 3 2 4zM1883 419l-359 359v-6l357-357c1 1 1 3 2 4z"/>
    <path class="fil161" d="M1884 423l-361 361v-6l359-359c1 1 1 3 2 4zM1886 428l-363 363v-6l361-361c1 2 1 3 1 5z"/>
    <path class="fil161" d="M1887 432l-364 364v-6l363-363c0 2 1 3 1 5zM1889 437l-71 71c-6 3-11 9-15 15l-279 279v-6l364-364 1 5z"/>
    <path class="fil161" d="M1890 442l-68 68-1-3c-1 0-2 1-4 2l71-71 1 5zm-95 95l-272 272v-6l279-279c-3 4-5 9-7 13z"/>
    <path class="fil162" d="M1891 447l-68 68c0-2-1-3-1-5l68-68 1 5zm-101 101l-268 268v-6l272-272c-1 3-2 6-4 8l-1 2z"/>
    <path class="fil162" d="M1892 451l-68 68-1-5 68-68 1 5zm-107 107l-263 263v-6l268-268c-1 3-3 7-4 10z"/>
    <path class="fil162" d="M1893 456l-68 68c-1-2-1-3-1-5l68-68 1 5zm-111 111l-260 260v-6l263-263c-1 3-2 6-4 10zM1895 461l-67 67-2-4 68-68 1 5zm-116 116l-257 257v-6l260-260-3 9z"/>
    <path class="fil162" d="M1896 466l-67 67-2-4 67-67 1 5zm-120 120l-254 254v-6l257-257-3 9z"/>
    <path class="fil162" d="M1897 471l-66 66-2-4 67-67c0 2 1 3 1 5zm-123 123l-251 251v-6l254-254-3 9z"/>
    <path class="fil162" d="M1898 476l-65 65-2-4 66-66 1 5zm-127 127l-249 249v-6l251-251-3 9z"/>
    <path class="fil162" d="M1898 481l-65 65-2-4 65-65 1 5zm-130 130l-246 246v-6l249-249c-1 3-2 6-2 8z"/>
    <path class="fil162" d="M1899 486l-64 64-2-4 65-65 1 5zm-133 133l-244 244v-6l246-246c-1 3-1 5-2 8z"/>
    <path class="fil162" d="M1900 491l-63 63-2-4 64-64 1 5zm-136 136l-242 242v-6l244-244c-1 3-1 5-2 8zM1901 497l-62 62-2-4 63-63 1 5zm-139 139l-240 240v-6l242-242c-1 3-1 5-2 8z"/>
    <path class="fil162" d="M1902 502l-61 61-2-4 62-62 1 5zm-141 141l-238 238v-6l240-240c-1 3-1 5-2 8z"/>
    <path class="fil162" d="M1902 507l-60 60-2-4 61-61 1 5zm-143 143l-235 235v-6l238-238c-1 3-1 5-2 8zM1903 513l-59 59-2-4 60-60c0 2 0 4 1 5zm-146 146l-233 233c0-2 0-4-1-5l235-235c-1 3-1 5-1 7z"/>
    <path class="fil162" d="M1904 518l-57 57-2-4 59-59v5zm-148 148l-231 231c0-2 0-4-1-5l233-233c0 2-1 5-1 7z"/>
    <path class="fil162" d="M1905 522l-57 57-2-4 57-57 2 4zm-151 151l-229 229c0-2-1-3-1-5l231-231c0 2-1 5-1 7z"/>
    <path class="fil162" d="M1907 526l-57 57-2-4 57-57 2 4zm-153 153l-227 227c0-2-1-3-1-5l229-229c0 2-1 5-1 7z"/>
    <path class="fil163" d="M1909 531l-57 57-2-4 57-57 2 4zm-156 156l-226 226c0-2-1-3-1-5l227-227c0 2-1 5-1 7z"/>
    <path class="fil163" d="M1910 535l-57 57-2-4 57-57 2 4zm-158 158l-224 224c0-2-1-3-1-5l226-226c0 2 0 5-1 7z"/>
    <path class="fil163" d="M1912 539l-57 57-2-4 57-57 2 4zm-161 161l-222 222c0-2-1-3-1-5l224-224v6z"/>
    <path class="fil163" d="M1914 543l-56 56-2-4 57-57 2 4zm-162 162l-221 221c0-2-1-3-1-5l222-222v6zM1916 548l-56 56-2-4 56-56 2 4zm-164 164l-219 219c0-2-1-3-1-5l221-221v6z"/>
    <path class="fil163" d="M1917 552l-56 56-2-4 56-56 2 4zm-166 166l-218 218c-1-2-1-3-1-4l219-219v6z"/>
    <path class="fil163" d="M1919 556l-56 56-2-4 56-56 2 4zm-167 167l-217 217c-1-1-1-3-2-4l218-218v6zM1921 561l-55 55-2-4 56-56 2 4zm-168 168l-216 216-2-4 217-217c0 2 0 4 1 5z"/>
    <path class="fil164" d="M1923 565l-55 55-2-4 55-55 2 4zm-169 169l-215 215c-1-1-1-3-2-4l216-216c0 2 0 4 1 5z"/>
    <path class="fil164" d="M1924 569l-55 55-2-4 55-55 2 4zm-170 170l-214 214c-1-1-1-3-2-4l215-215c0 2 1 3 1 5zM1926 573l-54 54-2-4 55-55 2 4zm-171 171l-213 213-2-4 214-214c0 2 1 3 1 5zM1928 578l-54 54-2-4 54-54 2 4zm-171 171l-212 212-2-4 213-213c0 2 1 3 1 5z"/>
    <path class="fil164" d="M1929 582l-53 53-2-4 54-54 2 4zm-172 172l-212 212-2-4 212-212c0 2 1 3 1 5zM1931 586l-53 53-2-4 53-53 2 4zm-173 173l-211 211-2-4 212-212c0 2 1 3 1 5z"/>
    <path class="fil164" d="M1933 590l-52 52c-1-1-2-2-2-4l53-53 2 4zm-173 173l-126 126 1-3c-5 4-9 9-13 15l-73 73-2-4 211-211c0 2 1 3 1 5zM1935 595l-52 52c-1-1-2-2-2-4l52-52 2 4zm-173 173l-129 129c1-3 1-5 2-8l126-126c0 2 1 3 1 5zm-147 147l-63 63-2-4 73-73c-3 4-5 9-8 14z"/>
    <path class="fil164" d="M1936 599l-51 51c-1-1-2-2-2-4l52-52 2 4zm-173 173l-133 133c1-3 1-5 2-8l129-129c0 1 1 3 2 4zm-154 154l-56 56-2-4 63-63c-2 3-3 7-5 11z"/>
    <path class="fil164" d="M1938 603l-50 50c-1-1-2-2-2-4l51-51 2 4zm-174 173l-136 136c1-3 1-5 2-8l133-133c1 1 1 3 2 4zm-159 159l-51 51-2-4 56-56c-1 3-2 6-4 10zM1940 607l-49 49-3-3 50-50 2 4zm-174 174l-139 139c1-3 1-5 2-8l136-136c1 1 1 3 2 4zm-163 163l-46 46-2-4 51-51-3 9zM1942 612l-48 48-3-3 49-49 2 4zm-173 173l-143 143c1-3 1-5 2-8l139-139c1 1 1 3 2 4zm-168 168l-42 42-2-4 46-46-3 9z"/>
    <path class="fil164" d="M1943 616l-47 47-3-3 48-48 1 3 1 2zm-174 174l-146 146c0-3 1-5 2-8l143-143 1 2 1 2zm-172 172l-38 38-2-4 42-42c-1 3-1 5-2 8z"/>
    <path class="fil164" d="M1946 620l-48 48v-4l-1-1 47-47 2 4zm-174 174l-149 149 1-7 146-146 2 4zm-175 175l-34 34-2-4 38-38c-1 3-1 5-2 8z"/>
    <path class="fil164" d="M1948 623l-50 50v-6l48-48 2 4zm-174 174l-153 153 1-7 149-149 2 4zm-179 179l-30 30-2-4 34-34c-1 3-1 5-2 8z"/>
    <path class="fil164" d="M1950 627l-52 52v-6l50-50 2 4zm-175 175l-156 156 1-7 153-153 2 4zm-182 182l-27 27-2-4 30-30c-1 3-1 5-2 8z"/>
    <path class="fil165" d="M1952 631l-54 54v-6l52-52 2 4zm-175 175l-159 159 1-7 156-156 2 4zm-185 185l-24 24-2-4 27-27c0 2-1 5-1 7z"/>
    <path class="fil165" d="M1954 635l-55 55v-6l54-54 2 4zm-175 175l-162 162 1-7 159-159 2 4zm-188 188l-20 20-2-4 24-24c0 2-1 5-1 7z"/>
    <path class="fil165" d="M1956 639l-57 57c0-2 0-4-1-5l55-55 2 4zm-176 176l-164 164 1-7 162-162 2 4zm-191 191l-17 17-2-4 20-20c0 2-1 5-1 7z"/>
    <path class="fil165" d="M1958 643l-58 58c0-2-1-3-1-5l57-57 2 4zm-176 176l-167 167 1-7 164-164 2 4zm-194 194l-15 15-2-4 17-17c0 2-1 5-1 7z"/>
    <path class="fil165" d="M1960 647l-59 59c0-2-1-3-1-5l58-58 2 4zm-177 177l-170 170 1-7 167-167 2 4zm-197 197l-12 12-2-4 15-15c0 2-1 5-1 7zM1963 651l-60 60c0-2-1-3-1-5l59-59 2 4zm-177 177l-173 173 1-7 170-170 2 4zm-199 199l-9 9-2-4 12-12c0 2-1 5-1 7z"/>
    <path class="fil165" d="M1965 655l-60 60c-1-1-1-3-2-4l60-60 2 4zm-177 177l-175 175 1-7 173-173 2 4zm-202 201l-6 6-2-4 9-9-1 7z"/>
    <path class="fil165" d="M1966 659l-61 61-1-3-1-2 60-60 2 4zm-178 178l-178 178 1-7 175-175c1 2 1 3 2 4zm-204 204l-4 4-2-4 6-6-1 7z"/>
    <path class="fil166" d="M1968 663l-61 61-2-4 61-61 2 4zm-178 178l-180 180 1-7 178-178 1 5zm-206 206l-1 1-2-4 4-4-1 7z"/>
    <path class="fil166" d="M1970 667l-61 61-2-4 61-61 2 4zm-179 179l-182 182 1-7 180-180c0 2 1 3 1 5zm-209 203l1-1v3l-1-2z"/>
    <path class="fil166" d="M1972 671l-61 61-2-4 61-61 2 4zm-179 179l-184 184 1-7 182-182c0 2 1 3 1 5z"/>
    <path class="fil166" d="M1974 675l-61 61-2-4 61-61 2 4zm-180 180l-186 186 1-7 184-184c0 2 1 3 1 5z"/>
    <path class="fil166" d="M1976 679l-61 61-2-4 61-61 2 4zm-181 181l-188 188 1-7 186-186c0 2 1 3 1 5z"/>
    <path class="fil166" d="M1978 683l-61 61-2-4 61-61 2 4zm-181 181l-190 190 1-7 188-188c0 2 1 3 1 5zM1980 688l-61 61-2-4 61-61 2 4zm-182 182l-192 192 1-7 190-190c0 2 1 3 1 5z"/>
    <path class="fil166" d="M1981 692l-60 60-2-4 61-61 2 4zm-183 183l-194 194 1-7 192-192c0 2 1 3 1 5z"/>
    <path class="fil166" d="M1983 696l-60 60-2-4 60-60 2 4zm-184 184l-195 195 1-7 194-194c0 2 1 3 1 5zM1985 701l-60 60-2-4 60-60c1 1 1 3 2 4zm-185 185l-196 196 1-7 195-195c0 2 0 4 1 5z"/>
    <path class="fil166" d="M1986 705l-60 60-2-4 60-60 2 4zm-186 186l-197 197 1-7 196-196c0 2 0 4 1 5z"/>
    <path class="fil166" d="M1988 709l-59 59-2-4 60-60 2 4zm-187 187l-198 198 1-7 197-197v6z"/>
    <path class="fil166" d="M1989 714l-59 59-2-4 59-59c1 2 1 3 1 4zm-188 188l-199 199 1-7 198-198v6z"/>
    <path class="fil166" d="M1991 718l-58 58-2-4 59-59 1 5zm-190 190l-200 200 1-7 199-199v6z"/>
    <path class="fil166" d="M1992 723l-57 57-2-4 58-58c0 2 1 3 1 5zm-191 191l-200 200 1-7 200-200v6zM1993 728l-57 57-2-4 57-57 1 5zm-193 193l-200 200 1-6 200-200c0 2 0 4-1 6z"/>
    <path class="fil167" d="M1995 732l-56 56-2-4 57-57c0 2 1 3 1 5zm-195 195l-199 199v-6l200-200c0 2 0 4-1 7z"/>
    <path class="fil167" d="M1996 737l-55 55-2-4 56-56 1 5zm-197 197l-199 199v-6l199-199c0 2-1 5-1 7z"/>
    <path class="fil167" d="M1997 742l-54 54-2-4 55-55c0 2 1 3 1 5zm-200 200l-198 198v-6l199-199c0 2-1 5-1 7z"/>
    <path class="fil167" d="M1998 747l-54 54-2-4 54-54c0 2 1 3 1 5zm-202 202l-197 197v-6l198-198c0 2-1 5-1 7z"/>
    <path class="fil167" d="M1999 752l-53 53-2-4 54-54 1 5zm-205 205l-196 196v-6l197-197c-1 2-1 5-2 8z"/>
    <path class="fil167" d="M2000 757l-52 52-2-4 53-53c0 2 1 3 1 5zm-208 208l-195 195v-6l196-196c-1 3-1 5-2 8z"/>
    <path class="fil167" d="M2001 762l-51 51-2-4 52-52 1 5zm-211 211l-193 193v-6l195-195c-1 3-1 5-2 8z"/>
    <path class="fil167" d="M2002 767l-49 49-2-4 51-51 1 5zm-214 214l-192 192v-6l193-193-2 8z"/>
    <path class="fil167" d="M2003 772l-48 48-2-4 49-49 1 5zm-217 217l-190 190v-6l192-192-2 8z"/>
    <path class="fil168" d="M2004 777l-47 47-2-4 48-48 1 5zm-219 219l-188 188v-6l190-190-2 8z"/>
    <path class="fil168" d="M2005 782l-46 46-2-4 47-47 1 5zm-222 222l-186 186v-6l188-188-2 8z"/>
    <path class="fil168" d="M2005 788l-45 45-2-4 46-46 1 5zm-225 225l-185 185v-6l186-186-2 8z"/>
    <path class="fil168" d="M2006 793l-44 44-2-4 45-45 1 5zm-228 228l-183 183v-6l185-185-2 8z"/>
    <path class="fil168" d="M2007 798l-42 42-2-4 44-44 1 5zm-231 231l-181 181v-6l183-183-2 8z"/>
    <path class="fil168" d="M2008 803l-41 41-2-4 42-42 1 5zm-233 233l-180 180v-6l181-181-1 6v1z"/>
    <path class="fil168" d="M2008 809l-40 40-2-4 41-41 1 5zm-233 233l-181 181v-6l180-180 1 5z"/>
    <path class="fil168" d="M2009 814l-39 39-2-4 40-40 1 5zm-233 233l-182 182v-6l181-181 1 5z"/>
    <path class="fil168" d="M2010 819l-38 38-2-4 39-39 1 5zm-233 233l-183 183v-6l182-182 1 5z"/>
    <path class="fil168" d="M2011 824l-37 37-2-4 38-38 1 5zm-233 233l-185 185v-6l183-183 1 5z"/>
    <path class="fil168" d="M2011 830l-36 36-2-4 37-37 1 5zm-233 233l-186 186v-6l185-185 1 5z"/>
    <path class="fil168" d="M2012 835l-35 35-2-4 36-36 1 5zm-233 232l-187 187v-6l186-186 1 5zM2013 840l-34 34-2-4 35-35 1 5zm-232 232l-188 188v-6l187-187 1 5z"/>
    <path class="fil168" d="M2014 845l-33 33-2-4 34-34 1 5zm-233 233l-189 189v-6l188-188 1 5z"/>
    <path class="fil168" d="M2015 850l-32 32-2-4 33-33 1 5zm-233 233l-190 190v-6l189-189 1 5z"/>
    <path class="fil168" d="M2015 855l-31 31-2-4 32-32 1 5zm-233 233l-191 191v-6l190-190 1 5z"/>
    <path class="fil169" d="M2016 861l-30 30-2-4 31-31 1 5zm-233 233l-192 192v-6l191-191 1 5z"/>
    <path class="fil169" d="M2017 866l-29 29-2-4 30-30 1 5zm-233 233l-193 193v-6l192-192 1 5z"/>
    <path class="fil169" d="M2018 871l-29 29-2-4 29-29 1 5zm-233 233l-194 194v-6l193-193 1 5z"/>
    <path class="fil169" d="M2019 876l-28 28-2-4 29-29 1 5zm-233 233l-195 195v-7l194-194 1 5z"/>
    <path class="fil169" d="M2020 881l-27 27-2-4 28-28 1 5zm-233 233l-197 197c0-2 0-4 1-7l195-195 1 5z"/>
    <path class="fil169" d="M2021 886l-27 27-1-4 27-27 1 5zm-234 234l-198 198 1-7 197-197 1 5z"/>
    <path class="fil169" d="M2022 891l-26 26-1-5 27-27 1 4v1zm-234 234l-199 199 1-7 198-198 1 5z"/>
    <path class="fil169" d="M2023 896l-26 26c0-2-1-3-1-5l26-26c0 2 1 3 1 5zm-234 234l-201 201 1-7 199-199 1 5z"/>
    <path class="fil169" d="M2024 901l-26 26-1-5 26-26c0 2 1 3 1 5zm-235 235l-202 202c0-2 0-4 1-7l201-201 1 5z"/>
    <path class="fil169" d="M2026 905l-26 26c0-1 0-2-1-3l-1-2 26-26 1 5zm-235 235l-203 203v-6l202-202 1 5z"/>
    <path class="fil169" d="M2027 910l-26 26c0-2-1-3-1-5l26-26 1 5zm-236 236l-204 204v-6l203-203 1 5z"/>
    <path class="fil169" d="M2028 915l-27 27c0-2 0-3-1-5l26-26 1 5zm-237 237l-205 205v-6l204-204 1 5z"/>
    <path class="fil170" d="M2030 919l-28 28v-6l27-27 1 5zm-237 237l-206 206v-6l205-205 1 5z"/>
    <path class="fil170" d="M2031 924l-30 30c0-2 1-4 1-7l28-28 1 5zm-238 238l-207 207v-6l206-206 1 5z"/>
    <path class="fil170" d="M2032 929l-33 33c1-3 1-5 2-8l30-30c0 2 1 3 1 5zm-238 238l-207 207v-6l207-207 1 5z"/>
    <path class="fil170" d="M2033 934l-37 37 3-9 33-33 1 5zm-239 239l-207 207v-6l207-207 1 5z"/>
    <path class="fil170" d="M2034 938l-43 43c1-4 3-7 4-10l37-37c0 2 1 3 1 5zm-239 239l-208 208c0-2 0-4-1-5l207-207 1 5z"/>
    <path class="fil170" d="M2035 943l-47 47v-2c1-2 2-5 3-7l43-43c0 2 1 3 1 5zm-239 239l-208 207c0-2-1-3-1-5l208-208 1 5z"/>
    <path class="fil170" d="M2036 948l-49 49c0-3 0-5 1-7l47-47c0 2 1 3 1 5zm-240 240l-207 207c0-2-1-3-1-5l208-207 1 5z"/>
    <path class="fil170" d="M2037 953l-50 50v-6l49-49c0 2 1 3 1 5zm-240 240l-207 207c0-2-1-3-1-5l207-207 1 5zM2038 959l-51 51v-6l50-50c0 2 1 3 1 5zm-240 240l-206 206c-1-1-1-3-1-5l207-207 1 4v2z"/>
    <path class="fil170" d="M2039 964l-52 52v-6l51-51c0 2 1 3 1 5zm-240 240l-205 205c-1-1-1-3-2-4l206-206 1 5z"/>
    <path class="fil170" d="M2040 969l-52 52v-6l52-52 1 5zm-240 240l-204 204v-1c-1-1-1-2-2-3l205-205 1 5z"/>
    <path class="fil170" d="M2040 974l-53 53v-6l52-52c0 2 0 4 1 5zm-240 240l-204 204c0-2-1-3-1-5l204-204 1 5z"/>
    <path class="fil171" d="M2041 980l-53 53v-6l53-53 1 5zm-240 240l-80 80-1-2v3l-122 122c0-2-1-3-1-5l204-204 1 5z"/>
    <path class="fil171" d="M2042 985l-53 53c0-2 0-4-1-5l53-53c0 2 0 4 1 5zm-240 240l-79 79c-1-1-2-2-2-4l80-80 1 5zm-83 83l-120 120c0-2 0-4-1-5l122-122-1 7z"/>
    <path class="fil171" d="M2042 991l-53 53c0-2-1-3-1-5l53-53c0 2 0 4 1 5zm-239 239l-77 77c-1-1-1-3-2-4l79-79c0 2 1 3 1 5zm-85 85l-119 119c0-2 0-4-1-5l120-120-1 7z"/>
    <path class="fil171" d="M2043 996l-52 52c0-2-1-3-1-5l53-53v6zm-239 239l-76 76c-1-1-1-3-2-4l77-77 1 5zm-87 87l-118 118c0-2 0-4-1-5l119-119-1 7z"/>
    <path class="fil171" d="M2043 1002l-49 49-3-2v-1l52-52v6zm-238 238l-75 75-2-4 76-76c0 2 1 3 1 5zm-88 88l-117 117v-6l118-118-1 7z"/>
    <path class="fil171" d="M2043 1007l-46 46-4-2 49-49v6zm-237 237l-74 74-2-4 75-75c0 2 1 3 1 5zm-90 90l-116 116v-6l117-117-1 7z"/>
    <path class="fil171" d="M2044 1013l-43 43v-2l-3-2 46-46v6zm-236 236l-73 73-2-4 74-74c0 2 1 3 1 5zm-92 92l-115 115v-6l116-116-1 7z"/>
    <path class="fil171" d="M2044 1019l-46 46c1-3 2-6 2-8l43-43v6zm-235 235l-72 72-2-4 73-73 1 5zm-94 94l-114 114v-6l115-115-1 7z"/>
    <path class="fil171" d="M2043 1025l-47 47c1-3 2-6 2-8l46-46v6zm-234 234l-72 72-2-4 72-72c0 2 1 3 1 5zm-96 96l-113 113v-6l114-114-1 7zM2042 1033l-49 49 3-9 47-47c0 2-1 5-1 7zm-231 231l-71 71-2-4 72-72c0 2 1 3 1 5zm-98 98l-112 112v-6l113-113-1 7z"/>
    <path class="fil171" d="M2040 1040l-49 49v-2c1-2 2-4 2-6l49-49c-1 3-1 5-2 8zm-228 228l-71 71-2-4 71-71 1 5zm-100 100l-111 111v-6l112-112-1 7zM2038 1049l-45 45c-1-1-1-3-2-4l49-49c-1 3-2 6-2 8zm-224 224l-70 70-2-4 71-71c0 2 1 3 1 5zm-102 102l-110 110v-6l111-111-1 7z"/>
    <path class="fil172" d="M2035 1058l-39 39-3-3 45-45-3 9zm-219 219l-70 70-2-4 70-70c0 1 1 3 2 4zm-104 104l-110 110v-6l110-110-1 7z"/>
    <path class="fil172" d="M2031 1068l-32 32-3-3 39-39c-1 3-3 7-4 10zm-214 214l-69 69-2-4 70-70 2 4zm-107 107l-109 109v-6l110-110-1 7z"/>
    <path class="fil172" d="M2026 1079l-23 23c-1-1-2-1-4-2l32-32c-2 4-3 8-5 11zm-207 207l-69 69-2-4 69-69 2 4zm-109 109l-108 108v-6l109-109-1 7z"/>
    <path class="fil172" d="M2016 1094l-8 8c-1 1-2 1-4 2 0 0-1 0-3-1l23-23c-3 6-6 11-9 15zm-196 196l-69 69-2-4 69-69 2 4zm-111 111l-108 108v-6l108-108-1 7zM1822 1295l-69 69-2-4 69-69 2 4zm-114 114l-107 107v-6l108-108-1 7zm300-306l8-8c-3 4-5 6-8 8z"/>
    <path class="fil172" d="M1824 1299l-69 69-2-4 69-69 2 4zm-116 116l-106 106v-6l107-107-1 7z"/>
    <path class="fil172" d="M1825 1303l-69 69-2-4 69-69 2 4zm-118 118l-105 105v-6l106-106-1 7z"/>
    <path class="fil172" d="M1827 1307l-68 68-2-4 69-69 2 4zm-121 121l-105 105v-6l105-105-1 7z"/>
    <path class="fil172" d="M1829 1311l-68 68-2-4 68-68 2 4zm-123 123l-104 104v-6l105-105-1 7z"/>
    <path class="fil172" d="M1832 1314l-70 70-2-4 68-68 3 3zm-127 127l-103 103v-6l104-104-1 7zM1836 1317l-71 71-2-4 70-70 3 3zm-129 129l-104 104v-6l103-103v1l1 3z"/>
    <path class="fil172" d="M1839 1320l-72 72-2-4 71-71 3 3zm-131 131l-106 106v-6l104-104c1 1 1 3 2 4z"/>
    <path class="fil172" d="M1842 1323l-74 74v-1l-2-4 72-72 3 3zm-133 133l-108 108v-6l106-106 2 4z"/>
    <path class="fil172" d="M1845 1325l-75 75-2-4 74-74 3 3zm-134 134l-109 109v-6l108-108c1 1 1 3 2 4z"/>
    <path class="fil172" d="M1848 1328l-76 76-2-4 75-75 3 3zm-136 136l-111 111v-6l109-109c1 2 1 3 1 5z"/>
    <path class="fil172" d="M1851 1331l-77 77-2-4 76-76 3 3zm-137 137l-112 112v-6l111-111c0 2 1 3 1 5z"/>
    <path class="fil172" d="M1854 1334l-78 78-2-4 77-77 3 3zm-139 139l-113 113v-6l112-112c0 2 1 3 1 5z"/>
    <path class="fil173" d="M1857 1337l-79 79-2-4 78-78 3 3zm-141 141l-115 115v-6l113-113c0 2 1 3 1 5zM1860 1341l-80 80-2-4 79-79 3 3zm-142 142l-116 116v-6l115-115c0 2 1 3 1 5z"/>
    <path class="fil173" d="M1863 1344l-81 81-2-4 80-80 3 3zm-144 144l-117 117v-6l116-116c0 2 1 3 1 5z"/>
    <path class="fil173" d="M1865 1347l-82 82-2-4 81-81 3 3zm-146 146l-118 118v-6l117-117c0 2 1 3 1 5z"/>
    <path class="fil173" d="M1868 1350l-82 82-2-4 82-82 3 3zm-147 147l-119 119v-6l118-118c0 2 1 3 1 5zM1871 1354l-83 83-2-4 82-82 3 3zm-149 149l-119 119v-6l119-119c0 2 1 3 1 5z"/>
    <path class="fil173" d="M1873 1357l-83 83c-1-1-1-3-2-4l83-83 3 3zm-151 151l-120 120v-6l119-119c0 2 0 4 1 5zM1876 1361l-84 84c-1-1-1-3-2-4l83-83c1 1 2 2 2 4zm-153 153l-121 121v-6l120-120c0 2 0 4 1 5z"/>
    <path class="fil173" d="M1878 1364l-84 84c-1-1-1-3-2-4l84-84c1 1 2 2 2 4zm-155 155l-121 121v-6l121-121v6z"/>
    <path class="fil173" d="M1880 1368l-84 84c-1-1-2-2-2-4l84-84c1 1 2 2 2 4zm-157 157l-121 121v-6l121-121v6zM1883 1372l-84 84c-1-1-2-2-2-4l84-84c1 1 2 2 2 4zm-159 159l-122 122v-6l121-121v6z"/>
    <path class="fil173" d="M1885 1376l-84 84c-1-1-2-2-2-4l84-84c1 1 1 3 2 4zm-161 161l-122 122v-6l122-122v6z"/>
    <path class="fil174" d="M1887 1380l-83 83c-1-1-2-2-2-4l84-84c1 1 1 3 2 4zm-163 163l-122 122v-6l122-122v6z"/>
    <path class="fil174" d="M1889 1384l-83 83-3-3 83-83c1 1 1 3 2 4zm-166 166l-121 121v-6l122-122v6z"/>
    <path class="fil174" d="M1891 1388l-82 82-3-3 83-83c1 1 1 3 2 4zm-168 168l-121 121v-6l121-121v6z"/>
    <path class="fil174" d="M1893 1392l-81 81-3-3 82-82c1 1 1 3 2 4zm-170 170l-120 120v-6l121-121c0 2 0 4-1 7z"/>
    <path class="fil174" d="M1894 1396l-80 80-3-3 81-81c1 1 1 3 2 4zm-173 173l-119 119v-6l120-120c0 2 0 4-1 7zM1896 1401l-79 79-3-3 80-80c1 1 1 3 2 4zm-175 175l-119 119v-6l119-119c0 2-1 5-1 7z"/>
    <path class="fil174" d="M1897 1405l-77 77-3-3 79-79v1l1 4zm-178 178l-118 118v-6l119-119c0 2-1 4-1 6v1z"/>
    <path class="fil174" d="M1899 1409l-76 76-3-3 77-77 2 4zm-180 180l-116 116v-6l118-118c0 2-1 5-1 7z"/>
    <path class="fil174" d="M1900 1414l-75 75-3-3 76-76 2 4zm-183 183l-115 115v-6l116-116c0 2-1 5-1 7z"/>
    <path class="fil174" d="M1902 1418l-73 73-3-3 75-75 2 4zm-186 186l-113 113v-6l115-115c0 3-1 5-1 7zM1904 1423l-72 72-3-3 73-73 2 4zm-189 189l-112 112v-6l113-113c-1 3-1 5-2 8z"/>
    <path class="fil174" d="M1905 1427l-70 70-3-3 72-72 2 4zm-193 193l-110 110v-6l112-112c-1 3-1 5-2 8z"/>
    <path class="fil175" d="M1907 1432l-69 69-3-3 70-70 2 4zm-196 196l-108 108v-6l110-110c-1 3-1 5-2 8z"/>
    <path class="fil175" d="M1908 1436l-68 68-3-3 69-69 2 4zm-200 200l-107 107 1-4v-3l108-108c-1 3-1 5-2 8zM1910 1440l-66 66-3-3 68-68 2 4zm-204 204l-106 106 2-7 107-107c-1 3-1 5-2 8zM1912 1445l-65 65-1-1-2-2 66-66 2 4zm-208 208l-105 105 1-7 106-106c-1 3-2 6-2 8z"/>
    <path class="fil175" d="M1914 1449l-64 64-3-3 65-65c1 1 1 3 2 4zm-212 212l-104 104 1-7 105-105-2 8z"/>
    <path class="fil175" d="M1915 1453l-63 63-3-3 64-64c1 1 1 3 2 4zm-217 217l-103 103 2-7 104-104-3 9z"/>
    <path class="fil175" d="M1917 1457l-62 62-3-3 63-63c1 1 1 3 2 4zm-221 221l-102 102 2-8 103-103-3 9z"/>
    <path class="fil175" d="M1919 1461l-61 61-3-3 62-62c1 1 1 3 2 4zm-226 226l-101 101 1-7 102-102-3 9zM1921 1465l-60 60-3-3 61-61c1 1 1 3 2 4zm-230 230l-100 100 2-7 101-101-3 9z"/>
    <path class="fil175" d="M1923 1469l-59 59-3-3 60-60c1 1 1 3 2 4zm-235 235l-99 99 1-7 100-100-3 9zM1926 1473l-59 59-3-3 59-59 2 4zm-240 240l-98 98 2-7 99-99-2 8z"/>
    <path class="fil175" d="M1928 1476l-58 58-3-3 59-59 2 4zm-244 244l-97 97 1-7 98-98-2 8z"/>
    <path class="fil176" d="M1930 1480l-58 58-3-3 58-58 2 4zm-249 249l-96 96 2-7 97-97c-1 3-2 6-2 8z"/>
    <path class="fil176" d="M1932 1484l-57 57-3-3 58-58 2 4zm-253 253l-95 95 2-8 96-96c-1 3-1 5-2 8z"/>
    <path class="fil176" d="M1934 1488l-57 57-3-3 57-57 2 4zm-257 257l-95 95 1-7 95-95c-1 3-1 5-2 8z"/>
    <path class="fil176" d="M1937 1491l-56 56-3-3 57-57 2 4zm-262 262l-95 95 1-7 95-95c-1 3-1 5-2 8z"/>
    <path class="fil176" d="M1939 1495l-56 56-3-3 56-56 2 4zm-266 266l-95 95c1-2 1-4 2-6v-2l95-95c-1 3-1 5-2 8z"/>
    <path class="fil176" d="M1941 1499l-56 56c-1-1-2-2-3-4l56-56 2 4zm-269 269l-97 97c2-3 3-7 4-10l95-95c-1 3-1 5-2 8z"/>
    <path class="fil176" d="M1943 1503l-56 56c-1-1-2-2-2-4l56-56 2 4zm-273 273l-102 102c2-4 5-8 6-12l97-97c0 2-1 5-1 7zm-186 186l-16 16c2-5 9-11 16-16z"/>
    <path class="fil176" d="M1946 1506l-55 55c-1-1-2-2-2-4l56-56 2 4zm-277 277l-111 111c4-5 7-11 10-16l102-102c0 2-1 5-1 7zm-170 170l-30 30c-1-1-1-2-1-3s0-2 1-3l16-16c5-4 11-7 15-9z"/>
    <path class="fil176" d="M1948 1510l-55 55-1-2-1-2 55-55 2 4zm-280 280l-132 132c8-9 15-18 22-28l111-111c0 2-1 5-1 7zm-148 148l-49 49-3-3 30-30 2-1c6-3 13-8 20-14z"/>
    <path class="fil176" d="M1950 1514l-55 55-2-4 55-55 2 4zm-283 283l-192 192-3-3 49-49c5-5 11-10 16-16l132-132c0 2-1 5-1 7zM1953 1518l-55 55-2-4 55-55 2 4zm-286 286l-188 188c-1-1-3-2-4-2l192-192c0 2-1 5-1 7z"/>
    <path class="fil176" d="M1955 1521l-55 55-2-4 55-55 2 4zm-289 289l-183 183c-1-1-3-1-4-2l188-188v6z"/>
    <path class="fil177" d="M1957 1525l-55 55-2-4 55-55 2 4zm-292 292l-179 179c-1-1-3-1-4-2l183-183v6z"/>
    <path class="fil177" d="M1959 1529l-56 56c-1-1-1-3-2-4l55-55c1 1 1 2 2 3zm-294 294l-175 175c-1-1-3-1-4-2l179-179v6z"/>
    <path class="fil177" d="M1962 1532l-56 56-2-4 56-56 3 3zm-295 295l-171 171c-1-1-3-1-4-2l175-175c0 2 0 4 1 5zM1965 1536l-57 57c-1-1-1-3-2-4l56-56 3 3zm-297 297l-168 168c-2-1-3-1-4-2l171-171c0 2 1 3 1 5z"/>
    <path class="fil177" d="M1499 2001l168-168c6 34 27 62-2 90-23 22-39 39-58 69-17 26-72 21-107 9zm408-408l57-57c10 11 23 19 37 23 57 17 5 66-13 98-28 50-19 88-92 88-21 0-14-17-15-18 22-19 29-17 46-47 1-32-7-60-20-87z"/>
  </g>
</svg>
