<?xml version="1.0" encoding="utf-8"?>
<svg id="svg2" width="358" height="90.708664" viewBox="21 21 381 48" xmlns="http://www.w3.org/2000/svg">
  <g transform="matrix(1.3333333,0,0,-1.3333333,0,90.708667)" id="g10">
    <g id="g12">
      <g clip-path="url(#clipPath18)" id="g14">
        <g transform="translate(185.6285,18.9201)" id="g20">
          <path id="path22" style="fill:#36aee8;fill-opacity:1;fill-rule:nonzero;stroke:none" d="m 0,0 c 1.784,1.327 2.726,3.232 2.726,5.51 0,2.301 -0.877,4.023 -2.683,5.264 -1.582,1.088 -3.659,1.662 -5.491,2.168 -2.635,0.729 -4.911,1.358 -4.911,3.245 0,1.354 1.136,2.72 3.675,2.72 1.668,0 3.093,-0.641 4.014,-1.805 0.25,-0.316 0.63,-0.498 1.042,-0.498 0.23,0 0.459,0.059 0.662,0.171 l 3.147,1.732 c -1.714,3.151 -4.939,4.956 -8.865,4.956 -2.44,0 -4.664,-0.705 -6.26,-1.986 -1.678,-1.345 -2.565,-3.208 -2.565,-5.388 0,-2.22 0.869,-3.892 2.658,-5.114 1.57,-1.071 3.636,-1.656 5.459,-2.171 2.666,-0.754 4.968,-1.405 4.968,-3.294 0,-1.775 -1.526,-2.793 -4.187,-2.793 -2.685,0 -4.666,1.245 -5.454,3.423 l -4.364,-2.468 c 1.625,-3.55 5.198,-5.584 9.818,-5.584 2.605,0 4.953,0.679 6.611,1.912 m 26.918,10.775 c 0,4.478 -3.282,7.705 -7.626,7.705 -4.344,0 -7.626,-3.227 -7.626,-7.705 0,-4.478 3.282,-7.704 7.626,-7.704 4.344,0 7.626,3.226 7.626,7.704 m 5.212,0 c 0,-7.15 -5.405,-12.687 -11.993,-12.687 -3.813,0 -6.637,1.564 -8.471,4.141 v -3.01 c 0,-0.399 -1.167,-0.722 -2.606,-0.722 -1.44,0 -2.606,0.323 -2.606,0.722 v 29.129 c 0,2.074 1.685,3.756 3.764,3.756 h 1.448 V 19.322 c 1.834,2.576 4.658,4.141 8.471,4.141 6.588,0 11.993,-5.537 11.993,-12.688 m 46.294,12.688 c -3.306,0 -5.888,-1.227 -7.506,-3.731 v 3.081 h -3.764 c -0.8,0 -1.448,-0.647 -1.448,-1.444 v -22.15 c 0,-0.399 1.167,-0.722 2.606,-0.722 1.439,0 2.606,0.323 2.606,0.722 v 12.399 c 0,4.936 2.703,6.958 6.154,6.958 3.258,0 5.381,-1.95 5.381,-5.561 V -0.781 h 10e-4 c 0,-0.399 1.167,-0.722 2.606,-0.722 1.439,0 2.606,0.323 2.606,0.722 V 13.52 c 0,6.284 -3.861,9.943 -9.242,9.943 M -49.55,28.348 V -0.781 c 0,-0.399 1.167,-0.722 2.606,-0.722 1.44,0 2.606,0.323 2.606,0.722 v 32.885 h -1.447 c -2.079,0 -3.765,-1.682 -3.765,-3.756 m 21.885,-17.308 10.619,11.773 h -4.893 c -0.97,0 -1.894,-0.417 -2.535,-1.144 l -8.25,-9.353 c -0.643,-0.729 -0.642,-1.821 0.004,-2.548 l 8.777,-9.894 c 0.524,-0.59 1.947,-1.377 4.131,-1.377 0.79,0 1.497,0.094 1.986,0.241 0.553,0.166 0.75,0.408 0.666,0.502 -2.626,2.95 -10.505,11.8 -10.505,11.8 m -7.673,21.064 h 1.448 V -0.781 c 0,-0.399 -1.168,-0.722 -2.607,-0.722 -1.439,0 -2.606,0.323 -2.606,0.722 v 29.129 c 0,2.074 1.685,3.756 3.765,3.756 M 104.226,11.04 114.844,22.813 h -4.892 c -0.971,0 -1.895,-0.417 -2.536,-1.144 l -8.25,-9.353 C 98.523,11.587 98.525,10.495 99.17,9.768 l 8.777,-9.894 c 0.524,-0.59 1.947,-1.377 4.131,-1.377 0.79,0 1.497,0.094 1.986,0.241 0.553,0.166 0.75,0.408 0.666,0.502 -2.626,2.95 -10.504,11.8 -10.504,11.8 M 96.552,32.104 H 98 V -0.781 c 0,-0.399 -1.167,-0.722 -2.607,-0.722 -1.439,0 -2.606,0.323 -2.606,0.722 v 29.129 c 0,2.074 1.686,3.756 3.765,3.756 M -148.156,10.775 c 0,4.478 -3.282,7.705 -7.626,7.705 -4.344,0 -7.626,-3.227 -7.626,-7.705 0,-4.478 3.282,-7.704 7.626,-7.704 4.344,0 7.626,3.226 7.626,7.704 m 3.764,21.329 h 1.448 V -0.781 c 0,-0.399 -1.167,-0.722 -2.606,-0.722 -1.44,0 -2.606,0.323 -2.606,0.722 v 3.01 c -1.835,-2.577 -4.658,-4.141 -8.471,-4.141 -6.588,0 -11.994,5.537 -11.994,12.687 0,7.151 5.406,12.688 11.994,12.688 3.813,0 6.636,-1.565 8.471,-4.141 v 9.026 c 0,2.074 1.685,3.756 3.764,3.756 m 85.549,-21.329 c 0,4.382 -3.281,7.608 -7.553,7.608 -4.223,0 -7.505,-3.226 -7.505,-7.608 0,-4.381 3.282,-7.608 7.505,-7.608 4.272,0 7.553,3.227 7.553,7.608 m 5.213,0 c 0,-7.15 -5.695,-12.687 -12.766,-12.687 -7.071,0 -12.718,5.537 -12.718,12.687 0,7.151 5.647,12.688 12.718,12.688 7.071,0 12.766,-5.537 12.766,-12.688 m 108.889,0 c 0,4.478 -3.282,7.705 -7.65,7.705 -4.32,0 -7.602,-3.227 -7.602,-7.705 0,-4.478 3.282,-7.704 7.602,-7.704 4.368,0 7.65,3.226 7.65,7.704 m 1.448,12.038 h 3.765 V -0.781 h -0.001 c 0,-0.399 -1.167,-0.722 -2.606,-0.722 -1.44,0 -2.606,0.323 -2.606,0.722 v 3.01 c -1.834,-2.553 -4.682,-4.141 -8.495,-4.141 -6.564,0 -11.969,5.537 -11.969,12.687 0,7.151 5.405,12.688 11.969,12.688 3.813,0 6.661,-1.589 8.495,-4.141 v 2.047 c 0,0.797 0.648,1.444 1.448,1.444 M -97.705,20.604 c -0.488,1.327 -1.755,2.209 -3.171,2.209 h -4.897 c 1.039,0 2.296,-1.904 3.013,-3.735 1.9,-4.856 5.699,-14.566 7.599,-19.421 0.217,-0.554 0.752,-0.919 1.349,-0.919 h 4.03 c 0.596,0 1.239,0.383 1.349,0.919 2.743,13.384 8.662,24.469 16.598,26.22 -5.164,0.423 -9.313,-1.132 -12.273,-4.003 -2.798,-2.712 -4.817,-6.295 -8.16,-16.041 0,0 -4.078,11.079 -5.437,14.771 m -21.713,-7.83 c -0.748,4.117 -3.765,5.922 -6.878,5.922 -3.933,0 -6.636,-2.287 -7.336,-5.922 z m -14.166,-4.237 c 0.845,-3.756 3.847,-5.658 7.594,-5.658 2.191,0 4.149,0.744 5.375,1.844 h 5.909 c -0.78,-2.282 -4.312,-6.635 -11.203,-6.635 -7.94,0 -13.081,5.489 -13.081,12.687 0,7.151 5.141,12.688 12.694,12.688 6.208,0 12.106,-4.706 12.106,-12.712 0,-0.217 0,-0.652 0,-0.87 0,-0.759 -0.68,-1.344 -1.441,-1.344 z"/>
        </g>
      </g>
    </g>
  </g>
</svg>